<?xml version="1.0" encoding="UTF-8" standalone="no"?>
<svg xmlns:ffdec="https://www.free-decompiler.com/flash" xmlns:xlink="http://www.w3.org/1999/xlink" ffdec:objectType="shape" height="47.9px" width="47.9px" xmlns="http://www.w3.org/2000/svg">
  <g transform="matrix(1.0, 0.0, 0.0, 1.0, 23.95, 23.95)">
    <path d="M16.9 -16.95 Q23.95 -9.9 23.95 0.0 23.95 9.9 16.9 16.9 9.9 23.95 0.0 23.95 -9.9 23.95 -16.95 16.9 -23.95 9.9 -23.95 0.0 -23.95 -9.9 -16.95 -16.95 -9.9 -23.95 0.0 -23.95 9.9 -23.95 16.9 -16.95 M13.35 -13.4 Q7.85 -18.95 0.0 -18.95 -7.85 -18.95 -13.4 -13.4 -18.95 -7.85 -18.95 0.0 -18.95 7.85 -13.4 13.35 -7.85 18.95 0.0 18.95 7.85 18.95 13.35 13.35 18.95 7.85 18.95 0.0 18.95 -7.85 13.35 -13.4" fill="#ffffff" fill-opacity="0.047058824" fill-rule="evenodd" stroke="none"/>
  </g>
</svg>
