<?xml version="1.0" encoding="UTF-8" standalone="no"?>
<svg xmlns:ffdec="https://www.free-decompiler.com/flash" xmlns:xlink="http://www.w3.org/1999/xlink" ffdec:objectType="shape" height="18.4px" width="18.4px" xmlns="http://www.w3.org/2000/svg">
  <g transform="matrix(1.0, 0.0, 0.0, 1.0, 7.7, 9.4)">
    <path d="M6.55 0.95 L7.2 1.1 9.2 1.55 9.5 3.55 9.7 3.55 9.8 4.1 9.95 4.55 10.2 6.0 10.05 6.55 8.7 7.1 8.2 7.3 7.8 7.45 6.3 7.8 6.1 7.8 6.05 7.8 4.8 8.0 2.9 8.15 1.35 8.3 1.2 8.3 0.55 8.4 0.35 8.4 -0.85 8.5 -1.3 8.5 -2.0 8.4 -2.2 8.4 -2.55 8.4 -2.65 8.4 -3.95 8.25 -4.25 8.2 -4.45 8.15 -5.5 8.0 -5.85 7.9 -6.55 7.75 Q-7.85 3.55 -6.5 -1.35 L-6.5 -1.5 -6.25 -4.9 -5.95 -8.9 2.35 -6.9 2.25 -4.3 2.15 -1.65 2.15 -0.6 2.25 -0.55 3.7 0.0 4.6 0.3 6.45 0.9 6.55 0.95 M-6.25 -4.9 L2.25 -4.3 -6.25 -4.9 M-0.75 -1.6 L-2.65 8.4 -0.75 -1.6 -3.6 -1.55 -6.5 -1.5 -3.6 -1.55 -0.75 -1.6 2.15 -1.65 -0.75 -1.6 M-3.6 -1.55 L-5.85 7.9 -3.6 -1.55 M0.35 8.4 L2.25 -0.55 0.35 8.4 M7.2 1.1 L6.05 7.8 7.2 1.1 M2.9 8.15 L4.6 0.3 2.9 8.15" fill="#ffffff" fill-rule="evenodd" stroke="none"/>
    <path d="M6.55 0.95 L7.2 1.1 9.2 1.55 9.5 3.55 9.7 3.55 9.8 4.1 9.95 4.55 10.2 6.0 10.05 6.55 8.7 7.1 8.2 7.3 7.8 7.45 6.3 7.8 6.1 7.8 6.05 7.8 4.8 8.0 2.9 8.15 1.35 8.3 1.2 8.3 0.55 8.4 0.35 8.4 -0.85 8.5 -1.3 8.5 -2.0 8.4 -2.2 8.4 -2.55 8.4 -2.65 8.4 -3.95 8.25 -4.25 8.2 -4.45 8.15 -5.5 8.0 -5.85 7.9 -6.55 7.75 Q-7.85 3.55 -6.5 -1.35 L-6.5 -1.5 -6.25 -4.9 -5.95 -8.9 2.35 -6.9 2.25 -4.3 2.15 -1.65 2.15 -0.6 2.25 -0.55 3.7 0.0 4.6 0.3 6.45 0.9" fill="none" stroke="#000000" stroke-linecap="round" stroke-linejoin="round" stroke-width="1.0"/>
    <path d="M4.6 0.3 L2.9 8.15 M6.05 7.8 L7.2 1.1 M2.25 -0.55 L0.35 8.4 M-6.5 -1.5 L-3.6 -1.55 -0.75 -1.6 2.15 -1.65 M-5.85 7.9 L-3.6 -1.55 M-2.65 8.4 L-0.75 -1.6 M2.25 -4.3 L-6.25 -4.9" fill="none" stroke="#666666" stroke-linecap="round" stroke-linejoin="round" stroke-width="1.0"/>
  </g>
</svg>
