<?xml version="1.0" encoding="UTF-8" standalone="no"?>
<svg xmlns:ffdec="https://www.free-decompiler.com/flash" xmlns:xlink="http://www.w3.org/1999/xlink" ffdec:objectType="shape" height="56.0px" width="56.0px" xmlns="http://www.w3.org/2000/svg">
  <g transform="matrix(1.0, 0.0, 0.0, 1.0, 28.0, 28.0)">
    <path d="M15.7 -15.6 L22.7 -16.45 19.7 -10.0 26.6 -8.7 21.85 -3.45 28.0 0.0 21.85 3.4 26.6 8.6 19.7 10.0 22.7 16.45 15.7 15.6 16.45 22.6 10.05 19.7 8.7 26.6 3.4 21.85 0.0 28.0 -3.45 21.85 -8.7 26.6 -10.05 19.7 -16.45 22.6 -15.65 15.6 -22.7 16.45 -19.7 10.0 -26.6 8.6 -21.85 3.4 -28.0 0.0 -21.85 -3.45 -26.6 -8.7 -19.7 -10.0 -22.7 -16.45 -15.65 -15.6 -16.45 -22.7 -10.05 -19.7 -8.7 -26.6 -3.45 -21.85 0.0 -28.0 3.4 -21.85 8.7 -26.6 10.05 -19.7 16.45 -22.7 15.7 -15.6" fill="#55e258" fill-rule="evenodd" stroke="none"/>
    <path d="M14.7 -20.25 L14.0 -13.95 20.25 -14.7 17.6 -8.95 23.75 -7.75 19.5 -3.1 25.0 0.0 19.5 3.05 23.75 7.7 17.6 8.95 20.25 14.7 14.0 13.95 14.7 20.2 8.95 17.6 7.75 23.75 3.05 19.5 0.0 25.0 -3.1 19.5 -7.75 23.75 -8.95 17.6 -14.7 20.2 -13.95 13.95 -20.25 14.7 -17.6 8.95 -23.75 7.7 -19.5 3.05 -25.0 0.0 -19.5 -3.1 -23.75 -7.75 -17.6 -8.95 -20.25 -14.7 -13.95 -13.95 -14.7 -20.25 -8.95 -17.6 -7.75 -23.75 -3.1 -19.5 0.0 -25.0 3.05 -19.5 7.75 -23.75 8.95 -17.6 14.7 -20.25" fill="url(#gradient0)" fill-rule="evenodd" stroke="none"/>
  </g>
  <defs>
    <radialGradient cx="0" cy="0" gradientTransform="matrix(0.0305, 0.0, 0.0, 0.0305, 0.0, 0.0)" gradientUnits="userSpaceOnUse" id="gradient0" r="819.2" spreadMethod="pad">
      <stop offset="0.0" stop-color="#00c907"/>
      <stop offset="1.0" stop-color="#054800"/>
    </radialGradient>
  </defs>
</svg>
