<?xml version="1.0" encoding="UTF-8" standalone="no"?>
<svg xmlns:ffdec="https://www.free-decompiler.com/flash" xmlns:xlink="http://www.w3.org/1999/xlink" ffdec:objectType="shape" height="123.25px" width="81.0px" xmlns="http://www.w3.org/2000/svg">
  <g transform="matrix(1.0, 0.0, 0.0, 1.0, 0.5, 2.0)">
    <path d="M20.5 0.0 L40.0 0.0 60.0 0.0 78.4 0.0 M78.4 20.0 L60.0 20.0 60.0 40.0 78.4 40.0 M40.0 0.0 L40.0 20.0 60.0 20.0 60.0 0.0 M8.85 20.0 L20.0 20.0 20.0 0.3 M7.3 40.0 L20.0 40.0 20.0 20.0 40.0 20.0 40.0 40.0 60.0 40.0 60.0 60.0 78.4 60.0 M20.0 40.0 L40.0 40.0 40.0 60.0 60.0 60.0 60.0 80.0 78.4 80.0 M20.0 80.0 L20.0 100.0 40.0 100.0 40.0 80.0 20.0 80.0 20.0 60.0 5.75 60.0 M20.0 40.0 L20.0 60.0 40.0 60.0 40.0 80.0 60.0 80.0 60.0 100.0 78.4 100.0 M4.2 80.0 L20.0 80.0 M60.0 100.0 L40.0 100.0 40.0 120.0 60.0 120.0 60.0 100.0 M78.4 120.0 L60.0 120.0 M1.1 120.0 L20.0 120.0 20.0 100.0 2.65 100.0 M40.0 120.0 L20.0 120.0" fill="none" stroke="#ffffff" stroke-linecap="round" stroke-linejoin="round" stroke-width="1.0"/>
    <path d="M76.85 -1.5 L76.85 120.75 74.5 120.75 74.5 5.0 74.5 3.0 74.5 0.0 74.5 -1.5 76.85 -1.5" fill="#cccccc" fill-rule="evenodd" stroke="none"/>
    <path d="M74.5 3.0 L74.0 3.0 21.7 3.0 19.25 2.9 Q16.7 2.9 14.9 4.7 13.1 6.5 13.1 9.05 L13.1 9.1 3.4 120.75 0.0 120.75 9.35 10.0 9.3 9.3 Q9.3 5.45 12.0 2.7 14.7 0.0 18.6 0.0 L20.0 0.0 74.5 0.0 74.5 3.0" fill="#999999" fill-rule="evenodd" stroke="none"/>
    <path d="M76.85 -1.5 L80.0 -1.5 80.0 120.75 76.85 120.75 76.85 -1.5" fill="#ffffff" fill-rule="evenodd" stroke="none"/>
    <path d="M76.85 120.75 L80.0 120.75 80.0 -1.5 76.85 -1.5 74.5 -1.5 74.5 0.0 74.5 3.0 74.5 5.0 74.5 120.75 76.85 120.75 M74.0 3.0 L21.7 3.0 19.25 2.9 Q16.7 2.9 14.9 4.7 13.1 6.5 13.1 9.05 L13.1 9.1 3.4 120.75 0.0 120.75 9.35 10.0 9.3 9.3 Q9.3 5.45 12.0 2.7 14.7 0.0 18.6 0.0 L20.0 0.0 74.5 0.0" fill="none" stroke="#000000" stroke-linecap="round" stroke-linejoin="round" stroke-width="1.0"/>
  </g>
</svg>
