<?xml version="1.0" encoding="UTF-8" standalone="no"?>
<svg xmlns:ffdec="https://www.free-decompiler.com/flash" xmlns:xlink="http://www.w3.org/1999/xlink" ffdec:objectType="shape" height="163.5px" width="81.0px" xmlns="http://www.w3.org/2000/svg">
  <g transform="matrix(1.0, 0.0, 0.0, 1.0, 0.5, 42.0)">
    <path d="M20.0 -38.9 L20.0 -20.0 40.0 -20.0 40.0 -40.0 25.0 -40.0 M11.3 -20.0 L20.0 -20.0 20.0 0.0 40.0 0.0 40.0 -20.0 60.0 -20.0 60.0 -40.0 40.0 -40.0 M60.0 -40.0 L78.95 -40.0 M78.95 -20.0 L60.0 -20.0 60.0 0.0 78.95 0.0 M78.95 40.0 L60.0 40.0 60.0 60.0 78.95 60.0 M60.0 0.0 L60.0 20.0 78.95 20.0 M60.0 20.0 L60.0 40.0 40.0 40.0 40.0 60.0 60.0 60.0 60.0 80.0 78.95 80.0 M60.0 0.0 L40.0 0.0 40.0 20.0 60.0 20.0 M8.6 20.0 L20.0 20.0 20.0 0.0 9.95 0.0 M7.25 40.0 L20.0 40.0 20.0 20.0 40.0 20.0 40.0 40.0 20.0 40.0 20.0 60.0 40.0 60.0 40.0 80.0 60.0 80.0 60.0 100.0 78.95 100.0 M4.55 80.0 L20.0 80.0 20.0 60.0 5.9 60.0 M20.0 80.0 L40.0 80.0 40.0 100.0 60.0 100.0 60.0 120.0 78.95 120.0 M1.85 120.0 L20.0 120.0 20.0 100.0 3.2 100.0 M60.0 120.0 L40.0 120.0 20.0 120.0 M40.0 120.0 L40.0 100.0 20.0 100.0 20.0 80.0" fill="none" stroke="#ffffff" stroke-linecap="round" stroke-linejoin="round" stroke-width="1.0"/>
    <path d="M74.5 -40.0 L74.5 -41.5 76.85 -41.5 76.85 121.0 74.5 121.0 74.5 -35.0 74.5 -37.0 74.5 -40.0" fill="#cccccc" fill-rule="evenodd" stroke="none"/>
    <path d="M74.0 -37.0 L21.7 -37.0 19.25 -37.1 Q16.7 -37.1 14.9 -35.3 13.1 -33.5 13.1 -30.95 L13.1 -30.9 3.4 121.0 1.8 121.0 0.0 121.0 9.35 -30.0 9.3 -30.7 Q9.3 -34.4 11.8 -37.1 L12.0 -37.3 12.5 -37.75 Q15.05 -40.0 18.6 -40.0 L20.0 -40.0 74.5 -40.0 74.5 -37.0 74.0 -37.0" fill="#999999" fill-rule="evenodd" stroke="none"/>
    <path d="M76.85 -41.5 L80.0 -41.5 80.0 121.0 76.85 121.0 76.85 -41.5" fill="#ffffff" fill-rule="evenodd" stroke="none"/>
    <path d="M74.0 -37.0 L21.7 -37.0 19.25 -37.1 Q16.7 -37.1 14.9 -35.3 13.1 -33.5 13.1 -30.95 L13.1 -30.9 3.4 121.0 1.8 121.0 0.0 121.0 9.35 -30.0 9.3 -30.7 Q9.3 -34.4 11.8 -37.1 L12.0 -37.3 12.5 -37.75 Q15.05 -40.0 18.6 -40.0 L20.0 -40.0 74.5 -40.0 74.5 -41.5 76.85 -41.5 80.0 -41.5 80.0 121.0 76.85 121.0 74.5 121.0 74.5 -35.0 74.5 -37.0 74.5 -40.0" fill="none" stroke="#000000" stroke-linecap="round" stroke-linejoin="round" stroke-width="1.0"/>
  </g>
</svg>
