<?xml version="1.0" encoding="UTF-8" standalone="no"?>
<svg xmlns:ffdec="https://www.free-decompiler.com/flash" xmlns:xlink="http://www.w3.org/1999/xlink" ffdec:objectType="shape" height="84.0px" width="79.5px" xmlns="http://www.w3.org/2000/svg">
  <g transform="matrix(1.0, 0.0, 0.0, 1.0, -1.0, -37.5)">
    <path d="M78.4 40.0 L60.0 40.0 60.0 60.0 78.4 60.0 M10.2 60.0 L20.0 60.0 20.0 40.0 17.85 40.0 M20.0 60.0 L40.0 60.0 40.0 40.0 20.0 40.0 M40.0 80.0 L60.0 80.0 60.0 60.0 40.0 60.0 40.0 80.0 40.0 100.0 60.0 100.0 60.0 80.0 78.4 80.0 M8.15 80.0 L20.0 80.0 20.0 60.0 M20.0 80.0 L40.0 80.0 M60.0 40.0 L40.0 40.0 M60.0 100.0 L78.4 100.0 M40.0 100.0 L40.0 120.0 60.0 120.0 60.0 100.0 M78.4 120.0 L60.0 120.0 M40.0 120.0 L20.0 120.0 4.1 120.0 M20.0 120.0 L20.0 100.0 6.15 100.0 M40.0 100.0 L20.0 100.0 20.0 80.0" fill="none" stroke="#ffffff" stroke-linecap="round" stroke-linejoin="round" stroke-width="1.0"/>
    <path d="M74.5 42.5 L74.5 39.5 74.5 38.0 76.85 38.0 76.85 121.0 74.5 121.0 74.5 44.5 74.5 42.5" fill="#cccccc" fill-rule="evenodd" stroke="none"/>
    <path d="M44.0 42.45 L45.4 42.45 44.0 42.45 19.25 42.4 Q16.7 42.4 14.9 44.2 13.1 46.0 13.1 48.55 L13.1 48.6 4.9 121.0 1.5 121.0 9.35 49.5 9.3 48.8 Q9.3 44.9 12.0 42.2 14.7 39.5 18.6 39.5 L44.0 39.5 54.0 39.5 74.5 39.5 74.5 42.5 74.0 42.5 45.4 42.45 44.0 42.45" fill="#999999" fill-rule="evenodd" stroke="none"/>
    <path d="M76.85 38.0 L80.0 38.0 80.0 121.0 76.85 121.0 76.85 38.0" fill="#ffffff" fill-rule="evenodd" stroke="none"/>
    <path d="M45.4 42.45 L44.0 42.45 45.4 42.45 74.0 42.5 M74.5 42.5 L74.5 39.5 54.0 39.5 44.0 39.5 18.6 39.5 Q14.7 39.5 12.0 42.2 9.3 44.9 9.3 48.8 L9.35 49.5 1.5 121.0 4.9 121.0 13.1 48.6 13.1 48.55 Q13.1 46.0 14.9 44.2 16.7 42.4 19.25 42.4 L44.0 42.45 M76.85 38.0 L80.0 38.0 80.0 121.0 76.85 121.0 74.5 121.0 74.5 44.5 74.5 42.5 M74.5 39.5 L74.5 38.0 76.85 38.0" fill="none" stroke="#000000" stroke-linecap="round" stroke-linejoin="round" stroke-width="1.0"/>
  </g>
</svg>
