<?xml version="1.0" encoding="UTF-8" standalone="no"?>
<svg xmlns:ffdec="https://www.free-decompiler.com/flash" xmlns:xlink="http://www.w3.org/1999/xlink" ffdec:objectType="shape" height="24.6px" width="17.0px" xmlns="http://www.w3.org/2000/svg">
  <g transform="matrix(1.0, 0.0, 0.0, 1.0, 8.5, 12.05)">
    <path d="M0.8 -7.15 L0.15 -7.15 Q-0.9 -7.15 -0.9 -7.8 -0.9 -8.15 -0.25 -8.5 L2.3 -8.8 2.1 -9.35 Q2.1 -10.05 2.75 -10.05 L3.1 -9.95 3.15 -11.2 Q3.15 -12.05 3.7 -12.05 4.45 -12.0 4.45 -11.3 L4.4 -10.15 4.95 -11.05 Q5.4 -11.8 5.75 -11.8 6.55 -11.8 6.35 -10.65 L6.1 -9.1 Q7.55 -8.85 7.55 -8.3 L7.1 -7.65 Q6.5 -7.15 5.8 -7.15 L5.3 -7.2 5.6 -6.05 Q5.6 -5.35 4.85 -5.35 4.25 -5.35 3.8 -5.85 L3.25 -6.5 2.8 -6.35 Q2.4 -6.35 2.25 -6.7 2.15 -6.95 2.2 -7.4 L1.85 -7.4 0.8 -7.15" fill="url(#gradient0)" fill-rule="evenodd" stroke="none"/>
    <path d="M2.25 -6.7 Q1.25 -6.05 0.85 -5.2 L0.45 -3.95 0.35 -3.55 0.45 -2.75 Q0.4 -2.1 -0.2 -2.1 -0.95 -2.1 -0.9 -3.45 L-0.85 -3.9 Q-0.7 -5.7 0.8 -7.15 L1.85 -7.4 2.2 -7.4 Q2.15 -6.95 2.25 -6.7" fill="#000000" fill-rule="evenodd" stroke="none"/>
    <path d="M0.45 -3.95 Q3.45 -3.8 5.6 -1.6 8.0 0.75 8.0 4.05 8.0 7.35 5.6 9.7 3.3 12.05 0.0 12.05 -3.35 12.05 -5.7 9.7 -8.0 7.35 -8.0 4.05 -8.0 0.75 -5.7 -1.6 -3.65 -3.65 -0.85 -3.9 L-0.9 -3.45 Q-0.95 -2.1 -0.2 -2.1 0.4 -2.1 0.45 -2.75 L0.35 -3.55 0.45 -3.95" fill="url(#gradient1)" fill-rule="evenodd" stroke="none"/>
    <path d="M0.45 -3.95 Q3.45 -3.8 5.6 -1.6 8.0 0.75 8.0 4.05 8.0 7.35 5.6 9.7 3.3 12.05 0.0 12.05 -3.35 12.05 -5.7 9.7 -8.0 7.35 -8.0 4.05 -8.0 0.75 -5.7 -1.6 -3.65 -3.65 -0.85 -3.9" fill="none" stroke="#000000" stroke-linecap="round" stroke-linejoin="round" stroke-opacity="0.9882353" stroke-width="1.0"/>
  </g>
  <defs>
    <radialGradient cx="0" cy="0" gradientTransform="matrix(0.0057, 0.0, 0.0, 0.0057, 3.35, -8.7)" gradientUnits="userSpaceOnUse" id="gradient0" r="819.2" spreadMethod="pad">
      <stop offset="0.0" stop-color="#ffee00"/>
      <stop offset="1.0" stop-color="#ff0000"/>
    </radialGradient>
    <radialGradient cx="0" cy="0" gradientTransform="matrix(0.0104, 0.0, 0.0, 0.0112, 0.0, 4.05)" gradientUnits="userSpaceOnUse" id="gradient1" r="819.2" spreadMethod="pad">
      <stop offset="0.0" stop-color="#666666"/>
      <stop offset="1.0" stop-color="#2a2a2a"/>
    </radialGradient>
  </defs>
</svg>
