<?xml version="1.0" encoding="UTF-8" standalone="no"?>
<svg xmlns:ffdec="https://www.free-decompiler.com/flash" xmlns:xlink="http://www.w3.org/1999/xlink" ffdec:objectType="shape" height="26.0px" width="26.0px" xmlns="http://www.w3.org/2000/svg">
  <g transform="matrix(1.0, 0.0, 0.0, 1.0, 13.0, 13.0)">
    <path d="M4.5 -4.25 L4.7 -4.3 7.1 -4.7 Q7.9 -5.05 7.9 -5.45 L7.55 -5.8 6.7 -5.6 5.55 -5.45 3.75 -5.45 0.95 -5.3 Q-1.45 -5.3 -3.3 -6.5 L-5.0 -8.0 -7.05 -9.6 Q-9.1 -11.3 -9.1 -10.6 L-8.7 -9.85 -8.5 -9.5 -8.5 -9.4 -6.85 -7.9 -5.1 -6.7 -3.4 -5.2 -2.75 -4.4 Q-2.3 -4.0 -1.5 -3.9 L0.3 -3.9 0.5 -4.0 0.65 -4.0 2.1 -4.15 2.25 -4.2 4.5 -4.25 M6.35 -3.15 L5.65 -3.75 Q2.05 -3.4 0.3 -2.75 L-0.85 -2.6 Q-2.25 -2.3 -2.25 -1.2 L-2.3 0.9 -2.15 5.5 -2.15 5.55 -2.2 5.65 -2.05 7.6 -2.2 8.05 -2.05 8.7 -2.05 8.85 Q-2.05 11.9 -1.6 11.9 -1.15 11.9 -0.85 10.7 L-0.6 9.25 -0.65 9.1 -0.6 8.5 -0.5 6.6 0.6 3.4 1.05 1.7 Q1.35 0.7 2.0 0.2 2.5 -0.2 4.85 -1.0 6.65 -1.65 6.65 -2.4 L6.35 -3.15 M7.45 -3.6 L7.5 -3.5 7.65 -3.45 Q11.7 -4.4 11.7 -4.6 L11.5 -4.8 10.85 -4.8 Q10.0 -4.3 8.6 -3.95 L7.45 -3.6 M4.0 -10.9 L6.8 -9.05 Q7.8 -8.45 10.4 -7.2 12.5 -6.0 12.5 -5.2 L12.35 -4.5 12.35 -2.65 12.35 2.7 12.3 2.95 12.35 3.2 12.35 5.1 12.5 6.15 Q12.5 7.85 11.4 8.6 L6.75 10.25 6.45 10.15 1.8 12.0 -1.5 12.5 -3.65 12.5 -8.4 8.7 Q-10.6 6.65 -11.65 4.7 -11.95 4.05 -11.8 2.6 L-12.5 -7.35 -12.3 -10.05 -11.8 -11.25 Q-11.65 -11.8 -9.9 -12.35 L-9.25 -12.35 -9.2 -12.4 -6.75 -12.4 -6.4 -12.45 -4.7 -12.45 -1.45 -12.45 -1.35 -12.5 0.95 -12.5 Q2.35 -12.05 4.0 -10.9 M-10.7 -9.85 Q-11.5 -10.4 -11.7 -9.2 L-11.45 -0.65 -11.4 1.4 Q-11.5 3.0 -11.05 3.0 -10.9 3.0 -10.6 1.4 L-10.35 0.05 -10.2 -0.5 -9.95 -2.25 Q-9.8 -2.75 -9.9 -3.85 -9.75 -4.8 -9.25 -5.45 L-8.75 -5.45 -8.05 -5.15 Q-7.55 -4.8 -7.15 -4.8 -6.75 -4.8 -6.55 -5.1 L-6.4 -5.5 Q-6.4 -6.25 -7.75 -7.5 L-9.05 -8.4 -9.55 -8.9 -10.7 -9.85 M-3.9 -3.05 L-3.7 -3.25 Q-5.6 -5.8 -5.6 -4.85 -4.4 -3.05 -3.9 -3.05 M-3.45 -1.5 L-3.65 -2.4 -3.9 1.0 -3.9 4.9 Q-3.95 11.55 -3.7 11.55 L-3.5 11.4 -3.5 -0.75 -3.45 -1.5" fill="#a8eeff" fill-rule="evenodd" stroke="none"/>
    <path d="M6.35 -3.15 L6.65 -2.4 Q6.65 -1.65 4.85 -1.0 2.5 -0.2 2.0 0.2 1.35 0.7 1.05 1.7 L0.6 3.4 -0.5 6.6 -0.6 8.5 -0.65 9.1 -0.6 9.25 -0.85 10.7 Q-1.15 11.9 -1.6 11.9 -2.05 11.9 -2.05 8.85 L-2.05 8.7 -2.2 8.05 -2.05 7.6 -2.2 5.65 -2.15 5.55 -2.15 5.5 -2.3 0.9 -2.25 -1.2 Q-2.25 -2.3 -0.85 -2.6 L0.3 -2.75 Q2.05 -3.4 5.65 -3.75 L6.35 -3.15 M-10.7 -9.85 L-9.55 -8.9 -9.05 -8.4 -7.75 -7.5 Q-6.4 -6.25 -6.4 -5.5 L-6.55 -5.1 Q-6.75 -4.8 -7.15 -4.8 -7.55 -4.8 -8.05 -5.15 L-8.75 -5.45 -9.25 -5.45 Q-9.75 -4.8 -9.9 -3.85 -9.8 -2.75 -9.95 -2.25 L-10.2 -0.5 -10.35 0.05 -10.6 1.4 Q-10.9 3.0 -11.05 3.0 -11.5 3.0 -11.4 1.4 L-11.45 -0.65 -11.7 -9.2 Q-11.5 -10.4 -10.7 -9.85" fill="#ffffff" fill-rule="evenodd" stroke="none"/>
    <path d="M4.5 -11.1 Q6.45 -9.75 7.5 -9.25 L11.2 -7.3 Q13.0 -6.15 13.0 -5.25 L12.85 -4.75 12.85 2.8 12.8 2.95 12.85 3.1 12.85 5.1 13.0 6.15 12.85 7.55 11.6 9.0 6.6 10.8 6.3 10.7 Q3.8 12.1 -1.4 13.0 L-3.75 13.0 Q-5.15 12.25 -6.5 11.05 L-8.65 9.0 -10.65 6.95 Q-12.1 5.45 -12.15 4.95 L-12.95 -3.6 -13.0 -7.4 Q-13.0 -9.6 -12.65 -10.65 -11.85 -13.1 -9.25 -12.9 L-6.85 -12.9 -6.0 -12.95 -5.4 -12.9 -4.8 -12.95 -1.4 -12.95 -1.4 -13.0 1.05 -13.0 3.1 -12.1 4.5 -11.1 M4.0 -10.9 Q2.35 -12.05 0.95 -12.5 L-1.35 -12.5 -1.45 -12.45 -4.7 -12.45 -6.4 -12.45 -6.75 -12.4 -9.2 -12.4 -9.25 -12.35 -9.9 -12.35 Q-11.65 -11.8 -11.8 -11.25 L-12.3 -10.05 -12.5 -7.35 -11.8 2.6 Q-11.95 4.05 -11.65 4.7 -10.6 6.65 -8.4 8.7 L-3.65 12.5 -1.5 12.5 1.8 12.0 6.45 10.15 6.75 10.25 11.4 8.6 Q12.5 7.85 12.5 6.15 L12.35 5.1 12.35 3.2 12.3 2.95 12.35 2.7 12.35 -2.65 12.35 -4.5 12.5 -5.2 Q12.5 -6.0 10.4 -7.2 7.8 -8.45 6.8 -9.05 L4.0 -10.9" fill="#43d9ff" fill-rule="evenodd" stroke="none"/>
    <path d="M4.5 -4.25 L2.25 -4.2 2.1 -4.15 0.65 -4.0 0.5 -4.0 0.3 -3.9 -1.5 -3.9 Q-2.3 -4.0 -2.75 -4.4 L-3.4 -5.2 -5.1 -6.7 -6.85 -7.9 -8.5 -9.4 -8.5 -9.5 -8.7 -9.85 -9.1 -10.6 Q-9.1 -11.3 -7.05 -9.6 L-5.0 -8.0 -3.3 -6.5 Q-1.45 -5.3 0.95 -5.3 L3.75 -5.45 5.55 -5.45 6.7 -5.6 7.55 -5.8 7.9 -5.45 Q7.9 -5.05 7.1 -4.7 L4.7 -4.3 4.5 -4.25 M7.45 -3.6 L8.6 -3.95 Q10.0 -4.3 10.85 -4.8 L11.5 -4.8 11.7 -4.6 Q11.7 -4.4 7.65 -3.45 L7.5 -3.5 7.45 -3.6 M-3.45 -1.5 L-3.5 -0.75 -3.5 11.4 -3.7 11.55 Q-3.95 11.55 -3.9 4.9 L-3.9 1.0 -3.65 -2.4 -3.45 -1.5 M-3.9 -3.05 Q-4.4 -3.05 -5.6 -4.85 -5.6 -5.8 -3.7 -3.25 L-3.9 -3.05" fill="#00ccff" fill-rule="evenodd" stroke="none"/>
  </g>
</svg>
