<?xml version="1.0" encoding="UTF-8" standalone="no"?>
<svg xmlns:ffdec="https://www.free-decompiler.com/flash" xmlns:xlink="http://www.w3.org/1999/xlink" ffdec:objectType="shape" height="29.5px" width="25.5px" xmlns="http://www.w3.org/2000/svg">
  <g transform="matrix(1.0, 0.0, 0.0, 1.0, 12.75, 14.75)">
    <path d="M-8.5 -12.85 Q-5.0 -14.0 0.0 -14.0 4.95 -14.0 8.45 -12.85 12.0 -11.65 12.0 -10.0 12.0 -8.55 9.35 -7.5 12.0 -6.45 12.0 -5.0 12.0 -3.55 9.35 -2.5 12.0 -1.45 12.0 0.0 12.0 1.45 9.35 2.5 12.0 3.55 12.0 5.0 12.0 6.45 9.35 7.5 12.0 8.55 12.0 10.0 12.0 11.65 8.45 12.8 4.95 14.0 0.0 14.0 -5.0 14.0 -8.5 12.8 -12.0 11.65 -12.0 10.0 -12.0 8.55 -9.35 7.5 -12.0 6.45 -12.0 5.0 -12.0 3.55 -9.35 2.5 -12.0 1.45 -12.0 0.0 -12.0 -1.45 -9.35 -2.5 -12.0 -3.55 -12.0 -5.0 -12.0 -6.45 -9.35 -7.5 -12.0 -8.55 -12.0 -10.0 -12.0 -11.65 -8.5 -12.85 M-9.35 -7.5 L-8.5 -7.2 Q-5.0 -6.0 0.0 -6.0 4.95 -6.0 8.45 -7.2 L9.35 -7.5 8.45 -7.85 Q4.95 -9.0 0.0 -9.0 -5.0 -9.0 -8.5 -7.85 L-9.35 -7.5 M9.35 -2.5 L8.45 -2.2 Q4.95 -1.0 0.0 -1.0 -5.0 -1.0 -8.5 -2.2 L-9.35 -2.5 -8.5 -2.85 Q-5.0 -4.0 0.0 -4.0 4.95 -4.0 8.45 -2.85 L9.35 -2.5 M9.35 2.5 L8.45 2.8 Q4.95 4.0 0.0 4.0 -5.0 4.0 -8.5 2.8 L-9.35 2.5 -8.5 2.15 Q-5.0 1.0 0.0 1.0 4.95 1.0 8.45 2.15 L9.35 2.5 M0.0 6.0 Q-5.0 6.0 -8.5 7.15 L-9.35 7.5 -8.5 7.8 Q-5.0 9.0 0.0 9.0 4.95 9.0 8.45 7.8 L9.35 7.5 8.45 7.15 Q4.95 6.0 0.0 6.0 Z" fill="none" stroke="#ffffff" stroke-linecap="round" stroke-linejoin="round" stroke-opacity="0.9882353" stroke-width="1.5"/>
  </g>
</svg>
