<?xml version="1.0" encoding="UTF-8" standalone="no"?>
<svg xmlns:ffdec="https://www.free-decompiler.com/flash" xmlns:xlink="http://www.w3.org/1999/xlink" ffdec:objectType="shape" height="62.0px" width="62.0px" xmlns="http://www.w3.org/2000/svg">
  <g transform="matrix(1.0, 0.0, 0.0, 1.0, 31.0, 31.0)">
    <path d="M21.25 -21.2 Q30.0 -12.4 30.0 0.0 30.0 12.4 21.25 21.2 12.45 30.0 0.0 30.0 -12.45 30.0 -21.2 21.2 -30.0 12.4 -30.0 0.0 -30.0 -12.4 -21.2 -21.2 -12.45 -30.0 0.0 -30.0 12.45 -30.0 21.25 -21.2" fill="#ffffff" fill-rule="evenodd" stroke="none"/>
    <path d="M21.25 -21.2 Q30.0 -12.4 30.0 0.0 30.0 12.4 21.25 21.2 12.45 30.0 0.0 30.0 -12.45 30.0 -21.2 21.2 -30.0 12.4 -30.0 0.0 -30.0 -12.4 -21.2 -21.2 -12.45 -30.0 0.0 -30.0 12.45 -30.0 21.25 -21.2 Z" fill="none" stroke="#cccccc" stroke-linecap="round" stroke-linejoin="round" stroke-width="2.0"/>
  </g>
</svg>
