<?xml version="1.0" encoding="UTF-8" standalone="no"?>
<svg xmlns:ffdec="https://www.free-decompiler.com/flash" xmlns:xlink="http://www.w3.org/1999/xlink" ffdec:objectType="shape" height="291.2px" width="451.25px" xmlns="http://www.w3.org/2000/svg">
  <g transform="matrix(1.0, 0.0, 0.0, 1.0, 225.6, 145.6)">
    <path d="M83.95 -129.9 Q110.25 -129.5 122.6 -105.9 L106.4 -89.4 102.4 -89.4 101.4 -91.4 99.4 -90.4 77.4 -92.4 76.4 -90.4 Q68.45 -85.6 61.25 -79.65 56.55 -75.65 52.7 -70.95 32.7 -46.7 5.4 -31.4 L-1.35 -34.8 -1.95 -36.25 Q-6.2 -47.0 0.05 -56.7 L13.4 -77.4 13.45 -79.8 15.4 -80.4 Q20.95 -88.45 27.25 -96.05 45.35 -117.7 71.3 -127.65 77.45 -130.0 83.95 -129.9 M147.4 -104.4 L148.4 -106.4 163.55 -105.25 168.65 -94.65 Q169.2 -91.0 167.6 -87.75 161.7 -75.7 151.8 -65.95 122.2 -36.9 84.4 -20.4 L78.7 -25.1 Q77.2 -28.2 76.85 -31.8 76.4 -36.65 79.2 -40.85 105.5 -80.7 147.4 -104.4 M-32.6 -57.4 L-21.6 -61.4 -20.6 -63.4 -11.1 -67.0 Q-14.45 -57.9 -18.6 -48.4 L-21.6 -47.4 -36.6 -28.4 -40.6 -33.4 -39.4 -49.0 -35.55 -53.8 -33.6 -54.4 -32.6 -57.4 M132.5 -10.8 Q126.5 -21.3 135.25 -29.7 157.0 -50.75 178.4 -72.4 L197.85 -75.45 Q210.55 -65.55 202.9 -51.7 191.8 -31.75 172.8 -18.5 161.15 -10.35 147.65 -7.6 139.0 -6.0 132.5 -10.8" fill="#ffcccc" fill-rule="evenodd" stroke="none"/>
    <path d="M-218.5 133.35 L-218.6 133.6 -220.6 134.6 -221.6 138.6 -225.6 138.6 -225.6 129.6 -223.6 128.6 Q-219.3 118.7 -212.05 110.95 -189.65 87.15 -158.6 97.6 L-157.6 99.6 -152.6 100.6 -151.6 102.6 Q-140.1 109.9 -127.15 115.05 -114.55 120.1 -102.85 114.9 -99.75 114.8 -96.3 113.2 -93.95 110.95 -93.0 108.6 -91.85 106.9 -91.4 104.75 L-91.3 104.25 -88.6 104.6 -88.6 88.6 -90.6 87.6 Q-89.3 76.65 -84.0 67.05 -79.95 59.75 -73.55 54.7 L-67.6 50.6 -69.6 29.6 -67.6 28.6 -66.6 18.6 -64.6 17.6 -64.6 16.0 -64.2 12.7 Q-63.6 9.1 -61.35 6.4 L-58.6 3.5 -57.6 2.6 -56.6 -1.4 -54.6 -2.4 -53.15 -6.7 Q-52.2 -8.4 -51.4 -10.25 -50.1 -13.35 -49.35 -16.5 -48.45 -20.55 -48.95 -23.4 L-48.6 -23.4 -49.25 -24.55 -50.3 -26.65 Q-51.8 -30.25 -52.25 -34.25 -52.55 -37.25 -52.25 -40.4 -51.0 -54.0 -41.3 -63.7 -35.8 -69.2 -28.5 -71.65 -20.45 -74.45 -14.6 -80.4 -9.4 -80.95 -5.35 -84.15 -0.05 -88.45 4.55 -93.3 29.25 -119.0 58.4 -139.4 L64.4 -139.4 Q70.45 -144.4 78.2 -145.35 L85.55 -145.15 Q103.15 -141.7 116.95 -129.45 124.45 -122.7 131.4 -115.4 L161.5 -121.0 Q169.05 -118.75 173.6 -112.6 L176.55 -108.25 Q178.2 -105.65 179.4 -102.8 180.75 -99.5 181.55 -96.0 L183.4 -86.4 192.4 -87.3 201.15 -86.2 Q211.25 -85.25 216.9 -76.8 220.6 -62.7 219.8 -47.65 L216.7 -42.25 Q216.05 -23.7 224.3 -5.9 227.15 6.1 223.95 17.5 L218.95 22.7 218.8 22.9 Q216.7 23.5 214.55 24.2 210.95 25.4 207.6 27.5 197.7 33.9 186.4 37.6 L185.4 39.6 182.4 39.6 181.4 41.6 82.4 73.6 81.4 75.6 61.4 81.6 59.4 80.6 55.4 82.6 54.4 84.6 51.4 83.6 50.4 85.6 Q10.8 98.7 -28.1 82.7 -31.9 81.25 -35.6 79.6 L-36.6 77.6 -50.6 72.6 -51.6 70.6 -57.6 68.6 -59.6 73.6 -61.6 74.6 -60.6 98.6 -62.6 99.6 -63.8 104.85 Q-65.45 106.65 -66.7 109.0 -68.3 111.95 -70.45 114.35 -74.8 119.15 -76.05 124.5 L-76.6 124.6 Q-82.15 134.05 -92.05 137.95 -95.75 139.35 -99.6 139.6 L-100.6 141.6 -107.35 142.5 Q-126.2 143.45 -142.6 134.6 L-143.6 132.6 -146.6 132.6 -147.6 130.6 -150.6 130.6 -151.6 128.6 Q-156.25 125.95 -160.55 122.9 -165.25 119.5 -170.9 118.7 -178.35 117.25 -184.6 121.6 L-187.6 120.6 -193.6 123.6 -207.6 145.6 -212.6 145.6 Q-211.7 140.85 -210.1 136.75 L-209.2 134.55 Q-202.5 119.5 -185.45 113.55 -180.6 111.8 -175.6 112.65 -161.5 114.7 -148.85 121.25 -142.05 124.75 -135.6 129.6 L-134.6 131.6 Q-126.65 135.6 -117.8 136.1 -111.6 136.35 -105.6 134.6 L-104.6 132.6 -101.35 131.45 -97.6 129.85 Q-83.15 123.05 -74.4 109.05 -71.75 104.85 -72.7 100.25 -74.9 89.4 -72.15 80.25 -71.25 77.15 -69.75 74.3 -68.5 71.8 -66.85 69.5 L-66.6 69.4 -66.1 68.65 -65.3 67.45 -64.75 66.85 Q-60.2 62.2 -55.25 58.2 L-54.6 58.6 -54.6 57.65 -53.4 56.7 -50.35 55.4 -49.05 54.5 -44.6 53.6 -44.05 52.0 -42.35 51.4 -41.25 50.35 -39.35 49.15 -39.05 48.7 -36.6 47.6 -37.6 44.6 -38.4 44.9 Q-38.55 44.75 -38.7 44.75 L-45.1 43.9 -45.15 44.05 -46.35 44.25 -46.85 44.4 -48.1 45.7 -48.6 46.4 -48.6 46.45 -50.75 47.6 -57.25 52.3 -65.85 57.4 Q-66.4 58.9 -67.65 59.75 -70.9 61.9 -71.35 64.8 -73.6 68.15 -75.3 71.65 -76.85 74.75 -77.9 78.0 -81.6 88.8 -80.3 100.7 L-81.35 101.15 -81.6 102.7 Q-81.85 104.55 -81.65 106.3 L-82.6 106.6 Q-83.85 111.1 -86.25 114.95 -89.6 120.45 -95.2 122.75 L-97.7 123.6 -99.6 125.6 -103.4 125.95 Q-126.1 125.75 -145.8 115.55 -152.35 112.1 -158.6 107.6 L-159.6 105.6 Q-173.4 100.4 -187.55 104.55 -208.75 110.8 -217.5 130.9 L-218.5 133.35 M147.4 -104.4 Q105.5 -80.7 79.2 -40.85 76.4 -36.65 76.85 -31.8 77.2 -28.2 78.7 -25.1 L84.4 -20.4 Q122.2 -36.9 151.8 -65.95 161.7 -75.7 167.6 -87.75 169.2 -91.0 168.65 -94.65 L163.55 -105.25 148.4 -106.4 147.4 -104.4 M83.95 -129.9 Q77.45 -130.0 71.3 -127.65 45.35 -117.7 27.25 -96.05 20.95 -88.45 15.4 -80.4 L13.45 -79.8 13.4 -77.4 0.05 -56.7 Q-6.2 -47.0 -1.95 -36.25 L-1.35 -34.8 5.4 -31.4 Q32.7 -46.7 52.7 -70.95 56.55 -75.65 61.25 -79.65 68.45 -85.6 76.4 -90.4 L77.4 -92.4 99.4 -90.4 101.4 -91.4 102.4 -89.4 106.4 -89.4 122.6 -105.9 Q110.25 -129.5 83.95 -129.9 M69.3 -15.3 L67.4 -47.4 69.4 -48.4 87.5 -75.95 Q84.75 -75.6 82.25 -74.25 79.75 -72.85 77.65 -70.95 54.35 -50.85 31.4 -30.4 L38.4 -26.4 39.4 -24.4 46.4 -22.4 47.4 -20.4 52.4 -19.4 53.4 -17.4 57.4 -16.4 58.4 -14.4 62.25 -13.6 64.1 -12.0 64.4 -11.4 65.9 -10.45 Q71.55 -5.65 77.1 -1.3 L80.9 3.9 Q86.15 11.3 89.6 19.65 90.95 21.0 91.6 22.7 L73.4 32.6 72.4 34.6 41.3 43.25 29.9 42.9 26.9 43.3 5.2 44.4 -9.6 41.6 -15.6 60.6 -24.6 67.6 Q-13.65 74.05 -1.1 75.5 37.55 79.55 73.8 64.6 L74.4 62.6 164.4 32.6 165.4 30.6 197.4 16.6 198.4 14.6 Q200.75 14.35 202.8 13.3 216.4 6.1 212.9 -9.45 211.55 -15.5 209.4 -21.4 L207.4 -22.4 207.4 -25.4 203.75 -29.5 203.4 -26.4 Q181.4 -10.85 158.8 3.8 155.3 6.15 151.15 6.75 128.55 9.3 115.45 -10.75 L115.4 -15.4 107.4 -12.4 106.4 -10.4 77.75 -8.4 Q73.8 -12.3 69.3 -15.3 M49.4 -9.4 L27.35 -20.0 Q9.1 -20.05 -4.7 -6.3 -14.4 3.25 -20.6 15.6 L-22.6 16.6 -23.6 26.6 -9.6 31.6 -8.6 33.6 Q38.4 45.45 79.25 19.45 L77.4 17.6 76.4 13.6 74.4 12.6 72.4 7.6 69.4 5.6 68.4 1.6 54.4 -5.4 53.4 -7.4 50.4 -7.4 49.4 -9.4 M132.5 -10.8 Q139.0 -6.0 147.65 -7.6 161.15 -10.35 172.8 -18.5 191.8 -31.75 202.9 -51.7 210.55 -65.55 197.85 -75.45 L178.4 -72.4 Q157.0 -50.75 135.25 -29.7 126.5 -21.3 132.5 -10.8 M-32.6 -57.4 L-33.6 -54.4 -35.55 -53.8 -39.4 -49.0 -40.6 -33.4 -36.6 -28.4 -21.6 -47.4 -18.6 -48.4 Q-14.45 -57.9 -11.1 -67.0 L-20.6 -63.4 -21.6 -61.4 -32.6 -57.4 M-10.6 -13.4 L-1.6 -19.4 -15.8 -27.35 -44.6 1.6 -45.6 5.6 -47.6 6.6 -48.6 15.6 -33.6 21.6 -31.6 9.6 -29.6 8.6 -28.6 4.6 -26.6 3.6 -25.6 1.6 -21.6 -0.4 -19.6 -4.4 -17.6 -5.4 -16.6 -7.4 -10.6 -10.4 -10.6 -13.4 M-24.15 39.45 Q-21.5 47.8 -28.6 53.6 L-32.6 54.6 -23.6 54.6 -21.6 40.6 -24.15 39.45 M-48.6 30.6 L-53.6 30.6 -53.6 41.6 -48.6 41.6 -48.6 30.6" fill="#000000" fill-rule="evenodd" stroke="none"/>
    <path d="M-210.1 136.75 L-218.5 133.35 -217.5 130.9 Q-208.75 110.8 -187.55 104.55 -173.4 100.4 -159.6 105.6 L-158.6 107.6 Q-152.35 112.1 -145.8 115.55 -126.1 125.75 -103.4 125.95 L-99.6 125.6 -97.7 123.6 -95.2 122.75 Q-89.6 120.45 -86.25 114.95 -83.85 111.1 -82.6 106.6 L-81.65 106.3 Q-81.85 104.55 -81.6 102.7 L-81.35 101.15 -80.3 100.7 Q-81.6 88.8 -77.9 78.0 -76.85 74.75 -75.3 71.65 -73.6 68.15 -71.35 64.8 -70.9 61.9 -67.65 59.75 -66.4 58.9 -65.85 57.4 L-57.25 52.3 -50.75 47.6 -48.6 46.45 -48.6 46.4 -48.1 45.7 -46.85 44.4 -46.35 44.25 -45.15 44.05 -45.1 43.9 -38.7 44.75 Q-38.55 44.75 -38.4 44.9 L-38.1 45.15 -37.85 45.95 Q-37.75 46.65 -38.0 47.4 L-38.35 48.15 -39.0 48.45 -39.05 48.7 -39.35 49.15 -41.25 50.35 -42.35 51.4 -44.05 52.0 Q-46.75 53.0 -49.05 54.5 L-50.35 55.4 -53.4 56.7 -54.6 57.65 -55.25 58.2 Q-60.2 62.2 -64.75 66.85 L-65.3 67.45 -66.1 68.65 -66.6 69.4 -66.85 69.5 Q-68.5 71.8 -69.75 74.3 -71.25 77.15 -72.15 80.25 -74.9 89.4 -72.7 100.25 -71.75 104.85 -74.4 109.05 -83.15 123.05 -97.6 129.85 L-101.35 131.45 -104.6 132.6 -105.6 134.6 Q-111.6 136.35 -117.8 136.1 -126.65 135.6 -134.6 131.6 L-135.6 129.6 Q-142.05 124.75 -148.85 121.25 -161.5 114.7 -175.6 112.65 -180.6 111.8 -185.45 113.55 -202.5 119.5 -209.2 134.55 L-210.1 136.75 M69.3 -15.3 Q73.8 -12.3 77.75 -8.4 L106.4 -10.4 107.4 -12.4 115.4 -15.4 115.45 -10.75 Q128.55 9.3 151.15 6.75 155.3 6.15 158.8 3.8 181.4 -10.85 203.4 -26.4 L203.75 -29.5 207.4 -25.4 207.4 -22.4 209.4 -21.4 Q211.55 -15.5 212.9 -9.45 216.4 6.1 202.8 13.3 200.75 14.35 198.4 14.6 L197.4 16.6 165.4 30.6 164.4 32.6 74.4 62.6 73.8 64.6 Q37.55 79.55 -1.1 75.5 -13.65 74.05 -24.6 67.6 L-15.6 60.6 -9.6 41.6 5.2 44.4 26.9 43.3 29.9 42.9 41.3 43.25 72.4 34.6 73.4 32.6 91.6 22.7 Q90.95 21.0 89.6 19.65 86.15 11.3 80.9 3.9 L77.1 -1.3 Q71.55 -5.65 65.9 -10.45 L64.1 -12.0 62.25 -13.6 61.95 -13.9 60.85 -15.05 58.85 -16.0 57.1 -16.55 56.5 -18.1 Q56.1 -19.35 56.85 -20.3 L57.65 -20.75 58.85 -21.05 Q64.4 -18.65 69.3 -15.3 M-10.6 -13.4 L-10.6 -10.4 -16.6 -7.4 -17.6 -5.4 -19.6 -4.4 -21.6 -0.4 -25.6 1.6 -26.6 3.6 -28.6 4.6 -29.6 8.6 -31.6 9.6 -33.6 21.6 -48.6 15.6 -47.6 6.6 -45.6 5.6 -44.6 1.6 -15.8 -27.35 -1.6 -19.4 -10.6 -13.4" fill="#fefefe" fill-rule="evenodd" stroke="none"/>
    <path d="M-38.4 44.9 L-37.6 44.6 -36.6 47.6 -39.05 48.7 -39.0 48.45 -38.35 48.15 -38.0 47.4 Q-37.75 46.65 -37.85 45.95 L-38.1 45.15 -38.4 44.9 M-44.05 52.0 L-44.6 53.6 -49.05 54.5 Q-46.75 53.0 -44.05 52.0 M-54.6 57.65 L-54.6 58.6 -55.25 58.2 -54.6 57.65 M62.25 -13.6 L58.4 -14.4 57.4 -16.4 53.4 -17.4 52.4 -19.4 47.4 -20.4 46.4 -22.4 39.4 -24.4 38.4 -26.4 31.4 -30.4 Q54.35 -50.85 77.65 -70.95 79.75 -72.85 82.25 -74.25 84.75 -75.6 87.5 -75.95 L69.4 -48.4 67.4 -47.4 69.3 -15.3 Q64.4 -18.65 58.85 -21.05 L57.65 -20.75 56.85 -20.3 Q56.1 -19.35 56.5 -18.1 L57.1 -16.55 58.85 -16.0 60.85 -15.05 61.95 -13.9 62.25 -13.6 M65.9 -10.45 L64.4 -11.4 64.1 -12.0 65.9 -10.45 M49.4 -9.4 L50.4 -7.4 53.4 -7.4 54.4 -5.4 68.4 1.6 69.4 5.6 72.4 7.6 74.4 12.6 76.4 13.6 77.4 17.6 79.25 19.45 Q38.4 45.45 -8.6 33.6 L-9.6 31.6 -23.6 26.6 -22.6 16.6 -20.6 15.6 Q-14.4 3.25 -4.7 -6.3 9.1 -20.05 27.35 -20.0 L49.4 -9.4 M-48.6 30.6 L-48.6 41.6 -53.6 41.6 -53.6 30.6 -48.6 30.6 M-24.15 39.45 L-21.6 40.6 -23.6 54.6 -32.6 54.6 -28.6 53.6 Q-21.5 47.8 -24.15 39.45" fill="#ffffff" fill-rule="evenodd" stroke="none"/>
  </g>
</svg>
