<?xml version="1.0" encoding="UTF-8" standalone="no"?>
<svg xmlns:ffdec="https://www.free-decompiler.com/flash" xmlns:xlink="http://www.w3.org/1999/xlink" ffdec:objectType="shape" height="28.0px" width="228.2px" xmlns="http://www.w3.org/2000/svg">
  <g transform="matrix(1.0, 0.0, 0.0, 1.0, 114.1, 14.0)">
    <path d="M-106.5 -14.0 Q-103.35 -14.0 -101.1 -10.75 -98.9 -7.55 -98.9 -3.0 -98.9 1.55 -101.1 4.8 -103.35 8.0 -106.5 8.0 -109.65 8.0 -111.85 4.8 -114.1 1.55 -114.1 -3.0 -114.1 -7.55 -111.85 -10.75 -109.65 -14.0 -106.5 -14.0 M111.1 -9.0 L112.1 -5.0 114.1 -4.0 112.1 9.0 103.1 14.0 Q100.95 9.9 99.4 5.45 96.6 -2.65 99.1 -11.0 L108.1 -11.0 111.1 -9.0" fill="#000000" fill-rule="evenodd" stroke="none"/>
  </g>
</svg>
