<?xml version="1.0" encoding="UTF-8" standalone="no"?>
<svg xmlns:ffdec="https://www.free-decompiler.com/flash" xmlns:xlink="http://www.w3.org/1999/xlink" ffdec:objectType="shape" height="300.0px" width="71.5px" xmlns="http://www.w3.org/2000/svg">
  <g transform="matrix(1.0, 0.0, 0.0, 1.0, -111.15, -97.3)">
    <path d="M165.7 98.05 L166.7 99.05 Q167.35 99.7 167.4 100.65 167.45 101.55 166.9 102.3 159.5 112.15 150.7 121.55 149.9 125.05 148.3 128.4 L147.85 130.15 147.2 131.35 147.0 131.55 Q147.0 133.5 146.25 135.45 L146.15 135.7 146.05 135.85 146.3 136.75 146.65 137.7 Q146.95 138.35 146.9 139.05 146.45 143.25 147.75 147.0 L147.8 147.15 Q148.15 148.4 149.1 149.45 L149.65 150.7 Q150.75 158.15 156.45 163.8 158.35 165.55 158.95 168.0 164.45 172.7 167.95 179.25 L168.5 180.35 Q170.85 182.6 172.55 185.55 L172.9 186.8 172.9 187.8 172.9 188.05 174.6 190.2 174.9 190.7 175.4 192.25 175.4 192.7 175.6 193.0 177.35 195.45 177.85 196.45 178.15 198.55 178.15 198.75 178.25 198.85 178.7 199.3 179.3 200.25 Q184.2 215.1 181.9 230.2 L181.9 230.1 Q181.35 234.85 178.25 238.05 177.8 240.3 176.5 242.2 L176.45 242.25 175.65 243.35 175.45 244.65 175.65 246.05 175.35 247.2 174.6 248.1 Q167.85 252.75 164.4 259.45 L163.2 261.1 Q160.05 264.95 158.25 269.5 L158.15 269.7 157.9 270.55 Q157.9 271.6 157.2 272.35 L156.15 273.45 156.15 285.05 156.15 290.2 157.2 291.3 Q157.9 292.0 157.9 293.05 L157.9 293.85 Q162.7 299.75 165.25 306.7 166.0 308.35 166.0 310.0 174.0 323.6 169.3 339.05 168.45 341.85 168.65 345.15 L168.4 346.45 167.3 348.3 Q166.85 350.75 165.45 352.75 L165.2 353.1 164.9 353.4 164.6 355.15 164.4 355.65 Q164.4 356.5 163.85 357.15 L161.9 359.45 161.9 359.55 161.9 360.55 Q161.9 361.6 161.2 362.35 155.4 368.1 151.05 375.35 L151.0 375.45 150.6 376.55 Q150.45 377.35 149.9 377.9 136.8 390.2 120.65 397.1 L119.65 397.3 Q113.85 397.25 111.45 392.45 111.15 391.85 111.15 391.2 111.15 390.55 111.5 390.05 112.9 387.65 115.15 387.4 116.5 387.1 118.15 387.8 123.55 385.2 129.15 383.8 135.85 377.8 142.8 372.1 L150.25 360.3 151.2 358.45 151.95 357.55 Q154.2 355.9 156.1 353.5 L156.15 352.3 156.15 351.3 Q156.15 350.65 156.5 350.1 165.0 334.95 161.0 318.15 L161.0 318.3 Q160.15 315.5 158.25 313.15 157.65 312.45 157.65 311.55 L157.65 309.55 157.65 309.25 150.75 297.05 148.9 294.85 Q148.25 294.2 148.15 293.3 147.4 285.7 147.65 277.8 L147.65 277.75 147.65 270.55 Q147.65 269.8 148.1 269.2 L152.15 263.45 Q153.75 258.25 156.85 253.85 L156.85 253.95 158.85 250.95 159.15 250.55 Q162.9 246.8 167.15 243.3 L167.25 242.75 167.15 242.05 167.15 241.05 Q167.15 240.15 167.75 239.5 171.75 234.55 172.45 228.3 L172.45 228.25 172.65 224.55 Q172.65 223.95 172.95 223.45 173.25 222.75 173.85 222.05 L173.9 222.0 173.9 217.55 173.9 215.9 173.9 215.85 173.85 215.8 Q173.25 215.1 172.95 214.45 172.55 213.7 172.7 212.9 173.3 208.8 171.85 204.95 L171.75 204.75 Q171.45 203.6 170.65 202.85 169.9 202.1 169.9 201.05 L169.9 200.05 169.9 199.9 168.05 198.0 167.4 197.1 167.15 196.05 167.15 195.05 167.15 194.4 165.7 192.85 164.95 191.95 Q164.65 191.4 164.65 190.8 L164.55 189.6 164.25 188.65 Q163.1 186.95 161.55 185.9 160.75 185.35 160.5 184.5 158.75 178.45 153.5 174.55 152.2 174.0 151.35 172.7 L151.25 172.55 142.5 157.3 Q141.45 155.5 141.05 153.25 L140.65 152.85 140.1 152.05 Q138.4 148.05 138.4 143.8 L138.4 141.45 137.65 140.3 Q137.15 139.65 137.15 138.8 L137.15 135.55 137.15 134.55 Q137.15 133.95 137.45 133.45 L138.35 132.05 138.4 132.0 138.4 130.55 138.4 129.55 Q138.4 128.9 138.75 128.3 140.55 125.1 141.75 121.9 142.0 120.6 142.65 119.55 L142.65 119.3 142.65 118.3 Q142.65 117.75 142.9 117.25 143.15 116.7 143.6 116.35 L145.9 114.7 Q148.65 108.25 154.4 103.85 L154.55 103.7 Q155.0 102.95 155.85 102.7 158.35 101.85 159.45 99.65 159.7 97.8 161.6 97.6 L163.15 97.3 163.9 97.3 Q164.95 97.3 165.7 98.05" fill="#ffffff" fill-rule="evenodd" stroke="none"/>
  </g>
</svg>
