<?xml version="1.0" encoding="UTF-8" standalone="no"?>
<svg xmlns:ffdec="https://www.free-decompiler.com/flash" xmlns:xlink="http://www.w3.org/1999/xlink" ffdec:objectType="shape" height="298.05px" width="62.05px" xmlns="http://www.w3.org/2000/svg">
  <g transform="matrix(1.0, 0.0, 0.0, 1.0, -138.1, -62.5)">
    <path d="M165.4 64.25 Q166.1 64.95 166.1 65.95 166.1 66.95 165.45 67.75 161.8 71.55 160.2 76.1 L160.1 76.4 160.0 76.5 Q160.6 79.0 160.35 81.75 L160.3 82.1 159.9 83.75 Q160.15 88.6 162.95 92.3 163.8 93.2 164.3 94.35 176.5 105.6 189.25 116.35 L189.6 116.7 Q196.05 125.0 199.95 134.55 200.2 135.2 200.1 135.9 196.45 159.5 177.1 174.35 173.5 179.0 168.9 182.9 L168.6 184.1 168.1 185.9 167.5 186.65 Q166.1 187.85 166.1 189.75 L166.1 190.75 165.95 191.65 Q161.65 203.1 163.1 216.25 L163.1 216.1 163.35 218.45 163.65 218.75 Q164.3 219.4 164.35 220.4 164.6 225.25 167.05 229.5 L167.1 229.65 168.1 231.65 168.3 232.15 168.6 234.25 168.6 234.6 168.75 234.8 177.65 247.2 Q180.4 249.0 182.7 251.6 L183.3 252.65 183.6 254.75 183.6 255.15 183.8 255.5 186.5 259.85 187.6 261.4 187.85 262.5 187.85 263.4 Q190.3 265.8 190.6 269.2 L192.3 271.2 192.75 272.0 Q194.85 278.4 195.95 284.9 198.25 298.8 195.95 313.25 L195.95 313.3 195.85 313.9 195.8 314.05 Q195.1 317.35 194.85 320.95 L194.8 321.35 194.6 322.75 194.4 323.8 Q182.95 348.7 157.3 359.1 L156.05 359.25 153.05 358.85 Q146.3 362.15 139.55 359.05 138.7 358.65 138.3 357.75 137.9 356.9 138.25 356.0 138.5 355.1 139.35 354.6 143.8 351.95 150.7 350.1 L151.0 350.05 Q171.0 346.95 181.4 328.6 L181.45 328.55 Q183.6 324.4 186.05 320.75 L186.35 318.75 186.35 316.5 186.55 315.6 Q190.55 305.4 189.15 293.3 L189.15 293.4 188.85 290.55 Q186.2 284.3 185.2 277.35 L185.15 277.2 185.15 277.1 184.9 275.85 182.6 272.95 Q182.1 272.3 182.1 271.5 L182.1 270.5 182.1 269.95 Q181.75 269.15 180.9 268.55 180.15 268.0 179.95 267.15 179.05 263.8 177.05 260.95 L177.05 260.9 176.35 260.05 Q175.6 259.3 175.6 258.25 L175.45 256.85 175.35 256.25 175.35 256.15 Q173.85 254.45 171.5 253.6 170.75 253.35 170.3 252.7 169.85 252.05 169.85 251.25 L169.85 250.65 169.85 250.3 169.75 250.2 Q164.9 245.2 161.0 239.1 L160.65 238.2 Q159.95 234.3 158.15 230.7 157.6 229.8 157.45 228.65 L157.1 228.3 Q156.5 227.7 156.4 226.85 154.1 211.05 156.15 194.7 L156.35 190.75 Q156.35 189.7 157.1 189.0 L157.5 188.6 Q157.85 185.9 159.15 183.65 L159.2 183.55 Q159.6 182.65 160.35 181.8 L160.35 181.5 160.35 180.5 Q160.35 179.85 160.7 179.3 L161.55 178.4 Q165.55 175.8 167.3 171.6 L167.9 170.7 176.6 162.2 176.6 161.25 Q176.6 160.65 176.9 160.1 L177.7 159.2 Q182.95 155.5 187.6 150.75 188.75 146.35 190.2 142.15 L190.25 142.0 190.25 141.95 190.35 140.75 Q190.35 139.7 191.1 139.0 L191.25 138.7 191.4 138.35 Q187.25 125.25 176.65 115.75 L174.0 115.25 172.65 114.55 Q167.3 109.45 162.45 103.7 159.05 102.55 157.0 99.35 L156.9 99.15 Q156.35 98.05 156.35 97.0 152.05 92.0 151.2 85.45 150.85 84.6 150.85 83.75 L150.85 82.75 Q150.85 82.15 151.15 81.65 L151.25 81.4 151.1 79.75 Q151.1 79.2 151.25 78.6 L150.9 77.0 150.85 76.5 150.85 75.5 150.95 74.85 Q152.95 67.75 158.9 63.5 159.2 63.25 159.55 63.15 L161.05 62.65 161.85 62.5 162.6 62.5 Q163.65 62.5 164.4 63.25 L165.4 64.25" fill="#ffffff" fill-rule="evenodd" stroke="none"/>
  </g>
</svg>
