<?xml version="1.0" encoding="UTF-8" standalone="no"?>
<svg xmlns:ffdec="https://www.free-decompiler.com/flash" xmlns:xlink="http://www.w3.org/1999/xlink" ffdec:objectType="shape" height="316.25px" width="78.3px" xmlns="http://www.w3.org/2000/svg">
  <g transform="matrix(1.0, 0.0, 0.0, 1.0, -137.9, -71.2)">
    <path d="M200.4 82.45 L200.45 82.6 200.55 82.75 200.4 82.55 200.4 82.45 M202.15 83.7 L201.7 86.6 201.2 85.6 201.0 85.2 Q201.4 84.4 202.15 83.7 M200.65 83.45 L200.7 83.6 200.65 83.55 200.65 83.45 M209.75 83.35 L209.8 83.4 209.65 83.1 209.75 83.35 M209.15 88.35 L209.15 88.2 209.15 88.3 209.15 88.35 M208.9 89.35 L208.9 89.2 208.9 89.3 208.9 89.35 M200.7 86.35 L200.65 86.45 200.65 86.4 200.7 86.35 M201.15 94.7 L201.05 94.75 200.75 94.7 201.15 94.7 M198.5 89.35 L198.9 88.95 198.3 89.9 198.5 89.35 M200.45 87.1 L200.9 86.7 200.45 87.35 200.4 87.45 200.45 87.1 M185.5 71.6 L185.85 71.45 186.9 71.2 Q189.15 71.2 184.65 73.45 184.65 72.55 185.25 71.85 L185.5 71.6 M176.45 75.9 L176.65 75.7 176.2 76.35 176.45 75.9 M176.8 76.15 L175.65 78.2 Q175.65 77.4 175.9 76.8 176.3 76.4 176.8 76.15 M175.2 77.4 L175.55 77.25 174.9 77.7 175.2 77.4 M173.2 81.35 L173.15 81.45 173.2 80.95 174.05 80.4 173.2 81.35 M173.4 80.45 L173.4 80.4 173.45 80.35 173.4 80.45 M187.55 79.8 L186.85 80.2 186.15 80.2 187.55 79.8 M186.0 80.55 L185.75 80.75 185.45 80.85 186.0 80.55 M178.9 87.55 L178.9 87.6 178.9 87.45 178.9 87.55 M178.3 87.7 L179.4 86.6 179.05 87.3 178.3 87.7 M176.95 91.25 L177.6 90.05 177.4 90.75 176.95 91.25 M170.65 85.8 L171.05 85.15 170.65 86.45 170.65 85.8 M176.6 134.25 L177.5 135.1 178.2 135.95 Q178.9 136.65 178.9 137.7 L178.9 138.55 Q181.9 141.4 181.65 145.7 L181.65 145.8 197.4 165.4 Q207.1 174.6 211.3 186.3 L211.95 186.95 Q212.5 187.5 212.65 188.35 213.05 191.05 214.5 193.35 L215.2 194.2 Q215.8 194.8 215.9 195.75 217.45 213.1 211.2 228.15 209.55 232.2 208.6 236.3 L207.95 237.5 207.65 237.75 207.65 238.95 Q207.65 240.0 206.95 240.75 203.95 243.7 200.95 247.15 L200.65 248.3 200.15 250.1 199.85 250.5 198.2 252.45 198.15 253.2 198.15 254.2 197.7 255.65 195.4 258.35 195.15 260.45 195.15 261.45 194.95 262.4 Q190.05 274.3 194.5 286.9 L194.5 286.85 Q195.8 290.5 195.5 294.6 201.8 304.7 206.25 315.5 L206.25 315.55 207.15 317.2 Q207.65 317.85 207.65 318.7 L207.65 321.65 207.95 321.95 Q208.5 322.5 208.65 323.35 209.95 332.45 207.05 341.05 L206.95 341.2 Q206.2 342.9 204.9 344.3 L204.9 346.2 204.65 347.3 Q204.6 348.15 204.05 348.85 L201.0 352.35 200.65 353.8 200.15 355.6 200.05 355.75 Q191.9 369.2 178.85 377.7 L178.65 378.1 178.2 378.75 177.7 379.25 176.7 379.85 Q160.45 385.15 143.75 387.45 L142.6 387.35 139.3 385.95 138.3 385.0 Q137.9 384.4 137.9 383.7 137.9 382.95 138.3 382.35 140.35 379.0 145.45 376.9 L146.6 376.7 Q162.2 377.9 173.75 370.15 L174.0 370.0 Q185.7 363.9 192.3 351.85 193.15 347.45 196.35 344.2 L196.4 343.45 196.4 342.45 Q196.4 341.7 196.8 341.1 200.65 335.2 200.65 328.2 L200.65 327.0 199.5 325.25 199.25 324.55 Q196.1 311.95 189.35 300.85 L189.3 300.75 187.35 297.85 187.0 297.05 Q183.1 280.85 185.45 263.65 L185.4 263.75 Q185.7 260.75 186.5 257.8 L186.55 257.65 Q186.9 256.55 186.9 255.45 186.9 254.9 187.15 254.4 L187.85 253.5 189.5 252.2 189.65 251.2 189.65 250.45 Q189.65 249.65 190.15 249.0 191.2 247.5 192.4 246.35 L192.4 245.2 Q192.4 244.5 192.8 243.9 195.35 239.8 199.05 236.7 L202.05 228.2 202.2 227.85 202.7 226.85 202.85 226.55 Q205.2 223.05 205.65 218.5 L205.65 217.7 Q205.65 216.65 206.4 215.95 L207.4 214.85 207.4 201.45 207.4 198.95 Q205.3 195.65 204.75 191.9 L204.55 191.35 203.85 190.35 203.55 189.85 Q199.5 179.1 190.45 170.55 L189.85 169.7 189.65 168.7 189.65 168.2 189.65 167.8 189.55 167.7 Q180.25 159.7 173.8 149.55 173.4 148.95 173.4 148.2 L173.2 145.6 173.15 145.2 173.1 145.0 171.25 142.55 Q170.65 141.85 170.65 140.95 L170.65 138.95 170.65 137.95 Q170.65 136.9 171.4 136.2 172.25 135.3 173.4 134.7 174.4 133.85 175.4 133.95 L176.6 134.25" fill="#ffffff" fill-rule="evenodd" stroke="none"/>
  </g>
</svg>
