<?xml version="1.0" encoding="UTF-8" standalone="no"?>
<svg xmlns:ffdec="https://www.free-decompiler.com/flash" xmlns:xlink="http://www.w3.org/1999/xlink" ffdec:objectType="shape" height="345.25px" width="75.1px" xmlns="http://www.w3.org/2000/svg">
  <g transform="matrix(1.0, 0.0, 0.0, 1.0, -125.45, -41.4)">
    <path d="M200.2 172.2 Q200.7 177.8 200.45 183.65 L200.45 183.75 200.45 184.65 200.2 185.8 199.3 187.35 Q199.4 190.15 199.1 192.85 199.3 193.45 199.15 194.15 197.4 202.85 195.2 211.3 L195.2 211.9 194.95 213.05 194.45 214.05 194.0 214.7 193.7 214.95 193.7 216.15 193.55 217.05 Q192.7 219.35 190.65 220.75 190.6 221.25 190.7 221.75 L190.7 222.15 190.7 223.15 190.45 224.25 185.75 234.45 185.7 234.5 185.45 235.5 185.0 236.85 181.5 241.8 Q181.3 242.5 181.45 243.25 L181.45 243.65 181.45 244.65 181.3 245.55 Q180.4 247.85 178.8 249.2 175.45 257.75 175.2 267.15 L175.2 267.2 175.1 268.25 Q176.15 272.25 175.7 276.5 L175.7 276.6 177.55 278.5 Q178.35 279.15 178.45 280.2 178.9 285.65 179.85 290.9 L180.15 291.95 180.2 292.05 180.25 292.15 Q180.95 292.95 181.35 294.1 L181.45 294.9 181.45 295.9 181.45 296.4 Q184.4 303.25 185.45 310.85 L185.45 311.15 185.45 311.5 Q196.05 331.55 185.05 351.6 184.6 353.05 183.35 353.95 181.65 356.75 178.8 359.1 L177.85 359.6 176.8 359.65 173.4 358.8 172.3 358.0 Q171.8 357.45 171.75 356.75 171.65 356.0 171.95 355.4 174.3 350.1 178.95 346.8 185.3 331.65 178.75 316.8 L178.7 316.7 177.55 314.7 177.25 313.75 Q176.3 306.85 173.95 300.2 L173.7 299.95 Q172.95 299.2 172.95 298.15 L172.95 297.15 172.95 296.75 172.95 296.7 172.9 296.65 172.0 295.3 171.75 294.5 Q170.95 289.2 170.5 284.15 L170.45 283.9 170.45 283.65 167.85 280.3 Q167.35 279.75 167.25 279.0 165.4 264.95 169.3 251.45 L169.5 251.05 170.45 249.35 170.45 248.15 170.45 247.15 Q170.45 246.5 170.8 245.9 171.75 244.2 172.95 242.7 L173.2 241.35 172.95 239.9 Q172.95 239.2 173.35 238.55 L179.9 228.1 Q179.6 224.95 181.4 222.3 L182.25 221.15 182.25 219.75 182.2 219.4 182.2 218.4 Q182.2 217.75 182.55 217.15 183.6 215.3 185.35 213.9 186.3 211.05 186.7 208.0 L186.7 207.15 Q186.7 206.4 187.1 205.8 L187.2 205.65 Q186.8 205.1 186.75 204.45 186.65 203.7 186.95 203.05 188.6 199.7 189.45 196.15 L189.45 196.1 189.45 195.9 189.45 194.9 Q189.45 194.05 189.95 193.4 L190.1 193.2 Q190.7 190.0 190.7 186.65 L190.7 185.65 Q190.7 184.6 191.45 183.9 L191.75 183.55 192.2 182.75 Q191.95 166.75 183.35 153.25 L183.25 153.05 182.95 152.7 Q182.2 151.95 182.2 150.9 182.2 149.0 180.8 147.8 180.25 147.3 180.05 146.65 178.5 141.55 175.25 138.5 L174.65 137.65 174.45 136.65 Q174.4 135.3 173.2 134.55 172.6 134.2 172.3 133.65 171.95 133.05 171.95 132.4 L171.85 131.2 171.55 130.25 Q164.15 119.1 158.2 107.0 L157.95 105.9 157.95 104.9 157.95 104.5 Q154.2 97.1 155.45 88.45 155.5 86.9 156.45 86.15 L156.7 85.9 Q157.15 85.4 157.85 85.25 L160.2 84.9 161.4 85.2 162.3 86.05 163.0 86.9 163.55 87.8 163.7 88.9 Q163.0 96.15 165.95 102.8 L166.0 102.9 166.3 103.7 166.75 104.15 167.25 104.95 Q171.9 116.15 179.2 125.9 L179.65 126.8 179.95 128.9 179.95 129.1 180.05 129.2 181.5 130.65 Q181.9 131.05 182.1 131.6 L182.45 132.55 182.75 133.3 184.5 134.7 185.2 135.6 185.45 136.65 185.45 137.65 185.45 137.95 Q194.8 152.9 198.85 169.6 L199.05 170.2 199.5 170.65 Q200.1 171.25 200.2 172.2 M166.6 41.7 Q167.15 41.4 167.8 41.4 176.25 41.65 183.35 46.3 L183.75 46.65 184.75 47.65 Q185.45 48.35 185.45 49.4 L185.45 50.4 185.45 50.5 185.75 50.9 186.7 52.3 186.95 53.15 Q187.2 55.7 186.95 57.95 L186.9 58.25 Q185.7 62.9 182.55 66.35 L181.7 66.95 180.7 67.15 174.8 66.65 Q172.9 66.65 172.0 64.8 171.7 64.25 171.7 63.65 171.7 61.95 172.7 61.15 L172.6 61.25 Q174.45 59.1 177.15 58.6 L177.5 56.5 177.55 56.3 177.95 55.0 177.85 54.7 177.5 53.8 177.35 53.45 Q176.4 52.9 175.7 52.2 L173.25 50.25 Q168.3 49.45 164.15 52.45 162.4 53.65 160.5 54.3 L160.05 55.05 Q159.0 58.45 156.7 61.6 L156.25 62.85 155.0 63.8 153.5 64.3 Q152.7 64.55 151.9 64.3 L150.35 63.85 Q149.5 63.6 149.0 62.95 148.45 62.25 148.45 61.4 L148.45 60.15 148.45 59.15 148.45 58.15 Q148.45 57.6 148.7 57.1 148.9 56.6 149.35 56.25 150.25 55.5 150.55 54.3 L150.6 54.1 Q152.0 49.75 155.5 46.55 156.05 46.05 156.8 45.95 159.3 45.5 161.45 44.25 L161.6 44.2 166.6 41.7 M172.35 367.45 L173.95 367.15 175.15 367.45 176.05 368.3 176.75 369.15 Q177.45 369.85 177.45 370.9 177.45 371.9 176.75 372.65 173.1 376.4 168.8 379.15 L168.85 379.15 Q160.7 384.45 150.15 386.35 L149.8 386.4 148.65 386.65 Q137.3 386.4 127.25 383.3 L126.1 382.6 Q125.65 382.1 125.5 381.45 125.35 380.75 125.6 380.1 125.9 379.05 126.65 378.05 L126.95 377.65 128.35 376.7 Q129.05 376.3 129.9 376.45 149.1 379.7 166.35 371.55 L166.4 371.55 167.2 371.15 169.95 368.4 Q170.35 367.95 170.9 367.8 L172.35 367.45" fill="#ffffff" fill-rule="evenodd" stroke="none"/>
  </g>
</svg>
