<?xml version="1.0" encoding="UTF-8" standalone="no"?>
<svg xmlns:ffdec="https://www.free-decompiler.com/flash" xmlns:xlink="http://www.w3.org/1999/xlink" ffdec:objectType="shape" height="340.75px" width="55.3px" xmlns="http://www.w3.org/2000/svg">
  <g transform="matrix(1.0, 0.0, 0.0, 1.0, -142.0, -49.3)">
    <path d="M197.2 250.1 Q196.7 251.6 195.6 253.1 196.2 264.2 193.25 274.4 L193.2 274.5 Q193.05 275.15 193.05 275.8 L192.8 276.95 191.5 279.05 187.15 290.0 186.9 290.45 180.6 300.35 Q180.4 301.1 180.55 301.9 L180.55 302.3 180.55 303.55 Q180.55 304.45 180.0 305.15 178.2 307.35 177.8 309.95 177.65 310.75 177.1 311.35 L176.9 311.5 Q177.05 314.8 175.55 317.55 178.55 323.05 179.55 329.7 179.65 330.35 179.4 331.0 L178.55 332.05 Q177.85 332.6 177.3 333.3 176.7 334.1 175.75 334.3 174.75 334.45 173.95 333.9 L172.95 333.5 Q172.2 333.3 171.7 332.7 171.15 332.1 171.1 331.35 170.4 325.9 167.45 321.15 167.05 320.5 167.05 319.8 L167.05 315.8 167.05 314.8 Q167.05 314.05 167.5 313.45 L168.25 312.4 Q169.7 305.5 172.05 298.9 L172.05 298.3 Q172.05 297.55 172.5 296.9 L179.55 286.0 Q181.7 279.95 184.8 274.15 L184.8 270.8 184.8 269.8 Q184.8 269.05 185.25 268.45 L186.0 267.4 Q187.55 259.2 187.55 250.3 L187.75 248.95 Q187.25 242.6 186.1 236.25 L186.05 235.8 186.05 235.6 185.1 233.95 184.9 233.5 Q178.8 211.5 163.4 193.7 162.8 192.95 162.8 192.05 L162.8 191.05 162.8 190.9 Q161.9 189.7 160.55 189.1 L159.45 188.2 Q159.05 187.55 159.05 186.8 L158.95 185.6 158.75 185.05 157.3 183.6 Q156.8 183.1 156.65 182.45 155.05 176.7 154.8 170.65 L154.8 170.55 154.8 170.35 153.65 168.6 Q153.2 167.85 153.35 167.05 154.0 160.8 152.4 154.8 152.05 153.9 152.05 153.05 L152.25 152.15 Q153.5 148.85 153.3 144.95 L153.3 144.8 153.3 143.8 Q153.3 142.75 154.05 142.05 L154.75 141.35 Q156.3 137.75 156.3 133.55 156.2 132.8 156.7 132.05 157.05 130.5 158.85 130.35 L161.05 130.05 Q162.1 130.05 162.85 130.8 L163.85 131.8 Q164.55 132.5 164.55 133.55 L164.55 138.8 164.55 139.8 Q164.55 140.85 163.85 141.6 L163.55 141.95 163.05 142.75 163.05 142.8 163.05 143.8 162.8 144.95 162.3 145.95 162.15 146.2 161.85 146.6 Q161.95 149.05 161.3 151.5 L161.1 152.45 Q161.85 165.35 164.2 178.05 L164.4 178.6 165.85 180.05 166.5 181.2 166.95 183.0 167.2 183.75 Q183.1 203.55 192.85 226.85 L193.0 227.35 196.8 247.65 196.8 247.8 197.25 248.75 197.2 250.1 M173.95 50.35 L174.5 50.05 175.3 49.5 176.7 49.35 Q186.2 50.9 189.7 55.95 193.5 60.85 191.3 69.1 191.3 70.05 190.4 71.45 L189.5 72.25 188.3 72.55 Q186.5 72.55 185.2 71.65 L184.8 71.35 184.05 70.6 Q183.55 70.1 183.4 69.45 183.2 68.8 183.4 68.2 L183.9 66.2 184.1 65.7 184.6 64.7 184.65 64.6 Q183.5 61.35 180.45 59.8 L180.35 59.75 177.2 58.25 176.1 58.7 Q175.3 58.95 174.5 58.7 173.25 58.3 172.05 57.1 171.05 56.25 171.05 54.55 171.05 53.95 171.35 53.45 L171.85 52.45 Q172.0 52.05 172.3 51.8 L173.3 50.8 Q173.55 50.5 173.95 50.35 M145.1 75.05 L145.3 74.25 Q145.3 73.25 146.05 72.55 148.5 70.05 152.05 70.05 L152.8 70.05 Q153.85 70.05 154.6 70.8 155.25 71.45 155.9 72.45 156.35 73.15 156.3 74.05 156.2 74.95 155.6 75.6 154.05 77.1 152.75 79.05 L152.3 79.75 152.3 79.8 152.3 80.8 152.05 81.95 151.55 82.95 151.1 83.6 150.75 83.95 Q149.9 95.3 156.65 104.8 158.25 106.0 157.05 108.45 155.25 112.7 150.05 110.35 L148.95 109.4 Q141.55 97.5 142.05 83.55 L142.05 83.45 142.05 81.55 Q142.05 80.5 142.8 79.8 L143.8 78.7 143.8 78.55 143.8 77.55 Q143.8 76.8 144.25 76.2 L145.1 75.05 M180.05 349.55 Q180.65 349.55 181.25 349.85 L182.15 350.7 182.85 351.55 Q183.55 352.25 183.55 353.3 183.55 356.1 182.3 358.85 L182.3 359.3 181.95 360.6 Q170.3 379.95 150.4 389.8 L148.9 390.05 Q148.1 389.9 147.55 389.35 L145.8 387.3 Q145.35 386.7 145.3 386.0 145.25 385.3 145.6 384.65 145.9 384.0 146.55 383.65 163.05 373.8 173.7 357.35 174.2 355.0 175.35 352.65 175.5 351.45 176.3 350.8 L176.55 350.55 Q177.0 350.05 177.7 349.9 L180.05 349.55" fill="#ffffff" fill-rule="evenodd" stroke="none"/>
  </g>
</svg>
