<?xml version="1.0" encoding="UTF-8" standalone="no"?>
<svg xmlns:ffdec="https://www.free-decompiler.com/flash" xmlns:xlink="http://www.w3.org/1999/xlink" ffdec:objectType="shape" height="295.3px" width="38.9px" xmlns="http://www.w3.org/2000/svg">
  <g transform="matrix(1.0, 0.0, 0.0, 1.0, -178.7, -95.6)">
    <path d="M198.7 97.35 Q199.4 98.05 199.4 99.1 L199.4 101.1 199.4 102.1 199.15 103.2 198.45 104.1 Q195.95 106.0 195.35 108.85 L195.15 109.45 194.8 110.65 Q191.85 115.65 191.4 121.8 L191.2 123.65 191.3 123.8 191.45 124.1 Q192.15 124.8 192.15 125.85 L192.15 127.85 192.0 128.7 Q192.95 131.4 192.65 134.1 L192.55 134.6 195.95 142.1 196.1 142.5 Q196.65 143.2 196.65 144.1 L196.65 148.05 198.2 149.6 198.45 149.95 Q209.6 166.15 217.0 184.15 L217.15 184.85 Q218.7 198.35 214.8 210.6 L214.75 210.8 Q214.4 211.6 214.4 212.6 214.4 213.45 213.85 214.15 210.5 218.35 208.9 223.25 L208.9 223.85 208.6 225.05 207.8 225.95 205.6 227.5 Q204.85 228.8 204.65 230.2 204.65 231.2 204.15 232.25 L203.25 233.2 Q201.15 234.55 199.4 236.2 L199.4 237.1 199.1 238.35 Q197.7 240.75 195.5 242.1 L195.1 243.0 194.65 244.5 193.8 245.45 192.65 246.15 Q191.65 248.6 190.05 250.9 L189.9 251.2 189.9 252.6 189.9 253.6 Q189.9 254.45 189.4 255.1 L188.4 256.45 188.4 256.6 188.4 257.6 Q188.4 258.65 187.7 259.4 L186.7 260.4 Q185.95 261.1 184.9 261.1 L183.15 261.1 Q182.1 261.1 181.4 260.4 L179.4 258.4 Q178.75 257.75 178.7 256.9 178.6 256.0 179.05 255.25 180.55 252.85 181.25 250.05 L181.4 249.55 Q181.4 248.9 181.75 248.35 183.15 246.05 184.05 243.5 L184.15 243.3 Q184.15 242.75 184.4 242.3 L185.1 241.4 186.7 240.05 186.9 239.3 Q186.9 238.4 187.5 237.75 188.9 236.1 190.9 234.65 L190.9 234.1 Q190.9 233.25 191.4 232.6 193.5 229.8 196.4 227.8 L196.4 227.1 Q196.4 226.4 196.75 225.85 L197.65 224.25 197.65 223.85 Q197.65 223.25 197.95 222.7 198.25 222.15 198.8 221.8 L200.75 220.4 Q202.35 215.45 205.35 211.2 L205.35 211.15 206.0 210.25 Q211.4 196.1 206.3 181.95 L206.3 181.9 Q205.75 180.35 205.85 178.6 192.2 160.55 185.5 139.5 L184.9 138.9 Q184.15 138.15 184.15 137.1 L184.15 132.85 184.15 132.8 183.7 132.0 183.4 131.65 Q182.9 131.15 182.75 130.5 182.55 129.85 182.75 129.25 L183.15 127.55 183.25 127.0 Q182.2 124.3 182.65 121.45 L182.65 120.6 Q182.65 119.55 183.4 118.85 L183.7 118.5 184.15 117.7 Q184.2 107.05 190.95 98.65 L191.2 98.0 Q191.8 96.75 193.05 96.15 L193.35 96.0 195.9 95.6 Q196.95 95.6 197.7 96.35 L198.7 97.35 M200.95 267.15 L201.25 266.75 201.05 267.05 200.95 267.15 M201.9 262.85 L201.9 263.25 201.65 262.25 201.9 262.85 M200.7 267.5 L199.95 268.4 200.65 266.5 200.7 267.5 M201.85 290.5 L201.9 290.8 201.9 290.95 201.85 290.5 M202.15 292.75 L202.15 293.1 202.1 292.5 202.15 292.75 M204.9 299.8 L204.95 299.85 205.15 300.25 204.9 299.9 204.9 300.35 204.75 299.65 204.7 299.6 204.75 299.65 204.65 299.25 204.9 299.75 204.9 299.8 M206.15 303.35 L206.15 304.35 205.25 302.45 206.15 303.3 206.15 303.35 M207.65 307.35 L207.65 307.25 207.5 307.0 207.65 307.25 207.65 307.35 M196.4 299.2 L196.4 298.6 196.6 299.6 196.4 299.2 M197.65 303.6 L197.85 304.3 197.9 304.4 197.85 304.35 197.95 304.75 197.65 304.2 197.65 304.15 197.6 304.1 197.45 303.75 197.65 304.05 197.65 303.6 M210.15 315.6 L209.75 314.25 210.15 314.85 210.15 314.6 210.15 314.9 210.15 315.6 M205.65 322.1 L206.4 323.9 205.8 323.3 205.65 322.1 M216.9 331.55 L216.9 331.9 216.65 331.0 216.9 331.55 M216.95 332.35 L217.0 332.4 216.9 332.0 217.1 332.4 217.15 332.55 217.2 332.6 217.4 333.0 217.15 332.65 217.15 333.1 217.0 332.45 216.95 332.35 M209.95 336.85 L209.9 336.35 210.1 337.05 210.15 337.15 210.1 337.1 210.2 337.5 209.95 337.05 209.95 336.95 209.85 336.85 209.7 336.5 209.95 336.85 M210.25 338.05 L210.2 337.7 210.45 338.5 210.25 338.05 M206.0 359.2 L205.9 359.85 205.9 359.5 206.0 359.2 M204.15 364.1 L204.15 363.8 204.25 363.5 204.15 364.1 M203.95 364.6 L204.8 364.05 203.75 365.5 203.95 364.6 M210.3 370.3 L209.95 370.65 210.5 369.8 210.3 370.3 M183.15 383.7 L183.45 383.65 182.85 383.85 183.15 383.7 M188.1 390.3 L187.3 390.5 188.75 389.5 188.2 390.25 188.1 390.3 187.9 390.65 187.7 390.9 188.1 390.3" fill="#ffffff" fill-rule="evenodd" stroke="none"/>
  </g>
</svg>
