<?xml version="1.0" encoding="UTF-8" standalone="no"?>
<svg xmlns:ffdec="https://www.free-decompiler.com/flash" xmlns:xlink="http://www.w3.org/1999/xlink" ffdec:objectType="shape" height="302.25px" width="52.0px" xmlns="http://www.w3.org/2000/svg">
  <g transform="matrix(1.0, 0.0, 0.0, 1.0, -142.45, -48.15)">
    <path d="M190.95 48.15 L192.15 48.45 193.05 49.3 193.75 50.15 194.4 51.45 194.25 52.95 Q193.0 55.8 189.8 57.0 186.6 61.55 182.55 65.9 L182.5 65.95 182.2 66.2 182.2 67.15 181.95 68.25 181.25 69.1 179.35 70.85 Q175.95 75.65 172.85 80.95 172.55 81.4 172.7 82.0 172.85 82.95 172.3 83.8 L170.4 86.9 170.0 87.4 Q170.0 90.45 168.3 93.05 L168.2 93.15 167.1 94.7 Q166.45 97.95 164.7 101.05 164.3 101.75 164.45 102.5 L164.35 103.65 163.75 104.7 162.75 105.7 Q162.0 106.4 160.95 106.4 L159.2 106.4 Q158.25 106.4 157.55 105.8 156.85 105.15 156.75 104.25 155.6 95.9 160.6 87.85 L160.7 87.65 Q161.75 86.2 161.95 84.2 L162.15 83.4 Q164.95 77.0 168.55 70.9 169.55 69.15 171.0 67.8 L171.2 67.1 Q171.2 66.1 171.95 65.4 L174.0 63.55 Q179.3 53.95 188.25 49.0 189.6 48.1 190.95 48.15 M173.15 104.3 L173.95 104.15 174.7 104.15 Q175.75 104.15 176.5 104.9 L177.5 105.9 Q178.05 106.45 178.2 107.25 L177.95 108.8 176.95 110.8 176.3 111.85 Q174.1 122.6 176.1 133.65 L176.45 135.2 Q177.65 141.7 180.7 147.5 L180.95 148.65 180.95 153.65 180.95 154.0 Q183.65 159.05 184.9 164.35 L184.95 164.85 185.25 165.15 Q185.8 165.7 185.95 166.5 186.45 169.7 186.45 173.15 L186.4 173.75 186.3 174.3 186.25 174.4 186.5 174.65 187.45 176.05 187.7 177.15 187.7 186.4 187.7 188.4 187.45 189.55 186.5 190.95 186.3 191.15 186.3 191.25 Q186.8 197.45 184.0 202.7 L183.65 203.65 Q182.55 212.3 178.2 219.85 L178.2 220.15 178.2 221.15 Q178.2 222.05 177.65 222.75 L175.5 225.5 Q175.3 226.15 175.45 227.05 L175.45 227.4 175.45 228.4 Q175.45 229.45 174.75 230.2 L174.45 230.55 173.95 231.35 173.95 231.4 173.95 232.4 173.7 233.55 173.2 234.55 172.75 235.2 172.7 235.25 Q171.9 266.0 188.55 292.05 190.7 295.35 190.7 299.9 L190.7 300.0 190.7 300.6 190.75 300.65 Q191.45 301.35 191.45 302.4 191.45 310.7 190.45 318.75 L190.45 319.65 Q190.45 320.7 189.75 321.45 L188.1 323.1 187.7 324.25 187.7 324.9 Q187.7 325.95 187.0 326.7 L185.25 328.4 184.9 329.5 184.7 330.0 184.45 331.0 183.8 331.85 Q167.85 344.95 147.35 350.35 L146.25 350.35 Q145.65 350.25 145.2 349.9 L143.2 348.2 Q142.6 347.6 142.5 346.8 142.35 346.0 142.75 345.25 143.1 344.55 143.85 344.2 L166.85 332.7 171.2 329.95 171.05 330.05 179.2 322.35 179.2 321.4 Q179.2 320.5 179.8 319.8 L181.85 317.35 182.55 311.25 181.2 293.35 179.95 291.95 179.5 291.3 Q173.95 280.75 168.7 269.75 L168.6 269.5 Q162.65 252.7 164.2 234.7 L164.2 232.9 Q164.2 231.85 164.95 231.15 L165.15 230.9 165.7 229.8 165.7 229.65 165.7 228.65 Q165.7 227.6 166.45 226.9 L166.95 226.35 167.0 225.05 166.95 224.65 166.95 223.65 167.1 222.8 Q167.9 220.65 169.55 219.3 L169.7 218.15 169.7 217.4 Q169.7 216.85 169.95 216.35 170.15 215.85 170.6 215.5 L172.7 213.3 Q178.0 196.75 179.2 179.5 L179.2 179.25 179.2 179.2 179.15 179.15 178.25 177.8 Q177.95 177.25 177.95 176.65 L177.95 171.4 177.95 170.0 177.95 169.95 177.2 169.2 Q176.6 168.6 176.5 167.75 175.8 162.75 173.3 158.4 L173.25 158.3 172.75 157.3 Q172.45 156.75 172.45 156.15 L172.45 150.9 Q168.7 146.55 169.7 140.5 L169.7 140.45 169.35 139.7 169.2 139.45 Q168.65 138.9 168.5 138.2 165.4 124.0 168.2 109.9 168.25 108.95 168.75 108.05 L168.95 107.65 170.3 105.65 Q170.65 105.05 171.25 104.75 171.8 104.4 172.45 104.4 L173.15 104.3" fill="#ffffff" fill-rule="evenodd" stroke="none"/>
  </g>
</svg>
