<?xml version="1.0" encoding="UTF-8" standalone="no"?>
<svg xmlns:ffdec="https://www.free-decompiler.com/flash" xmlns:xlink="http://www.w3.org/1999/xlink" ffdec:objectType="shape" height="372.5px" width="68.6px" xmlns="http://www.w3.org/2000/svg">
  <g transform="matrix(1.0, 0.0, 0.0, 1.0, -135.85, -5.8)">
    <path d="M200.65 18.55 Q201.35 19.25 201.35 20.25 L201.6 21.3 201.6 22.3 201.6 23.3 201.6 23.4 202.2 24.2 202.35 24.45 Q202.85 25.5 202.85 26.55 L202.85 27.5 203.15 27.8 203.6 28.45 Q204.7 30.6 204.35 32.8 L204.35 40.8 204.35 41.8 Q204.35 42.85 203.65 43.6 L203.35 43.95 202.85 44.75 202.85 44.8 202.85 45.8 Q202.85 46.85 202.15 47.6 L200.3 49.6 Q199.5 50.6 198.9 52.05 L198.85 52.2 198.35 53.2 197.6 54.05 Q190.75 59.15 183.9 63.2 L183.75 63.3 Q182.5 63.9 181.9 65.35 181.5 66.2 180.6 66.6 175.4 68.9 173.75 74.05 172.5 78.05 170.35 81.35 L170.1 83.05 Q170.05 84.85 169.5 86.6 L169.35 86.95 168.8 88.4 168.6 88.95 167.65 90.35 167.0 90.8 Q165.45 91.55 163.6 91.55 162.75 91.55 162.1 91.05 161.4 90.5 161.2 89.65 160.85 88.35 160.85 87.05 160.85 84.25 161.65 81.5 L161.85 79.05 Q161.85 78.35 162.2 77.8 L163.75 75.45 165.65 71.7 165.85 70.8 Q165.85 69.85 166.5 69.15 178.9 55.45 193.6 44.1 L193.6 44.05 194.6 43.25 194.6 43.05 194.6 42.05 Q194.6 41.0 195.35 40.3 L195.8 39.8 195.85 39.05 195.85 35.05 195.85 32.6 195.5 31.85 195.35 31.6 Q194.6 30.85 194.6 29.8 L194.6 28.8 194.6 28.4 194.6 28.35 193.85 27.6 Q193.1 26.85 193.1 25.8 L193.1 24.8 193.1 23.8 193.1 23.55 190.95 20.7 191.0 20.75 Q188.65 18.2 186.15 16.0 177.1 15.45 170.4 13.45 169.55 13.2 169.05 12.45 168.55 11.7 168.65 10.8 168.7 9.9 169.35 9.3 L170.1 8.55 Q170.45 8.15 170.95 8.0 173.05 7.15 175.15 6.45 175.85 5.8 176.85 5.8 191.3 5.8 199.8 17.7 L200.65 18.55 M155.25 123.9 Q156.7 122.2 156.4 119.9 L156.35 119.55 156.35 118.55 Q156.35 117.95 156.65 117.45 156.95 116.7 157.6 116.05 L157.85 115.65 157.85 115.3 157.85 114.3 Q157.85 113.25 158.6 112.55 L159.1 112.0 159.15 110.7 159.1 110.3 159.1 109.3 159.3 108.35 Q160.2 106.15 162.1 104.3 162.35 104.0 162.75 103.85 L162.85 103.8 Q163.95 102.65 165.1 102.8 L166.1 102.8 166.6 102.8 Q167.65 102.8 168.4 103.55 L169.25 104.25 Q170.0 104.75 170.3 105.65 170.5 106.55 170.1 107.45 L168.2 110.7 167.9 111.1 167.45 111.5 Q166.45 117.45 165.05 123.15 L164.85 124.55 Q164.85 125.6 164.15 126.35 L163.05 127.5 Q162.15 142.95 162.85 158.2 L162.85 158.3 Q162.85 159.45 163.15 160.5 164.35 162.2 166.15 163.6 L167.0 164.75 Q167.6 166.65 167.6 168.55 L167.6 168.8 Q169.45 171.6 170.05 175.15 L170.3 176.15 Q176.75 188.85 181.0 202.55 L181.1 202.9 Q183.1 214.95 183.35 227.55 L183.85 230.7 183.85 231.45 Q181.6 245.65 179.85 259.85 L179.8 260.15 179.3 262.15 178.95 262.95 Q175.45 268.3 172.85 274.6 L172.85 275.05 172.85 276.05 172.75 276.75 Q172.2 278.9 170.3 280.5 170.15 281.05 170.15 281.65 L170.35 283.05 170.1 284.15 169.4 285.0 167.15 287.1 Q166.5 287.65 165.65 287.8 164.8 287.9 164.1 287.45 163.0 286.8 161.95 286.4 161.2 286.1 160.8 285.45 160.35 284.8 160.35 284.05 160.35 282.7 161.0 281.9 161.3 281.2 161.9 280.65 L161.9 279.45 161.85 279.05 161.85 278.05 162.1 277.0 Q162.3 276.5 162.75 276.15 L164.6 274.25 164.6 274.05 164.6 272.8 Q164.6 272.35 164.75 271.95 167.25 265.0 171.35 258.8 171.45 252.65 172.65 246.8 L172.7 246.7 172.85 245.3 Q172.85 244.25 173.6 243.55 L173.9 243.2 174.6 232.85 174.7 232.45 175.05 231.0 Q173.35 222.4 174.1 213.35 L174.1 212.35 173.65 211.7 173.15 210.7 Q172.8 210.1 172.85 209.45 173.05 205.2 170.75 201.65 L170.65 201.45 170.35 201.1 169.75 200.1 Q169.55 199.5 169.65 198.95 169.95 196.7 168.6 194.8 L168.25 194.1 168.1 193.85 167.5 192.95 167.35 191.9 Q167.8 185.95 163.75 181.5 L163.85 181.6 162.85 180.6 Q162.15 179.9 162.1 179.0 161.9 176.35 160.5 174.15 L160.55 174.2 159.85 173.35 Q159.1 172.6 159.1 171.55 L158.9 168.95 158.85 168.55 158.85 168.45 155.25 164.25 Q154.65 163.6 154.6 162.75 153.35 145.55 154.6 128.65 L154.6 125.55 Q154.6 124.6 155.25 123.9 M163.1 302.8 Q163.1 301.75 163.85 301.05 164.65 300.2 165.55 299.95 166.55 299.3 168.1 299.3 168.65 299.3 169.15 299.55 169.65 299.75 170.05 300.2 175.85 307.15 175.6 316.3 L175.6 316.4 175.6 316.5 Q177.2 318.8 177.75 321.55 L177.95 322.15 Q180.1 324.7 179.9 328.55 L180.15 328.8 Q180.8 329.45 180.85 330.4 181.65 341.85 175.8 352.3 L175.4 352.85 175.1 353.2 174.4 354.0 172.5 355.55 Q171.05 359.15 167.45 361.55 L167.35 361.6 167.35 361.9 166.85 363.45 166.4 364.05 Q153.95 377.0 138.6 378.3 137.65 378.35 136.95 377.85 136.2 377.35 135.95 376.5 135.7 375.65 136.05 374.85 136.4 374.0 137.2 373.6 148.5 367.7 159.1 358.9 L159.1 358.05 159.35 357.0 160.05 356.1 164.3 352.55 Q165.75 349.15 168.65 346.95 171.75 342.85 171.35 337.75 L171.35 337.55 171.35 336.55 Q171.35 335.5 172.1 334.8 L172.7 334.2 Q169.05 321.0 164.75 307.85 L164.7 307.65 164.35 306.25 163.5 304.6 Q163.1 303.7 163.1 302.8" fill="#ffffff" fill-rule="evenodd" stroke="none"/>
  </g>
</svg>
