<?xml version="1.0" encoding="UTF-8" standalone="no"?>
<svg xmlns:ffdec="https://www.free-decompiler.com/flash" xmlns:xlink="http://www.w3.org/1999/xlink" ffdec:objectType="shape" height="341.0px" width="99.2px" xmlns="http://www.w3.org/2000/svg">
  <g transform="matrix(1.0, 0.0, 0.0, 1.0, -119.35, -40.55)">
    <path d="M199.45 42.6 Q200.35 43.2 200.85 44.2 201.55 45.65 201.0 47.1 200.55 48.45 199.65 49.35 198.9 50.05 197.85 50.05 L196.1 50.05 196.0 50.05 185.85 49.65 185.15 50.6 184.5 51.05 182.95 51.5 179.35 52.95 176.95 58.95 176.85 59.15 176.85 60.05 Q176.85 61.1 176.15 61.85 L175.15 62.85 174.75 63.15 173.85 63.65 173.85 65.5 Q176.95 68.75 176.9 72.85 L180.6 73.6 180.65 73.6 Q184.15 74.35 187.85 72.95 L189.75 68.25 189.8 68.15 189.85 67.95 188.6 66.6 Q187.85 65.85 187.85 64.9 L187.6 63.8 187.6 63.75 Q185.8 63.05 183.9 62.45 L182.6 61.55 Q182.1 60.9 182.1 60.05 182.1 58.4 183.05 57.6 183.8 56.55 185.25 55.85 185.95 55.45 186.7 55.6 188.7 55.85 190.4 56.45 L190.3 56.4 Q192.3 56.95 194.35 58.15 195.0 58.5 195.35 59.2 195.8 60.0 195.85 61.25 L196.1 62.25 196.65 62.8 197.65 63.8 198.1 64.45 Q198.55 65.35 198.6 66.25 198.9 68.1 198.6 69.95 L198.35 70.7 197.85 71.7 195.15 77.85 194.65 78.6 194.35 78.95 193.9 79.6 192.9 80.6 Q192.35 81.1 191.6 81.25 L186.85 82.45 186.1 82.55 186.0 82.65 Q185.2 83.15 184.35 83.05 L179.6 82.55 179.5 82.55 172.55 81.25 Q171.85 81.1 171.35 80.6 L170.15 78.95 Q168.55 75.8 167.95 72.45 L167.7 72.1 166.35 70.05 166.15 69.7 Q165.6 68.6 165.6 67.55 L165.35 62.55 165.35 61.55 Q165.35 59.4 166.35 58.8 L168.65 56.9 Q169.15 53.5 171.1 50.35 L171.1 50.3 Q171.1 49.9 171.25 49.5 171.8 47.8 173.0 47.2 176.0 44.75 179.7 42.95 180.25 42.4 180.9 42.15 L181.5 41.75 Q181.85 41.15 182.4 40.85 183.0 40.5 183.7 40.55 L196.6 40.8 Q197.65 40.8 198.4 41.55 L199.45 42.6 M217.15 65.55 Q217.7 66.1 217.85 66.95 220.15 83.55 215.0 98.85 L214.55 100.55 Q214.4 101.3 213.9 101.85 212.75 102.95 212.35 104.4 L212.35 105.05 Q212.35 105.8 211.95 106.45 208.2 111.9 204.75 117.6 L204.0 118.4 Q200.9 120.5 199.45 124.45 L198.65 125.55 Q194.75 128.5 190.85 131.9 L190.6 133.05 190.6 133.8 Q190.6 134.5 190.2 135.15 L186.25 140.45 185.4 141.1 184.35 141.3 181.8 140.95 180.85 140.35 180.1 139.6 Q179.5 139.0 179.4 138.2 179.25 137.4 179.65 136.7 181.2 133.55 182.1 130.2 L182.1 129.55 182.3 128.6 182.9 127.75 Q187.25 123.65 192.05 119.75 193.95 115.25 197.7 112.6 L206.85 96.7 Q211.0 84.7 209.65 71.8 L209.4 70.35 Q206.3 66.8 206.6 61.9 L206.6 61.85 Q206.0 60.85 205.75 59.85 205.35 58.95 205.35 58.05 205.35 57.45 205.65 56.95 206.25 55.7 207.5 55.1 L207.8 54.95 210.1 54.55 Q210.85 54.55 211.5 55.0 L213.15 56.3 214.35 57.95 214.6 59.05 Q214.6 62.2 216.35 64.55 L216.45 64.7 217.15 65.55 M175.15 150.8 L176.15 151.8 Q176.7 152.4 176.85 153.25 176.95 154.05 176.5 154.8 L169.25 166.9 169.2 166.95 168.45 167.95 Q167.4 174.05 164.95 180.25 L164.7 180.7 164.6 181.05 164.35 182.2 163.85 183.2 163.3 184.1 Q162.45 192.8 162.55 201.45 162.6 207.0 163.1 212.55 L163.1 212.6 163.35 217.05 165.15 219.6 Q165.6 220.3 165.6 221.1 165.35 231.75 170.1 241.45 170.7 242.7 171.8 243.95 L172.3 244.95 172.8 246.95 172.85 247.55 172.85 248.1 Q173.25 248.8 174.35 249.4 L175.25 250.3 175.6 251.55 175.6 255.8 175.6 256.2 Q178.4 261.4 182.0 266.4 L183.1 267.95 183.3 268.45 183.8 270.45 183.85 270.85 Q186.3 273.95 189.25 276.4 189.85 276.9 190.05 277.7 L190.35 279.8 190.35 279.95 190.4 280.0 Q191.75 281.25 192.9 282.85 193.35 283.5 193.35 284.3 L193.35 286.3 193.35 286.95 193.35 287.0 193.4 287.05 194.35 288.45 194.6 289.35 Q194.8 292.05 195.5 295.0 L195.85 296.7 199.15 301.4 199.6 302.4 Q200.35 307.1 200.1 312.05 L200.1 312.2 200.1 314.25 200.15 314.3 200.6 314.95 201.1 315.95 201.35 317.4 Q200.95 320.05 202.05 322.1 L202.1 322.2 202.6 323.2 202.85 324.25 202.65 325.3 Q200.35 330.6 200.1 336.55 L200.1 336.65 200.1 339.55 Q200.1 340.6 199.4 341.35 L199.1 341.7 198.6 342.5 198.6 342.55 198.6 343.55 198.25 344.9 192.3 354.05 191.85 354.75 191.85 354.8 191.85 356.05 191.55 357.25 190.75 358.15 188.3 359.75 187.85 360.95 187.3 361.65 Q162.75 384.65 127.85 381.05 L126.65 380.6 Q122.95 377.95 120.1 375.1 119.5 374.5 119.4 373.7 119.25 372.9 119.65 372.15 120.0 371.45 120.75 371.1 122.0 370.45 123.05 369.6 123.65 369.1 124.4 369.05 125.15 369.0 125.85 369.4 128.0 370.55 129.75 372.4 144.95 373.4 159.5 369.95 173.55 362.75 184.05 351.85 186.5 347.2 189.45 342.85 L190.1 341.85 190.35 340.75 190.35 339.8 Q190.35 338.75 191.1 338.05 L191.35 337.75 Q191.45 332.25 192.65 327.0 L192.75 326.75 193.5 324.5 Q192.9 322.0 193.1 319.55 L193.1 319.5 192.65 318.7 192.5 318.35 192.35 318.1 Q191.6 317.35 191.6 316.3 L191.6 307.3 191.6 305.7 Q190.1 302.95 188.2 300.65 187.7 300.05 187.65 299.4 186.9 293.85 185.25 288.35 L185.2 288.3 184.9 286.6 Q184.15 285.45 183.0 284.45 L182.35 283.6 182.1 282.55 182.1 281.55 176.3 275.25 175.7 274.15 Q175.4 273.1 175.35 271.9 L175.35 271.8 175.3 271.7 Q170.9 266.55 168.1 260.35 L168.0 260.1 167.85 259.85 Q167.1 259.1 167.1 258.05 L167.1 256.25 165.6 254.85 164.95 253.8 Q164.1 250.95 164.1 247.8 L164.1 247.6 Q157.6 238.2 157.6 226.3 L157.6 223.9 Q157.1 223.0 156.15 222.35 L155.45 221.55 155.15 220.55 Q154.6 215.45 154.85 210.05 L154.85 209.95 154.85 207.65 154.65 207.2 154.35 206.85 Q153.6 206.1 153.6 205.05 L153.65 201.4 Q153.95 190.3 156.15 180.05 L156.15 176.6 Q156.05 175.95 156.3 175.4 161.1 163.45 167.95 152.55 L168.0 152.5 Q168.45 151.6 169.75 150.75 L170.3 150.45 172.6 150.05 173.35 150.05 Q174.4 150.05 175.15 150.8" fill="#ffffff" fill-rule="evenodd" stroke="none"/>
  </g>
</svg>
