<?xml version="1.0" encoding="UTF-8" standalone="no"?>
<svg xmlns:ffdec="https://www.free-decompiler.com/flash" xmlns:xlink="http://www.w3.org/1999/xlink" ffdec:objectType="shape" height="357.25px" width="92.1px" xmlns="http://www.w3.org/2000/svg">
  <g transform="matrix(1.0, 0.0, 0.0, 1.0, -134.85, -45.25)">
    <path d="M222.95 49.2 L223.0 49.2 225.15 50.3 226.3 51.2 Q226.7 51.85 226.7 52.6 L226.7 53.4 226.95 59.85 226.95 64.85 226.7 66.0 225.75 67.4 225.6 67.5 221.25 71.65 218.5 73.75 217.5 74.1 216.4 74.0 214.4 72.85 Q212.9 71.85 212.95 70.1 212.95 69.7 213.1 69.3 213.6 67.8 214.2 67.35 L215.7 65.35 216.75 63.75 Q217.1 63.0 217.85 62.65 L218.45 62.3 218.45 59.85 218.45 56.75 216.9 56.25 Q216.35 56.05 215.95 55.65 L215.65 55.5 Q214.95 55.25 214.5 54.7 L214.45 54.6 214.35 54.6 Q209.4 54.6 204.6 54.85 203.35 55.85 202.5 57.05 L195.25 66.75 Q192.7 75.9 193.2 86.0 L193.2 86.05 Q193.45 94.9 192.2 103.55 L192.2 103.95 Q193.25 107.55 192.1 111.15 L192.05 111.3 Q191.25 113.25 191.45 115.4 L191.2 116.75 190.25 118.1 190.2 118.15 190.2 118.2 190.2 118.6 190.2 119.85 190.2 120.85 189.95 122.0 189.05 123.35 188.25 124.2 188.1 124.7 187.3 126.75 Q186.5 128.9 184.85 130.25 184.55 131.9 183.6 133.4 L183.55 133.5 Q179.85 139.5 174.65 144.2 173.9 144.85 172.95 144.85 L170.9 144.4 Q169.15 144.35 168.35 141.9 L168.2 141.1 Q168.1 138.3 170.85 135.95 L170.8 136.0 Q174.95 132.25 176.3 127.25 176.45 126.55 176.95 126.1 L177.95 125.1 178.95 124.1 179.2 123.75 179.2 122.95 Q178.95 122.4 178.95 121.85 L178.95 120.85 Q178.95 120.25 179.25 119.75 L179.75 118.75 Q180.1 118.0 180.85 117.65 L181.7 117.15 181.7 116.6 181.7 115.6 Q181.7 114.55 182.45 113.85 L183.0 113.3 Q183.25 110.8 184.05 108.65 184.4 107.2 183.4 105.8 L183.0 104.8 Q182.9 104.25 183.05 103.75 185.15 95.35 184.45 86.3 L184.45 86.25 Q183.95 77.4 185.75 69.1 185.9 68.35 186.45 67.85 L186.75 67.5 Q186.9 67.05 187.2 66.7 L187.2 66.6 187.2 65.6 187.2 64.6 Q187.2 64.0 187.5 63.5 187.85 62.65 188.7 61.85 L189.0 61.6 Q190.15 60.75 190.65 59.65 L190.9 59.25 Q191.35 58.5 191.25 57.7 191.15 57.15 191.35 56.6 191.5 56.0 191.95 55.6 L192.95 54.6 193.9 53.2 194.0 52.95 Q194.05 52.55 194.25 52.25 194.85 51.0 196.1 50.4 L196.2 50.35 Q198.45 49.3 200.35 47.65 201.6 46.05 202.9 45.75 L203.35 45.65 Q213.95 44.0 222.95 49.2 M174.85 75.45 Q177.05 78.0 178.5 81.1 L178.6 81.3 178.95 82.25 179.2 83.35 179.2 87.35 179.2 89.35 179.0 90.4 178.35 91.25 170.9 97.95 Q170.2 98.6 169.2 98.6 L157.7 98.6 Q156.85 98.6 156.2 98.1 154.1 96.45 151.85 95.35 L151.0 94.65 150.55 93.7 150.2 91.4 149.95 89.1 Q149.95 88.05 150.7 87.35 L151.45 86.6 Q151.85 86.15 152.4 86.0 L154.95 85.6 Q156.0 85.6 156.75 86.35 L157.75 87.35 Q158.45 88.05 158.45 89.1 L158.45 89.5 159.1 89.9 159.15 89.95 159.8 90.3 166.9 89.9 Q168.65 88.25 170.7 86.85 L170.7 85.9 170.15 84.6 164.7 83.55 163.4 82.8 Q162.85 82.2 162.75 81.45 162.6 80.7 163.0 80.0 164.5 76.7 169.0 74.8 169.95 74.35 170.95 74.35 L173.55 74.7 Q174.3 74.85 174.85 75.45 M169.0 152.85 Q169.65 153.5 169.7 154.45 169.75 155.4 169.2 156.15 163.0 164.05 156.55 171.25 L156.15 172.45 155.95 172.95 Q155.95 173.7 155.45 174.35 L154.1 176.4 153.75 176.9 153.55 177.1 153.2 178.45 152.7 180.25 152.5 180.55 Q148.75 185.95 146.85 192.1 L146.4 193.95 145.95 194.85 143.45 198.7 Q143.55 199.55 144.15 200.6 L144.05 200.5 145.15 203.0 Q145.35 203.9 144.95 204.75 L144.45 205.75 144.0 206.4 143.65 206.7 143.45 207.9 143.45 209.0 144.5 210.1 Q145.2 210.8 145.2 211.85 L145.2 215.85 145.2 216.8 146.5 218.1 Q147.1 218.7 147.2 219.65 147.65 224.65 149.7 229.25 L149.75 229.35 Q150.35 230.65 150.6 232.0 153.7 234.4 154.6 238.6 L154.8 239.15 156.25 240.6 Q156.75 241.1 156.9 241.85 L157.4 244.0 157.45 244.6 157.45 244.65 Q163.7 251.75 168.35 259.6 L168.45 259.75 168.75 260.1 Q169.35 260.7 169.45 261.65 169.65 263.8 170.65 265.65 L170.8 265.95 Q171.1 266.7 171.75 267.35 172.45 268.05 172.45 269.1 L172.45 269.7 174.25 271.15 174.95 272.05 175.2 273.1 175.2 273.75 177.25 275.6 177.85 276.6 177.95 277.75 Q177.85 278.55 178.2 279.5 L179.15 281.75 179.2 282.35 Q179.2 283.4 178.7 284.5 L177.5 286.15 Q176.75 286.85 175.7 286.85 L173.95 286.85 172.7 286.5 171.75 285.55 162.05 268.1 162.05 268.15 Q161.05 266.55 161.15 264.5 L150.1 247.8 Q149.2 247.0 149.05 245.55 L147.95 244.4 147.65 244.0 146.95 243.15 Q146.2 242.4 146.2 241.35 L146.2 240.35 146.2 240.0 Q145.55 239.1 144.3 238.75 143.7 238.6 143.25 238.2 142.75 237.75 142.6 237.15 141.9 235.15 142.2 233.1 L142.2 232.0 Q140.0 229.2 139.5 225.45 L139.45 225.1 139.45 223.95 138.45 222.6 138.4 222.5 137.7 221.65 Q137.2 221.15 137.05 220.55 136.45 218.45 136.7 215.85 L136.7 214.45 136.5 214.0 136.2 213.65 135.55 212.6 Q134.65 209.6 134.95 206.4 L134.95 204.6 Q134.95 203.65 135.6 202.95 134.3 198.6 135.85 194.5 L136.0 194.25 Q136.75 192.7 137.95 191.15 138.95 187.8 140.65 184.45 141.15 183.1 142.05 182.0 142.55 178.75 144.85 176.2 L144.95 176.1 145.0 176.0 Q145.25 173.65 146.6 171.55 L146.95 171.1 147.35 170.65 Q148.2 166.25 152.4 164.05 154.2 158.85 158.3 155.25 L158.6 155.05 158.55 155.0 Q158.65 154.5 159.0 154.1 161.5 150.85 165.45 150.85 166.1 150.85 166.65 151.15 167.4 151.25 168.0 151.85 L169.0 152.85 M181.35 293.9 L183.4 293.0 184.2 292.85 184.95 292.85 Q186.0 292.85 186.75 293.6 L187.75 294.6 Q188.45 295.3 188.45 296.35 L188.45 297.35 188.45 297.5 189.5 298.6 Q190.0 299.1 190.15 299.8 193.9 316.15 195.95 332.8 198.5 352.4 187.45 366.7 L187.45 366.85 187.45 367.85 Q187.45 368.9 186.75 369.65 L185.05 371.35 Q184.8 371.8 184.7 372.35 L184.7 373.1 Q184.7 374.0 184.1 374.75 182.85 376.2 182.0 378.15 L181.95 378.25 181.45 379.25 181.0 379.85 Q170.6 390.5 158.45 399.4 L158.4 399.4 Q150.95 404.65 144.75 401.05 143.95 400.6 143.6 399.7 143.3 398.85 143.65 397.95 143.95 397.1 144.8 396.65 162.35 387.25 176.15 371.45 L176.2 370.6 176.2 369.6 Q176.2 368.7 176.8 368.0 L178.85 365.55 178.95 365.4 178.95 365.15 178.95 364.6 Q178.95 363.75 179.45 363.1 191.5 347.25 186.8 326.95 L186.8 327.0 Q185.75 323.1 185.25 318.9 L185.25 319.0 Q183.8 309.55 180.15 301.1 L179.95 300.1 179.95 297.1 179.95 296.1 Q179.95 295.4 180.35 294.8 180.7 294.2 181.35 293.9" fill="#ffffff" fill-rule="evenodd" stroke="none"/>
  </g>
</svg>
