<?xml version="1.0" encoding="UTF-8" standalone="no"?>
<svg xmlns:ffdec="https://www.free-decompiler.com/flash" xmlns:xlink="http://www.w3.org/1999/xlink" ffdec:objectType="shape" height="330.0px" width="86.5px" xmlns="http://www.w3.org/2000/svg">
  <g transform="matrix(1.0, 0.0, 0.0, 1.0, -133.2, -41.05)">
    <path d="M197.7 41.1 L202.7 41.6 Q203.5 41.65 204.1 42.2 207.3 44.9 211.9 44.35 L213.0 44.45 Q213.55 44.6 214.0 45.05 L215.0 46.05 Q215.7 46.75 215.7 47.8 L215.7 48.8 215.7 49.4 217.25 51.05 217.7 51.7 Q218.2 52.75 218.2 53.8 L218.2 54.15 Q218.1 54.85 218.4 55.45 L219.2 56.7 219.45 57.8 219.45 57.95 219.7 59.05 219.45 60.2 218.9 61.1 218.45 61.95 218.45 62.05 218.45 64.05 218.2 65.2 217.7 66.2 217.25 66.85 215.7 68.35 215.7 70.3 Q215.7 71.35 215.0 72.1 214.2 72.85 213.05 73.35 211.5 74.3 210.35 75.7 209.8 76.3 209.05 76.5 204.75 77.55 201.55 74.7 L201.45 74.6 199.45 72.3 Q198.9 71.55 198.95 70.65 199.0 69.7 199.7 69.05 201.25 67.45 202.2 67.8 L205.45 68.0 206.4 67.7 206.6 67.65 Q206.85 67.55 207.05 67.4 L207.2 66.05 Q207.2 65.0 207.95 64.3 L208.95 63.3 209.95 62.15 Q209.75 60.4 210.4 58.95 L210.35 58.85 Q209.85 57.4 209.9 55.8 L209.7 55.6 209.45 55.3 207.95 53.6 207.3 52.55 Q206.45 50.85 202.75 50.55 L202.15 50.45 200.75 49.8 Q196.6 49.8 193.85 52.7 L193.8 52.75 191.15 56.15 Q190.95 57.25 190.25 57.85 L188.5 59.8 188.4 59.9 188.35 60.15 187.9 61.9 187.25 63.1 186.6 63.65 Q186.25 65.95 184.7 67.85 184.2 68.65 184.2 69.55 L184.2 71.55 183.95 72.7 183.45 73.7 183.0 74.35 182.95 74.35 182.95 77.8 182.95 81.8 182.95 83.8 Q182.95 84.85 182.25 85.6 L181.95 85.95 181.45 86.75 181.45 86.8 181.45 89.05 Q181.45 91.7 179.1 92.05 L176.7 92.75 175.1 92.55 Q174.35 92.2 174.0 91.45 173.5 90.5 173.45 89.6 173.2 87.95 173.2 86.3 L173.2 85.3 173.2 84.05 Q173.2 83.0 173.95 82.3 L174.45 81.75 174.7 79.05 Q174.45 76.55 174.45 74.05 L174.45 71.8 Q174.45 70.75 175.2 70.05 L175.75 69.5 175.75 69.4 175.95 66.8 Q175.8 65.4 177.2 64.05 177.85 63.35 178.0 62.45 178.05 62.05 178.25 61.7 L178.2 61.55 178.2 60.55 Q178.2 59.5 178.95 58.8 L179.95 57.8 179.95 57.75 179.95 57.55 Q179.95 57.0 180.2 56.5 180.2 55.8 180.6 55.25 180.95 54.65 181.6 54.35 L182.35 53.95 Q183.9 49.55 187.65 46.6 191.95 43.1 196.5 41.25 L197.7 41.1 M152.7 59.55 L152.7 60.55 152.45 61.7 151.25 63.35 Q150.5 64.05 149.45 64.05 L147.7 64.05 147.1 64.0 146.7 63.9 146.0 64.6 Q145.25 65.3 144.3 65.3 L143.8 65.5 143.3 65.65 143.2 66.6 143.45 69.8 143.2 70.95 142.25 72.35 141.6 72.8 138.7 73.75 Q137.75 73.95 136.95 73.45 136.15 73.0 135.85 72.1 133.7 65.7 137.4 60.2 L137.35 60.25 Q138.8 57.85 141.8 55.75 142.4 55.3 143.2 55.3 143.55 55.05 144.0 54.9 L145.25 54.85 Q147.8 55.45 150.1 56.6 L151.6 57.5 152.4 58.4 152.7 59.55 M175.2 102.55 Q176.25 102.55 177.0 103.3 L178.0 104.3 178.6 105.3 178.7 106.5 Q177.4 113.95 174.8 121.15 L174.7 121.4 174.4 122.55 Q173.4 124.3 171.7 125.65 L171.6 126.1 171.45 126.55 Q171.45 127.6 170.75 128.35 L169.55 129.65 169.45 130.55 169.2 131.65 168.85 132.9 Q167.45 135.05 165.4 136.35 160.8 146.55 154.2 155.85 L154.2 156.05 154.2 157.05 Q154.2 157.8 153.8 158.45 148.35 166.5 144.75 175.9 145.35 181.9 142.1 187.15 L141.75 187.6 141.7 187.65 Q141.5 198.8 142.7 210.05 L142.7 209.95 Q142.85 210.75 143.55 211.4 144.2 211.9 144.4 212.7 144.95 215.0 144.7 217.55 L144.7 218.0 Q145.2 218.85 146.15 219.55 146.8 220.0 147.1 220.75 147.75 222.75 147.45 224.75 150.95 229.8 151.45 235.6 L151.45 235.65 151.6 235.75 Q152.45 236.3 152.65 237.3 154.3 245.3 159.0 251.85 159.4 252.45 159.45 253.25 L159.7 254.25 Q165.7 260.15 170.3 267.2 170.8 267.9 170.7 268.8 170.6 269.7 170.0 270.35 L168.25 272.1 167.05 272.75 165.65 272.7 163.6 271.8 162.65 270.95 Q158.3 264.45 152.5 259.15 151.95 258.65 151.8 257.9 L151.3 255.9 151.2 255.45 Q147.15 249.55 144.65 242.95 L144.45 242.05 144.45 241.05 144.45 240.65 144.3 240.3 143.5 238.95 Q143.2 238.4 143.2 237.8 143.2 233.8 140.65 230.25 L140.5 229.95 140.2 229.6 139.6 228.6 Q138.95 226.75 138.95 224.55 L138.95 224.3 Q138.25 223.25 137.35 222.5 L136.7 221.6 136.45 220.55 136.45 216.55 136.45 216.35 133.65 212.7 Q133.2 212.05 133.2 211.3 L133.2 189.8 133.2 185.8 Q133.2 184.95 133.75 184.3 136.65 180.5 136.45 175.65 L136.45 175.55 136.45 174.55 Q136.45 173.8 136.9 173.2 L138.95 170.35 139.2 168.75 138.95 167.3 139.15 166.4 Q141.65 160.05 145.45 154.95 145.65 154.15 146.0 153.4 146.1 152.65 146.5 151.95 L146.75 151.55 Q153.45 142.85 156.85 132.75 157.05 132.1 157.6 131.65 L160.75 129.1 160.95 128.2 Q161.05 127.3 161.5 126.45 L161.7 126.05 163.15 124.25 163.2 123.3 163.2 122.3 Q163.2 121.7 163.5 121.15 L164.35 120.25 166.3 118.85 170.55 105.4 170.75 104.95 Q170.85 104.15 171.45 103.55 172.55 102.4 173.7 102.55 L175.2 102.55 M188.25 288.45 L190.1 289.75 Q190.75 290.15 191.05 290.9 L197.2 306.2 197.9 308.2 198.0 308.3 198.3 308.7 198.85 309.25 Q199.65 309.75 199.9 310.7 L202.65 322.8 202.7 322.9 203.35 325.9 203.4 327.1 202.85 328.2 Q199.9 331.6 200.4 336.35 L200.7 338.8 Q200.7 339.65 200.2 340.35 195.25 346.75 190.8 353.65 L190.5 354.1 190.45 354.2 Q189.95 355.1 189.0 355.45 L184.9 356.8 Q173.7 365.75 158.7 367.7 L154.6 370.65 Q153.95 371.05 153.2 371.05 L150.95 370.6 Q150.1 370.5 148.95 369.35 148.45 368.8 148.3 368.15 148.1 367.45 148.35 366.75 148.55 366.1 149.1 365.65 160.75 356.0 177.3 352.8 180.1 349.35 184.3 347.75 L191.7 337.1 191.95 336.8 192.15 336.6 Q191.85 331.95 193.35 327.5 193.55 326.7 193.9 325.95 L192.5 316.45 Q192.3 315.65 192.25 314.75 L191.2 313.6 190.75 312.95 190.25 311.95 190.05 311.4 Q189.75 310.25 189.7 309.1 L189.5 307.55 Q186.1 302.15 183.65 296.55 L183.75 296.7 183.05 295.1 180.9 293.5 Q180.2 292.95 180.0 292.05 178.85 286.35 175.2 281.6 L175.0 281.2 Q174.45 280.1 174.45 279.05 174.45 278.35 174.85 277.75 175.2 277.15 175.85 276.85 176.7 276.4 177.3 276.3 L179.45 276.05 Q180.4 276.05 181.15 276.7 186.35 281.4 188.1 288.0 L188.25 288.45" fill="#ffffff" fill-rule="evenodd" stroke="none"/>
  </g>
</svg>
