<?xml version="1.0" encoding="UTF-8" standalone="no"?>
<svg xmlns:ffdec="https://www.free-decompiler.com/flash" xmlns:xlink="http://www.w3.org/1999/xlink" ffdec:objectType="shape" height="291.5px" width="68.25px" xmlns="http://www.w3.org/2000/svg">
  <g transform="matrix(1.0, 0.0, 0.0, 1.0, -114.15, -113.65)">
    <path d="M150.45 115.4 Q151.15 116.1 151.15 117.1 151.15 118.1 150.5 118.85 146.75 122.85 142.05 125.95 137.0 135.35 132.45 145.2 L132.4 145.3 Q131.9 146.35 131.9 147.9 131.9 148.65 131.5 149.25 121.0 165.7 123.65 185.3 L123.65 185.35 Q124.1 188.75 123.95 192.35 L123.95 192.4 124.9 193.8 125.15 194.9 124.9 196.0 124.65 197.05 124.45 197.4 Q125.0 205.2 127.75 212.55 L127.8 212.6 Q128.55 214.85 130.65 216.4 131.35 216.9 131.6 217.8 L131.9 220.4 131.9 220.45 Q133.3 222.1 133.8 224.0 L133.8 223.85 134.25 225.5 136.45 227.9 Q137.05 228.5 137.15 229.45 137.35 231.55 138.7 233.5 139.7 234.8 140.05 236.5 L141.95 237.95 142.65 238.85 142.9 239.9 142.9 240.3 Q147.3 242.95 149.2 248.2 L149.4 248.7 151.45 250.2 152.15 251.1 152.4 252.15 152.4 253.15 153.65 254.65 153.9 255.05 154.2 255.4 Q154.9 256.1 154.9 257.1 L155.15 258.05 Q158.85 261.5 161.75 266.0 L163.2 267.45 163.9 268.35 164.15 269.35 164.4 270.4 164.4 270.95 173.05 284.6 173.15 284.8 Q174.3 287.15 174.2 289.55 174.55 290.25 175.45 290.65 L176.5 291.5 Q176.9 292.1 176.9 292.8 177.15 299.05 178.6 304.8 179.3 307.65 179.4 310.5 L180.45 311.65 Q181.05 312.25 181.15 313.15 183.15 334.1 181.9 355.55 181.65 360.45 179.45 365.15 179.5 368.25 177.85 370.9 L176.9 372.45 176.9 373.9 176.9 374.9 176.7 375.9 Q175.95 377.75 174.15 379.2 L174.15 379.9 174.15 380.9 173.9 382.0 173.25 382.85 Q169.75 385.65 168.25 390.0 L168.3 389.95 166.9 393.3 166.35 394.0 Q156.25 403.3 145.6 405.15 L143.95 404.85 Q143.15 404.4 142.85 403.6 142.5 402.75 142.75 401.95 143.0 401.1 143.75 400.6 156.8 391.8 165.9 378.4 L165.9 377.15 165.9 376.15 Q165.9 375.1 166.65 374.4 L168.15 372.9 Q168.9 369.35 170.55 366.05 171.1 364.6 170.95 363.2 170.85 362.65 171.05 362.15 176.85 343.5 173.2 323.35 172.5 319.55 172.6 315.75 L171.65 314.7 Q171.2 314.25 171.05 313.65 170.85 313.1 170.95 312.5 171.8 307.3 169.7 302.8 L169.65 302.75 Q168.4 300.2 168.55 297.5 L167.1 296.35 166.4 295.45 166.15 294.3 Q166.35 288.9 163.35 284.6 L163.25 284.45 Q162.05 282.45 160.3 281.25 L159.45 280.35 Q159.15 279.75 159.15 279.15 159.15 278.3 158.7 277.7 L158.5 277.45 157.15 275.7 156.7 275.05 Q156.3 274.25 156.2 273.5 L156.15 273.2 156.1 273.15 154.65 271.7 154.2 271.05 Q152.35 267.45 149.45 264.75 L149.4 264.7 148.3 263.75 Q147.45 263.2 147.25 262.25 L146.75 260.25 146.65 259.9 144.5 256.65 144.15 255.6 142.6 254.35 Q141.95 253.8 141.75 253.0 L141.2 251.55 140.95 250.75 137.65 247.45 137.4 247.15 136.55 246.4 135.7 245.7 135.25 244.75 134.7 243.3 134.5 242.75 133.8 242.4 Q133.05 242.0 132.7 241.3 L130.7 237.3 129.65 235.65 Q129.15 235.0 129.15 234.15 L129.15 232.9 129.15 232.45 Q128.7 231.6 127.8 231.15 L126.95 230.45 126.5 229.5 Q126.05 227.75 125.2 226.05 L124.15 224.4 Q123.65 223.75 123.65 222.9 L123.65 221.65 123.65 221.6 Q116.65 213.1 116.9 202.4 L116.9 202.35 Q116.85 200.3 115.75 198.45 115.4 197.85 115.4 197.25 115.15 188.05 114.4 179.1 L114.15 172.65 Q114.15 172.05 114.45 171.55 L114.95 170.55 Q115.1 170.15 115.4 169.9 L115.45 169.85 Q115.5 166.7 116.45 163.8 L116.65 160.4 Q116.65 159.8 116.95 159.25 119.35 154.7 121.25 149.7 121.85 147.45 123.35 145.9 127.5 124.6 145.65 114.0 146.2 113.65 146.9 113.65 L147.65 113.65 Q148.7 113.65 149.45 114.4 L150.45 115.4" fill="#ffffff" fill-rule="evenodd" stroke="none"/>
  </g>
</svg>
