<?xml version="1.0" encoding="UTF-8" standalone="no"?>
<svg xmlns:ffdec="https://www.free-decompiler.com/flash" xmlns:xlink="http://www.w3.org/1999/xlink" ffdec:objectType="shape" height="1361.75px" width="886.35px" xmlns="http://www.w3.org/2000/svg">
  <g transform="matrix(1.0, 0.0, 0.0, 1.0, 393.5, 680.85)">
    <path d="M181.5 -596.85 L183.5 -597.85 205.5 -591.85 206.5 -589.85 217.5 -585.85 218.5 -583.85 Q227.9 -577.8 236.8 -571.0 242.35 -566.75 247.4 -561.85 254.95 -554.55 263.5 -548.7 284.85 -534.2 292.25 -509.75 303.3 -473.25 290.5 -436.85 L288.5 -435.85 289.5 -426.85 287.5 -427.85 283.5 -416.85 281.5 -415.85 278.5 -406.85 276.5 -405.85 276.5 -402.85 Q273.25 -398.2 269.5 -394.05 268.2 -392.7 266.3 -392.1 250.3 -386.15 236.65 -396.9 168.45 -451.0 94.5 -496.85 L93.5 -498.85 86.5 -500.85 85.5 -502.85 69.5 -508.85 68.5 -510.85 40.5 -520.85 39.5 -522.85 -81.5 -574.85 -82.5 -576.85 -105.5 -585.85 -106.5 -587.85 -118.5 -593.85 -119.5 -595.85 -131.5 -600.85 -132.5 -602.85 Q-147.2 -607.8 -158.15 -618.95 -176.3 -637.4 -165.5 -660.85 L-139.5 -678.85 -139.0 -676.75 -138.5 -678.85 -134.5 -678.85 -131.5 -680.85 -112.5 -676.85 -111.5 -674.85 -108.5 -673.85 -105.5 -675.85 -62.5 -660.85 -61.5 -658.85 -57.5 -657.85 -56.5 -655.85 -48.5 -653.85 -47.5 -651.85 -36.5 -647.85 -35.5 -645.85 -16.5 -635.85 -15.5 -633.85 Q40.45 -601.65 89.5 -559.85 L98.5 -562.85 Q103.65 -571.2 112.1 -576.75 119.8 -581.8 128.5 -584.85 L129.5 -586.85 133.5 -587.85 134.5 -589.85 Q143.0 -591.25 151.1 -594.05 166.0 -599.2 181.5 -596.85 M127.5 -570.85 L126.5 -568.85 121.5 -566.85 119.5 -563.85 103.5 -551.85 125.5 -533.85 126.5 -530.85 172.5 -500.85 173.45 -498.8 185.5 -490.85 240.85 -448.45 246.9 -453.95 246.5 -440.85 247.5 -443.85 249.5 -441.85 249.5 -438.85 252.5 -437.85 251.6 -435.45 254.5 -434.85 254.5 -431.85 257.65 -431.5 260.5 -421.85 262.45 -421.25 268.5 -413.85 274.5 -428.85 272.5 -429.85 271.5 -434.85 275.5 -431.85 Q288.0 -459.15 286.9 -489.2 L286.5 -497.85 284.5 -498.85 283.5 -506.85 281.5 -507.85 280.5 -511.85 277.5 -512.85 277.5 -515.85 Q264.1 -534.95 246.4 -550.1 239.15 -556.35 230.5 -560.85 L230.5 -563.85 226.5 -566.85 224.5 -565.85 223.5 -568.85 218.5 -569.85 217.5 -571.85 209.5 -573.85 208.5 -575.85 Q169.35 -591.2 131.5 -572.85 L130.5 -570.85 127.5 -570.85 M112.5 -519.85 L140.5 -496.85 153.5 -489.85 154.5 -486.85 161.5 -483.85 162.5 -480.85 235.5 -428.85 Q219.55 -448.05 200.5 -464.2 L194.1 -469.45 Q161.55 -495.25 124.5 -513.85 L112.5 -519.85 M59.5 -564.85 L63.5 -563.85 64.5 -561.85 67.45 -562.3 Q23.2 -594.05 -21.5 -625.1 -23.3 -626.3 -25.5 -626.85 L-26.5 -628.85 -30.5 -629.85 -31.5 -631.85 -36.5 -632.85 -37.5 -634.85 -55.5 -642.85 -56.5 -644.85 -79.5 -652.85 -80.5 -654.85 Q-92.75 -659.85 -105.6 -661.95 L-126.5 -662.75 Q-137.3 -661.9 -147.5 -658.85 L-155.5 -649.85 -155.5 -637.85 -131.5 -615.85 -129.5 -616.85 -127.5 -615.85 -126.5 -613.85 -124.5 -614.85 -93.5 -596.85 -92.5 -594.85 -82.5 -590.85 -81.5 -588.85 -70.5 -584.85 -69.5 -582.85 -62.5 -580.85 -61.5 -578.85 -44.5 -572.85 -43.5 -570.85 -38.5 -569.85 -37.5 -567.85 -19.5 -561.85 -18.5 -559.85 -8.5 -557.85 -7.5 -555.85 5.5 -551.85 6.5 -549.85 27.5 -541.85 28.5 -539.85 35.5 -537.85 36.5 -535.85 49.5 -530.85 50.5 -528.85 65.85 -522.1 52.5 -536.85 55.5 -544.85 75.5 -545.85 24.5 -568.85 23.5 -570.85 -7.5 -581.85 -8.5 -583.85 Q-44.7 -602.1 -83.35 -613.65 L-94.5 -616.85 -94.5 -624.85 -88.5 -625.85 -87.5 -623.85 -85.5 -624.85 -84.5 -622.85 -81.5 -623.85 -74.0 -620.2 -72.5 -621.85 -59.5 -613.85 -56.5 -614.85 -39.5 -608.85 -38.5 -606.85 -30.5 -603.85 -30.05 -605.95 -29.5 -603.85 -23.5 -602.85 -23.5 -599.85 -17.5 -599.85 -15.5 -597.85 -11.5 -597.85 Q-3.3 -592.9 5.35 -588.75 5.7 -588.55 6.55 -589.05 L8.1 -590.05 11.5 -587.85 12.5 -584.85 15.5 -585.85 17.5 -582.85 20.2 -583.35 31.5 -577.85 32.5 -575.85 58.5 -566.85 59.5 -564.85 M69.5 -534.85 Q113.15 -497.4 161.2 -465.9 L175.95 -456.15 Q198.0 -441.4 219.5 -425.85 L222.5 -424.85 Q235.15 -404.75 258.5 -400.85 256.95 -406.25 252.6 -409.6 249.05 -412.3 244.5 -412.85 L243.5 -414.85 Q217.45 -430.15 194.15 -450.05 188.3 -454.95 181.9 -459.1 L179.15 -460.9 Q130.9 -492.35 86.75 -529.35 79.9 -535.05 71.5 -537.85 L69.5 -534.85 M-50.6 621.25 Q-54.2 619.95 -58.15 619.2 L-62.75 618.3 -62.5 618.15 -81.5 612.15 -82.5 610.15 -95.5 607.15 -96.5 605.15 -125.5 591.15 -125.25 589.05 -126.5 587.15 -126.5 568.15 -124.5 565.15 -36.0 491.65 -125.5 482.15 Q-136.55 514.9 -166.5 532.15 L-187.5 526.15 -188.5 524.15 -201.5 524.15 -202.5 526.15 -212.5 525.15 -213.5 523.15 -217.5 522.15 -219.7 519.75 -251.5 520.15 -252.5 518.15 -259.65 515.1 -259.4 514.55 -259.15 513.95 -259.15 513.4 -259.2 513.2 -259.3 513.1 -260.4 513.05 -262.5 516.15 Q-272.55 517.35 -281.45 512.7 -285.55 510.6 -288.5 507.15 L-296.5 509.15 -297.5 511.15 Q-306.05 510.7 -312.3 505.25 -318.75 499.55 -324.5 493.15 L-324.5 490.15 -326.5 489.15 -329.85 479.6 Q-333.0 471.0 -333.35 461.85 L-333.25 456.55 -337.1 455.3 -350.25 452.55 -357.25 451.45 -374.9 449.4 Q-381.8 448.55 -378.8 442.2 L-377.45 440.5 -375.0 440.1 -374.95 440.0 Q-356.35 440.65 -338.0 444.05 -335.2 444.35 -332.5 445.15 L-330.3 445.6 Q-324.8 435.3 -309.5 434.15 L-308.5 430.15 -306.5 429.15 -304.5 423.15 -300.5 422.15 -297.5 418.15 -291.5 418.15 -290.5 416.15 -275.9 417.1 -272.5 420.15 -268.5 420.15 -265.05 415.65 Q-260.9 410.75 -255.05 408.05 -239.35 400.95 -226.3 410.9 L-207.9 358.15 -208.5 356.15 -206.5 355.15 -204.5 347.15 -208.5 347.15 Q-246.6 322.55 -280.9 293.6 L-283.0 291.7 Q-305.25 271.25 -324.5 247.15 L-324.5 244.15 -343.5 212.15 -345.5 211.15 -354.5 197.15 Q-354.5 195.65 -355.05 194.35 L-360.35 182.3 Q-390.05 115.0 -393.5 41.15 L-391.5 40.15 -390.5 35.15 -391.5 33.15 -382.5 -10.85 -379.5 -10.85 -307.5 -113.85 -311.5 -115.85 -311.5 -118.85 Q-316.9 -125.05 -320.05 -132.4 -326.6 -147.8 -319.0 -162.3 -313.65 -172.55 -302.4 -171.35 -287.95 -169.5 -278.5 -156.85 L-274.5 -156.85 -269.8 -164.1 Q-259.9 -179.5 -258.5 -197.85 L-256.5 -198.85 Q-256.05 -247.45 -272.15 -293.7 -274.95 -301.8 -276.75 -310.15 -286.6 -356.35 -274.5 -401.85 L-276.5 -402.85 -273.5 -412.85 -271.5 -413.85 -270.5 -416.85 -271.5 -419.85 -262.5 -437.85 -269.5 -439.85 -270.5 -441.85 -315.5 -468.85 -316.5 -476.85 -308.5 -480.85 -287.5 -470.85 -286.5 -468.85 -278.5 -465.85 -277.5 -463.85 -263.5 -456.85 -262.5 -454.85 -258.5 -453.85 -257.5 -451.85 -214.5 -466.85 -246.5 -504.85 -236.5 -507.85 -235.5 -505.85 -231.5 -504.85 -197.5 -469.85 -164.5 -470.85 -169.5 -478.85 -171.5 -479.85 -172.5 -483.85 -174.5 -484.85 -187.5 -505.85 -186.05 -511.0 -174.5 -513.85 -172.5 -508.85 -170.5 -507.85 -146.9 -469.8 -113.5 -468.85 -118.5 -481.85 -120.5 -482.85 -129.5 -503.85 -131.5 -504.85 -131.5 -508.85 -128.5 -511.85 -119.5 -512.85 -114.5 -499.85 -112.5 -498.85 -106.5 -486.85 -104.5 -485.85 -102.5 -479.85 -100.5 -478.85 -93.5 -465.85 -54.5 -460.85 -50.5 -463.85 -64.5 -502.85 -60.5 -504.85 -59.5 -506.85 -55.5 -506.85 -53.5 -501.85 -51.5 -500.85 -47.5 -490.85 -45.5 -489.85 -42.5 -479.85 -40.5 -478.85 -39.5 -474.85 -37.5 -473.85 -35.5 -467.85 -33.5 -466.85 -31.5 -459.85 5.05 -455.1 -8.5 -494.85 -6.5 -497.85 0.5 -500.85 11.5 -474.85 13.5 -473.85 22.5 -451.85 60.0 -442.35 47.5 -472.85 45.5 -473.85 46.5 -478.85 55.5 -481.85 77.5 -435.85 109.5 -425.85 111.5 -422.85 108.5 -453.85 118.5 -453.85 122.5 -433.85 124.5 -432.85 132.5 -407.85 166.5 -381.85 171.5 -407.85 173.5 -409.85 180.5 -406.85 180.5 -365.85 195.0 -350.35 195.5 -347.85 198.5 -347.85 Q202.95 -339.15 209.1 -331.45 236.45 -297.15 255.5 -257.85 L257.5 -256.85 258.5 -252.85 260.5 -251.85 261.5 -247.85 263.5 -246.85 268.5 -232.85 270.5 -231.85 277.5 -212.85 279.5 -211.85 282.5 -203.85 285.5 -202.85 311.5 -223.85 346.5 -225.85 347.5 -223.85 Q356.65 -220.45 362.45 -212.6 365.05 -209.1 366.5 -204.85 L368.5 -203.85 368.5 -200.85 370.5 -199.85 373.4 -182.95 Q376.2 -167.5 369.5 -153.85 L370.5 -150.85 357.5 -119.85 355.5 -118.85 354.5 -114.85 Q348.8 -109.8 343.6 -104.1 335.3 -95.0 323.5 -90.85 L322.5 -88.85 306.5 -83.85 306.5 -82.85 299.8 -82.5 297.5 -77.85 303.5 -44.85 305.5 -43.85 306.5 -36.85 306.5 -32.85 308.5 -21.0 Q315.35 20.35 312.5 62.15 L310.5 63.15 306.5 76.15 306.5 79.15 242.5 181.15 301.5 247.15 Q309.5 254.65 316.65 262.9 350.8 302.3 382.5 344.15 L385.5 345.15 393.5 366.15 331.5 409.15 343.5 518.15 348.5 518.15 349.5 520.15 357.5 522.15 359.5 521.15 376.85 524.3 377.95 524.1 377.95 524.0 Q393.3 524.05 408.2 528.15 L410.3 528.7 411.0 528.65 Q413.95 528.5 416.95 528.75 446.7 531.65 476.2 535.4 484.0 536.4 490.95 538.95 492.95 539.7 492.85 541.95 492.6 546.45 487.95 546.5 476.95 546.65 466.0 546.3 463.0 550.05 455.55 546.95 451.95 545.5 447.95 544.95 428.15 542.4 408.5 538.7 L383.95 537.8 Q377.05 537.75 373.15 534.55 L362.5 535.15 361.5 533.15 345.5 533.15 347.5 538.15 349.5 539.15 348.5 554.15 Q301.2 593.45 248.5 624.15 L247.5 626.15 232.5 634.15 231.5 636.15 Q196.55 663.8 155.5 679.8 153.05 680.75 150.45 680.8 107.8 682.0 68.5 665.15 L67.5 663.15 27.5 653.15 26.5 650.15 -6.5 641.15 -7.5 639.15 -34.5 631.15 -35.5 629.15 -36.75 629.4 Q-39.0 627.45 -41.4 625.85 -45.6 624.15 -49.4 621.7 L-50.45 621.0 -50.6 621.25 M306.5 -198.85 L302.5 -196.85 301.5 -193.85 277.5 -172.85 276.5 -167.85 266.15 -165.45 270.45 -185.25 267.5 -196.85 265.5 -197.85 255.5 -224.85 253.5 -225.85 244.5 -245.85 242.5 -246.85 239.5 -254.85 237.5 -255.85 220.5 -287.85 218.5 -288.85 217.5 -292.85 215.5 -293.85 Q185.3 -344.95 138.4 -381.3 L132.5 -385.85 131.5 -388.85 103.5 -405.85 102.5 -407.85 93.5 -410.85 92.5 -412.85 Q28.9 -440.5 -40.8 -446.15 L-125.05 -452.75 Q-161.45 -454.8 -197.6 -450.85 -222.0 -448.55 -239.25 -433.15 -244.95 -430.2 -249.9 -425.25 -262.5 -412.65 -262.5 -394.8 L-262.2 -389.7 Q-265.5 -375.0 -265.75 -359.8 L-264.75 -361.2 Q-263.85 -362.55 -263.45 -364.15 -263.1 -365.55 -263.1 -367.05 L-259.35 -374.7 -260.25 -366.8 Q-262.95 -356.4 -263.7 -346.0 L-264.95 -346.45 -265.35 -346.6 -264.5 -337.85 -263.95 -337.8 Q-263.95 -330.95 -263.1 -324.1 L-260.75 -324.1 -260.2 -323.05 -259.2 -321.0 -262.5 -320.85 -259.6 -304.1 Q-254.55 -310.1 -246.65 -314.25 -243.1 -316.1 -240.1 -319.1 -238.1 -319.6 -236.3 -320.5 L-236.1 -321.1 -226.1 -320.1 -222.2 -317.0 -219.1 -314.1 Q-206.8 -310.1 -194.05 -308.1 -192.55 -306.6 -191.95 -304.8 -191.55 -303.6 -192.05 -302.1 -200.95 -298.6 -210.75 -300.2 L-238.1 -297.1 Q-238.6 -295.6 -239.6 -294.95 -245.25 -291.35 -248.1 -285.1 -251.6 -284.6 -255.0 -285.0 L-256.15 -285.15 Q-251.55 -259.9 -246.4 -234.7 L-244.1 -223.5 Q-241.8 -212.55 -241.85 -201.3 -241.85 -196.6 -241.5 -191.85 L-262.5 -144.85 -264.5 -143.85 -265.5 -139.85 Q-305.0 -87.35 -343.35 -34.0 -347.3 -28.5 -350.55 -22.5 -358.3 -14.05 -363.45 -3.6 -365.75 1.15 -367.0 6.2 L-370.1 18.5 -370.35 19.9 -370.65 21.05 Q-375.0 34.75 -375.85 49.7 -377.35 76.5 -369.95 100.75 -364.25 124.9 -356.3 148.95 -355.15 152.45 -353.15 154.0 L-352.5 157.15 -350.5 158.15 -338.5 189.15 -336.5 190.15 -335.5 194.15 -326.5 209.15 -324.5 210.15 -322.5 217.15 -320.5 218.15 -309.5 237.15 -306.5 238.15 Q-282.9 272.95 -247.4 296.3 -224.75 311.2 -201.5 325.15 L-198.5 325.15 -197.5 327.15 -193.5 328.15 -192.5 330.15 Q-130.9 354.05 -65.0 350.5 -36.75 348.5 -9.25 341.95 13.5 336.45 35.3 327.95 43.45 324.8 51.5 321.15 L52.5 319.15 71.5 314.15 72.5 312.15 87.5 306.15 88.5 304.15 Q98.4 300.8 106.75 294.4 150.0 260.9 186.25 220.15 206.25 197.7 224.35 173.55 L277.5 102.15 278.5 98.15 280.5 97.15 284.5 86.15 286.5 85.15 298.5 50.15 296.95 48.0 Q298.65 -23.4 276.35 -91.35 L273.5 -99.85 283.5 -100.85 283.4 -98.8 287.35 -98.45 289.5 -101.35 294.5 -96.85 301.5 -98.85 302.5 -100.85 306.5 -100.85 306.5 -99.85 311.5 -101.85 308.5 -102.85 313.5 -103.85 325.5 -114.85 328.5 -114.85 346.5 -137.85 346.5 -140.85 348.5 -141.85 Q353.6 -149.85 356.0 -159.2 L356.6 -161.7 Q359.4 -174.75 356.2 -187.8 354.8 -193.5 352.5 -198.85 L350.55 -199.45 350.5 -201.85 Q348.6 -205.15 345.25 -207.1 342.75 -208.6 339.8 -209.55 328.6 -212.6 320.5 -203.85 L311.5 -202.85 310.5 -200.85 306.5 -199.85 306.5 -198.85 M26.5 -313.85 L25.5 -315.85 7.5 -318.85 10.5 -323.85 Q21.5 -328.3 33.2 -327.55 45.85 -326.4 55.55 -318.0 62.1 -312.35 66.5 -304.85 L68.5 -303.85 72.5 -283.85 67.7 -284.55 49.5 -302.85 26.5 -313.85 M21.5 -128.85 L21.5 -123.85 -44.5 -117.85 -45.5 -121.85 Q-21.3 -130.35 4.5 -129.95 L13.0 -129.7 21.5 -128.85 M26.8 -142.6 L25.5 -137.45 -48.05 -138.0 -48.0 -141.0 Q-17.95 -148.25 12.75 -144.75 L17.45 -144.15 26.8 -142.6 M116.0 -53.0 Q131.65 -53.05 137.2 -37.1 L138.0 -35.5 140.5 -34.0 Q143.1 -32.35 143.0 -29.5 L142.4 -28.05 141.4 -26.65 140.0 -25.5 138.0 -25.0 Q129.7 -27.5 125.35 -34.65 125.25 -28.6 123.25 -22.9 L122.5 -20.0 Q117.95 -9.8 113.8 0.9 L113.0 2.5 113.0 4.0 113.0 7.0 Q104.2 19.3 94.75 31.05 L94.75 31.1 95.0 32.5 Q94.25 34.0 93.1 35.15 L90.5 37.0 Q87.7 45.0 85.25 53.3 84.5 55.75 83.0 58.0 80.05 81.85 75.35 105.25 L76.7 107.2 77.0 108.5 76.3 109.85 74.0 112.5 73.8 112.55 Q70.85 126.45 67.25 140.2 65.65 146.35 61.15 150.7 49.55 162.05 35.25 170.5 24.55 176.9 13.2 179.25 -10.05 184.05 -34.05 185.05 L-43.05 181.55 -48.05 182.3 Q-85.55 182.55 -123.05 181.3 -123.8 181.3 -124.55 180.55 -141.05 178.15 -156.55 172.55 L-157.05 172.4 -157.05 173.05 -159.8 175.75 Q-160.8 176.55 -162.05 177.05 -166.55 174.25 -168.45 170.0 -177.1 169.1 -186.05 171.05 -190.1 170.7 -191.05 167.05 -190.8 160.55 -184.0 160.1 -176.7 159.65 -169.55 160.05 L-169.2 158.0 -169.05 156.55 -168.05 155.05 -167.05 153.55 Q-165.95 123.65 -163.25 94.2 -183.85 97.0 -204.05 92.05 L-207.85 90.75 Q-214.2 87.85 -219.8 83.65 L-217.6 78.45 Q-213.5 70.2 -207.4 63.25 -193.4 47.25 -184.75 28.0 L-183.05 24.1 Q-180.5 18.2 -178.5 12.15 L-176.5 11.15 -174.5 3.15 -182.75 6.1 Q-202.9 12.55 -224.05 11.1 L-229.8 10.45 Q-237.7 9.55 -245.5 7.15 L-246.5 5.15 -250.5 4.15 -251.5 2.15 -256.5 0.15 -265.5 -15.85 -263.6 -30.15 Q-262.25 -39.2 -258.3 -47.45 -255.15 -53.95 -250.15 -59.05 -228.5 -81.2 -202.8 -99.15 L-195.45 -104.75 Q-184.7 -113.5 -174.5 -122.85 L-173.5 -126.85 -169.5 -127.85 -156.5 -147.85 -154.5 -148.85 -141.5 -182.85 -142.5 -185.85 -139.5 -191.85 -140.5 -193.85 Q-133.0 -223.4 -135.95 -253.8 L-136.8 -261.55 Q-138.35 -273.35 -141.5 -284.85 L-132.5 -284.85 Q-129.6 -275.7 -127.75 -266.25 -124.3 -248.85 -123.85 -231.1 -123.25 -205.2 -129.5 -180.15 -130.1 -177.65 -130.85 -175.15 L-137.5 -153.85 -139.5 -152.85 -141.5 -145.85 -143.5 -144.85 -146.5 -137.85 -148.5 -136.85 Q-154.2 -127.75 -161.35 -119.9 -184.65 -94.35 -213.1 -74.8 L-217.35 -71.95 Q-223.75 -67.6 -230.5 -63.85 L-231.5 -60.85 -233.65 -59.5 Q-236.95 -57.45 -239.15 -54.25 L-239.95 -53.0 -240.65 -51.65 -241.25 -50.25 -242.5 -45.85 -244.5 -44.85 -247.5 -39.85 -247.5 -36.85 -249.5 -35.85 Q-252.3 -28.4 -250.85 -20.8 L-250.35 -18.8 -249.75 -16.85 -248.9 -15.05 -246.5 -10.85 -241.5 -8.85 -240.5 -6.85 Q-234.25 -5.1 -227.9 -4.3 -215.25 -2.4 -202.65 -4.7 -182.4 -8.25 -163.45 -16.5 L-159.65 -18.15 Q-153.95 -20.7 -148.5 -23.85 L-147.5 -18.85 -160.5 13.15 -162.5 14.15 -164.5 20.15 -166.5 21.15 -167.5 26.15 -169.5 27.15 Q-182.75 54.2 -202.5 77.15 L-202.5 80.15 Q-170.35 81.85 -138.35 77.2 L-138.05 77.1 Q-134.5 76.1 -132.05 75.0 L-90.25 77.6 Q-24.15 72.35 39.75 55.55 59.95 50.25 73.8 35.75 78.45 30.9 83.45 26.4 94.35 16.55 102.5 4.5 L102.9 1.5 103.0 -1.5 Q113.55 -19.5 114.95 -40.5 L115.0 -41.35 Q107.45 -40.2 100.0 -37.0 98.5 -37.5 97.35 -38.45 96.0 -39.5 95.0 -41.0 99.65 -51.0 112.95 -52.35 114.5 -52.5 116.0 -53.0 M306.5 -178.85 L306.5 -180.85 310.5 -181.85 311.5 -184.85 316.5 -184.85 317.5 -186.85 Q322.0 -188.05 326.8 -187.95 335.15 -187.75 342.5 -183.85 L345.5 -163.85 343.5 -166.85 341.5 -163.85 337.5 -164.85 331.3 -174.55 329.8 -174.7 Q325.15 -174.95 321.2 -172.55 315.15 -169.0 311.5 -162.85 314.4 -161.9 317.05 -160.3 323.95 -156.25 324.45 -148.25 325.1 -137.85 317.5 -130.85 L311.5 -133.85 311.5 -146.85 303.5 -152.85 296.5 -148.85 294.5 -143.85 292.5 -142.85 291.5 -138.85 289.5 -137.85 286.5 -124.85 282.5 -123.85 280.5 -118.85 277.5 -119.85 Q275.15 -138.25 283.5 -154.85 L285.5 -155.85 287.3 -159.45 Q293.95 -172.15 306.5 -178.85 M258.5 431.35 L260.4 430.85 260.65 430.85 262.85 430.05 263.35 429.75 264.7 428.95 266.45 427.75 268.15 426.45 268.95 425.75 269.75 424.95 271.5 423.15 268.5 420.15 272.5 423.15 280.5 419.15 281.5 417.15 285.5 416.15 286.5 414.15 298.5 409.15 299.5 407.15 303.5 406.15 304.5 404.15 309.5 403.15 310.5 401.15 344.0 381.1 344.65 379.1 Q347.05 377.8 349.7 377.0 L350.95 375.95 351.5 376.15 354.5 374.15 354.85 373.3 Q356.9 372.15 359.2 371.25 L359.7 370.75 361.4 369.15 370.5 364.15 372.5 360.15 374.5 361.15 354.5 336.15 354.5 332.15 Q326.4 293.35 294.4 257.7 279.7 241.4 264.4 225.1 249.15 208.9 233.5 193.15 L216.5 213.15 213.5 214.15 184.5 253.15 180.5 254.15 Q175.95 262.9 168.7 269.45 L144.7 291.05 Q127.5 306.55 106.5 316.15 L105.5 318.15 100.5 319.15 99.5 321.15 96.5 321.15 91.5 324.15 90.5 326.15 52.5 339.15 51.5 341.15 -21.5 362.15 -23.5 361.15 -26.5 362.15 -27.5 364.15 -38.5 364.15 -39.5 366.15 -125.5 369.15 -112.5 395.15 -113.5 397.15 -110.5 407.15 -108.5 408.15 -98.5 471.15 Q-66.8 478.75 -34.25 481.15 L-12.5 482.15 -12.75 481.7 -6.2 482.85 Q20.7 482.25 47.15 486.25 76.1 490.7 105.1 494.3 L137.25 498.55 Q166.55 502.7 195.95 505.65 212.2 507.25 228.35 509.9 L229.9 510.15 247.05 511.75 247.85 510.4 262.5 511.05 262.5 511.15 322.5 517.15 317.5 451.15 318.5 449.15 316.5 447.15 312.5 418.15 310.5 421.15 306.5 421.15 303.5 425.15 298.5 426.15 297.5 428.15 286.5 433.15 285.5 435.15 266.65 445.35 264.1 446.9 Q256.35 451.25 247.9 453.7 237.9 456.6 237.9 448.25 237.95 445.05 240.6 442.75 249.05 435.55 258.65 431.65 L258.5 431.35 M240.65 412.1 L257.5 404.15 258.5 402.15 262.5 401.15 265.1 398.25 269.5 397.15 270.5 395.15 273.5 395.15 274.5 393.15 289.5 384.15 293.5 384.15 307.5 375.15 Q307.45 361.45 305.05 347.85 303.9 341.25 302.0 334.65 294.1 307.3 278.95 283.15 267.1 264.35 252.6 247.45 L246.0 239.9 246.7 234.15 254.5 234.15 Q286.85 270.25 317.35 307.85 L345.15 341.75 Q352.3 350.35 355.5 361.15 L353.5 364.15 329.5 380.75 324.25 384.15 320.5 384.15 319.5 386.15 317.35 386.6 316.95 386.5 316.2 386.8 314.5 387.15 314.3 387.6 307.95 390.25 307.7 391.1 307.5 391.15 305.5 396.15 282.5 405.15 280.5 409.15 276.5 409.15 275.9 411.15 262.5 417.15 261.5 419.15 256.65 421.3 253.75 423.65 Q245.35 430.05 235.4 434.1 L231.25 435.75 Q224.2 438.35 222.05 431.25 219.5 422.8 229.35 419.05 235.45 416.7 240.9 413.05 L240.65 412.1 M335.0 358.05 L323.4 333.85 314.5 323.15 322.5 360.15 327.5 362.15 328.5 360.15 335.0 358.05 M3.2 77.8 L-33.15 82.45 Q-33.55 99.15 -33.45 115.75 L3.35 112.75 Q3.8 95.15 4.85 77.6 L3.2 77.8 M72.0 61.0 L73.0 59.5 73.0 58.0 73.0 56.5 73.0 55.0 77.25 45.05 Q68.8 50.25 60.4 55.95 L55.05 59.45 Q55.5 82.7 55.0 105.75 L65.95 103.3 66.0 103.0 66.7 102.85 67.8 95.6 Q69.8 79.2 71.0 62.5 L72.0 61.0 M14.6 75.8 Q13.85 93.8 13.35 111.95 29.3 110.45 44.95 107.7 45.7 86.45 45.2 64.95 30.7 72.2 14.6 75.8 M63.85 114.55 L54.75 116.3 53.6 142.3 58.5 137.55 Q60.35 132.35 60.8 127.0 L61.0 122.5 Q62.6 118.6 63.85 114.55 M41.0 142.55 L42.0 141.05 43.0 139.55 Q43.9 128.85 44.45 118.15 L13.1 123.0 Q12.5 147.45 12.5 172.05 L13.0 172.05 Q29.0 162.9 43.15 151.4 42.65 148.25 41.5 145.35 41.0 144.05 41.0 142.55 M3.15 124.3 L-33.35 128.1 Q-33.0 150.4 -31.8 172.5 L3.45 172.2 Q2.75 148.2 3.15 124.3 M64.8 501.0 L64.35 500.95 63.15 500.7 26.0 493.75 Q25.15 493.1 24.25 493.05 L-1.0 492.0 Q-6.65 492.15 -11.4 495.6 -13.05 496.85 -15.05 497.15 L-16.6 497.45 -16.5 497.15 -29.5 502.15 -30.5 504.15 -34.5 505.15 -35.5 507.15 -42.1 509.05 -42.5 512.15 Q-77.45 534.1 -103.85 566.0 -109.95 573.4 -115.5 581.15 L-113.5 584.15 -110.5 585.15 -105.5 592.15 -60.5 607.15 -59.5 609.15 -56.55 609.6 Q-55.95 608.75 -55.0 608.35 L-54.1 609.0 Q-47.5 612.35 -40.15 614.55 -34.8 616.2 -29.3 617.35 L-29.5 618.15 -15.5 625.15 -13.5 624.15 Q57.35 651.65 130.8 670.75 L136.35 671.5 Q154.05 671.7 168.8 662.15 L184.9 652.1 Q186.65 651.0 188.5 650.15 L189.5 648.15 230.5 623.15 231.5 621.15 235.5 620.15 236.5 618.15 Q250.15 613.8 261.1 605.6 298.8 577.2 337.5 550.15 L336.5 543.15 338.5 540.15 Q303.65 518.8 266.05 525.75 L258.8 524.9 254.3 524.35 Q246.0 521.45 237.15 520.05 208.35 515.6 179.3 513.75 157.2 512.35 135.15 509.1 L123.25 506.9 Q97.35 501.15 70.7 501.9 L64.8 501.0 M39.25 545.5 L39.25 545.35 53.5 545.5 39.25 545.5 M-235.2 -328.4 L-234.6 -328.0 -234.6 -327.1 -235.05 -327.6 -235.2 -327.8 -235.2 -328.4 M-228.1 -309.1 Q-228.6 -309.6 -228.85 -309.5 L-230.55 -308.8 -227.7 -308.7 -228.1 -309.1 M-244.7 -255.85 Q-244.25 -244.2 -243.35 -232.6 L-244.6 -235.05 Q-245.15 -241.15 -246.1 -247.15 -246.6 -250.05 -246.6 -253.05 L-245.1 -254.55 -244.7 -255.85 M-239.5 -132.85 L-238.5 -137.85 -180.5 -140.85 -178.5 -137.85 -180.5 -135.85 -239.5 -132.85 M-193.7 -162.5 L-187.65 -161.85 -181.5 -160.85 -182.5 -154.85 -238.5 -152.85 -235.5 -156.85 Q-224.1 -160.95 -212.25 -162.2 -203.1 -163.2 -193.7 -162.5 M-223.1 -214.75 L-223.1 -219.25 -221.25 -218.0 -220.3 -215.0 -221.1 -214.05 -223.1 -214.75 M-309.3 -153.05 Q-311.85 -146.05 -308.0 -139.8 -302.95 -131.6 -297.0 -124.0 L-283.5 -140.85 -291.5 -147.85 -292.5 -151.85 -309.3 -153.05 M-77.05 88.0 L-77.05 91.0 -78.05 92.5 -79.05 94.0 -79.05 119.55 -42.85 116.55 -42.6 83.5 -62.0 85.6 -77.05 86.85 -77.05 88.0 M-152.95 98.05 L-153.05 101.0 -154.05 102.5 -155.05 104.0 Q-154.95 115.15 -155.4 126.25 L-129.15 123.9 -129.05 87.0 -129.05 86.6 -129.55 86.45 -132.05 87.0 -132.1 87.3 Q-140.55 89.4 -148.5 92.2 L-148.5 91.15 -152.0 92.05 Q-152.75 95.0 -152.95 98.05 M-119.05 87.2 L-119.2 123.05 -88.9 120.4 -89.05 93.0 -89.05 90.0 -87.55 88.5 -87.25 87.35 -97.5 87.6 -102.35 89.0 -104.05 89.0 -108.6 87.55 -119.05 87.2 M-119.25 132.55 Q-119.45 151.55 -119.8 170.55 L-119.85 171.35 -119.55 171.55 -91.1 172.15 -91.1 165.05 -91.05 162.05 -89.55 160.55 Q-89.15 145.8 -89.0 131.05 L-119.25 132.55 M-155.75 133.3 Q-156.4 144.95 -157.65 156.45 -157.8 158.05 -158.55 159.55 L-157.95 161.2 Q-146.5 162.95 -135.45 166.9 L-128.6 169.05 -129.1 133.3 Q-142.45 134.25 -155.75 133.3 M-79.05 130.75 L-79.05 160.05 -79.05 163.05 -80.05 164.55 -81.05 166.05 Q-79.7 169.05 -79.45 172.3 L-43.05 172.55 -42.95 128.85 -79.05 130.75 M-197.5 371.15 L-200.5 380.15 -199.5 383.15 -201.5 384.15 -206.9 406.95 -192.5 409.15 -176.5 358.15 -190.5 353.15 -195.5 370.15 -197.5 371.15 M-159.5 363.15 L-167.5 368.15 -179.5 410.15 -174.5 428.15 -175.5 430.15 -173.8 438.1 -173.0 439.95 Q-171.55 442.4 -169.6 444.35 -165.0 449.0 -162.5 455.15 L-150.55 454.35 -148.25 454.45 Q-143.2 454.85 -138.9 457.2 -135.25 459.2 -132.5 462.15 L-131.5 466.15 -113.5 469.15 Q-113.25 460.85 -114.2 452.6 -117.85 421.8 -129.5 393.15 L-131.5 392.15 -145.5 366.15 -159.5 363.15 M-140.5 468.65 L-146.5 467.15 -149.5 469.15 -150.5 472.15 Q-165.85 476.95 -176.65 489.2 L-175.9 492.15 -176.5 494.15 -181.7 493.75 -183.4 504.85 -183.55 505.5 -183.7 506.0 -183.75 506.15 -184.5 506.15 -182.5 514.15 -180.5 516.15 -168.5 516.15 -165.5 514.15 -163.5 493.15 -157.5 493.15 -152.5 506.15 -150.5 507.15 Q-140.4 496.95 -137.6 483.45 -136.15 476.5 -139.7 470.2 L-140.5 468.65 M-189.9 433.1 L-191.65 431.75 -194.5 424.15 -208.5 421.15 -214.5 425.15 Q-222.1 459.85 -220.05 494.8 -219.7 500.85 -216.95 505.95 -214.7 510.2 -211.5 514.15 L-202.5 513.15 Q-185.0 479.05 -188.95 441.0 L-189.9 433.1 M-239.5 417.15 Q-256.6 424.85 -259.45 442.35 -261.0 451.65 -261.5 461.15 L-259.5 462.15 -254.5 498.15 -235.5 511.15 -230.5 509.15 -232.5 419.15 -239.5 417.15 M-175.5 455.15 L-179.0 475.15 -165.5 466.15 -166.5 464.15 -169.5 464.15 -175.5 460.15 -175.5 455.15 M-319.5 455.15 L-318.5 478.15 -316.5 479.15 -309.85 490.85 -308.9 491.85 -308.8 491.95 -308.65 491.65 -308.5 491.15 -306.5 494.15 -298.5 495.15 -310.5 451.15 -319.5 455.15 M-295.0 466.55 Q-288.1 482.55 -282.5 499.15 L-267.4 498.25 -273.5 432.15 -290.9 432.05 Q-303.3 447.3 -295.0 466.55" fill="#000000" fill-rule="evenodd" stroke="none"/>
    <path d="M127.5 -570.85 L130.5 -570.85 131.5 -572.85 Q169.35 -591.2 208.5 -575.85 L209.5 -573.85 217.5 -571.85 218.5 -569.85 223.5 -568.85 224.5 -565.85 226.5 -566.85 230.5 -563.85 230.5 -560.85 Q239.15 -556.35 246.4 -550.1 264.1 -534.95 277.5 -515.85 L277.5 -512.85 280.5 -511.85 281.5 -507.85 283.5 -506.85 284.5 -498.85 286.5 -497.85 286.9 -489.2 Q288.0 -459.15 275.5 -431.85 L271.5 -434.85 272.5 -429.85 274.5 -428.85 268.5 -413.85 262.45 -421.25 260.5 -421.85 257.65 -431.5 254.5 -431.85 254.5 -434.85 251.6 -435.45 252.5 -437.85 249.5 -438.85 249.5 -441.85 247.5 -443.85 246.5 -440.85 246.9 -453.95 240.85 -448.45 185.5 -490.85 173.45 -498.8 172.5 -500.85 126.5 -530.85 125.5 -533.85 103.5 -551.85 119.5 -563.85 121.5 -566.85 126.5 -568.85 127.5 -570.85 M-50.6 621.25 L-50.45 621.0 -49.4 621.7 -50.6 621.25 M-12.75 481.7 L-12.5 482.15 -34.25 481.15 Q-66.8 478.75 -98.5 471.15 L-108.5 408.15 -110.5 407.15 -113.5 397.15 -112.5 395.15 -125.5 369.15 -39.5 366.15 -38.5 364.15 -27.5 364.15 -26.5 362.15 -23.5 361.15 -21.5 362.15 51.5 341.15 52.5 339.15 90.5 326.15 91.5 324.15 96.5 321.15 99.5 321.15 100.5 319.15 105.5 318.15 106.5 316.15 Q127.5 306.55 144.7 291.05 L168.7 269.45 Q175.95 262.9 180.5 254.15 L184.5 253.15 213.5 214.15 216.5 213.15 233.5 193.15 Q249.15 208.9 264.4 225.1 279.7 241.4 294.4 257.7 326.4 293.35 354.5 332.15 L354.5 336.15 374.5 361.15 372.5 360.15 370.5 364.15 361.4 369.15 359.7 370.75 359.2 371.25 Q356.9 372.15 354.85 373.3 L354.5 374.15 351.5 376.15 350.95 375.95 349.7 377.0 Q347.05 377.8 344.65 379.1 L344.0 381.1 310.5 401.15 309.5 403.15 304.5 404.15 303.5 406.15 299.5 407.15 298.5 409.15 286.5 414.15 285.5 416.15 281.5 417.15 280.5 419.15 272.5 423.15 268.5 420.15 271.5 423.15 269.75 424.95 268.95 425.75 268.15 426.45 266.45 427.75 264.7 428.95 263.35 429.75 262.85 430.05 260.65 430.85 260.4 430.85 258.5 431.35 258.35 430.95 Q256.75 427.15 254.1 424.05 L253.75 423.65 256.65 421.3 261.5 419.15 262.5 417.15 275.9 411.15 276.5 409.15 280.5 409.15 282.5 405.15 305.5 396.15 307.5 391.15 307.7 391.1 307.95 390.25 314.3 387.6 314.5 387.15 316.2 386.8 316.95 386.5 317.35 386.6 319.5 386.15 320.5 384.15 324.25 384.15 329.5 380.75 353.5 364.15 355.5 361.15 Q352.3 350.35 345.15 341.75 L317.35 307.85 Q286.85 270.25 254.5 234.15 L246.7 234.15 246.0 239.9 252.6 247.45 Q267.1 264.35 278.95 283.15 294.1 307.3 302.0 334.65 303.9 341.25 305.05 347.85 307.45 361.45 307.5 375.15 L293.5 384.15 289.5 384.15 274.5 393.15 273.5 395.15 270.5 395.15 269.5 397.15 265.1 398.25 262.5 401.15 258.5 402.15 257.5 404.15 240.65 412.1 Q240.1 410.35 238.95 409.0 L236.5 406.95 Q231.6 403.9 226.25 403.75 L225.65 401.1 Q229.3 394.7 228.05 387.35 226.3 376.9 214.75 379.0 208.3 380.35 202.05 382.75 193.55 381.05 185.0 380.5 190.15 371.5 185.6 362.95 184.1 360.15 181.2 359.95 L148.0 358.5 Q147.85 355.35 145.95 352.8 144.5 350.9 142.65 350.65 L125.75 349.0 97.75 352.8 89.5 353.4 Q72.85 353.65 60.7 363.4 54.85 368.05 54.75 375.25 49.7 369.9 41.5 372.1 34.95 373.9 28.9 377.0 23.4 379.9 18.0 383.05 3.5 391.5 -9.8 401.45 -14.7 405.1 -16.75 410.5 -19.15 416.95 -15.0 422.25 -16.4 423.8 -17.15 425.6 -26.3 426.7 -35.35 428.75 -41.0 430.05 -43.05 435.35 -47.25 446.25 -37.25 450.75 -39.1 455.75 -36.55 460.4 -35.2 462.8 -32.65 463.0 L-27.85 463.4 Q-30.95 466.75 -30.9 470.65 -31.45 475.0 -27.45 479.5 -26.2 481.0 -24.5 481.05 L-14.7 481.3 -12.75 481.7 M264.1 446.9 L266.65 445.35 285.5 435.15 286.5 433.15 297.5 428.15 298.5 426.15 303.5 425.15 306.5 421.15 310.5 421.15 312.5 418.15 316.5 447.15 318.5 449.15 317.5 451.15 322.5 517.15 262.5 511.15 262.5 511.05 271.75 510.75 Q278.4 504.6 274.25 496.6 273.65 495.35 272.5 495.0 L262.6 492.05 264.85 491.1 Q265.25 490.85 265.75 490.75 269.05 487.85 269.3 483.45 269.7 475.9 268.7 468.4 267.2 457.4 264.1 446.9 M247.85 510.4 L247.05 511.75 229.9 510.15 237.75 509.75 238.35 509.15 247.85 510.4 M-197.5 371.15 L-195.5 370.15 -190.5 353.15 -176.5 358.15 -192.5 409.15 -206.9 406.95 -201.5 384.15 -199.5 383.15 -200.5 380.15 -197.5 371.15" fill="#fefefe" fill-rule="evenodd" stroke="none"/>
    <path d="M112.5 -519.85 L124.5 -513.85 Q161.55 -495.25 194.1 -469.45 L200.5 -464.2 Q219.55 -448.05 235.5 -428.85 L162.5 -480.85 161.5 -483.85 154.5 -486.85 153.5 -489.85 140.5 -496.85 112.5 -519.85 M70.7 501.9 Q97.35 501.15 123.25 506.9 L135.15 509.1 Q157.2 512.35 179.3 513.75 208.35 515.6 237.15 520.05 246.0 521.45 254.3 524.35 L258.8 524.9 266.05 525.75 Q303.65 518.8 338.5 540.15 L336.5 543.15 337.5 550.15 Q298.8 577.2 261.1 605.6 250.15 613.8 236.5 618.15 L235.5 620.15 231.5 621.15 230.5 623.15 189.5 648.15 188.5 650.15 Q186.65 651.0 184.9 652.1 L168.8 662.15 Q154.05 671.7 136.35 671.5 L130.8 670.75 Q57.35 651.65 -13.5 624.15 L-15.5 625.15 -29.5 618.15 -29.3 617.35 Q-34.8 616.2 -40.15 614.55 -47.5 612.35 -54.1 609.0 L-55.0 608.35 Q-55.95 608.75 -56.55 609.6 L-59.5 609.15 -60.5 607.15 -105.5 592.15 -110.5 585.15 -113.5 584.15 -115.5 581.15 Q-109.95 573.4 -103.85 566.0 -77.45 534.1 -42.5 512.15 L-42.1 509.05 -35.5 507.15 -34.5 505.15 -30.5 504.15 -29.5 502.15 -16.5 497.15 -16.6 497.45 -15.05 497.15 Q-13.05 496.85 -11.4 495.6 -6.65 492.15 -1.0 492.0 L24.25 493.05 Q25.15 493.1 26.0 493.75 L63.15 500.7 64.35 500.95 64.8 501.0 69.95 501.9 70.7 501.9 M39.25 545.5 L53.5 545.5 39.25 545.35 39.25 545.5" fill="#000066" fill-rule="evenodd" stroke="none"/>
    <path d="M69.5 -534.85 L71.5 -537.85 Q79.9 -535.05 86.75 -529.35 130.9 -492.35 179.15 -460.9 L181.9 -459.1 Q188.3 -454.95 194.15 -450.05 217.45 -430.15 243.5 -414.85 L244.5 -412.85 Q249.05 -412.3 252.6 -409.6 256.95 -406.25 258.5 -400.85 235.15 -404.75 222.5 -424.85 L219.5 -425.85 Q198.0 -441.4 175.95 -456.15 L161.2 -465.9 Q113.15 -497.4 69.5 -534.85 M59.5 -564.85 L58.5 -566.85 32.5 -575.85 31.5 -577.85 20.2 -583.35 17.5 -582.85 15.5 -585.85 12.5 -584.85 11.5 -587.85 8.1 -590.05 6.55 -589.05 Q5.7 -588.55 5.35 -588.75 -3.3 -592.9 -11.5 -597.85 L-15.5 -597.85 -17.5 -599.85 -23.5 -599.85 -23.5 -602.85 -29.5 -603.85 -30.05 -605.95 -30.5 -603.85 -38.5 -606.85 -39.5 -608.85 -56.5 -614.85 -59.5 -613.85 -72.5 -621.85 -74.0 -620.2 -81.5 -623.85 -84.5 -622.85 -85.5 -624.85 -87.5 -623.85 -88.5 -625.85 -94.5 -624.85 -94.5 -616.85 -83.35 -613.65 Q-44.7 -602.1 -8.5 -583.85 L-7.5 -581.85 23.5 -570.85 24.5 -568.85 75.5 -545.85 55.5 -544.85 52.5 -536.85 65.85 -522.1 50.5 -528.85 49.5 -530.85 36.5 -535.85 35.5 -537.85 28.5 -539.85 27.5 -541.85 6.5 -549.85 5.5 -551.85 -7.5 -555.85 -8.5 -557.85 -18.5 -559.85 -19.5 -561.85 -37.5 -567.85 -38.5 -569.85 -43.5 -570.85 -44.5 -572.85 -61.5 -578.85 -62.5 -580.85 -69.5 -582.85 -70.5 -584.85 -81.5 -588.85 -82.5 -590.85 -92.5 -594.85 -93.5 -596.85 -124.5 -614.85 -126.5 -613.85 -127.5 -615.85 -129.5 -616.85 -131.5 -615.85 -155.5 -637.85 -155.5 -649.85 -147.5 -658.85 Q-137.3 -661.9 -126.5 -662.75 L-105.6 -661.95 Q-92.75 -659.85 -80.5 -654.85 L-79.5 -652.85 -56.5 -644.85 -55.5 -642.85 -37.5 -634.85 -36.5 -632.85 -31.5 -631.85 -30.5 -629.85 -26.5 -628.85 -25.5 -626.85 Q-23.3 -626.3 -21.5 -625.1 23.2 -594.05 67.45 -562.3 L64.5 -561.85 63.5 -563.85 59.5 -564.85" fill="#cccccc" fill-rule="evenodd" stroke="none"/>
    <path d="M-239.25 -433.15 Q-222.0 -448.55 -197.6 -450.85 -161.45 -454.8 -125.05 -452.75 L-40.8 -446.15 Q28.9 -440.5 92.5 -412.85 L93.5 -410.85 102.5 -407.85 103.5 -405.85 131.5 -388.85 132.5 -385.85 138.4 -381.3 Q185.3 -344.95 215.5 -293.85 L217.5 -292.85 218.5 -288.85 220.5 -287.85 237.5 -255.85 239.5 -254.85 242.5 -246.85 244.5 -245.85 253.5 -225.85 255.5 -224.85 265.5 -197.85 267.5 -196.85 270.45 -185.25 266.15 -165.45 276.5 -167.85 277.5 -172.85 301.5 -193.85 302.5 -196.85 306.5 -198.85 306.5 -199.85 310.5 -200.85 311.5 -202.85 320.5 -203.85 Q328.6 -212.6 339.8 -209.55 342.75 -208.6 345.25 -207.1 348.6 -205.15 350.5 -201.85 L350.55 -199.45 352.5 -198.85 Q354.8 -193.5 356.2 -187.8 359.4 -174.75 356.6 -161.7 L356.0 -159.2 Q353.6 -149.85 348.5 -141.85 L346.5 -140.85 346.5 -137.85 328.5 -114.85 325.5 -114.85 313.5 -103.85 308.5 -102.85 311.5 -101.85 306.5 -99.85 306.5 -100.85 302.5 -100.85 301.5 -98.85 294.5 -96.85 289.5 -101.35 287.35 -98.45 283.4 -98.8 283.5 -100.85 273.5 -99.85 276.35 -91.35 Q298.65 -23.4 296.95 48.0 L298.5 50.15 286.5 85.15 284.5 86.15 280.5 97.15 278.5 98.15 277.5 102.15 224.35 173.55 Q206.25 197.7 186.25 220.15 150.0 260.9 106.75 294.4 98.4 300.8 88.5 304.15 L87.5 306.15 72.5 312.15 71.5 314.15 52.5 319.15 51.5 321.15 Q43.45 324.8 35.3 327.95 13.5 336.45 -9.25 341.95 -36.75 348.5 -65.0 350.5 -130.9 354.05 -192.5 330.15 L-193.5 328.15 -197.5 327.15 -198.5 325.15 -201.5 325.15 Q-224.75 311.2 -247.4 296.3 -282.9 272.95 -306.5 238.15 L-309.5 237.15 -320.5 218.15 -322.5 217.15 -324.5 210.15 -326.5 209.15 -335.5 194.15 -336.5 190.15 -338.5 189.15 -350.5 158.15 -352.5 157.15 -353.15 154.0 Q-355.15 152.45 -356.3 148.95 -364.25 124.9 -369.95 100.75 -377.35 76.5 -375.85 49.7 -375.0 34.75 -370.65 21.05 L-370.35 19.9 -370.1 18.5 -367.0 6.2 Q-365.75 1.15 -363.45 -3.6 -358.3 -14.05 -350.55 -22.5 -347.3 -28.5 -343.35 -34.0 -305.0 -87.35 -265.5 -139.85 L-264.5 -143.85 -262.5 -144.85 -241.5 -191.85 Q-241.85 -196.6 -241.85 -201.3 -241.8 -212.55 -244.1 -223.5 L-246.4 -234.7 Q-251.55 -259.9 -256.15 -285.15 L-255.0 -285.0 Q-251.6 -284.6 -248.1 -285.1 -245.25 -291.35 -239.6 -294.95 -238.6 -295.6 -238.1 -297.1 L-210.75 -300.2 Q-200.95 -298.6 -192.05 -302.1 -191.55 -303.6 -191.95 -304.8 -192.55 -306.6 -194.05 -308.1 -206.8 -310.1 -219.1 -314.1 L-222.2 -317.0 -226.1 -320.1 -236.1 -321.1 -236.3 -320.5 Q-238.1 -319.6 -240.1 -319.1 -243.1 -316.1 -246.65 -314.25 -254.55 -310.1 -259.6 -304.1 L-262.5 -320.85 -259.2 -321.0 -260.2 -323.05 -260.75 -324.1 -263.1 -324.1 Q-263.95 -330.95 -263.95 -337.8 L-264.5 -337.85 -265.35 -346.6 -264.95 -346.45 -263.7 -346.0 Q-262.95 -356.4 -260.25 -366.8 L-259.35 -374.7 -263.1 -367.05 Q-263.1 -365.55 -263.45 -364.15 -263.85 -362.55 -264.75 -361.2 L-265.75 -359.8 Q-265.5 -375.0 -262.2 -389.7 -261.5 -383.15 -258.95 -377.3 L-258.15 -381.5 Q-256.6 -389.0 -257.1 -397.1 -255.1 -400.1 -253.65 -403.35 -253.1 -404.6 -253.1 -406.1 L-248.0 -407.85 -246.1 -408.1 -243.1 -405.1 -243.1 -402.1 -243.1 -399.1 Q-238.4 -398.75 -234.2 -404.2 L-232.1 -407.1 -226.1 -408.1 Q-210.7 -397.8 -195.05 -389.1 L-199.05 -383.1 Q-201.9 -372.6 -195.05 -362.1 L-195.85 -358.65 Q-192.25 -361.1 -189.0 -364.35 -176.4 -376.95 -176.4 -394.8 -176.4 -412.65 -189.0 -425.25 -201.6 -437.85 -219.45 -437.85 -230.3 -437.85 -239.25 -433.15 M26.5 -313.85 L49.5 -302.85 67.7 -284.55 72.5 -283.85 68.5 -303.85 66.5 -304.85 Q62.1 -312.35 55.55 -318.0 45.85 -326.4 33.2 -327.55 21.5 -328.3 10.5 -323.85 L7.5 -318.85 25.5 -315.85 26.5 -313.85 M156.9 -163.65 Q156.9 -177.9 146.8 -188.0 136.7 -198.1 122.45 -198.1 L119.6 -198.0 117.0 -196.05 113.0 -196.85 110.1 -195.9 Q103.5 -193.4 98.1 -188.0 88.0 -177.9 88.0 -163.65 88.0 -149.4 98.1 -139.3 108.2 -129.2 122.45 -129.2 136.7 -129.2 146.8 -139.3 156.9 -149.4 156.9 -163.65 M26.8 -142.6 L17.45 -144.15 12.75 -144.75 Q-17.95 -148.25 -48.0 -141.0 L-48.05 -138.0 25.5 -137.45 26.8 -142.6 M21.5 -128.85 L13.0 -129.7 4.5 -129.95 Q-21.3 -130.35 -45.5 -121.85 L-44.5 -117.85 21.5 -123.85 21.5 -128.85 M116.0 -53.0 Q114.5 -52.5 112.95 -52.35 99.65 -51.0 95.0 -41.0 96.0 -39.5 97.35 -38.45 98.5 -37.5 100.0 -37.0 107.45 -40.2 115.0 -41.35 L114.95 -40.5 Q113.55 -19.5 103.0 -1.5 L102.9 1.5 102.5 4.5 Q94.35 16.55 83.45 26.4 78.45 30.9 73.8 35.75 59.95 50.25 39.75 55.55 -24.15 72.35 -90.25 77.6 L-132.05 75.0 Q-134.5 76.1 -138.05 77.1 L-138.35 77.2 Q-170.35 81.85 -202.5 80.15 L-202.5 77.15 Q-182.75 54.2 -169.5 27.15 L-167.5 26.15 -166.5 21.15 -164.5 20.15 -162.5 14.15 -160.5 13.15 -147.5 -18.85 -148.5 -23.85 Q-153.95 -20.7 -159.65 -18.15 L-163.45 -16.5 Q-182.4 -8.25 -202.65 -4.7 -215.25 -2.4 -227.9 -4.3 -234.25 -5.1 -240.5 -6.85 L-241.5 -8.85 -246.5 -10.85 -248.9 -15.05 -249.75 -16.85 -250.35 -18.8 -250.85 -20.8 Q-252.3 -28.4 -249.5 -35.85 L-247.5 -36.85 -247.5 -39.85 -244.5 -44.85 -242.5 -45.85 -241.25 -50.25 -240.65 -51.65 -239.95 -53.0 -239.15 -54.25 Q-236.95 -57.45 -233.65 -59.5 L-231.5 -60.85 -230.5 -63.85 Q-223.75 -67.6 -217.35 -71.95 L-213.1 -74.8 Q-184.65 -94.35 -161.35 -119.9 -154.2 -127.75 -148.5 -136.85 L-146.5 -137.85 -143.5 -144.85 -141.5 -145.85 -139.5 -152.85 -137.5 -153.85 -130.85 -175.15 Q-130.1 -177.65 -129.5 -180.15 -123.25 -205.2 -123.85 -231.1 -124.3 -248.85 -127.75 -266.25 -129.6 -275.7 -132.5 -284.85 L-141.5 -284.85 Q-138.35 -273.35 -136.8 -261.55 L-135.95 -253.8 Q-133.0 -223.4 -140.5 -193.85 L-139.5 -191.85 -142.5 -185.85 -141.5 -182.85 -154.5 -148.85 -156.5 -147.85 -169.5 -127.85 -173.5 -126.85 -174.5 -122.85 Q-184.7 -113.5 -195.45 -104.75 L-202.8 -99.15 Q-228.5 -81.2 -250.15 -59.05 -255.15 -53.95 -258.3 -47.45 -262.25 -39.2 -263.6 -30.15 L-265.5 -15.85 -256.5 0.15 -251.5 2.15 -250.5 4.15 -246.5 5.15 -245.5 7.15 Q-237.7 9.55 -229.8 10.45 L-224.05 11.1 Q-202.9 12.55 -182.75 6.1 L-174.5 3.15 -176.5 11.15 -178.5 12.15 Q-180.5 18.2 -183.05 24.1 L-184.75 28.0 Q-193.4 47.25 -207.4 63.25 -213.5 70.2 -217.6 78.45 L-219.8 83.65 Q-214.2 87.85 -207.85 90.75 L-204.05 92.05 Q-183.85 97.0 -163.25 94.2 -165.95 123.65 -167.05 153.55 L-168.05 155.05 -169.05 156.55 -169.2 158.0 -169.55 160.05 Q-176.7 159.65 -184.0 160.1 -190.8 160.55 -191.05 167.05 -190.1 170.7 -186.05 171.05 -177.1 169.1 -168.45 170.0 -166.55 174.25 -162.05 177.05 -160.8 176.55 -159.8 175.75 L-157.05 173.05 -157.05 172.4 -156.55 172.55 Q-141.05 178.15 -124.55 180.55 -123.8 181.3 -123.05 181.3 -85.55 182.55 -48.05 182.3 L-43.05 181.55 -34.05 185.05 Q-10.05 184.05 13.2 179.25 24.55 176.9 35.25 170.5 49.55 162.05 61.15 150.7 65.65 146.35 67.25 140.2 70.85 126.45 73.8 112.55 L74.0 112.5 76.3 109.85 77.0 108.5 76.7 107.2 75.35 105.25 Q80.05 81.85 83.0 58.0 84.5 55.75 85.25 53.3 87.7 45.0 90.5 37.0 L93.1 35.15 Q94.25 34.0 95.0 32.5 L94.75 31.1 94.75 31.05 Q104.2 19.3 113.0 7.0 L113.0 4.0 113.0 2.5 113.8 0.9 Q117.95 -9.8 122.5 -20.0 L123.25 -22.9 Q125.25 -28.6 125.35 -34.65 129.7 -27.5 138.0 -25.0 L140.0 -25.5 141.4 -26.65 142.4 -28.05 143.0 -29.5 Q143.1 -32.35 140.5 -34.0 L138.0 -35.5 137.2 -37.1 Q131.65 -53.05 116.0 -53.0 M306.5 -180.85 L306.5 -178.85 Q293.95 -172.15 287.3 -159.45 L285.5 -155.85 283.5 -154.85 Q275.15 -138.25 277.5 -119.85 L280.5 -118.85 282.5 -123.85 286.5 -124.85 289.5 -137.85 291.5 -138.85 292.5 -142.85 294.5 -143.85 296.5 -148.85 303.5 -152.85 311.5 -146.85 311.5 -133.85 317.5 -130.85 Q325.1 -137.85 324.45 -148.25 323.95 -156.25 317.05 -160.3 314.4 -161.9 311.5 -162.85 315.15 -169.0 321.2 -172.55 325.15 -174.95 329.8 -174.7 L331.3 -174.55 337.5 -164.85 341.5 -163.85 343.5 -166.85 345.5 -163.85 342.5 -183.85 Q335.15 -187.75 326.8 -187.95 322.0 -188.05 317.5 -186.85 L316.5 -184.85 311.5 -184.85 310.5 -181.85 306.5 -180.85 M-236.3 -362.4 L-238.8 -360.8 -234.1 -356.1 -231.3 -353.3 Q-226.4 -351.95 -221.05 -351.75 L-221.1 -352.1 -227.1 -356.1 Q-232.75 -359.5 -233.1 -365.1 -234.6 -363.6 -236.3 -362.4 M-235.2 -328.4 L-235.2 -327.8 -235.05 -327.6 -234.6 -327.1 -234.6 -328.0 -235.2 -328.4 M-244.7 -255.85 L-245.1 -254.55 -246.6 -253.05 Q-246.6 -250.05 -246.1 -247.15 -245.15 -241.15 -244.6 -235.05 L-243.35 -232.6 Q-244.25 -244.2 -244.7 -255.85 M-228.1 -309.1 L-227.7 -308.7 -230.55 -308.8 -228.85 -309.5 Q-228.6 -309.6 -228.1 -309.1 M-223.1 -214.75 L-221.1 -214.05 -220.3 -215.0 -221.25 -218.0 -223.1 -219.25 -223.1 -214.75 M-193.7 -162.5 Q-203.1 -163.2 -212.25 -162.2 -224.1 -160.95 -235.5 -156.85 L-238.5 -152.85 -182.5 -154.85 -181.5 -160.85 -187.65 -161.85 -193.7 -162.5 M-239.5 -132.85 L-180.5 -135.85 -178.5 -137.85 -180.5 -140.85 -238.5 -137.85 -239.5 -132.85 M-309.3 -153.05 L-292.5 -151.85 -291.5 -147.85 -283.5 -140.85 -297.0 -124.0 Q-302.95 -131.6 -308.0 -139.8 -311.85 -146.05 -309.3 -153.05 M-209.8 -60.9 Q-218.8 -60.9 -225.15 -54.55 -231.5 -48.2 -231.5 -39.2 -231.5 -30.2 -225.15 -23.85 -218.8 -17.5 -209.8 -17.5 -200.8 -17.5 -194.45 -23.85 -188.1 -30.2 -188.1 -39.2 -188.1 -48.2 -194.45 -54.55 -200.8 -60.9 -209.8 -60.9 M-295.0 466.55 Q-303.3 447.3 -290.9 432.05 L-273.5 432.15 -267.4 498.25 -282.5 499.15 Q-288.1 482.55 -295.0 466.55 M-319.5 455.15 L-310.5 451.15 -298.5 495.15 -306.5 494.15 -308.5 491.15 -308.65 491.65 -308.8 491.95 -308.9 491.85 -309.85 490.85 -316.5 479.15 -318.5 478.15 -319.5 455.15 M-175.5 455.15 L-175.5 460.15 -169.5 464.15 -166.5 464.15 -165.5 466.15 -179.0 475.15 -175.5 455.15 M-239.5 417.15 L-232.5 419.15 -230.5 509.15 -235.5 511.15 -254.5 498.15 -259.5 462.15 -261.5 461.15 Q-261.0 451.65 -259.45 442.35 -256.6 424.85 -239.5 417.15 M-189.9 433.1 L-188.95 441.0 Q-185.0 479.05 -202.5 513.15 L-211.5 514.15 Q-214.7 510.2 -216.95 505.95 -219.7 500.85 -220.05 494.8 -222.1 459.85 -214.5 425.15 L-208.5 421.15 -194.5 424.15 -191.65 431.75 -189.9 433.1 M-140.5 468.65 L-139.7 470.2 Q-136.15 476.5 -137.6 483.45 -140.4 496.95 -150.5 507.15 L-152.5 506.15 -157.5 493.15 -163.5 493.15 -165.5 514.15 -168.5 516.15 -180.5 516.15 -182.5 514.15 -184.5 506.15 -183.75 506.15 -183.7 506.0 -183.55 505.5 -183.4 504.85 -181.7 493.75 -176.5 494.15 -175.9 492.15 -176.65 489.2 Q-165.85 476.95 -150.5 472.15 L-149.5 469.15 -146.5 467.15 -140.5 468.65" fill="#ffcccc" fill-rule="evenodd" stroke="none"/>
    <path d="M156.9 -163.65 Q156.9 -149.4 146.8 -139.3 136.7 -129.2 122.45 -129.2 108.2 -129.2 98.1 -139.3 88.0 -149.4 88.0 -163.65 88.0 -177.9 98.1 -188.0 103.5 -193.4 110.1 -195.9 L113.0 -196.85 117.0 -196.05 119.6 -198.0 122.45 -198.1 Q136.7 -198.1 146.8 -188.0 156.9 -177.9 156.9 -163.65" fill="url(#gradient0)" fill-rule="evenodd" stroke="none"/>
    <path d="M-12.75 481.7 L-14.7 481.3 -24.5 481.05 Q-26.2 481.0 -27.45 479.5 -31.45 475.0 -30.9 470.65 -30.95 466.75 -27.85 463.4 L-32.65 463.0 Q-35.2 462.8 -36.55 460.4 -39.1 455.75 -37.25 450.75 -47.25 446.25 -43.05 435.35 -41.0 430.05 -35.35 428.75 -26.3 426.7 -17.15 425.6 -16.4 423.8 -15.0 422.25 -19.15 416.95 -16.75 410.5 -14.7 405.1 -9.8 401.45 3.5 391.5 18.0 383.05 23.4 379.9 28.9 377.0 34.95 373.9 41.5 372.1 49.7 369.9 54.75 375.25 54.85 368.05 60.7 363.4 72.85 353.65 89.5 353.4 L97.75 352.8 125.75 349.0 142.65 350.65 Q144.5 350.9 145.95 352.8 147.85 355.35 148.0 358.5 L181.2 359.95 Q184.1 360.15 185.6 362.95 190.15 371.5 185.0 380.5 193.55 381.05 202.05 382.75 208.3 380.35 214.75 379.0 226.3 376.9 228.05 387.35 229.3 394.7 225.65 401.1 L226.25 403.75 Q231.6 403.9 236.5 406.95 L238.95 409.0 Q240.1 410.35 240.65 412.1 L240.9 413.05 Q235.45 416.7 229.35 419.05 219.5 422.8 222.05 431.25 224.2 438.35 231.25 435.75 L235.4 434.1 Q245.35 430.05 253.75 423.65 L254.1 424.05 Q256.75 427.15 258.35 430.95 L258.5 431.35 258.65 431.65 Q249.05 435.55 240.6 442.75 237.95 445.05 237.9 448.25 237.9 456.6 247.9 453.7 256.35 451.25 264.1 446.9 267.2 457.4 268.7 468.4 269.7 475.9 269.3 483.45 269.05 487.85 265.75 490.75 265.25 490.85 264.85 491.1 L262.6 492.05 272.5 495.0 Q273.65 495.35 274.25 496.6 278.4 504.6 271.75 510.75 L262.5 511.05 247.85 510.4 238.35 509.15 237.75 509.75 229.9 510.15 228.35 509.9 Q212.2 507.25 195.95 505.65 166.55 502.7 137.25 498.55 L105.1 494.3 Q76.1 490.7 47.15 486.25 20.7 482.25 -6.2 482.85 L-12.75 481.7 M3.15 124.3 Q2.75 148.2 3.45 172.2 L-31.8 172.5 Q-33.0 150.4 -33.35 128.1 L3.15 124.3 M41.0 142.55 Q41.0 144.05 41.5 145.35 42.65 148.25 43.15 151.4 29.0 162.9 13.0 172.05 L12.5 172.05 Q12.5 147.45 13.1 123.0 L44.45 118.15 Q43.9 128.85 43.0 139.55 L42.0 141.05 41.0 142.55 M63.85 114.55 Q62.6 118.6 61.0 122.5 L60.8 127.0 Q60.35 132.35 58.5 137.55 L53.6 142.3 54.75 116.3 63.85 114.55 M14.6 75.8 Q30.7 72.2 45.2 64.95 45.7 86.45 44.95 107.7 29.3 110.45 13.35 111.95 13.85 93.8 14.6 75.8 M72.0 61.0 L71.0 62.5 Q69.8 79.2 67.8 95.6 L66.7 102.85 66.0 103.0 65.95 103.3 55.0 105.75 Q55.5 82.7 55.05 59.45 L60.4 55.95 Q68.8 50.25 77.25 45.05 L73.0 55.0 73.0 56.5 73.0 58.0 73.0 59.5 72.0 61.0 M3.2 77.8 L4.85 77.6 Q3.8 95.15 3.35 112.75 L-33.45 115.75 Q-33.55 99.15 -33.15 82.45 L3.2 77.8 M64.8 501.0 L70.7 501.9 69.95 501.9 64.8 501.0 M-79.05 130.75 L-42.95 128.85 -43.05 172.55 -79.45 172.3 Q-79.7 169.05 -81.05 166.05 L-80.05 164.55 -79.05 163.05 -79.05 160.05 -79.05 130.75 M-155.75 133.3 Q-142.45 134.25 -129.1 133.3 L-128.6 169.05 -135.45 166.9 Q-146.5 162.95 -157.95 161.2 L-158.55 159.55 Q-157.8 158.05 -157.65 156.45 -156.4 144.95 -155.75 133.3 M-119.25 132.55 L-89.0 131.05 Q-89.15 145.8 -89.55 160.55 L-91.05 162.05 -91.1 165.05 -91.1 172.15 -119.55 171.55 -119.85 171.35 -119.8 170.55 Q-119.45 151.55 -119.25 132.55 M-119.05 87.2 L-108.6 87.55 -104.05 89.0 -102.35 89.0 -97.5 87.6 -87.25 87.35 -87.55 88.5 -89.05 90.0 -89.05 93.0 -88.9 120.4 -119.2 123.05 -119.05 87.2 M-152.95 98.05 Q-152.75 95.0 -152.0 92.05 L-148.5 91.15 -148.5 92.2 Q-140.55 89.4 -132.1 87.3 L-132.05 87.0 -129.55 86.45 -129.05 86.6 -129.05 87.0 -129.15 123.9 -155.4 126.25 Q-154.95 115.15 -155.05 104.0 L-154.05 102.5 -153.05 101.0 -152.95 98.05 M-77.05 88.0 L-77.05 86.85 -62.0 85.6 -42.6 83.5 -42.85 116.55 -79.05 119.55 -79.05 94.0 -78.05 92.5 -77.05 91.0 -77.05 88.0" fill="#ffffff" fill-rule="evenodd" stroke="none"/>
    <path d="M-239.25 -433.15 Q-230.3 -437.85 -219.45 -437.85 -201.6 -437.85 -189.0 -425.25 -176.4 -412.65 -176.4 -394.8 -176.4 -376.95 -189.0 -364.35 -192.25 -361.1 -195.85 -358.65 L-195.05 -362.1 Q-201.9 -372.6 -199.05 -383.1 L-195.05 -389.1 Q-210.7 -397.8 -226.1 -408.1 L-232.1 -407.1 -234.2 -404.2 Q-238.4 -398.75 -243.1 -399.1 L-243.1 -402.1 -243.1 -405.1 -246.1 -408.1 -248.0 -407.85 -253.1 -406.1 Q-253.1 -404.6 -253.65 -403.35 -255.1 -400.1 -257.1 -397.1 -256.6 -389.0 -258.15 -381.5 L-258.95 -377.3 Q-261.5 -383.15 -262.2 -389.7 L-262.5 -394.8 Q-262.5 -412.65 -249.9 -425.25 -244.95 -430.2 -239.25 -433.15 M-236.3 -362.4 Q-234.6 -363.6 -233.1 -365.1 -232.75 -359.5 -227.1 -356.1 L-221.1 -352.1 -221.05 -351.75 Q-226.4 -351.95 -231.3 -353.3 L-234.1 -356.1 -238.8 -360.8 -236.3 -362.4" fill="url(#gradient1)" fill-rule="evenodd" stroke="none"/>
    <path d="M-209.8 -60.9 Q-200.8 -60.9 -194.45 -54.55 -188.1 -48.2 -188.1 -39.2 -188.1 -30.2 -194.45 -23.85 -200.8 -17.5 -209.8 -17.5 -218.8 -17.5 -225.15 -23.85 -231.5 -30.2 -231.5 -39.2 -231.5 -48.2 -225.15 -54.55 -218.8 -60.9 -209.8 -60.9" fill="url(#gradient2)" fill-rule="evenodd" stroke="none"/>
    <path d="M306.5 79.15 L306.5 76.15 M306.5 -32.85 L306.5 -36.85 M306.5 -82.85 L306.5 -83.85 M306.5 -100.85 L306.5 -99.85 M306.5 -199.85 L306.5 -198.85 M306.5 -180.85 L306.5 -178.85" fill="none" stroke="#000000" stroke-linecap="round" stroke-linejoin="round" stroke-width="1.0"/>
  </g>
  <defs>
    <radialGradient cx="0" cy="0" gradientTransform="matrix(0.043, 0.0, 0.0, 0.043, 122.45, -163.65)" gradientUnits="userSpaceOnUse" id="gradient0" r="819.2" spreadMethod="pad">
      <stop offset="0.0" stop-color="#ffe4e8"/>
      <stop offset="1.0" stop-color="#ffd0d0"/>
    </radialGradient>
    <radialGradient cx="0" cy="0" gradientTransform="matrix(0.0533, 0.0, 0.0, 0.0533, -219.45, -394.8)" gradientUnits="userSpaceOnUse" id="gradient1" r="819.2" spreadMethod="pad">
      <stop offset="0.0" stop-color="#ffe4e8"/>
      <stop offset="1.0" stop-color="#ffd0d0"/>
    </radialGradient>
    <radialGradient cx="0" cy="0" gradientTransform="matrix(0.0267, 0.0, 0.0, 0.0267, -209.8, -39.2)" gradientUnits="userSpaceOnUse" id="gradient2" r="819.2" spreadMethod="pad">
      <stop offset="0.0" stop-color="#ffe4e8"/>
      <stop offset="1.0" stop-color="#ffd0d0"/>
    </radialGradient>
  </defs>
</svg>
