<?xml version="1.0" encoding="UTF-8" standalone="no"?>
<svg xmlns:ffdec="https://www.free-decompiler.com/flash" xmlns:xlink="http://www.w3.org/1999/xlink" ffdec:objectType="shape" height="16.05px" width="173.75px" xmlns="http://www.w3.org/2000/svg">
  <g transform="matrix(1.0, 0.0, 0.0, 1.0, -33.15, -11.9)">
    <path d="M206.6 15.05 L206.9 15.85 Q206.9 16.4 206.35 16.75 L204.25 18.1 Q203.65 18.5 203.75 19.05 L203.75 26.55 203.4 27.3 202.6 27.65 199.4 27.65 198.7 27.3 Q198.35 27.05 198.35 26.55 L198.35 15.85 Q198.35 15.4 198.7 15.05 L199.4 14.8 205.85 14.8 206.6 15.05 M185.05 16.7 Q186.95 14.8 189.6 14.8 L195.35 14.8 Q195.75 14.8 196.05 15.05 196.4 15.35 196.4 15.85 L196.25 16.4 192.7 22.5 192.45 23.0 Q192.45 23.7 193.4 23.7 L195.0 23.7 Q195.4 23.7 195.75 24.05 L196.05 24.8 196.05 26.55 195.75 27.3 195.0 27.65 189.6 27.65 Q186.95 27.6 185.05 25.8 183.15 23.9 183.15 21.25 183.15 18.5 185.05 16.7 M190.65 18.0 Q190.65 17.25 189.95 17.3 189.6 17.25 189.25 17.85 L186.75 22.3 186.4 23.0 Q186.4 23.7 187.2 23.7 L189.8 23.7 Q190.65 23.7 190.65 23.0 L190.65 18.0 M174.2 12.2 L174.55 12.95 174.55 14.1 174.75 14.6 175.3 14.8 181.0 14.8 181.75 15.05 182.05 15.85 181.9 16.45 179.05 20.65 178.8 21.25 179.05 21.8 181.7 25.65 182.05 26.55 181.75 27.3 Q181.5 27.6 181.0 27.65 L177.05 27.65 176.3 27.3 176.0 26.55 176.0 16.95 175.8 16.45 Q175.6 16.2 175.3 16.2 175.1 16.2 174.75 16.45 L171.35 18.45 Q170.7 18.8 171.1 19.4 L174.75 26.05 174.9 26.55 174.6 27.3 173.85 27.65 169.6 27.65 168.8 27.3 Q168.55 27.05 168.55 26.55 L168.55 12.95 Q168.55 12.55 168.8 12.2 169.15 11.85 169.6 11.9 L173.3 11.9 Q173.85 11.85 174.2 12.2 M149.0 22.5 L148.85 23.0 Q148.8 23.7 149.7 23.7 L151.3 23.7 Q151.75 23.7 152.1 24.05 L152.35 24.8 152.35 26.55 152.1 27.3 151.3 27.65 146.0 27.65 Q143.25 27.6 141.45 25.8 139.55 23.9 139.55 21.25 139.55 18.5 141.45 16.7 143.25 14.8 146.0 14.8 L151.65 14.8 152.45 15.05 152.7 15.85 152.65 16.4 149.0 22.5 M146.35 17.3 Q145.9 17.25 145.55 17.85 L143.1 22.3 142.7 23.0 Q142.7 23.7 143.6 23.7 L146.15 23.7 Q146.95 23.7 147.05 23.0 L147.05 18.0 Q147.05 17.25 146.35 17.3 M164.35 15.9 Q165.8 17.3 165.8 19.4 L165.8 26.55 165.45 27.3 164.75 27.65 158.25 27.65 Q156.3 27.6 154.95 26.25 153.55 24.95 153.6 23.0 153.55 21.1 154.95 19.7 156.35 18.35 158.25 18.35 158.95 18.35 158.95 17.6 L158.95 15.5 Q158.95 15.05 159.3 14.8 159.65 14.45 160.05 14.45 L160.75 14.45 Q162.85 14.45 164.35 15.9 M163.4 20.6 L163.65 20.1 163.4 19.6 162.95 19.4 159.65 19.4 159.15 19.6 158.95 20.1 158.95 25.5 Q158.95 26.2 159.65 26.2 L160.2 26.0 163.4 20.6 M131.1 15.05 Q131.35 14.8 131.85 14.8 L138.2 14.8 139.0 15.05 139.25 15.85 Q139.25 16.4 138.8 16.75 L136.7 18.1 Q136.1 18.5 136.1 19.05 L136.1 26.55 135.75 27.3 Q135.5 27.6 135.05 27.65 L131.85 27.65 131.1 27.3 Q130.75 27.05 130.75 26.55 L130.75 15.85 Q130.75 15.4 131.1 15.05 M109.65 23.0 Q109.65 23.7 110.55 23.7 L112.2 23.7 Q112.6 23.7 112.95 24.05 L113.25 24.8 113.25 26.55 112.95 27.3 112.2 27.65 106.85 27.65 Q104.15 27.6 102.3 25.8 100.4 23.9 100.4 21.25 100.4 18.5 102.3 16.7 104.15 14.8 106.85 14.8 L112.55 14.8 113.3 15.05 113.6 15.85 113.45 16.4 109.85 22.5 109.65 23.0 M107.2 17.3 Q106.8 17.25 106.45 17.85 L104.0 22.3 103.55 23.0 Q103.55 23.7 104.5 23.7 L107.0 23.7 Q107.9 23.7 107.9 23.0 L107.9 18.0 Q107.9 17.25 107.2 17.3 M123.1 16.95 L122.9 16.45 Q122.6 16.2 122.35 16.2 L121.85 16.45 118.4 18.45 Q117.8 18.8 118.15 19.4 L121.7 25.85 122.35 26.2 122.9 26.0 123.1 25.5 123.1 16.95 M122.35 14.8 Q125.05 14.8 126.95 16.7 128.75 18.5 128.75 21.25 128.75 23.8 126.95 25.8 125.05 27.6 122.35 27.65 L116.65 27.65 Q116.15 27.6 115.9 27.3 L115.6 26.55 115.6 12.95 Q115.55 12.55 115.9 12.2 116.15 11.85 116.65 11.9 L120.6 11.9 121.35 12.2 121.65 12.95 121.65 14.1 Q121.65 14.8 122.35 14.8 M83.7 15.85 L83.7 26.55 Q83.7 27.05 83.35 27.3 L82.65 27.65 75.85 27.65 Q73.75 27.65 72.3 26.2 70.8 24.75 70.8 22.65 L70.8 15.85 Q70.8 15.4 71.15 15.05 71.45 14.8 71.95 14.8 L75.1 14.8 75.85 15.05 76.15 15.85 76.15 25.5 76.4 26.0 76.9 26.2 77.25 26.15 80.8 23.95 Q81.45 23.6 81.1 23.0 L77.4 16.4 77.25 15.85 Q77.25 15.4 77.6 15.05 77.9 14.8 78.35 14.8 L82.65 14.8 Q83.05 14.8 83.35 15.05 83.7 15.4 83.7 15.85 M86.4 21.6 L86.4 19.75 Q86.4 17.75 87.9 16.25 89.35 14.8 91.4 14.8 L97.5 14.8 98.25 15.05 98.6 15.85 98.6 18.0 98.25 18.8 97.5 19.05 96.9 18.9 92.65 16.4 92.15 16.2 91.6 16.4 91.4 16.9 91.4 19.05 91.6 19.55 92.15 19.75 97.5 19.75 Q97.9 19.75 98.25 20.1 L98.6 20.9 98.6 22.65 Q98.55 24.75 97.15 26.2 95.65 27.65 93.55 27.65 L87.45 27.65 86.7 27.3 Q86.4 27.05 86.4 26.55 L86.4 24.45 Q86.4 23.95 86.7 23.7 87.05 23.35 87.45 23.35 L88.05 23.55 92.35 26.0 92.85 26.2 Q93.55 26.2 93.55 25.5 L93.55 23.35 93.35 22.85 92.85 22.65 87.45 22.65 Q87.05 22.65 86.7 22.35 86.4 22.0 86.4 21.6 M66.95 16.45 Q68.9 18.45 68.9 21.25 68.9 24.05 66.95 26.0 65.0 27.95 62.2 27.95 59.35 27.95 57.35 26.0 55.35 24.05 55.35 21.25 55.35 18.45 57.35 16.45 59.35 14.45 62.2 14.45 65.0 14.45 66.95 16.45 M66.45 21.25 Q66.45 20.8 66.1 20.6 L60.95 17.45 60.4 17.3 Q59.6 17.25 59.7 18.0 L59.7 24.4 Q59.6 25.1 60.4 25.15 L60.75 25.0 66.1 21.85 66.45 21.25 M43.5 18.45 Q42.9 18.8 43.25 19.4 L46.95 26.05 47.1 26.55 46.8 27.3 46.05 27.65 41.75 27.65 Q41.25 27.6 41.0 27.3 40.65 27.05 40.65 26.55 L40.65 16.95 40.45 16.45 39.95 16.2 39.4 16.45 36.0 18.45 Q35.4 18.8 35.75 19.4 L39.45 26.05 39.6 26.55 39.25 27.3 38.55 27.65 34.2 27.65 33.5 27.3 Q33.15 27.05 33.15 26.55 L33.15 15.85 Q33.15 15.4 33.5 15.05 33.8 14.8 34.2 14.8 L48.5 14.8 Q50.6 14.8 52.05 16.25 53.5 17.75 53.5 19.75 L53.5 26.55 53.25 27.3 52.45 27.65 49.25 27.65 48.5 27.3 Q48.15 26.95 48.15 26.55 L48.15 16.95 47.9 16.45 47.45 16.2 46.85 16.45 43.5 18.45" fill="#ffffff" fill-rule="evenodd" stroke="none"/>
  </g>
</svg>
