<?xml version="1.0" encoding="UTF-8" standalone="no"?>
<svg xmlns:ffdec="https://www.free-decompiler.com/flash" xmlns:xlink="http://www.w3.org/1999/xlink" ffdec:objectType="shape" height="18.35px" width="17.7px" xmlns="http://www.w3.org/2000/svg">
  <g transform="matrix(1.0, 0.0, 0.0, 1.0, -0.25, 9.55)">
    <path d="M5.75 -0.6 L5.4 -1.35 4.95 -2.25 4.35 -4.0 3.75 -5.85 Q3.65 -6.2 3.7 -6.65 L4.05 -7.05 5.0 -8.3 Q10.1 -9.75 14.4 -8.45 L14.65 -7.4 14.8 -6.35 5.75 -0.6 M15.15 -2.75 L15.05 -1.35 14.95 -0.7 11.4 1.75 7.55 4.55 6.65 1.8 15.05 -3.9 15.15 -3.2 15.15 -2.75 M14.65 2.9 L14.45 4.2 14.45 4.4 14.1 5.9 13.95 6.3 13.75 6.8 13.2 8.15 12.65 8.3 11.2 8.05 10.75 7.9 10.2 7.8 10.2 7.6 8.2 7.3 8.0 6.45 Q10.4 5.05 12.05 4.2 L14.65 2.9" fill="#333333" fill-rule="evenodd" stroke="none"/>
    <path d="M6.05 0.25 L5.75 -0.6 14.8 -6.35 14.65 -7.4 15.95 -7.9 17.0 -8.1 17.1 -6.95 17.0 -6.4 14.85 -6.15 14.9 -5.85 15.05 -4.45 15.05 -4.1 17.25 -4.3 Q17.6 -3.7 17.35 -3.0 L17.25 -2.55 15.15 -2.75 15.15 -3.2 15.05 -3.9 15.05 -4.1 15.05 -3.9 6.65 1.8 6.1 0.35 6.05 0.25 M14.95 -0.7 L14.95 -0.55 16.4 0.0 17.2 0.15 17.2 0.95 16.9 2.5 16.6 2.35 14.7 2.15 14.65 2.9 12.05 4.2 Q10.4 5.05 8.0 6.45 L7.6 4.65 7.55 4.55 11.4 1.75 14.95 -0.7 M14.45 4.2 L16.55 4.75 Q16.65 6.05 16.15 7.15 L15.7 7.2 13.95 6.3 14.1 5.9 14.45 4.4 14.45 4.2 M14.85 -6.15 L14.8 -6.35 14.85 -6.15 M14.7 2.15 L14.95 -0.55 14.7 2.15" fill="#cccccc" fill-rule="evenodd" stroke="none"/>
    <path d="M4.15 0.0 L6.05 0.25 6.1 0.35 6.65 1.8 7.55 4.55 7.6 4.65 7.3 4.75 Q6.4 5.4 5.5 4.75 L5.25 4.6 Q4.75 3.5 4.5 2.25 L4.15 0.0" fill="#ffffff" fill-rule="evenodd" stroke="none"/>
    <path d="M4.05 -7.05 L3.7 -6.65 Q3.65 -6.2 3.75 -5.85 L4.35 -4.0 4.95 -2.25 5.4 -1.35 5.75 -0.6 6.05 0.25 4.15 0.0 3.95 0.0 2.85 -1.85 1.45 -4.35 0.85 -5.5 0.75 -5.85 1.35 -6.75 3.05 -7.15 4.05 -7.05" fill="#999999" fill-rule="evenodd" stroke="none"/>
    <path d="M5.75 -0.6 L5.4 -1.35 4.95 -2.25 4.35 -4.0 3.75 -5.85 Q3.65 -6.2 3.7 -6.65 L4.05 -7.05 3.05 -7.15 1.35 -6.75 0.75 -5.85 0.85 -5.5 1.45 -4.35 2.85 -1.85 3.95 0.0 4.15 0.0 6.05 0.25 5.75 -0.6 M14.8 -6.35 L14.65 -7.4 14.4 -8.45 Q10.1 -9.75 5.0 -8.3 L4.05 -7.05 M14.65 -7.4 L15.95 -7.9 17.0 -8.1 17.1 -6.95 17.0 -6.4 14.85 -6.15 14.9 -5.85 15.05 -4.45 15.05 -4.1 17.25 -4.3 Q17.6 -3.7 17.35 -3.0 L17.25 -2.55 15.15 -2.75 15.05 -1.35 14.95 -0.7 14.95 -0.55 16.4 0.0 17.2 0.15 17.2 0.95 16.9 2.5 16.6 2.35 14.7 2.15 14.65 2.9 14.45 4.2 16.55 4.75 Q16.65 6.05 16.15 7.15 L15.7 7.2 13.95 6.3 13.75 6.8 13.2 8.15 12.65 8.3 11.2 8.05 10.75 7.9 10.2 7.8 10.2 7.6 8.2 7.3 8.0 6.45 7.6 4.65 7.3 4.75 Q6.4 5.4 5.5 4.75 L5.25 4.6 Q4.75 3.5 4.5 2.25 L4.15 0.0 M15.05 -3.9 L15.15 -3.2 15.15 -2.75 M15.05 -4.1 L15.05 -3.9 M6.65 1.8 L7.55 4.55 7.6 4.65 M14.8 -6.35 L14.85 -6.15 M14.45 4.2 L14.45 4.4 14.1 5.9 13.95 6.3 M6.65 1.8 L6.1 0.35 6.05 0.25 M14.95 -0.55 L14.7 2.15" fill="none" stroke="#000000" stroke-linecap="round" stroke-linejoin="round" stroke-width="1.0"/>
  </g>
</svg>
