<?xml version="1.0" encoding="UTF-8" standalone="no"?>
<svg xmlns:ffdec="https://www.free-decompiler.com/flash" xmlns:xlink="http://www.w3.org/1999/xlink" ffdec:objectType="shape" height="18.4px" width="18.4px" xmlns="http://www.w3.org/2000/svg">
  <g transform="matrix(1.0, 0.0, 0.0, 1.0, 2.75, 9.5)">
    <path d="M7.55 4.65 L6.95 2.8 6.65 1.9 6.1 0.45 6.05 0.35 5.0 0.35 2.35 0.45 -0.25 0.55 -2.25 -7.75 1.75 -8.05 5.15 -8.3 5.3 -8.3 Q10.2 -9.65 14.4 -8.35 L14.55 -7.65 14.65 -7.3 14.8 -6.25 14.85 -6.05 14.9 -5.75 15.05 -4.45 15.05 -4.35 15.05 -4.0 15.05 -3.8 15.15 -3.1 15.15 -2.65 15.05 -1.45 15.05 -1.25 14.95 -0.6 14.95 -0.45 14.8 1.1 14.65 3.0 14.45 4.25 14.45 4.3 14.45 4.5 14.1 6.0 13.95 6.4 13.75 6.9 13.2 8.25 12.65 8.4 11.2 8.15 10.75 8.0 10.2 7.9 10.2 7.7 8.2 7.4 7.75 5.4 7.6 4.75 7.55 4.65 M5.0 0.35 L5.05 -2.55 5.1 -5.4 14.55 -7.65 5.1 -5.4 5.05 -2.55 15.05 -4.45 5.05 -2.55 5.0 0.35 M1.75 -8.05 L2.35 0.45 1.75 -8.05 M6.1 0.45 L15.05 -1.45 6.1 0.45 M6.95 2.8 L14.8 1.1 6.95 2.8 M7.75 5.4 L14.45 4.25 7.75 5.4 M5.1 -5.4 L5.15 -8.3 5.1 -5.4" fill="#ffffff" fill-rule="evenodd" stroke="none"/>
    <path d="M7.55 4.65 L6.95 2.8 6.65 1.9 6.1 0.45 6.05 0.35 5.0 0.35 2.35 0.45 -0.25 0.55 -2.25 -7.75 1.75 -8.05 5.15 -8.3 5.3 -8.3 Q10.2 -9.65 14.4 -8.35 L14.55 -7.65 14.65 -7.3 14.8 -6.25 14.85 -6.05 14.9 -5.75 15.05 -4.45 15.05 -4.35 15.05 -4.0 15.05 -3.8 15.15 -3.1 15.15 -2.65 15.05 -1.45 15.05 -1.25 14.95 -0.6 14.95 -0.45 14.8 1.1 14.65 3.0 14.45 4.25 14.45 4.3 14.45 4.5 14.1 6.0 13.95 6.4 13.75 6.9 13.2 8.25 12.65 8.4 11.2 8.15 10.75 8.0 10.2 7.9 10.2 7.7 8.2 7.4 7.75 5.4 7.6 4.75" fill="none" stroke="#000000" stroke-linecap="round" stroke-linejoin="round" stroke-width="1.0"/>
    <path d="M14.55 -7.65 L5.1 -5.4 5.05 -2.55 15.05 -4.45 M5.15 -8.3 L5.1 -5.4 M14.45 4.25 L7.75 5.4 M14.8 1.1 L6.95 2.8 M15.05 -1.45 L6.1 0.45 M2.35 0.45 L1.75 -8.05 M5.05 -2.55 L5.0 0.35" fill="none" stroke="#666666" stroke-linecap="round" stroke-linejoin="round" stroke-width="1.0"/>
  </g>
</svg>
