<?xml version="1.0" encoding="UTF-8" standalone="no"?>
<svg xmlns:ffdec="https://www.free-decompiler.com/flash" xmlns:xlink="http://www.w3.org/1999/xlink" ffdec:objectType="shape" height="18.35px" width="17.7px" xmlns="http://www.w3.org/2000/svg">
  <g transform="matrix(1.0, 0.0, 0.0, 1.0, 15.75, 9.55)">
    <path d="M-3.55 -0.6 L-3.85 0.25 -3.9 0.35 -4.45 1.8 -12.85 -3.9 -12.95 -3.2 -12.95 -2.75 -15.05 -2.55 -15.15 -3.0 Q-15.4 -3.7 -15.05 -4.3 L-12.85 -4.1 -12.85 -4.45 -12.7 -5.85 -12.65 -6.15 -14.8 -6.4 -14.9 -6.95 -14.8 -8.1 -13.75 -7.9 Q-13.1 -7.5 -12.45 -7.4 L-12.6 -6.35 -3.55 -0.6 M-5.4 4.65 L-5.8 6.45 -9.85 4.2 -12.45 2.9 -12.5 2.15 -14.4 2.35 -14.7 2.5 -15.0 0.95 -15.0 0.15 -14.2 0.0 Q-13.35 -0.25 -12.75 -0.55 L-12.75 -0.7 -9.2 1.75 -5.35 4.55 -5.4 4.65 M-11.75 6.3 Q-13.05 7.05 -13.5 7.2 L-13.95 7.15 Q-14.45 6.05 -14.35 4.75 L-12.25 4.2 -12.25 4.4 -11.9 5.9 -11.75 6.3 M-12.85 -3.9 L-12.85 -4.1 -12.85 -3.9 M-12.6 -6.35 L-12.65 -6.15 -12.6 -6.35 M-12.5 2.15 L-12.75 -0.55 -12.5 2.15" fill="#cccccc" fill-rule="evenodd" stroke="none"/>
    <path d="M-1.85 -7.05 L-1.5 -6.65 Q-1.45 -6.2 -1.55 -5.85 L-2.15 -4.0 -2.75 -2.25 -3.2 -1.35 -3.55 -0.6 -12.6 -6.35 -12.45 -7.4 -12.2 -8.45 Q-7.9 -9.75 -2.8 -8.3 L-1.85 -7.05 M-5.8 6.45 L-6.0 7.3 -8.0 7.6 -8.0 7.8 -8.55 7.9 -9.0 8.05 -10.45 8.3 -11.0 8.15 -11.55 6.8 -11.75 6.3 -11.9 5.9 -12.25 4.4 -12.25 4.2 -12.45 2.9 -9.85 4.2 -5.8 6.45 M-12.75 -0.7 L-12.85 -1.35 -12.95 -2.75 -12.95 -3.2 -12.85 -3.9 -4.45 1.8 -5.35 4.55 -9.2 1.75 -12.75 -0.7" fill="#333333" fill-rule="evenodd" stroke="none"/>
    <path d="M-1.85 -7.05 L-0.85 -7.15 0.85 -6.75 1.45 -5.85 1.35 -5.5 0.75 -4.35 -0.65 -1.85 -1.75 0.0 -1.95 0.0 -3.85 0.25 -3.55 -0.6 -3.2 -1.35 -2.75 -2.25 -2.15 -4.0 -1.55 -5.85 Q-1.45 -6.2 -1.5 -6.65 L-1.85 -7.05" fill="#999999" fill-rule="evenodd" stroke="none"/>
    <path d="M-3.85 0.25 L-1.95 0.0 -2.3 2.25 Q-2.55 3.5 -3.05 4.6 L-3.3 4.75 Q-4.2 5.4 -5.1 4.75 L-5.4 4.65 -5.35 4.55 -4.45 1.8 -3.9 0.35 -3.85 0.25" fill="#ffffff" fill-rule="evenodd" stroke="none"/>
    <path d="M-1.95 0.0 L-1.75 0.0 -0.65 -1.85 0.75 -4.35 1.35 -5.5 1.45 -5.85 0.85 -6.75 -0.85 -7.15 -1.85 -7.05 -1.5 -6.65 Q-1.45 -6.2 -1.55 -5.85 L-2.15 -4.0 -2.75 -2.25 -3.2 -1.35 -3.55 -0.6 -3.85 0.25 -1.95 0.0 -2.3 2.25 Q-2.55 3.5 -3.05 4.6 L-3.3 4.75 Q-4.2 5.4 -5.1 4.75 L-5.4 4.65 -5.8 6.45 -6.0 7.3 -8.0 7.6 -8.0 7.8 -8.55 7.9 -9.0 8.05 -10.45 8.3 -11.0 8.15 -11.55 6.8 -11.75 6.3 Q-13.05 7.05 -13.5 7.2 L-13.95 7.15 Q-14.45 6.05 -14.35 4.75 L-12.25 4.2 -12.45 2.9 -12.5 2.15 -14.4 2.35 -14.7 2.5 -15.0 0.95 -15.0 0.15 -14.2 0.0 Q-13.35 -0.25 -12.75 -0.55 L-12.75 -0.7 -12.85 -1.35 -12.95 -2.75 -15.05 -2.55 -15.15 -3.0 Q-15.4 -3.7 -15.05 -4.3 L-12.85 -4.1 -12.85 -4.45 -12.7 -5.85 -12.65 -6.15 -14.8 -6.4 -14.9 -6.95 -14.8 -8.1 -13.75 -7.9 Q-13.1 -7.5 -12.45 -7.4 L-12.2 -8.45 Q-7.9 -9.75 -2.8 -8.3 L-1.85 -7.05 M-12.45 -7.4 L-12.6 -6.35 -12.65 -6.15 M-12.85 -4.1 L-12.85 -3.9 -12.95 -3.2 -12.95 -2.75 M-4.45 1.8 L-3.9 0.35 -3.85 0.25 M-5.35 4.55 L-4.45 1.8 M-5.4 4.65 L-5.35 4.55 M-12.25 4.2 L-12.25 4.4 -11.9 5.9 -11.75 6.3 M-12.75 -0.55 L-12.5 2.15" fill="none" stroke="#000000" stroke-linecap="round" stroke-linejoin="round" stroke-width="1.0"/>
  </g>
</svg>
