<?xml version="1.0" encoding="UTF-8" standalone="no"?>
<svg xmlns:ffdec="https://www.free-decompiler.com/flash" xmlns:xlink="http://www.w3.org/1999/xlink" ffdec:objectType="shape" height="18.4px" width="18.4px" xmlns="http://www.w3.org/2000/svg">
  <g transform="matrix(1.0, 0.0, 0.0, 1.0, 13.55, 9.5)">
    <path d="M0.35 -8.05 L4.35 -7.75 2.35 0.55 -0.25 0.45 0.35 -8.05 -0.25 0.45 -2.9 0.35 -3.95 0.35 -4.0 0.45 -4.55 1.9 -4.85 2.8 -5.45 4.65 -5.5 4.75 -5.65 5.4 -6.1 7.4 -8.1 7.7 -8.1 7.9 -8.65 8.0 -9.1 8.15 -10.55 8.4 -11.1 8.25 -11.65 6.9 -11.85 6.4 -12.0 6.0 -12.35 4.5 -12.35 4.3 -12.35 4.25 -12.55 3.0 -12.7 1.1 -12.85 -0.45 -12.85 -0.6 -12.95 -1.25 -12.95 -1.45 -13.05 -2.65 -13.05 -3.1 -12.95 -3.8 -12.95 -4.0 -12.95 -4.35 -12.95 -4.45 -12.8 -5.75 -12.75 -6.05 -12.7 -6.25 -12.55 -7.3 -12.45 -7.65 -12.3 -8.35 Q-8.1 -9.65 -3.2 -8.3 L-3.05 -8.3 0.35 -8.05 M-2.95 -2.55 L-2.9 0.35 -2.95 -2.55 -12.95 -4.45 -2.95 -2.55 -3.0 -5.4 -2.95 -2.55 M-4.0 0.45 L-12.95 -1.45 -4.0 0.45 M-5.65 5.4 L-12.35 4.25 -5.65 5.4 M-4.85 2.8 L-12.7 1.1 -4.85 2.8 M-3.05 -8.3 L-3.0 -5.4 -12.45 -7.65 -3.0 -5.4 -3.05 -8.3" fill="#ffffff" fill-rule="evenodd" stroke="none"/>
    <path d="M-0.25 0.45 L2.35 0.55 4.35 -7.75 0.35 -8.05 -3.05 -8.3 -3.2 -8.3 Q-8.1 -9.65 -12.3 -8.35 L-12.45 -7.65 -12.55 -7.3 -12.7 -6.25 -12.75 -6.05 -12.8 -5.75 -12.95 -4.45 -12.95 -4.35 -12.95 -4.0 -12.95 -3.8 -13.05 -3.1 -13.05 -2.65 -12.95 -1.45 -12.95 -1.25 -12.85 -0.6 -12.85 -0.45 -12.7 1.1 -12.55 3.0 -12.35 4.25 -12.35 4.3 -12.35 4.5 -12.0 6.0 -11.85 6.4 -11.65 6.9 -11.1 8.25 -10.55 8.4 -9.1 8.15 -8.65 8.0 -8.1 7.9 -8.1 7.7 -6.1 7.4 -5.65 5.4 -5.5 4.75 M-0.25 0.45 L-2.9 0.35 -3.95 0.35 -4.0 0.45 -4.55 1.9 -4.85 2.8 -5.45 4.65" fill="none" stroke="#000000" stroke-linecap="round" stroke-linejoin="round" stroke-width="1.0"/>
    <path d="M0.35 -8.05 L-0.25 0.45 M-12.45 -7.65 L-3.0 -5.4 -3.05 -8.3 M-12.95 -4.45 L-2.95 -2.55 -3.0 -5.4 M-12.7 1.1 L-4.85 2.8 M-12.35 4.25 L-5.65 5.4 M-12.95 -1.45 L-4.0 0.45 M-2.9 0.35 L-2.95 -2.55" fill="none" stroke="#666666" stroke-linecap="round" stroke-linejoin="round" stroke-width="1.0"/>
  </g>
</svg>
