<?xml version="1.0" encoding="UTF-8" standalone="no"?>
<svg xmlns:ffdec="https://www.free-decompiler.com/flash" xmlns:xlink="http://www.w3.org/1999/xlink" ffdec:objectType="shape" height="331.8px" width="664.6px" xmlns="http://www.w3.org/2000/svg">
  <g transform="matrix(1.0, 0.0, 0.0, 1.0, -67.2, -108.6)">
    <path d="M209.35 324.3 L225.3 318.45 220.5 334.7 237.4 333.3 228.4 347.7 245.05 350.95 232.55 362.35 247.7 370.0 232.55 377.6 245.05 389.05 228.4 392.25 237.4 406.65 220.5 405.25 225.3 421.55 209.35 415.7 209.55 432.65 195.85 422.7 191.45 439.1 180.9 425.75 172.25 440.4 165.75 424.75 153.5 436.5 151.35 419.65 136.4 427.65 138.9 410.9 122.35 414.5 129.3 399.05 112.35 398.1 123.25 385.1 107.2 379.6 121.15 369.95 107.2 360.4 123.25 354.9 112.35 341.85 129.3 340.9 122.35 325.45 138.9 329.1 136.4 312.35 151.35 320.35 153.5 303.5 165.75 315.25 172.25 299.6 180.9 314.2 191.45 300.85 195.85 317.25 209.55 307.3 209.35 324.3" fill="#ff0000" fill-rule="evenodd" stroke="none"/>
    <path d="M683.65 146.6 L703.65 139.25 697.65 159.7 718.85 157.95 707.55 176.05 728.5 180.1 712.75 194.45 731.8 204.05 712.75 213.6 728.5 227.95 707.55 232.0 718.85 250.1 697.65 248.35 703.65 268.8 683.65 261.45 683.9 282.75 666.65 270.25 661.15 290.85 647.9 274.1 637.05 292.45 628.85 272.8 613.45 287.55 610.8 266.4 592.0 276.45 595.15 255.4 574.35 259.95 583.1 240.55 561.8 239.35 575.45 223.0 555.3 216.1 572.85 204.0 555.3 191.95 575.45 185.05 561.8 168.7 583.1 167.5 574.35 148.1 595.15 152.65 592.0 131.6 610.8 141.65 613.45 120.5 628.85 135.25 637.05 115.6 647.9 133.95 661.15 117.2 666.65 137.8 683.9 125.3 683.65 146.6" fill="#ffff00" fill-rule="evenodd" stroke="none"/>
    <path d="M195.55 139.6 L215.55 132.25 209.55 152.7 230.75 150.95 219.45 169.05 240.4 173.1 224.65 187.45 243.7 197.05 224.65 206.6 240.4 220.95 219.45 225.0 230.75 243.1 209.55 241.35 215.55 261.8 195.55 254.45 195.8 275.75 178.55 263.25 173.05 283.85 159.8 267.1 148.95 285.45 140.75 265.8 125.35 280.55 122.7 259.4 103.9 269.45 107.05 248.4 86.25 252.95 95.0 233.55 73.7 232.35 87.35 216.0 67.2 209.1 84.75 197.0 67.2 184.95 87.35 178.05 73.7 161.7 95.0 160.5 86.25 141.1 107.05 145.65 103.9 124.6 122.7 134.65 125.35 113.5 140.75 128.25 148.95 108.6 159.8 126.95 173.05 110.2 178.55 130.8 195.8 118.3 195.55 139.6" fill="#ffff00" fill-rule="evenodd" stroke="none"/>
  </g>
</svg>
