<?xml version="1.0" encoding="UTF-8" standalone="no"?>
<svg xmlns:ffdec="https://www.free-decompiler.com/flash" xmlns:xlink="http://www.w3.org/1999/xlink" ffdec:objectType="shape" height="50.15px" width="40.9px" xmlns="http://www.w3.org/2000/svg">
  <g transform="matrix(1.0, 0.0, 0.0, 1.0, 0.0, 0.0)">
    <path d="M13.25 29.0 L17.2 0.0 40.9 11.9 33.9 44.7 Q33.9 45.85 33.4 46.95 L33.2 47.35 Q31.9 49.55 29.0 50.05 26.05 50.5 23.2 48.9 20.4 47.3 19.3 44.6 18.2 41.9 19.45 39.7 20.75 37.45 23.7 37.0 26.6 36.55 29.45 38.15 31.15 39.1 32.25 40.45 L32.75 41.2 32.85 41.3 32.8 41.15 32.4 37.7 36.1 20.5 18.9 11.5 14.95 36.8 14.45 38.1 14.4 38.2 Q13.1 40.4 10.2 40.85 7.25 41.3 4.4 39.75 1.6 38.15 0.5 35.45 -0.6 32.75 0.65 30.5 1.95 28.3 4.9 27.85 7.8 27.4 10.65 28.95 12.2 29.85 13.25 31.1 L13.25 29.0" fill="#000000" fill-opacity="0.49803922" fill-rule="evenodd" stroke="none"/>
  </g>
</svg>
