<?xml version="1.0" encoding="UTF-8" standalone="no"?>
<svg xmlns:ffdec="https://www.free-decompiler.com/flash" xmlns:xlink="http://www.w3.org/1999/xlink" ffdec:objectType="shape" height="45.15px" width="231.1px" xmlns="http://www.w3.org/2000/svg">
  <g transform="matrix(1.0, 0.0, 0.0, 1.0, 109.3, 49.35)">
    <path d="M35.9 -36.8 L35.85 -24.6 Q35.85 -23.35 36.0 -22.6 36.2 -21.85 36.85 -21.35 L36.85 -16.6 26.35 -16.6 26.35 -21.35 Q26.85 -21.7 26.95 -22.2 L27.1 -23.6 27.1 -27.95 24.1 -27.95 24.1 -24.35 Q24.1 -23.15 24.25 -22.5 24.35 -21.85 24.85 -21.35 L24.85 -16.6 14.6 -16.6 14.6 -21.35 Q15.2 -21.85 15.4 -22.7 L15.6 -24.85 15.6 -36.95 Q15.6 -38.6 14.6 -39.1 L14.6 -43.85 24.85 -43.85 24.85 -39.1 Q24.35 -38.6 24.25 -37.95 24.1 -37.35 24.1 -36.35 L24.1 -33.4 27.1 -33.4 27.1 -36.6 26.95 -38.0 Q26.75 -38.8 26.35 -39.1 L26.35 -43.85 36.85 -43.85 36.85 -39.1 36.05 -38.0 Q35.9 -37.55 35.9 -36.8 M39.7 -33.6 Q40.25 -34.95 41.4 -35.7 42.5 -36.45 44.2 -36.75 L48.1 -37.1 Q52.0 -37.1 54.4 -35.75 56.85 -34.45 56.85 -31.35 L56.85 -25.35 46.6 -25.35 46.6 -23.1 Q46.6 -22.05 47.0 -21.55 47.35 -21.1 47.9 -21.1 48.4 -21.1 48.75 -21.45 49.1 -21.8 49.1 -22.5 L49.1 -23.85 56.85 -23.85 56.85 -18.85 54.85 -17.55 Q53.55 -16.9 51.65 -16.5 L47.6 -16.1 Q43.55 -16.2 41.3 -17.8 39.05 -19.45 39.05 -22.85 L39.05 -30.35 Q39.05 -32.3 39.7 -33.6 M71.2 -36.75 Q72.65 -36.45 73.85 -35.75 75.1 -35.05 75.85 -33.9 76.6 -32.75 76.6 -31.1 L76.6 -23.1 76.7 -22.35 76.9 -21.85 77.2 -21.45 77.6 -21.1 77.6 -16.6 69.35 -16.6 69.35 -18.05 68.45 -17.45 67.25 -16.75 Q66.75 -16.45 65.95 -16.25 L64.1 -16.1 Q61.55 -16.1 59.9 -17.5 58.25 -18.95 58.1 -22.1 58.1 -24.45 59.7 -25.85 61.25 -27.25 63.35 -27.85 L69.05 -29.6 69.05 -30.65 Q69.0 -31.55 68.65 -31.95 68.3 -32.35 67.55 -32.4 66.1 -32.4 66.1 -29.6 L58.95 -29.6 59.0 -34.15 Q60.85 -35.8 63.2 -36.45 L68.25 -37.1 71.2 -36.75 M67.1 -24.25 Q65.85 -23.8 65.85 -22.85 65.85 -21.55 66.85 -21.55 L68.15 -21.9 Q68.95 -22.3 69.15 -22.6 L69.15 -24.85 67.1 -24.25 M79.75 -35.05 Q80.95 -36.85 83.85 -36.85 L86.7 -36.7 88.8 -35.85 88.8 -37.1 Q88.8 -38.7 88.1 -39.1 L88.1 -43.85 96.35 -43.85 96.35 -24.6 Q96.35 -22.95 96.5 -22.2 96.7 -21.45 97.35 -21.1 L97.35 -16.6 88.85 -16.6 88.85 -17.35 Q88.2 -16.7 86.8 -16.4 L83.85 -16.1 Q82.35 -16.1 81.15 -16.75 80.0 -17.45 79.3 -18.9 78.6 -20.4 78.6 -22.6 L78.6 -30.85 Q78.6 -33.3 79.75 -35.05 M46.6 -29.6 L49.6 -29.6 Q49.6 -32.35 48.1 -32.35 47.35 -32.35 46.95 -31.75 46.6 -31.15 46.6 -30.2 L46.6 -29.6 M112.2 -36.5 L114.35 -35.65 116.15 -34.25 116.15 -29.95 109.1 -29.95 109.1 -30.95 Q109.1 -31.75 108.65 -32.15 L107.5 -32.5 106.5 -32.2 Q106.1 -31.85 106.1 -31.35 106.1 -30.65 106.5 -30.25 106.85 -29.85 107.45 -29.65 L109.35 -29.1 112.6 -28.1 Q114.25 -27.4 115.4 -26.25 116.55 -25.05 116.65 -23.45 116.65 -21.3 115.45 -19.65 114.25 -18.0 112.25 -17.15 110.3 -16.3 108.1 -16.25 105.45 -16.25 102.6 -17.05 101.4 -17.55 100.45 -18.2 L99.15 -19.45 99.1 -24.05 106.35 -24.05 106.35 -22.85 Q106.35 -21.1 108.0 -21.05 108.55 -21.05 108.95 -21.6 109.35 -22.2 109.35 -22.85 109.2 -23.65 108.35 -24.05 L106.65 -24.7 104.1 -25.2 Q102.4 -25.55 101.85 -25.85 100.25 -26.55 99.4 -27.9 98.6 -29.2 98.6 -30.85 98.6 -32.5 99.45 -34.05 100.35 -35.6 101.85 -36.35 102.8 -36.85 104.0 -37.1 L106.7 -37.35 108.55 -37.25 110.1 -37.1 112.2 -36.5 M86.1 -25.1 Q86.1 -23.4 86.45 -22.6 86.8 -21.85 87.65 -21.85 L88.9 -22.05 88.9 -30.75 87.4 -31.3 Q86.1 -31.3 86.1 -29.1 L86.1 -25.1" fill="#ffcccc" fill-rule="evenodd" stroke="none"/>
    <path d="M1.65 -29.95 L-5.4 -29.95 -5.4 -30.95 Q-5.4 -31.75 -5.85 -32.15 -6.3 -32.5 -7.0 -32.5 L-8.0 -32.2 Q-8.4 -31.85 -8.4 -31.35 -8.4 -30.65 -8.0 -30.25 -7.65 -29.85 -7.05 -29.65 L-5.15 -29.1 Q-3.5 -28.8 -1.9 -28.1 -0.25 -27.4 0.9 -26.25 2.05 -25.05 2.15 -23.45 2.15 -21.3 0.95 -19.65 -0.25 -18.0 -2.25 -17.15 -4.2 -16.3 -6.4 -16.25 -9.05 -16.25 -11.9 -17.05 -13.1 -17.55 -14.05 -18.2 L-15.35 -19.45 -15.4 -24.05 -8.15 -24.05 -8.15 -22.85 Q-8.15 -21.1 -6.5 -21.05 -5.95 -21.05 -5.55 -21.6 -5.15 -22.2 -5.15 -22.85 -5.3 -23.65 -6.15 -24.05 L-7.85 -24.7 -10.4 -25.2 Q-12.1 -25.55 -12.65 -25.85 -14.25 -26.55 -15.1 -27.9 -15.9 -29.2 -15.9 -30.85 -15.9 -32.5 -15.05 -34.05 -14.15 -35.6 -12.65 -36.35 L-10.5 -37.1 -7.8 -37.35 -5.95 -37.25 -4.4 -37.1 -2.3 -36.5 -0.15 -35.65 1.65 -34.25 1.65 -29.95 M-84.4 -41.25 L-84.4 -34.85 -92.4 -34.85 -92.4 -36.4 Q-92.4 -38.2 -93.85 -38.35 -94.6 -38.35 -94.95 -37.85 L-95.45 -36.65 Q-95.45 -35.75 -94.85 -35.15 -94.25 -34.6 -93.45 -34.25 L-91.3 -33.7 -89.65 -33.35 Q-87.45 -32.8 -86.0 -31.7 -84.6 -30.55 -83.95 -28.95 -83.3 -27.4 -83.3 -25.5 -83.3 -23.7 -83.9 -21.6 -84.45 -19.85 -85.55 -18.75 -86.65 -17.65 -88.05 -17.15 L-90.7 -16.45 -94.4 -16.1 -97.6 -16.5 Q-99.65 -16.95 -101.5 -17.75 -103.3 -18.55 -103.9 -19.55 L-103.9 -26.25 -95.35 -26.25 -95.35 -24.6 Q-95.35 -22.3 -93.8 -22.3 -92.85 -22.35 -92.5 -22.85 -92.1 -23.35 -92.1 -24.2 L-92.15 -24.5 -92.15 -24.85 Q-92.25 -25.85 -93.05 -26.45 L-94.95 -27.4 -97.6 -28.15 -99.9 -28.85 Q-101.65 -29.55 -102.6 -30.7 -103.5 -31.85 -103.85 -33.25 L-104.15 -36.35 Q-104.15 -38.1 -103.5 -39.55 -102.85 -41.0 -101.6 -42.05 -100.35 -43.1 -98.55 -43.65 L-94.3 -44.2 Q-91.1 -44.1 -88.9 -43.35 -86.7 -42.6 -84.4 -41.25 M-81.65 -32.1 L-81.65 -36.6 -73.15 -36.6 -73.15 -35.6 -70.85 -36.7 -68.2 -37.1 -66.0 -36.65 -64.2 -35.5 Q-63.45 -34.8 -63.05 -33.85 -62.65 -32.95 -62.65 -32.1 L-62.65 -23.1 Q-62.65 -21.5 -62.9 -20.2 -63.15 -18.85 -64.15 -17.7 -65.2 -16.55 -67.4 -16.35 L-69.05 -16.3 -71.5 -16.6 -73.15 -17.6 -73.0 -15.3 Q-72.8 -14.5 -72.15 -14.35 L-72.15 -9.35 -81.65 -9.35 -81.65 -14.35 Q-80.95 -14.7 -80.8 -15.25 -80.65 -15.85 -80.65 -16.85 L-80.65 -29.35 Q-80.65 -30.35 -80.9 -31.15 -81.15 -31.95 -81.65 -32.1 M-56.15 -36.7 L-51.9 -37.1 -46.8 -36.4 Q-44.85 -35.7 -43.85 -34.3 -42.9 -32.85 -42.9 -30.6 L-42.9 -23.1 Q-42.9 -21.2 -43.45 -19.9 -44.0 -18.6 -45.1 -17.8 -46.25 -17.05 -47.95 -16.7 L-51.9 -16.35 Q-54.9 -16.35 -56.9 -17.1 -58.95 -17.85 -59.9 -19.45 -60.9 -21.05 -60.9 -23.6 L-60.9 -30.6 Q-60.9 -32.25 -60.45 -33.45 -60.0 -34.65 -58.9 -35.45 -57.85 -36.25 -56.15 -36.7 M-51.15 -32.4 L-51.9 -32.6 Q-52.5 -32.6 -53.0 -32.1 -53.45 -31.6 -53.45 -30.6 L-53.45 -23.1 Q-53.45 -22.15 -53.0 -21.55 -52.5 -21.0 -51.9 -21.0 -51.5 -21.0 -51.15 -21.25 L-50.6 -21.95 -50.4 -23.1 -50.4 -30.85 -50.6 -31.75 -51.15 -32.4 M-41.5 -32.1 L-41.5 -36.6 -33.15 -36.6 -33.15 -35.35 -31.9 -36.65 -30.4 -37.15 -29.0 -37.15 -29.0 -29.85 -29.75 -29.9 -30.65 -29.85 Q-31.85 -29.7 -32.5 -29.0 -33.1 -28.3 -33.1 -27.05 L-33.15 -23.6 Q-33.15 -21.5 -31.9 -21.1 L-31.9 -16.6 -41.4 -16.6 -41.4 -21.1 Q-40.75 -21.6 -40.55 -22.15 -40.4 -22.7 -40.4 -23.6 L-40.4 -29.7 Q-40.4 -31.1 -41.5 -32.1 M-73.1 -31.15 L-73.1 -22.15 Q-72.1 -21.8 -71.7 -21.8 -70.85 -21.8 -70.4 -22.3 -70.0 -22.8 -70.0 -24.15 L-70.0 -29.15 -70.2 -30.35 -70.8 -31.2 -71.6 -31.55 -73.1 -31.15 M-16.9 -31.95 L-19.4 -31.95 -19.4 -24.1 Q-19.4 -22.75 -18.85 -22.1 -18.3 -21.45 -16.9 -21.45 L-16.9 -17.1 Q-19.7 -16.3 -22.2 -16.3 -23.8 -16.4 -24.9 -17.1 -26.0 -17.8 -26.6 -18.95 -27.15 -20.15 -27.15 -21.6 L-27.15 -31.95 -28.15 -31.95 -28.15 -36.6 -27.15 -36.6 -27.15 -40.3 -19.4 -42.5 -19.4 -36.6 -16.9 -36.6 -16.9 -31.95" fill="#ffffff" fill-rule="evenodd" stroke="none"/>
    <path d="M35.9 -36.8 L35.85 -24.6 Q35.85 -23.35 36.0 -22.6 36.2 -21.85 36.85 -21.35 L36.85 -16.6 26.35 -16.6 26.35 -21.35 Q26.85 -21.7 26.95 -22.2 L27.1 -23.6 27.1 -27.95 24.1 -27.95 24.1 -24.35 Q24.1 -23.15 24.25 -22.5 24.35 -21.85 24.85 -21.35 L24.85 -16.6 14.6 -16.6 14.6 -21.35 Q15.2 -21.85 15.4 -22.7 L15.6 -24.85 15.6 -36.95 Q15.6 -38.6 14.6 -39.1 L14.6 -43.85 24.85 -43.85 24.85 -39.1 Q24.35 -38.6 24.25 -37.95 24.1 -37.35 24.1 -36.35 L24.1 -33.4 27.1 -33.4 27.1 -36.6 26.95 -38.0 Q26.75 -38.8 26.35 -39.1 L26.35 -43.85 36.85 -43.85 36.85 -39.1 36.05 -38.0 Q35.9 -37.55 35.9 -36.8 M39.7 -33.6 Q40.25 -34.95 41.4 -35.7 42.5 -36.45 44.2 -36.75 L48.1 -37.1 Q52.0 -37.1 54.4 -35.75 56.85 -34.45 56.85 -31.35 L56.85 -25.35 46.6 -25.35 46.6 -23.1 Q46.6 -22.05 47.0 -21.55 47.35 -21.1 47.9 -21.1 48.4 -21.1 48.75 -21.45 49.1 -21.8 49.1 -22.5 L49.1 -23.85 56.85 -23.85 56.85 -18.85 54.85 -17.55 Q53.55 -16.9 51.65 -16.5 L47.6 -16.1 Q43.55 -16.2 41.3 -17.8 39.05 -19.45 39.05 -22.85 L39.05 -30.35 Q39.05 -32.3 39.7 -33.6 M1.65 -29.95 L-5.4 -29.95 -5.4 -30.95 Q-5.4 -31.75 -5.85 -32.15 -6.3 -32.5 -7.0 -32.5 L-8.0 -32.2 Q-8.4 -31.85 -8.4 -31.35 -8.4 -30.65 -8.0 -30.25 -7.65 -29.85 -7.05 -29.65 L-5.15 -29.1 Q-3.5 -28.8 -1.9 -28.1 -0.25 -27.4 0.9 -26.25 2.05 -25.05 2.15 -23.45 2.15 -21.3 0.95 -19.65 -0.25 -18.0 -2.25 -17.15 -4.2 -16.3 -6.4 -16.25 -9.05 -16.25 -11.9 -17.05 -13.1 -17.55 -14.05 -18.2 L-15.35 -19.45 -15.4 -24.05 -8.15 -24.05 -8.15 -22.85 Q-8.15 -21.1 -6.5 -21.05 -5.95 -21.05 -5.55 -21.6 -5.15 -22.2 -5.15 -22.85 -5.3 -23.65 -6.15 -24.05 L-7.85 -24.7 -10.4 -25.2 Q-12.1 -25.55 -12.65 -25.85 -14.25 -26.55 -15.1 -27.9 -15.9 -29.2 -15.9 -30.85 -15.9 -32.5 -15.05 -34.05 -14.15 -35.6 -12.65 -36.35 L-10.5 -37.1 -7.8 -37.35 -5.95 -37.25 -4.4 -37.1 -2.3 -36.5 -0.15 -35.65 1.65 -34.25 1.65 -29.95 M71.2 -36.75 Q72.65 -36.45 73.85 -35.75 75.1 -35.05 75.85 -33.9 76.6 -32.75 76.6 -31.1 L76.6 -23.1 76.7 -22.35 76.9 -21.85 77.2 -21.45 77.6 -21.1 77.6 -16.6 69.35 -16.6 69.35 -18.05 68.45 -17.45 67.25 -16.75 Q66.75 -16.45 65.95 -16.25 L64.1 -16.1 Q61.55 -16.1 59.9 -17.5 58.25 -18.95 58.1 -22.1 58.1 -24.45 59.7 -25.85 61.25 -27.25 63.35 -27.85 L69.05 -29.6 69.05 -30.65 Q69.0 -31.55 68.65 -31.95 68.3 -32.35 67.55 -32.4 66.1 -32.4 66.1 -29.6 L58.95 -29.6 59.0 -34.15 Q60.85 -35.8 63.2 -36.45 L68.25 -37.1 71.2 -36.75 M67.1 -24.25 Q65.85 -23.8 65.85 -22.85 65.85 -21.55 66.85 -21.55 L68.15 -21.9 Q68.95 -22.3 69.15 -22.6 L69.15 -24.85 67.1 -24.25 M79.75 -35.05 Q80.95 -36.85 83.85 -36.85 L86.7 -36.7 88.8 -35.85 88.8 -37.1 Q88.8 -38.7 88.1 -39.1 L88.1 -43.85 96.35 -43.85 96.35 -24.6 Q96.35 -22.95 96.5 -22.2 96.7 -21.45 97.35 -21.1 L97.35 -16.6 88.85 -16.6 88.85 -17.35 Q88.2 -16.7 86.8 -16.4 L83.85 -16.1 Q82.35 -16.1 81.15 -16.75 80.0 -17.45 79.3 -18.9 78.6 -20.4 78.6 -22.6 L78.6 -30.85 Q78.6 -33.3 79.75 -35.05 M46.6 -29.6 L49.6 -29.6 Q49.6 -32.35 48.1 -32.35 47.35 -32.35 46.95 -31.75 46.6 -31.15 46.6 -30.2 L46.6 -29.6 M112.2 -36.5 L114.35 -35.65 116.15 -34.25 116.15 -29.95 109.1 -29.95 109.1 -30.95 Q109.1 -31.75 108.65 -32.15 L107.5 -32.5 106.5 -32.2 Q106.1 -31.85 106.1 -31.35 106.1 -30.65 106.5 -30.25 106.85 -29.85 107.45 -29.65 L109.35 -29.1 112.6 -28.1 Q114.25 -27.4 115.4 -26.25 116.55 -25.05 116.65 -23.45 116.65 -21.3 115.45 -19.65 114.25 -18.0 112.25 -17.15 110.3 -16.3 108.1 -16.25 105.45 -16.25 102.6 -17.05 101.4 -17.55 100.45 -18.2 L99.15 -19.45 99.1 -24.05 106.35 -24.05 106.35 -22.85 Q106.35 -21.1 108.0 -21.05 108.55 -21.05 108.95 -21.6 109.35 -22.2 109.35 -22.85 109.2 -23.65 108.35 -24.05 L106.65 -24.7 104.1 -25.2 Q102.4 -25.55 101.85 -25.85 100.25 -26.55 99.4 -27.9 98.6 -29.2 98.6 -30.85 98.6 -32.5 99.45 -34.05 100.35 -35.6 101.85 -36.35 102.8 -36.85 104.0 -37.1 L106.7 -37.35 108.55 -37.25 110.1 -37.1 112.2 -36.5 M86.1 -25.1 Q86.1 -23.4 86.45 -22.6 86.8 -21.85 87.65 -21.85 L88.9 -22.05 88.9 -30.75 87.4 -31.3 Q86.1 -31.3 86.1 -29.1 L86.1 -25.1 M-84.4 -41.25 L-84.4 -34.85 -92.4 -34.85 -92.4 -36.4 Q-92.4 -38.2 -93.85 -38.35 -94.6 -38.35 -94.95 -37.85 L-95.45 -36.65 Q-95.45 -35.75 -94.85 -35.15 -94.25 -34.6 -93.45 -34.25 L-91.3 -33.7 -89.65 -33.35 Q-87.45 -32.8 -86.0 -31.7 -84.6 -30.55 -83.95 -28.95 -83.3 -27.4 -83.3 -25.5 -83.3 -23.7 -83.9 -21.6 -84.45 -19.85 -85.55 -18.75 -86.65 -17.65 -88.05 -17.15 L-90.7 -16.45 -94.4 -16.1 -97.6 -16.5 Q-99.65 -16.95 -101.5 -17.75 -103.3 -18.55 -103.9 -19.55 L-103.9 -26.25 -95.35 -26.25 -95.35 -24.6 Q-95.35 -22.3 -93.8 -22.3 -92.85 -22.35 -92.5 -22.85 -92.1 -23.35 -92.1 -24.2 L-92.15 -24.5 -92.15 -24.85 Q-92.25 -25.85 -93.05 -26.45 L-94.95 -27.4 -97.6 -28.15 -99.9 -28.85 Q-101.65 -29.55 -102.6 -30.7 -103.5 -31.85 -103.85 -33.25 L-104.15 -36.35 Q-104.15 -38.1 -103.5 -39.55 -102.85 -41.0 -101.6 -42.05 -100.35 -43.1 -98.55 -43.65 L-94.3 -44.2 Q-91.1 -44.1 -88.9 -43.35 -86.7 -42.6 -84.4 -41.25 M-81.65 -32.1 L-81.65 -36.6 -73.15 -36.6 -73.15 -35.6 -70.85 -36.7 -68.2 -37.1 -66.0 -36.65 -64.2 -35.5 Q-63.45 -34.8 -63.05 -33.85 -62.65 -32.95 -62.65 -32.1 L-62.65 -23.1 Q-62.65 -21.5 -62.9 -20.2 -63.15 -18.85 -64.15 -17.7 -65.2 -16.55 -67.4 -16.35 L-69.05 -16.3 -71.5 -16.6 -73.15 -17.6 -73.0 -15.3 Q-72.8 -14.5 -72.15 -14.35 L-72.15 -9.35 -81.65 -9.35 -81.65 -14.35 Q-80.95 -14.7 -80.8 -15.25 -80.65 -15.85 -80.65 -16.85 L-80.65 -29.35 Q-80.65 -30.35 -80.9 -31.15 -81.15 -31.95 -81.65 -32.1 M-56.15 -36.7 L-51.9 -37.1 -46.8 -36.4 Q-44.85 -35.7 -43.85 -34.3 -42.9 -32.85 -42.9 -30.6 L-42.9 -23.1 Q-42.9 -21.2 -43.45 -19.9 -44.0 -18.6 -45.1 -17.8 -46.25 -17.05 -47.95 -16.7 L-51.9 -16.35 Q-54.9 -16.35 -56.9 -17.1 -58.95 -17.85 -59.9 -19.45 -60.9 -21.05 -60.9 -23.6 L-60.9 -30.6 Q-60.9 -32.25 -60.45 -33.45 -60.0 -34.65 -58.9 -35.45 -57.85 -36.25 -56.15 -36.7 M-51.15 -32.4 L-51.9 -32.6 Q-52.5 -32.6 -53.0 -32.1 -53.45 -31.6 -53.45 -30.6 L-53.45 -23.1 Q-53.45 -22.15 -53.0 -21.55 -52.5 -21.0 -51.9 -21.0 -51.5 -21.0 -51.15 -21.25 L-50.6 -21.95 -50.4 -23.1 -50.4 -30.85 -50.6 -31.75 -51.15 -32.4 M-41.5 -32.1 L-41.5 -36.6 -33.15 -36.6 -33.15 -35.35 -31.9 -36.65 -30.4 -37.15 -29.0 -37.15 -29.0 -29.85 -29.75 -29.9 -30.65 -29.85 Q-31.85 -29.7 -32.5 -29.0 -33.1 -28.3 -33.1 -27.05 L-33.15 -23.6 Q-33.15 -21.5 -31.9 -21.1 L-31.9 -16.6 -41.4 -16.6 -41.4 -21.1 Q-40.75 -21.6 -40.55 -22.15 -40.4 -22.7 -40.4 -23.6 L-40.4 -29.7 Q-40.4 -31.1 -41.5 -32.1 M-73.1 -31.15 L-73.1 -22.15 Q-72.1 -21.8 -71.7 -21.8 -70.85 -21.8 -70.4 -22.3 -70.0 -22.8 -70.0 -24.15 L-70.0 -29.15 -70.2 -30.35 -70.8 -31.2 -71.6 -31.55 -73.1 -31.15 M-16.9 -31.95 L-19.4 -31.95 -19.4 -24.1 Q-19.4 -22.75 -18.85 -22.1 -18.3 -21.45 -16.9 -21.45 L-16.9 -17.1 Q-19.7 -16.3 -22.2 -16.3 -23.8 -16.4 -24.9 -17.1 -26.0 -17.8 -26.6 -18.95 -27.15 -20.15 -27.15 -21.6 L-27.15 -31.95 -28.15 -31.95 -28.15 -36.6 -27.15 -36.6 -27.15 -40.3 -19.4 -42.5 -19.4 -36.6 -16.9 -36.6 -16.9 -31.95 Z" fill="none" stroke="#050505" stroke-linecap="round" stroke-linejoin="round" stroke-opacity="0.9882353" stroke-width="10.350000000000001"/>
  </g>
</svg>
