<?xml version="1.0" encoding="UTF-8" standalone="no"?>
<svg xmlns:ffdec="https://www.free-decompiler.com/flash" xmlns:xlink="http://www.w3.org/1999/xlink" ffdec:objectType="shape" height="4.75px" width="8.5px" xmlns="http://www.w3.org/2000/svg">
  <g transform="matrix(1.0, 0.0, 0.0, 1.0, -42.35, 34.8)">
    <path d="M49.2 -31.35 L47.85 -31.35 47.85 -31.95 Q47.85 -32.9 48.2 -33.5 L48.95 -34.05 49.35 -34.1 Q50.85 -34.1 50.85 -31.35 L49.2 -31.35 M42.35 -31.1 L42.35 -31.7 Q42.35 -32.65 42.7 -33.25 43.1 -33.85 43.85 -33.85 45.35 -33.85 45.35 -31.1 L42.35 -31.1" fill="#993300" fill-rule="evenodd" stroke="none"/>
    <path d="M48.95 -34.05 L48.2 -33.5 Q47.85 -32.9 47.85 -31.95 L47.85 -31.35 49.2 -31.35 49.1 -30.55 Q48.9 -30.05 47.5 -30.05 46.05 -30.05 45.75 -30.55 45.6 -30.75 45.6 -31.8 45.6 -34.8 47.35 -34.8 48.5 -34.8 48.95 -34.05" fill="#ffcbcb" fill-rule="evenodd" stroke="none"/>
  </g>
</svg>
