<?xml version="1.0" encoding="UTF-8" standalone="no"?>
<svg xmlns:ffdec="https://www.free-decompiler.com/flash" xmlns:xlink="http://www.w3.org/1999/xlink" ffdec:objectType="shape" height="43.25px" width="222.7px" xmlns="http://www.w3.org/2000/svg">
  <g transform="matrix(1.0, 0.0, 0.0, 1.0, 104.0, 14.1)">
    <path d="M17.9 -4.7 L17.9 3.25 20.1 3.25 Q23.5 3.25 23.5 -0.8 23.5 -4.7 19.85 -4.7 L17.9 -4.7 M33.9 -2.85 Q33.9 1.2 31.85 4.0 30.55 5.85 27.85 6.5 31.4 6.9 33.25 9.6 34.9 11.95 34.9 15.7 34.9 21.3 31.9 24.3 28.95 27.3 23.35 27.3 L7.4 27.3 7.4 -12.3 22.9 -12.3 Q27.75 -12.3 30.65 -10.05 33.9 -7.6 33.9 -2.85 M5.8 -3.6 L-1.65 -3.6 -1.65 27.3 -12.2 27.3 -12.2 -3.6 -19.5 -3.6 -19.4 -3.1 Q-18.7 0.15 -18.7 6.7 -18.7 26.7 -26.95 27.6 L-33.35 28.05 Q-42.05 28.05 -45.0 21.25 -46.9 16.95 -46.9 6.7 -46.9 -3.2 -44.7 -7.35 -41.65 -13.0 -32.75 -13.0 -27.0 -13.0 -23.9 -10.85 -21.35 -9.1 -20.1 -5.6 L-20.1 -12.3 5.8 -12.3 5.8 -3.6 M79.85 -12.3 L79.85 18.6 92.55 18.6 92.55 27.3 69.35 27.3 69.35 -12.3 79.85 -12.3 M57.45 -12.3 L67.55 27.3 56.7 27.3 55.55 20.65 47.5 20.65 46.35 27.3 35.5 27.3 45.55 -12.3 57.45 -12.3 M104.9 -12.3 L104.9 18.6 117.6 18.6 117.6 27.3 94.4 27.3 94.4 -12.3 104.9 -12.3 M-66.5 -1.75 L-66.65 4.45 -66.65 10.3 -66.5 16.65 Q-65.9 21.1 -63.3 21.1 -60.75 21.1 -60.25 16.6 -60.05 15.25 -60.05 10.3 L-60.05 4.45 Q-60.05 -0.45 -60.25 -1.7 -60.8 -6.15 -63.3 -6.15 -65.9 -6.15 -66.5 -1.75 M-49.95 -3.1 Q-49.25 0.15 -49.25 6.7 -49.25 26.7 -57.5 27.6 L-63.9 28.05 Q-72.6 28.05 -75.55 21.25 -77.45 16.95 -77.45 6.7 -77.45 -3.2 -75.25 -7.35 -72.2 -13.0 -63.3 -13.0 -57.55 -13.0 -54.45 -10.85 -51.05 -8.5 -49.95 -3.1 M-79.4 -4.0 L-92.4 -4.0 -92.4 3.05 -80.3 3.05 -80.3 10.95 -92.4 10.95 -92.4 27.3 -102.9 27.3 -102.9 -12.3 -79.4 -12.3 -79.4 -4.0 M-32.75 -6.15 Q-35.35 -6.15 -35.95 -1.75 L-36.1 4.45 -36.1 10.3 -35.95 16.65 Q-35.35 21.1 -32.75 21.1 -30.2 21.1 -29.7 16.6 -29.5 15.25 -29.5 10.3 L-29.5 4.45 Q-29.5 -0.45 -29.7 -1.7 -30.25 -6.15 -32.75 -6.15 M54.25 12.6 L51.55 -3.35 48.75 12.6 54.25 12.6 M24.25 14.3 Q24.25 10.05 20.3 10.05 L17.9 10.05 17.9 19.8 20.6 19.8 Q24.25 19.8 24.25 14.95 L24.25 14.3" fill="#ff0000" fill-rule="evenodd" stroke="none"/>
    <path d="M17.9 -4.7 L17.9 3.25 20.1 3.25 Q23.5 3.25 23.5 -0.8 23.5 -4.7 19.85 -4.7 L17.9 -4.7 M33.9 -2.85 Q33.9 1.2 31.85 4.0 30.55 5.85 27.85 6.5 31.4 6.9 33.25 9.6 34.9 11.95 34.9 15.7 34.9 21.3 31.9 24.3 28.95 27.3 23.35 27.3 L7.4 27.3 7.4 -12.3 22.9 -12.3 Q27.75 -12.3 30.65 -10.05 33.9 -7.6 33.9 -2.85 M5.8 -3.6 L-1.65 -3.6 -1.65 27.3 -12.2 27.3 -12.2 -3.6 -19.5 -3.6 -19.4 -3.1 Q-18.7 0.15 -18.7 6.7 -18.7 26.7 -26.95 27.6 L-33.35 28.05 Q-42.05 28.05 -45.0 21.25 -46.9 16.95 -46.9 6.7 -46.9 -3.2 -44.7 -7.35 -41.65 -13.0 -32.75 -13.0 -27.0 -13.0 -23.9 -10.85 -21.35 -9.1 -20.1 -5.6 L-20.1 -12.3 5.8 -12.3 5.8 -3.6 M79.85 -12.3 L79.85 18.6 92.55 18.6 92.55 27.3 69.35 27.3 69.35 -12.3 79.85 -12.3 M57.45 -12.3 L67.55 27.3 56.7 27.3 55.55 20.65 47.5 20.65 46.35 27.3 35.5 27.3 45.55 -12.3 57.45 -12.3 M104.9 -12.3 L104.9 18.6 117.6 18.6 117.6 27.3 94.4 27.3 94.4 -12.3 104.9 -12.3 M-66.5 -1.75 L-66.65 4.45 -66.65 10.3 -66.5 16.65 Q-65.9 21.1 -63.3 21.1 -60.75 21.1 -60.25 16.6 -60.05 15.25 -60.05 10.3 L-60.05 4.45 Q-60.05 -0.45 -60.25 -1.7 -60.8 -6.15 -63.3 -6.15 -65.9 -6.15 -66.5 -1.75 M-49.95 -3.1 Q-49.25 0.15 -49.25 6.7 -49.25 26.7 -57.5 27.6 L-63.9 28.05 Q-72.6 28.05 -75.55 21.25 -77.45 16.95 -77.45 6.7 -77.45 -3.2 -75.25 -7.35 -72.2 -13.0 -63.3 -13.0 -57.55 -13.0 -54.45 -10.85 -51.05 -8.5 -49.95 -3.1 M-79.4 -4.0 L-92.4 -4.0 -92.4 3.05 -80.3 3.05 -80.3 10.95 -92.4 10.95 -92.4 27.3 -102.9 27.3 -102.9 -12.3 -79.4 -12.3 -79.4 -4.0 M-32.75 -6.15 Q-35.35 -6.15 -35.95 -1.75 L-36.1 4.45 -36.1 10.3 -35.95 16.65 Q-35.35 21.1 -32.75 21.1 -30.2 21.1 -29.7 16.6 -29.5 15.25 -29.5 10.3 L-29.5 4.45 Q-29.5 -0.45 -29.7 -1.7 -30.25 -6.15 -32.75 -6.15 M54.25 12.6 L51.55 -3.35 48.75 12.6 54.25 12.6 M24.25 14.3 Q24.25 10.05 20.3 10.05 L17.9 10.05 17.9 19.8 20.6 19.8 Q24.25 19.8 24.25 14.95 L24.25 14.3 Z" fill="none" stroke="#ff9900" stroke-linecap="round" stroke-linejoin="round" stroke-opacity="0.9882353" stroke-width="2.25"/>
  </g>
</svg>
