<?xml version="1.0" encoding="UTF-8" standalone="no"?>
<svg xmlns:ffdec="https://www.free-decompiler.com/flash" xmlns:xlink="http://www.w3.org/1999/xlink" ffdec:objectType="shape" height="140.8px" width="140.5px" xmlns="http://www.w3.org/2000/svg">
  <g transform="matrix(1.0, 0.0, 0.0, 1.0, -534.15, -302.6)">
    <path d="M636.3 327.3 L652.25 321.45 647.45 337.7 664.35 336.3 655.35 350.7 672.0 353.95 659.5 365.35 674.65 373.0 659.5 380.6 672.0 392.05 655.35 395.25 664.35 409.65 647.45 408.25 652.25 424.55 636.3 418.7 636.5 435.65 622.8 425.7 618.4 442.1 607.85 428.75 599.2 443.4 592.7 427.75 580.45 439.5 578.3 422.65 563.35 430.65 565.85 413.9 549.3 417.5 556.25 402.05 539.3 401.1 550.2 388.1 534.15 382.6 548.1 372.95 534.15 363.4 550.2 357.9 539.3 344.85 556.25 343.9 549.3 328.45 565.85 332.1 563.35 315.35 578.3 323.35 580.45 306.5 592.7 318.25 599.2 302.6 607.85 317.2 618.4 303.85 622.8 320.25 636.5 310.3 636.3 327.3" fill="#ff0000" fill-rule="evenodd" stroke="none"/>
  </g>
</svg>
