<?xml version="1.0" encoding="UTF-8" standalone="no"?>
<svg xmlns:ffdec="https://www.free-decompiler.com/flash" xmlns:xlink="http://www.w3.org/1999/xlink" ffdec:objectType="shape" height="105.0px" width="39.0px" xmlns="http://www.w3.org/2000/svg">
  <g transform="matrix(1.0, 0.0, 0.0, 1.0, -390.5, -79.5)">
    <path d="M423.8 85.2 Q429.5 90.9 429.5 99.0 429.5 106.15 425.1 111.4 L424.95 152.45 Q429.5 157.75 429.5 165.0 429.5 173.1 423.8 178.8 418.1 184.5 410.0 184.5 401.9 184.5 396.2 178.8 390.5 173.1 390.5 165.0 390.5 157.85 394.95 152.6 L395.1 111.6 Q390.5 106.25 390.5 99.0 390.5 90.9 396.2 85.2 401.9 79.5 410.0 79.5 418.1 79.5 423.8 85.2" fill="#000000" fill-rule="evenodd" stroke="none"/>
  </g>
</svg>
