<?xml version="1.0" encoding="UTF-8" standalone="no"?>
<svg xmlns:ffdec="https://www.free-decompiler.com/flash" xmlns:xlink="http://www.w3.org/1999/xlink" ffdec:objectType="shape" height="80.0px" width="440.0px" xmlns="http://www.w3.org/2000/svg">
  <g transform="matrix(1.0, 0.0, 0.0, 1.0, -190.0, -160.0)">
    <path d="M618.25 171.65 Q630.0 183.4 630.0 200.0 630.0 216.6 618.25 228.25 606.6 240.0 590.0 240.0 573.4 240.0 561.65 228.25 550.0 216.6 550.0 200.0 550.0 183.4 561.65 171.65 573.4 160.0 590.0 160.0 606.6 160.0 618.25 171.65 M230.0 160.0 Q246.6 160.0 258.25 171.65 270.0 183.4 270.0 200.0 270.0 216.6 258.25 228.25 246.6 240.0 230.0 240.0 213.4 240.0 201.65 228.25 190.0 216.6 190.0 200.0 190.0 183.4 201.65 171.65 213.4 160.0 230.0 160.0" fill="#000000" fill-rule="evenodd" stroke="none"/>
  </g>
</svg>
