<?xml version="1.0" encoding="UTF-8" standalone="no"?>
<svg xmlns:ffdec="https://www.free-decompiler.com/flash" xmlns:xlink="http://www.w3.org/1999/xlink" ffdec:objectType="shape" height="110.0px" width="564.0px" xmlns="http://www.w3.org/2000/svg">
  <g transform="matrix(1.0, 0.0, 0.0, 1.0, -121.0, -105.0)">
    <path d="M680.6 109.35 Q685.0 113.75 685.0 120.0 685.0 126.25 680.6 130.6 677.85 133.35 674.4 134.4 L538.2 213.0 537.9 212.45 533.6 213.0 Q527.35 213.0 522.95 208.6 518.6 204.25 518.6 198.0 518.6 191.75 522.95 187.35 L523.25 187.1 523.2 187.0 523.55 186.8 Q526.0 184.6 528.95 183.7 L661.8 107.0 661.95 107.25 Q665.5 105.0 670.0 105.0 676.25 105.0 680.6 109.35 M286.6 189.4 Q291.0 193.8 291.0 200.0 291.0 206.25 286.6 210.6 282.25 215.0 276.0 215.0 271.5 215.0 268.0 212.7 L267.8 213.0 131.6 134.4 Q128.15 133.35 125.4 130.6 121.0 126.25 121.0 120.0 121.0 113.8 125.4 109.4 129.8 105.0 136.0 105.0 140.5 105.0 144.05 107.3 L144.2 107.0 280.4 185.6 Q283.85 186.65 286.6 189.4" fill="#000000" fill-rule="evenodd" stroke="none"/>
  </g>
</svg>
