<?xml version="1.0" encoding="UTF-8" standalone="no"?>
<svg xmlns:ffdec="https://www.free-decompiler.com/flash" xmlns:xlink="http://www.w3.org/1999/xlink" ffdec:objectType="shape" height="170.0px" width="410.0px" xmlns="http://www.w3.org/2000/svg">
  <g transform="matrix(1.0, 0.0, 0.0, 1.0, -195.0, -55.0)">
    <path d="M597.65 182.3 Q605.0 189.6 605.0 200.0 605.0 210.4 597.65 217.65 590.4 225.0 580.0 225.0 569.6 225.0 562.3 217.65 555.0 210.4 555.0 200.0 555.0 189.6 562.3 182.3 569.6 175.0 580.0 175.0 590.4 175.0 597.65 182.3 M425.0 80.0 Q425.0 90.4 417.65 97.65 410.4 105.0 400.0 105.0 389.6 105.0 382.3 97.65 375.0 90.4 375.0 80.0 375.0 69.6 382.3 62.3 389.6 55.0 400.0 55.0 410.4 55.0 417.65 62.3 425.0 69.6 425.0 80.0 M237.65 182.3 Q245.0 189.6 245.0 200.0 245.0 210.4 237.65 217.65 230.4 225.0 220.0 225.0 209.6 225.0 202.3 217.65 195.0 210.4 195.0 200.0 195.0 189.6 202.3 182.3 209.6 175.0 220.0 175.0 230.4 175.0 237.65 182.3" fill="url(#gradient0)" fill-rule="evenodd" stroke="none"/>
  </g>
  <defs>
    <linearGradient gradientTransform="matrix(0.0, -0.2057, 0.4883, 0.0, 400.0, 190.5)" gradientUnits="userSpaceOnUse" id="gradient0" spreadMethod="pad" x1="-819.2" x2="819.2">
      <stop offset="0.0" stop-color="#353535"/>
      <stop offset="1.0" stop-color="#121212"/>
    </linearGradient>
  </defs>
</svg>
