<?xml version="1.0" encoding="UTF-8" standalone="no"?>
<svg xmlns:ffdec="https://www.free-decompiler.com/flash" xmlns:xlink="http://www.w3.org/1999/xlink" ffdec:objectType="shape" height="110.0px" width="307.15px" xmlns="http://www.w3.org/2000/svg">
  <g transform="matrix(1.0, 0.0, 0.0, 1.0, -246.45, -105.0)">
    <path d="M549.2 189.35 Q553.6 193.75 553.6 200.0 553.6 206.25 549.2 210.6 544.85 215.0 538.6 215.0 533.85 215.0 530.2 212.5 L400.05 137.35 269.65 212.6 Q266.1 215.0 261.45 215.0 255.25 215.0 250.85 210.6 246.45 206.25 246.45 200.0 246.45 193.8 250.85 189.4 252.65 187.6 254.8 186.55 L391.15 107.8 Q395.0 105.0 400.0 105.0 404.8 105.0 408.5 107.6 L545.0 186.35 Q547.25 187.4 549.2 189.35" fill="url(#gradient0)" fill-rule="evenodd" stroke="none"/>
  </g>
  <defs>
    <linearGradient gradientTransform="matrix(0.0, -0.1965, 0.4883, 0.0, 400.0, 183.0)" gradientUnits="userSpaceOnUse" id="gradient0" spreadMethod="pad" x1="-819.2" x2="819.2">
      <stop offset="0.0" stop-color="#353535"/>
      <stop offset="1.0" stop-color="#121212"/>
    </linearGradient>
  </defs>
</svg>
