<?xml version="1.0" encoding="UTF-8" standalone="no"?>
<svg xmlns:ffdec="https://www.free-decompiler.com/flash" xmlns:xlink="http://www.w3.org/1999/xlink" ffdec:objectType="shape" height="186.0px" width="370.4px" xmlns="http://www.w3.org/2000/svg">
  <g transform="matrix(1.0, 0.0, 0.0, 1.0, -183.2, -57.0)">
    <path d="M538.6 185.0 Q544.85 185.0 549.2 189.35 553.6 193.75 553.6 200.0 553.6 206.25 549.2 210.6 544.85 215.0 538.6 215.0 532.35 215.0 527.95 210.6 523.6 206.25 523.6 200.0 523.6 193.75 527.95 189.35 532.35 185.0 538.6 185.0 M389.35 130.6 Q385.0 126.25 385.0 120.0 385.0 113.75 389.35 109.35 393.75 105.0 400.0 105.0 406.25 105.0 410.6 109.35 415.0 113.75 415.0 120.0 415.0 126.25 410.6 130.6 406.25 135.0 400.0 135.0 393.75 135.0 389.35 130.6 M461.8 243.0 L323.2 163.0 338.2 137.0 476.8 217.0 461.8 243.0 M183.2 137.0 L321.8 57.0 336.8 83.0 198.2 163.0 183.2 137.0 M261.45 185.0 Q267.7 185.0 272.05 189.4 276.45 193.8 276.45 200.0 276.45 206.25 272.05 210.6 267.7 215.0 261.45 215.0 255.25 215.0 250.85 210.6 246.45 206.25 246.45 200.0 246.45 193.8 250.85 189.4 255.25 185.0 261.45 185.0" fill="#000000" fill-rule="evenodd" stroke="none"/>
  </g>
</svg>
