<?xml version="1.0" encoding="UTF-8" standalone="no"?>
<svg xmlns:ffdec="https://www.free-decompiler.com/flash" xmlns:xlink="http://www.w3.org/1999/xlink" ffdec:objectType="shape" height="162.9px" width="647.45px" xmlns="http://www.w3.org/2000/svg">
  <g transform="matrix(1.0, 0.0, 0.0, 1.0, -83.05, -105.0)">
    <path d="M715.5 267.9 L576.9 187.9 591.9 161.9 730.5 241.9 715.5 267.9 M545.0 140.0 Q545.0 146.25 540.6 150.6 536.25 155.0 530.0 155.0 523.75 155.0 519.35 150.6 515.0 146.25 515.0 140.0 515.0 133.75 519.35 129.35 523.75 125.0 530.0 125.0 536.25 125.0 540.6 129.35 545.0 133.75 545.0 140.0 M389.35 130.6 Q385.0 126.25 385.0 120.0 385.0 113.75 389.35 109.35 393.75 105.0 400.0 105.0 406.25 105.0 410.6 109.35 415.0 113.75 415.0 120.0 415.0 126.25 410.6 130.6 406.25 135.0 400.0 135.0 393.75 135.0 389.35 130.6 M236.65 186.9 L98.05 266.9 83.05 240.9 221.65 160.9 236.65 186.9 M295.0 140.0 Q295.0 146.25 290.6 150.6 286.25 155.0 280.0 155.0 273.8 155.0 269.4 150.6 265.0 146.25 265.0 140.0 265.0 133.8 269.4 129.4 273.8 125.0 280.0 125.0 286.25 125.0 290.6 129.4 295.0 133.8 295.0 140.0" fill="#272727" fill-rule="evenodd" stroke="none"/>
  </g>
</svg>
