<?xml version="1.0" encoding="UTF-8" standalone="no"?>
<svg xmlns:ffdec="https://www.free-decompiler.com/flash" xmlns:xlink="http://www.w3.org/1999/xlink" ffdec:objectType="shape" height="240.0px" width="647.45px" xmlns="http://www.w3.org/2000/svg">
  <g transform="matrix(1.0, 0.0, 0.0, 1.0, -83.05, -45.0)">
    <path d="M715.5 267.9 L576.9 187.9 591.9 161.9 730.5 241.9 715.5 267.9 M390.0 45.0 Q396.25 45.0 400.6 49.35 405.0 53.75 405.0 60.0 405.0 66.25 400.6 70.6 396.25 75.0 390.0 75.0 383.75 75.0 379.35 70.6 375.0 66.25 375.0 60.0 375.0 53.75 379.35 49.35 383.75 45.0 390.0 45.0 M599.35 259.35 Q603.75 255.0 610.0 255.0 616.25 255.0 620.6 259.35 625.0 263.75 625.0 270.0 625.0 276.25 620.6 280.6 616.25 285.0 610.0 285.0 603.75 285.0 599.35 280.6 595.0 276.25 595.0 270.0 595.0 263.75 599.35 259.35 M236.65 186.9 L98.05 266.9 83.05 240.9 221.65 160.9 236.65 186.9 M189.4 280.6 Q185.0 276.25 185.0 270.0 185.0 263.8 189.4 259.4 193.8 255.0 200.0 255.0 206.25 255.0 210.6 259.4 215.0 263.8 215.0 270.0 215.0 276.25 210.6 280.6 206.25 285.0 200.0 285.0 193.8 285.0 189.4 280.6" fill="#272727" fill-rule="evenodd" stroke="none"/>
  </g>
</svg>
