<?xml version="1.0" encoding="UTF-8" standalone="no"?>
<svg xmlns:ffdec="https://www.free-decompiler.com/flash" xmlns:xlink="http://www.w3.org/1999/xlink" ffdec:objectType="shape" height="188.0px" width="260.0px" xmlns="http://www.w3.org/2000/svg">
  <g transform="matrix(1.0, 0.0, 0.0, 1.0, -265.0, -117.0)">
    <path d="M379.4 142.6 Q375.0 138.25 375.0 132.0 375.0 125.8 379.4 121.4 383.8 117.0 390.0 117.0 396.25 117.0 400.6 121.4 405.0 125.8 405.0 132.0 405.0 138.25 400.6 142.6 396.25 147.0 390.0 147.0 383.8 147.0 379.4 142.6 M465.0 214.0 Q465.0 220.25 460.6 224.6 456.25 229.0 450.0 229.0 443.75 229.0 439.35 224.6 435.0 220.25 435.0 214.0 435.0 207.75 439.35 203.35 443.75 199.0 450.0 199.0 456.25 199.0 460.6 203.35 465.0 207.75 465.0 214.0 M345.0 214.0 Q345.0 220.25 340.6 224.6 336.25 229.0 330.0 229.0 323.8 229.0 319.4 224.6 315.0 220.25 315.0 214.0 315.0 207.8 319.4 203.4 323.8 199.0 330.0 199.0 336.25 199.0 340.6 203.4 345.0 207.8 345.0 214.0 M510.0 275.0 Q516.25 275.0 520.6 279.35 525.0 283.75 525.0 290.0 525.0 296.25 520.6 300.6 516.25 305.0 510.0 305.0 503.75 305.0 499.35 300.6 495.0 296.25 495.0 290.0 495.0 283.75 499.35 279.35 503.75 275.0 510.0 275.0 M280.0 275.0 Q286.25 275.0 290.6 279.4 295.0 283.8 295.0 290.0 295.0 296.25 290.6 300.6 286.25 305.0 280.0 305.0 273.8 305.0 269.4 300.6 265.0 296.25 265.0 290.0 265.0 283.8 269.4 279.4 273.8 275.0 280.0 275.0" fill="#000000" fill-rule="evenodd" stroke="none"/>
  </g>
</svg>
