<?xml version="1.0" encoding="UTF-8" standalone="no"?>
<svg xmlns:ffdec="https://www.free-decompiler.com/flash" xmlns:xlink="http://www.w3.org/1999/xlink" ffdec:objectType="shape" height="150.0px" width="395.8px" xmlns="http://www.w3.org/2000/svg">
  <g transform="matrix(1.0, 0.0, 0.0, 1.0, -191.0, -45.0)">
    <path d="M571.8 193.0 L433.2 113.0 448.2 87.0 586.8 167.0 571.8 193.0 M390.0 45.0 Q396.25 45.0 400.6 49.35 405.0 53.75 405.0 60.0 405.0 66.25 400.6 70.6 396.25 75.0 390.0 75.0 383.75 75.0 379.35 70.6 375.0 66.25 375.0 60.0 375.0 53.75 379.35 49.35 383.75 45.0 390.0 45.0 M379.4 130.6 Q375.0 126.25 375.0 120.0 375.0 113.8 379.4 109.4 383.8 105.0 390.0 105.0 396.25 105.0 400.6 109.4 405.0 113.8 405.0 120.0 405.0 126.25 400.6 130.6 396.25 135.0 390.0 135.0 383.8 135.0 379.4 130.6 M379.35 190.6 Q375.0 186.25 375.0 180.0 375.0 173.75 379.35 169.35 383.75 165.0 390.0 165.0 396.25 165.0 400.6 169.35 405.0 173.75 405.0 180.0 405.0 186.25 400.6 190.6 396.25 195.0 390.0 195.0 383.75 195.0 379.35 190.6 M344.6 110.85 L206.0 190.85 191.0 164.85 329.6 84.85 344.6 110.85" fill="#272727" fill-rule="evenodd" stroke="none"/>
  </g>
</svg>
