<?xml version="1.0" encoding="UTF-8" standalone="no"?>
<svg xmlns:ffdec="https://www.free-decompiler.com/flash" xmlns:xlink="http://www.w3.org/1999/xlink" ffdec:objectType="shape" height="150.0px" width="740.0px" xmlns="http://www.w3.org/2000/svg">
  <g transform="matrix(1.0, 0.0, 0.0, 1.0, -40.0, 0.0)">
    <path d="M780.0 80.0 Q780.0 109.05 759.45 129.45 739.05 150.0 710.0 150.0 680.95 150.0 660.4 129.45 640.0 109.05 640.0 80.0 640.0 50.95 660.4 30.4 680.95 10.0 710.0 10.0 739.05 10.0 759.45 30.4 780.0 50.95 780.0 80.0 M159.45 20.4 Q180.0 40.95 180.0 70.0 180.0 99.05 159.45 119.45 139.05 140.0 110.0 140.0 80.95 140.0 60.4 119.45 40.0 99.05 40.0 70.0 40.0 40.95 60.4 20.4 80.95 0.0 110.0 0.0 139.05 0.0 159.45 20.4" fill="#272727" fill-rule="evenodd" stroke="none"/>
  </g>
</svg>
