<?xml version="1.0" encoding="UTF-8" standalone="no"?>
<svg xmlns:ffdec="https://www.free-decompiler.com/flash" xmlns:xlink="http://www.w3.org/1999/xlink" ffdec:objectType="shape" height="122.0px" width="122.0px" xmlns="http://www.w3.org/2000/svg">
  <g transform="matrix(1.0, 0.0, 0.0, 1.0, 61.0, 61.0)">
    <path d="M40.0 -60.0 Q60.0 -60.0 60.0 -40.0 L60.0 40.0 Q60.0 60.0 40.0 60.0 L-40.0 60.0 Q-60.0 60.0 -60.0 40.0 L-60.0 -40.0 Q-60.0 -60.0 -40.0 -60.0 L40.0 -60.0" fill="url(#gradient0)" fill-rule="evenodd" stroke="none"/>
    <path d="M40.0 -60.0 L-40.0 -60.0 Q-60.0 -60.0 -60.0 -40.0 L-60.0 40.0 Q-60.0 60.0 -40.0 60.0 L40.0 60.0 Q60.0 60.0 60.0 40.0 L60.0 -40.0 Q60.0 -60.0 40.0 -60.0 Z" fill="none" stroke="#333333" stroke-linecap="round" stroke-linejoin="round" stroke-opacity="0.9882353" stroke-width="2.0"/>
  </g>
  <defs>
    <radialGradient cx="0" cy="0" gradientTransform="matrix(0.1304, 0.0, 0.0, 0.1304, -19.95, -20.0)" gradientUnits="userSpaceOnUse" id="gradient0" r="819.2" spreadMethod="pad">
      <stop offset="0.0" stop-color="#bfbfbf"/>
      <stop offset="1.0" stop-color="#5d5d5d"/>
    </radialGradient>
  </defs>
</svg>
