<?xml version="1.0" encoding="UTF-8" standalone="no"?>
<svg xmlns:ffdec="https://www.free-decompiler.com/flash" xmlns:xlink="http://www.w3.org/1999/xlink" ffdec:objectType="shape" height="31.2px" width="28.65px" xmlns="http://www.w3.org/2000/svg">
  <g transform="matrix(1.0, 0.0, 0.0, 1.0, 14.3, 15.6)">
    <path d="M3.35 -7.5 Q3.35 3.2 11.45 1.45 L13.45 1.45 Q14.35 1.8 14.35 2.45 14.35 3.45 12.0 3.95 9.3 4.5 8.45 5.7 6.95 7.75 6.7 9.05 L6.6 12.5 Q6.55 14.45 5.45 15.6 L4.55 15.3 Q4.65 12.65 4.35 11.05 3.75 7.95 1.25 7.95 -1.65 7.95 -3.3 10.9 -4.95 13.85 -5.45 13.85 -6.7 13.85 -7.95 8.1 -8.3 6.35 -11.35 4.55 -14.3 3.0 -14.3 2.75 L-14.05 2.3 -13.3 1.7 -7.05 1.6 Q-3.6 -0.5 -1.85 -3.15 -0.7 -4.9 0.2 -7.95 1.35 -12.05 2.35 -14.2 3.85 -17.55 3.85 -12.9 L3.35 -7.5" fill="#ffffff" fill-rule="evenodd" stroke="none"/>
  </g>
</svg>
