<?xml version="1.0" encoding="UTF-8" standalone="no"?>
<svg xmlns:ffdec="https://www.free-decompiler.com/flash" xmlns:xlink="http://www.w3.org/1999/xlink" ffdec:objectType="shape" height="460.3px" width="208.0px" xmlns="http://www.w3.org/2000/svg">
  <g transform="matrix(1.0, 0.0, 0.0, 1.0, 1.95, 7.1)">
    <path d="M192.55 -3.6 Q202.55 -3.6 202.55 6.25 L202.55 439.85 Q202.55 449.7 192.55 449.7 L11.55 449.7 Q1.55 449.7 1.55 439.85 L1.55 6.25 Q1.55 -3.6 11.55 -3.6 L192.55 -3.6" fill="#000000" fill-rule="evenodd" stroke="none"/>
    <path d="M192.55 -3.6 L11.55 -3.6 Q1.55 -3.6 1.55 6.25 L1.55 439.85 Q1.55 449.7 11.55 449.7 L192.55 449.7 Q202.55 449.7 202.55 439.85 L202.55 6.25 Q202.55 -3.6 192.55 -3.6 Z" fill="none" stroke="#000000" stroke-linecap="round" stroke-linejoin="round" stroke-width="7.0"/>
    <path d="M191.55 -3.95 Q201.55 -3.95 201.55 5.9 L201.55 439.25 Q201.55 449.1 191.55 449.1 L10.55 449.1 Q0.55 449.1 0.55 439.25 L0.55 5.9 Q0.55 -3.95 10.55 -3.95 L191.55 -3.95" fill="#999999" fill-rule="evenodd" stroke="none"/>
    <path d="M33.25 408.05 L136.0 408.05 Q155.4 408.05 155.4 416.8 L155.4 429.0 Q155.4 437.85 136.0 437.85 L33.25 437.85 Q13.9 437.85 13.9 429.0 L13.9 416.8 Q13.9 408.05 33.25 408.05" fill="#000000" fill-rule="evenodd" stroke="none"/>
    <path d="M33.25 408.05 Q13.9 408.05 13.9 416.8 L13.9 429.0 Q13.9 437.85 33.25 437.85 L136.0 437.85 Q155.4 437.85 155.4 429.0 L155.4 416.8 Q155.4 408.05 136.0 408.05 L33.25 408.05 Z" fill="none" stroke="#000000" stroke-linecap="round" stroke-linejoin="round" stroke-width="2.5"/>
    <path d="M32.25 407.15 L135.0 407.15 Q154.4 407.15 154.4 415.9 L154.4 428.1 Q154.4 436.95 135.0 436.95 L32.25 436.95 Q12.9 436.95 12.9 428.1 L12.9 415.9 Q12.9 407.15 32.25 407.15" fill="#000000" fill-rule="evenodd" stroke="none"/>
    <path d="M184.15 409.45 Q193.0 409.45 193.0 418.3 L193.0 430.65 Q193.0 437.25 188.0 438.9 L184.15 439.45 171.8 439.45 Q163.0 439.45 163.0 430.65 L163.0 418.3 163.2 416.0 Q164.25 409.45 171.8 409.45 L184.15 409.45 M170.8 395.45 Q162.0 395.45 162.0 386.65 L162.0 374.3 162.2 372.0 Q163.25 365.45 170.8 365.45 L183.15 365.45 Q192.0 365.45 192.0 374.3 L192.0 386.65 Q192.0 393.25 187.0 394.9 L183.15 395.45 170.8 395.45 M162.0 326.35 L162.2 324.05 Q163.25 317.5 170.8 317.5 L183.15 317.5 Q192.0 317.5 192.0 326.35 L192.0 338.7 Q192.0 345.3 187.0 346.95 L183.15 347.5 170.8 347.5 Q162.0 347.5 162.0 338.7 L162.0 326.35 M192.0 282.35 L192.0 294.7 Q192.0 303.5 183.15 303.5 L170.8 303.5 Q162.0 303.5 162.0 294.7 L162.0 282.35 Q162.0 273.5 170.8 273.5 L183.15 273.5 Q192.0 273.5 192.0 282.35 M170.8 229.5 L183.15 229.5 Q192.0 229.5 192.0 238.35 L192.0 250.7 Q192.0 259.5 183.15 259.5 L170.8 259.5 Q162.0 259.5 162.0 250.7 L162.0 238.35 Q162.0 229.5 170.8 229.5 M162.0 194.05 Q162.15 185.5 170.8 185.5 L183.15 185.5 Q191.85 185.5 192.0 194.05 L192.0 194.35 192.0 206.7 Q192.0 215.5 183.15 215.5 L170.8 215.5 Q162.0 215.5 162.0 206.7 L162.0 194.35 162.0 194.05 M170.8 142.5 L183.15 142.5 Q192.0 142.5 192.0 151.35 L192.0 163.7 Q192.0 172.5 183.15 172.5 L170.8 172.5 Q162.0 172.5 162.0 163.7 L162.0 151.35 Q162.0 142.5 170.8 142.5" fill="#ffffff" fill-rule="evenodd" stroke="none"/>
  </g>
</svg>
