<?xml version="1.0" encoding="UTF-8" standalone="no"?>
<svg xmlns:ffdec="https://www.free-decompiler.com/flash" xmlns:xlink="http://www.w3.org/1999/xlink" ffdec:objectType="shape" height="51.55px" width="50.05px" xmlns="http://www.w3.org/2000/svg">
  <g transform="matrix(1.0, 0.0, 0.0, 1.0, 21.65, 31.9)">
    <path d="M6.05 -29.3 L6.15 -25.55 6.85 -18.95 Q7.25 -14.9 8.4 -12.5 10.6 -7.95 11.85 -5.9 13.3 -3.5 21.15 -2.55 28.4 -1.65 28.4 -0.25 26.4 0.85 24.25 2.45 19.9 5.65 19.15 9.65 L18.85 14.8 Q18.35 18.9 16.75 18.9 14.55 18.9 12.3 15.4 10.15 11.45 9.25 10.5 L6.9 10.5 6.65 10.75 6.6 12.5 Q6.55 14.45 5.45 15.6 L4.55 15.3 4.55 13.25 2.6 15.75 Q-0.35 19.65 -0.75 19.65 -2.05 19.65 -3.5 16.6 L-4.85 13.35 -5.45 13.85 Q-6.4 13.85 -7.3 10.6 -10.8 7.85 -16.0 7.65 L-20.05 7.55 Q-21.65 7.4 -21.65 6.35 -20.2 5.7 -18.45 4.15 -14.85 1.05 -13.15 -3.75 L-13.15 -15.4 -12.1 -16.15 -2.9 -12.75 -0.25 -19.25 Q1.55 -23.5 2.1 -25.8 L2.45 -29.1 Q2.7 -31.15 4.0 -31.9 5.85 -31.55 6.05 -29.3" fill="#ff9900" fill-rule="evenodd" stroke="none"/>
  </g>
</svg>
