<?xml version="1.0" encoding="UTF-8" standalone="no"?>
<svg xmlns:ffdec="https://www.free-decompiler.com/flash" xmlns:xlink="http://www.w3.org/1999/xlink" ffdec:objectType="shape" height="18.15px" width="36.1px" xmlns="http://www.w3.org/2000/svg">
  <g transform="matrix(1.0, 0.0, 0.0, 1.0, 0.6, 1.65)">
    <path d="M5.25 -0.4 L29.65 -0.4 Q34.25 -0.4 34.25 4.2 L34.25 10.6 Q34.25 15.25 29.65 15.25 L5.25 15.25 Q0.65 15.25 0.65 10.6 L0.65 4.2 Q0.65 -0.4 5.25 -0.4" fill="#666666" fill-rule="evenodd" stroke="none"/>
    <path d="M5.25 -0.4 Q0.65 -0.4 0.65 4.2 L0.65 10.6 Q0.65 15.25 5.25 15.25 L29.65 15.25 Q34.25 15.25 34.25 10.6 L34.25 4.2 Q34.25 -0.4 29.65 -0.4 L5.25 -0.4 Z" fill="none" stroke="#666666" stroke-linecap="round" stroke-linejoin="round" stroke-width="2.5"/>
    <path d="M5.0 -0.9 L29.4 -0.9 Q34.0 -0.9 34.0 3.7 L34.0 10.1 Q34.0 14.75 29.4 14.75 L5.0 14.75 Q0.4 14.75 0.4 10.1 L0.4 3.7 Q0.4 -0.9 5.0 -0.9" fill="url(#gradient0)" fill-rule="evenodd" stroke="none"/>
    <path d="M23.1 7.85 L18.8 7.85 18.8 12.2 16.5 12.2 16.5 7.85 12.15 7.85 12.15 5.55 16.5 5.55 16.5 1.25 18.8 1.25 18.8 5.55 23.1 5.55 23.1 7.85" fill="#000000" fill-rule="evenodd" stroke="none"/>
  </g>
  <defs>
    <radialGradient cx="0" cy="0" gradientTransform="matrix(3.0E-4, -0.0186, 0.0324, 6.0E-4, 15.0, 10.0)" gradientUnits="userSpaceOnUse" id="gradient0" r="819.2" spreadMethod="pad">
      <stop offset="0.5058823529411764" stop-color="#cccccc"/>
      <stop offset="1.0" stop-color="#ffffff"/>
    </radialGradient>
  </defs>
</svg>
