<?xml version="1.0" encoding="UTF-8" standalone="no"?>
<svg xmlns:ffdec="https://www.free-decompiler.com/flash" xmlns:xlink="http://www.w3.org/1999/xlink" ffdec:objectType="shape" height="32.3px" width="144.0px" xmlns="http://www.w3.org/2000/svg">
  <g transform="matrix(1.0, 0.0, 0.0, 1.0, 110.85, 2.15)">
    <path d="M-90.25 -0.9 L12.5 -0.9 Q31.9 -0.9 31.9 7.85 L31.9 20.05 Q31.9 28.9 12.5 28.9 L-90.25 28.9 Q-109.6 28.9 -109.6 20.05 L-109.6 7.85 Q-109.6 -0.9 -90.25 -0.9" fill="#666666" fill-rule="evenodd" stroke="none"/>
    <path d="M-90.25 -0.9 Q-109.6 -0.9 -109.6 7.85 L-109.6 20.05 Q-109.6 28.9 -90.25 28.9 L12.5 28.9 Q31.9 28.9 31.9 20.05 L31.9 7.85 Q31.9 -0.9 12.5 -0.9 L-90.25 -0.9 Z" fill="none" stroke="#666666" stroke-linecap="round" stroke-linejoin="round" stroke-width="2.5"/>
    <path d="M-91.25 -1.8 L11.5 -1.8 Q30.9 -1.8 30.9 6.95 L30.9 19.15 Q30.9 28.0 11.5 28.0 L-91.25 28.0 Q-110.6 28.0 -110.6 19.15 L-110.6 6.95 Q-110.6 -1.8 -91.25 -1.8" fill="url(#gradient0)" fill-rule="evenodd" stroke="none"/>
  </g>
  <defs>
    <radialGradient cx="0" cy="0" gradientTransform="matrix(0.0013, -0.0355, 0.1366, 0.0011, -49.15, 18.95)" gradientUnits="userSpaceOnUse" id="gradient0" r="819.2" spreadMethod="pad">
      <stop offset="0.5058823529411764" stop-color="#cccccc"/>
      <stop offset="1.0" stop-color="#ffffff"/>
    </radialGradient>
  </defs>
</svg>
