<?xml version="1.0" encoding="UTF-8" standalone="no"?>
<svg xmlns:ffdec="https://www.free-decompiler.com/flash" xmlns:xlink="http://www.w3.org/1999/xlink" ffdec:objectType="shape" height="59.35px" width="60.3px" xmlns="http://www.w3.org/2000/svg">
  <g transform="matrix(1.0, 0.0, 0.0, 1.0, 26.9, 34.45)">
    <path d="M27.9 -0.95 L28.4 -0.25 27.6 0.25 27.9 -0.95" fill="#ffffff" fill-rule="evenodd" stroke="none"/>
    <path d="M27.6 0.25 L27.4 2.1 Q27.4 3.5 28.05 5.0 L28.65 6.55 Q28.65 7.3 24.75 9.55 20.55 11.95 19.9 13.6 L19.55 17.7 Q19.3 20.65 18.1 20.65 17.85 20.65 16.65 19.85 15.4 19.0 13.7 19.0 11.1 19.0 7.05 21.95 3.05 24.9 2.5 24.9 1.75 24.9 -2.1 22.95 L-6.4 20.75 -9.25 20.75 -10.6 21.65 Q-11.65 22.4 -12.0 22.4 -12.85 22.4 -13.6 21.2 L-15.05 18.4 Q-17.55 14.1 -23.0 13.15 -23.7 13.0 -23.85 12.65 L-23.9 12.1 Q-22.9 7.9 -22.9 7.0 -22.9 3.9 -24.9 0.85 -26.9 -2.25 -26.9 -2.5 L-24.9 -5.15 Q-22.9 -7.7 -22.9 -10.35 -22.9 -12.35 -23.5 -14.2 L-24.15 -15.9 Q-24.15 -16.15 -20.05 -17.5 -15.85 -18.9 -15.25 -22.25 -15.15 -22.75 -15.35 -25.95 -15.3 -28.9 -14.1 -28.9 L-13.0 -28.45 -8.75 -28.0 Q-1.55 -28.0 2.1 -32.85 3.35 -34.5 4.3 -34.45 5.75 -34.35 8.9 -31.5 L10.25 -31.5 Q10.1 -31.95 10.4 -32.4 10.7 -32.9 11.25 -32.9 11.7 -32.9 12.6 -30.95 13.6 -28.6 14.25 -27.9 16.35 -25.75 25.5 -24.15 26.4 -23.75 26.4 -23.1 L23.8 -20.85 Q21.15 -18.55 21.15 -16.2 21.15 -12.85 25.25 -11.0 L32.5 -10.9 Q33.4 -10.5 33.4 -9.85 L30.4 -5.75 Q28.6 -3.3 27.9 -0.95 L27.6 0.25 M-0.4 -10.9 L-1.65 -9.3 Q-2.55 -8.5 -4.1 -8.25 -5.15 -8.05 -5.15 -7.2 -5.15 -6.2 -5.65 -4.85 L-6.15 -3.55 -5.9 -1.7 -5.3 1.1 -4.5 1.4 Q-2.85 0.45 -2.45 2.0 -1.9 3.9 -0.85 3.9 L-0.05 3.6 0.5 3.0 0.75 3.6 2.1 3.9 Q3.35 3.9 6.65 2.45 10.15 0.9 10.15 0.05 L9.8 -1.2 9.4 -2.75 Q9.4 -3.9 10.4 -5.05 L11.4 -6.4 Q11.4 -7.4 10.25 -7.4 L9.15 -7.1 7.75 -6.5 4.4 -6.5 Q2.55 -7.5 2.5 -9.35 2.45 -11.2 1.0 -11.9 0.1 -11.65 -0.4 -10.9 M3.75 -31.75 L4.0 -31.9 3.85 -32.0 3.75 -31.75" fill="#ff9900" fill-rule="evenodd" stroke="none"/>
    <path d="M-0.4 -10.9 Q0.1 -11.65 1.0 -11.9 2.45 -11.2 2.5 -9.35 2.55 -7.5 4.4 -6.5 L7.75 -6.5 9.15 -7.1 10.25 -7.4 Q11.4 -7.4 11.4 -6.4 L10.4 -5.05 Q9.4 -3.9 9.4 -2.75 L9.8 -1.2 10.15 0.05 Q10.15 0.9 6.65 2.45 3.35 3.9 2.1 3.9 L0.75 3.6 0.5 3.0 -0.05 3.6 -0.85 3.9 Q-1.9 3.9 -2.45 2.0 -2.85 0.45 -4.5 1.4 L-5.3 1.1 -5.9 -1.7 -6.15 -3.55 -5.65 -4.85 Q-5.15 -6.2 -5.15 -7.2 -5.15 -8.05 -4.1 -8.25 -2.55 -8.5 -1.65 -9.3 L-0.4 -10.9" fill="#ffff00" fill-rule="evenodd" stroke="none"/>
  </g>
</svg>
