<?xml version="1.0" encoding="UTF-8" standalone="no"?>
<svg xmlns:ffdec="https://www.free-decompiler.com/flash" xmlns:xlink="http://www.w3.org/1999/xlink" ffdec:objectType="shape" height="64.05px" width="67.3px" xmlns="http://www.w3.org/2000/svg">
  <g transform="matrix(1.0, 0.0, 0.0, 1.0, 28.4, 37.4)">
    <path d="M23.65 -26.55 Q24.5 -25.05 25.45 -24.15 L25.5 -24.15 26.3 -23.5 29.25 -23.4 Q30.25 -22.9 30.2 -21.6 30.1 -20.15 30.5 -19.75 32.05 -18.15 33.8 -17.6 34.9 -17.3 34.9 -16.55 34.9 -15.65 33.9 -14.4 32.9 -13.15 32.9 -11.75 32.9 -10.55 35.9 -8.25 38.9 -6.0 38.9 -5.45 38.9 -4.75 37.65 -2.2 36.55 0.0 37.15 3.85 37.45 5.65 34.65 6.6 L30.85 7.9 Q30.2 8.55 29.6 10.5 29.25 11.7 27.5 11.75 L25.65 11.75 Q24.9 12.5 23.25 15.95 22.6 17.4 19.45 18.55 19.1 20.65 18.1 20.65 17.85 20.65 16.65 19.85 L16.55 19.8 13.1 22.25 9.25 25.15 Q8.55 25.15 7.9 24.35 7.35 23.65 4.85 23.55 2.9 24.9 2.5 24.9 L0.35 24.15 0.0 24.35 Q-1.15 25.15 -5.0 25.0 -6.5 24.95 -8.1 25.8 L-10.25 26.65 -13.0 23.65 Q-16.0 20.65 -20.1 20.65 -20.7 20.65 -22.0 19.0 L-23.5 17.0 -26.15 15.25 Q-27.9 14.1 -27.9 13.3 L-27.15 5.15 Q-27.15 3.5 -28.4 -5.3 -28.4 -6.6 -27.15 -8.4 -25.9 -10.2 -25.9 -13.05 -25.9 -15.3 -26.65 -16.4 -27.4 -17.45 -27.4 -18.9 L-26.55 -21.15 -25.25 -23.25 Q-24.4 -24.15 -23.8 -25.45 L-22.9 -27.5 Q-22.5 -28.35 -20.0 -29.1 -17.7 -29.85 -17.4 -31.25 -17.1 -32.65 -13.45 -33.7 -10.15 -34.65 -7.1 -34.65 L-3.65 -34.3 Q-3.95 -34.0 -3.45 -34.0 -3.15 -34.0 -0.3 -35.65 2.6 -37.35 4.0 -37.4 L5.55 -36.4 Q6.6 -35.65 8.15 -35.5 L10.75 -35.5 Q11.6 -35.9 12.4 -36.5 12.9 -36.9 13.35 -36.9 14.5 -36.9 14.65 -35.55 L14.85 -33.4 Q15.65 -31.85 18.2 -31.5 20.85 -31.1 21.5 -30.25 L23.65 -26.55 M4.0 -31.9 L3.85 -32.0 3.75 -31.75 4.0 -31.9 M14.15 -10.35 L15.15 -12.1 11.65 -13.05 Q7.2 -14.3 3.25 -17.5 1.0 -19.9 -0.05 -17.9 -0.7 -15.2 -0.9 -14.8 -1.6 -13.25 -4.85 -11.7 -8.4 -10.05 -8.9 -9.4 L-8.9 -6.25 Q-9.0 -5.45 -10.45 -4.25 L-11.9 -2.85 Q-11.9 -2.1 -10.05 -1.4 -7.9 -0.6 -7.5 0.1 L-7.05 2.1 Q-6.75 3.4 -5.6 3.4 0.1 3.4 1.2 5.4 L1.65 6.8 Q1.85 7.4 2.6 7.4 3.8 7.4 5.75 5.75 10.4 6.35 10.8 4.8 10.45 2.45 10.85 1.25 11.1 0.6 14.0 -1.75 16.65 -3.9 16.65 -4.9 16.65 -5.6 14.9 -6.4 13.15 -7.2 13.15 -7.9 13.15 -8.65 14.15 -10.35" fill="#e38902" fill-rule="evenodd" stroke="none"/>
    <path d="M14.15 -10.35 Q13.15 -8.65 13.15 -7.9 13.15 -7.2 14.9 -6.4 16.65 -5.6 16.65 -4.9 16.65 -3.9 14.0 -1.75 11.1 0.6 10.85 1.25 10.45 2.45 10.8 4.8 10.4 6.35 5.75 5.75 3.8 7.4 2.6 7.4 1.85 7.4 1.65 6.8 L1.2 5.4 Q0.1 3.4 -5.6 3.4 -6.75 3.4 -7.05 2.1 L-7.5 0.1 Q-7.9 -0.6 -10.05 -1.4 -11.9 -2.1 -11.9 -2.85 L-10.45 -4.25 Q-9.0 -5.45 -8.9 -6.25 L-8.9 -9.4 Q-8.4 -10.05 -4.85 -11.7 -1.6 -13.25 -0.9 -14.8 -0.7 -15.2 -0.05 -17.9 1.0 -19.9 3.25 -17.5 7.2 -14.3 11.65 -13.05 L15.15 -12.1 14.15 -10.35" fill="#ecec02" fill-rule="evenodd" stroke="none"/>
  </g>
</svg>
