<?xml version="1.0" encoding="UTF-8" standalone="no"?>
<svg xmlns:ffdec="https://www.free-decompiler.com/flash" xmlns:xlink="http://www.w3.org/1999/xlink" ffdec:objectType="shape" height="60.0px" width="800.0px" xmlns="http://www.w3.org/2000/svg">
  <g transform="matrix(1.0, 0.0, 0.0, 1.0, 0.0, -480.0)">
    <path d="M800.0 540.0 L0.0 540.0 0.0 480.0 800.0 480.0 800.0 540.0 M149.0 537.05 L149.0 485.05 149.0 537.05 M148.0 537.05 L148.0 485.05 148.0 537.05 M150.0 537.05 L150.0 485.05 150.0 537.05" fill="url(#gradient0)" fill-rule="evenodd" stroke="none"/>
    <path d="M149.0 485.05 L149.0 537.05" fill="none" stroke="#333333" stroke-linecap="round" stroke-linejoin="round" stroke-width="1.0"/>
    <path d="M150.0 485.05 L150.0 537.05 M148.0 485.05 L148.0 537.05" fill="none" stroke="#999999" stroke-linecap="round" stroke-linejoin="round" stroke-width="1.0"/>
    <path d="M736.0 489.0 Q736.0 484.0 741.0 484.0 L791.0 484.0 Q796.0 484.0 796.0 489.0 L796.0 504.0 Q796.0 509.0 791.0 509.0 L741.0 509.0 Q736.0 509.0 736.0 504.0 L736.0 489.0 M289.0 484.0 Q294.0 484.0 294.0 489.0 L294.0 514.0 293.9 515.5 294.0 517.0 294.0 532.0 Q294.0 537.0 289.0 537.0 L159.0 537.0 Q154.0 537.0 154.0 532.0 L154.0 517.0 Q154.0 516.2 154.15 515.5 L154.0 514.0 154.0 489.0 Q154.0 484.0 159.0 484.0 L289.0 484.0 M9.0 537.0 Q4.0 537.0 4.0 532.0 L4.0 517.0 Q4.0 512.0 9.0 512.0 L139.0 512.0 Q144.0 512.0 144.0 517.0 L144.0 532.0 Q144.0 537.0 139.0 537.0 L9.0 537.0 M139.0 484.0 Q144.0 484.0 144.0 489.0 L144.0 504.0 Q144.0 509.0 139.0 509.0 L9.0 509.0 Q4.0 509.0 4.0 504.0 L4.0 489.0 Q4.0 484.0 9.0 484.0 L139.0 484.0" fill="#000000" fill-opacity="0.29803923" fill-rule="evenodd" stroke="none"/>
    <path d="M730.5 485.05 L730.5 537.05 M732.5 485.05 L732.5 537.05 M300.0 485.05 L300.0 537.05 M298.0 485.05 L298.0 537.05 M567.5 485.05 L567.5 537.05 M565.5 485.05 L565.5 537.05" fill="none" stroke="#999999" stroke-linecap="round" stroke-linejoin="round" stroke-width="1.0"/>
    <path d="M731.5 485.05 L731.5 537.05 M299.0 485.05 L299.0 537.05 M566.5 485.05 L566.5 537.05" fill="none" stroke="#333333" stroke-linecap="round" stroke-linejoin="round" stroke-width="1.0"/>
  </g>
  <defs>
    <linearGradient gradientTransform="matrix(0.0, -0.0269, 0.4883, 0.0, 400.0, 511.95)" gradientUnits="userSpaceOnUse" id="gradient0" spreadMethod="pad" x1="-819.2" x2="819.2">
      <stop offset="0.0" stop-color="#273510"/>
      <stop offset="1.0" stop-color="#56712c"/>
    </linearGradient>
  </defs>
</svg>
