<?xml version="1.0" encoding="UTF-8" standalone="no"?>
<svg xmlns:ffdec="https://www.free-decompiler.com/flash" xmlns:xlink="http://www.w3.org/1999/xlink" ffdec:objectType="shape" height="73.9px" width="83.3px" xmlns="http://www.w3.org/2000/svg">
  <g transform="matrix(1.0, 0.0, 0.0, 1.0, 35.65, 43.25)">
    <path d="M23.9 -34.3 Q24.35 -32.3 25.25 -31.75 26.5 -31.05 34.0 -30.4 34.9 -29.7 34.9 -29.25 34.15 -26.05 34.15 -25.5 34.15 -23.3 36.65 -22.15 39.15 -20.95 39.15 -17.8 39.15 -15.25 42.55 -11.65 L45.9 -8.25 44.65 -6.95 Q43.4 -6.0 43.4 -5.0 43.4 -3.65 45.55 -0.85 47.65 1.9 47.65 2.75 47.65 4.25 43.65 5.3 39.65 6.3 39.65 9.05 L39.9 9.95 40.15 10.8 Q40.15 11.65 38.15 12.2 35.55 12.95 34.25 14.35 34.05 14.55 33.35 16.65 32.75 18.4 32.0 18.4 L31.25 18.1 30.65 17.75 Q28.1 17.75 26.25 19.0 L23.6 21.15 Q21.6 22.75 21.8 23.25 L16.95 23.0 Q12.3 23.0 10.4 25.6 L9.4 27.35 Q8.9 28.15 8.35 28.15 7.9 28.15 6.7 27.45 5.5 26.75 3.8 26.75 1.55 26.75 -0.2 28.7 -1.95 30.65 -3.5 30.65 -4.35 30.65 -8.8 28.6 -13.2 26.5 -15.75 26.5 -18.15 26.5 -19.1 27.2 -20.05 27.9 -20.25 27.9 -21.0 27.9 -21.7 25.75 L-22.75 22.75 Q-23.6 21.35 -26.0 21.05 -28.05 20.75 -28.65 18.25 -29.2 15.9 -31.6 11.75 L-33.9 8.0 -32.9 5.6 Q-31.9 3.35 -31.9 1.25 -31.9 -1.75 -33.75 -3.3 -35.65 -4.8 -35.65 -5.15 -35.65 -5.8 -34.05 -6.75 -32.35 -7.8 -32.05 -8.55 L-31.65 -10.5 -31.4 -12.35 Q-31.4 -13.05 -32.25 -14.95 -33.15 -16.9 -33.15 -17.65 -33.15 -18.6 -29.95 -20.1 -26.95 -21.5 -27.4 -23.5 -27.15 -25.55 -27.15 -29.75 -27.15 -32.1 -23.65 -33.3 -19.2 -34.8 -19.0 -35.0 -18.0 -35.95 -17.95 -38.05 -17.9 -40.2 -17.0 -41.15 -8.65 -41.4 -7.7 -42.3 L-7.4 -42.9 -5.75 -43.15 Q-4.5 -43.15 -3.3 -41.95 -2.1 -40.75 -0.6 -40.75 0.25 -40.75 4.85 -42.5 8.55 -43.9 9.75 -42.75 12.4 -40.8 12.95 -39.5 L20.75 -39.15 Q22.45 -39.15 23.2 -37.05 23.7 -34.7 23.9 -34.3 M19.3 -13.2 Q17.9 -14.85 17.9 -15.8 17.9 -17.4 15.85 -18.55 L13.1 -20.15 Q11.75 -22.05 6.05 -23.1 L0.0 -23.9 Q-1.55 -23.8 -1.5 -22.15 L-1.4 -19.75 -3.05 -20.05 Q-3.45 -20.4 -4.35 -20.4 -5.65 -20.4 -6.15 -19.2 -6.45 -17.8 -6.65 -17.5 -8.7 -17.85 -8.8 -16.5 -8.6 -14.6 -9.0 -13.75 -12.35 -13.35 -12.45 -12.15 -11.9 -10.6 -11.9 -9.9 -12.05 -8.55 -13.6 -7.05 L-15.15 -5.6 -13.95 -4.4 Q-12.65 -3.25 -12.25 -2.3 L-12.0 -0.2 Q-11.9 0.65 -10.0 0.85 -8.55 1.05 -7.25 4.6 -6.0 8.15 -5.75 8.15 -5.45 8.15 -5.2 7.85 -4.9 7.5 -2.85 7.5 0.55 7.5 0.95 9.35 1.2 10.35 0.85 12.1 L1.75 12.4 Q2.65 11.8 3.15 10.05 3.7 8.4 5.15 7.5 L7.5 7.5 Q8.1 7.7 9.35 8.5 L10.75 9.15 Q11.7 9.15 11.8 6.75 11.9 4.35 12.65 4.35 L14.0 4.5 Q14.4 4.45 14.4 3.45 L14.15 2.5 13.9 1.55 Q13.9 -0.45 16.4 -1.9 18.9 -3.3 18.9 -4.0 18.9 -5.0 17.4 -5.85 15.9 -6.7 15.9 -8.05 15.9 -10.2 19.75 -10.25 20.65 -10.45 20.65 -11.25 L19.3 -13.2" fill="#ff6600" fill-rule="evenodd" stroke="none"/>
    <path d="M19.3 -13.2 L20.65 -11.25 Q20.65 -10.45 19.75 -10.25 15.9 -10.2 15.9 -8.05 15.9 -6.7 17.4 -5.85 18.9 -5.0 18.9 -4.0 18.9 -3.3 16.4 -1.9 13.9 -0.45 13.9 1.55 L14.15 2.5 14.4 3.45 Q14.4 4.45 14.0 4.5 L12.65 4.35 Q11.9 4.35 11.8 6.75 11.7 9.15 10.75 9.15 L9.35 8.5 Q8.1 7.7 7.5 7.5 L5.15 7.5 Q3.7 8.4 3.15 10.05 2.65 11.8 1.75 12.4 L0.85 12.1 Q1.2 10.35 0.95 9.35 0.55 7.5 -2.85 7.5 -4.9 7.5 -5.2 7.85 -5.45 8.15 -5.75 8.15 -6.0 8.15 -7.25 4.6 -8.55 1.05 -10.0 0.85 -11.9 0.65 -12.0 -0.2 L-12.25 -2.3 Q-12.65 -3.25 -13.95 -4.4 L-15.15 -5.6 -13.6 -7.05 Q-12.05 -8.55 -11.9 -9.9 -11.9 -10.6 -12.45 -12.15 -12.35 -13.35 -9.0 -13.75 -8.6 -14.6 -8.8 -16.5 -8.7 -17.85 -6.65 -17.5 -6.45 -17.8 -6.15 -19.2 -5.65 -20.4 -4.35 -20.4 -3.45 -20.4 -3.05 -20.05 L-1.4 -19.75 -1.5 -22.15 Q-1.55 -23.8 0.0 -23.9 L6.05 -23.1 Q11.75 -22.05 13.1 -20.15 L15.85 -18.55 Q17.9 -17.4 17.9 -15.8 17.9 -14.85 19.3 -13.2" fill="#ffcc00" fill-rule="evenodd" stroke="none"/>
  </g>
</svg>
