<?xml version="1.0" encoding="UTF-8" standalone="no"?>
<svg xmlns:ffdec="https://www.free-decompiler.com/flash" xmlns:xlink="http://www.w3.org/1999/xlink" ffdec:objectType="shape" height="82.35px" width="92.55px" xmlns="http://www.w3.org/2000/svg">
  <g transform="matrix(1.0, 0.0, 0.0, 1.0, 39.9, 48.95)">
    <path d="M18.4 -21.6 L18.15 -20.8 17.9 -20.0 Q17.9 -19.45 19.8 -16.2 L22.0 -12.25 22.15 -10.35 Q22.15 -9.1 22.5 -8.5 23.25 -7.05 24.25 -6.25 24.9 -5.8 24.9 -4.75 24.9 -2.6 23.0 0.25 21.1 3.1 21.15 6.1 L21.2 8.75 Q20.8 10.5 18.5 11.35 L10.05 13.25 2.1 14.65 Q-0.15 14.65 -1.95 12.7 L-4.0 10.75 Q-4.85 10.75 -5.55 11.95 -6.25 13.15 -7.35 13.15 -9.0 13.15 -11.75 8.35 L-14.15 3.55 -13.75 -0.35 -12.9 -5.65 -12.9 -10.15 Q-12.9 -12.5 -11.5 -12.9 -10.15 -13.3 -10.15 -14.4 -10.15 -15.3 -10.5 -16.25 L-10.9 -17.65 -10.4 -22.25 Q-9.35 -24.65 -6.0 -24.9 -2.25 -25.2 -1.3 -26.4 -0.15 -27.9 8.15 -25.45 L17.35 -22.65 Q18.35 -22.65 18.4 -21.6" fill="#ff9900" fill-rule="evenodd" stroke="none"/>
    <path d="M33.85 -38.0 Q34.1 -36.95 36.45 -35.25 39.1 -33.3 39.75 -32.25 39.95 -31.9 41.6 -30.8 L43.5 -29.25 Q43.75 -28.8 43.65 -27.8 L43.65 -26.4 Q43.95 -25.55 45.2 -23.45 L46.75 -20.55 Q52.65 0.8 52.65 2.6 L51.9 5.95 Q51.15 9.2 51.15 10.25 51.15 13.9 48.7 15.4 45.75 16.45 44.75 17.0 L38.95 20.45 32.5 24.25 Q29.25 26.0 25.15 27.4 19.75 29.25 16.15 29.25 14.75 29.25 11.85 31.35 9.0 33.4 6.6 33.4 5.4 33.4 3.6 32.65 L-3.75 32.4 -6.75 32.4 -7.85 31.65 -8.9 30.75 -14.25 30.9 Q-15.95 30.9 -19.3 29.15 L-22.9 27.25 -24.75 27.25 Q-25.05 27.9 -25.75 27.9 -26.15 27.9 -27.0 25.35 -27.9 22.45 -28.75 21.75 -30.4 20.35 -34.9 18.8 -38.9 17.45 -38.9 17.3 L-37.75 15.3 Q-36.65 13.35 -36.65 12.05 -36.65 10.2 -37.5 8.55 -38.4 6.95 -38.4 5.65 L-37.9 1.65 Q-37.9 0.5 -38.9 -2.15 -39.9 -4.8 -39.9 -6.0 -39.9 -7.35 -38.4 -8.9 -36.9 -10.5 -36.9 -13.15 -36.9 -14.15 -37.9 -17.2 L-38.9 -20.25 -36.3 -22.9 Q-33.7 -25.55 -33.5 -27.0 -33.25 -29.0 -33.65 -33.55 -33.65 -34.9 -33.05 -35.4 L-29.15 -37.9 Q-27.85 -38.65 -27.15 -40.5 -26.45 -42.25 -25.9 -42.5 L-21.15 -44.4 -20.0 -45.6 -18.25 -46.55 -13.4 -47.45 Q-10.0 -48.1 -9.25 -48.5 L-6.2 -48.55 Q-4.3 -47.5 -3.65 -47.5 L1.1 -47.5 Q1.45 -48.15 2.1 -48.15 L3.4 -47.55 Q4.35 -47.0 5.3 -47.0 5.95 -47.0 6.8 -47.55 7.6 -48.15 7.85 -48.15 8.75 -48.15 8.85 -47.25 L8.75 -46.25 Q12.65 -46.4 13.55 -46.9 14.35 -47.4 15.1 -47.4 15.7 -47.4 19.3 -45.4 22.9 -43.4 28.35 -43.4 L30.8 -41.95 Q33.3 -40.1 33.85 -38.0 M18.4 -21.6 Q18.35 -22.65 17.35 -22.65 L8.15 -25.45 Q-0.15 -27.9 -1.3 -26.4 -2.25 -25.2 -6.0 -24.9 -9.35 -24.65 -10.4 -22.25 L-10.9 -17.65 -10.5 -16.25 Q-10.15 -15.3 -10.15 -14.4 -10.15 -13.3 -11.5 -12.9 -12.9 -12.5 -12.9 -10.15 L-12.9 -5.65 -13.75 -0.35 -14.15 3.55 -11.75 8.35 Q-9.0 13.15 -7.35 13.15 -6.25 13.15 -5.55 11.95 -4.85 10.75 -4.0 10.75 L-1.95 12.7 Q-0.15 14.65 2.1 14.65 L10.05 13.25 18.5 11.35 Q20.8 10.5 21.2 8.75 L21.15 6.1 Q21.1 3.1 23.0 0.25 24.9 -2.6 24.9 -4.75 24.9 -5.8 24.25 -6.25 23.25 -7.05 22.5 -8.5 22.15 -9.1 22.15 -10.35 L22.0 -12.25 19.8 -16.2 Q17.9 -19.45 17.9 -20.0 L18.15 -20.8 18.4 -21.6" fill="#ff3300" fill-rule="evenodd" stroke="none"/>
  </g>
</svg>
