<?xml version="1.0" encoding="UTF-8" standalone="no"?>
<svg xmlns:ffdec="https://www.free-decompiler.com/flash" xmlns:xlink="http://www.w3.org/1999/xlink" ffdec:objectType="shape" height="93.6px" width="111.05px" xmlns="http://www.w3.org/2000/svg">
  <g transform="matrix(1.0, 0.0, 0.0, 1.0, 44.65, 58.95)">
    <path d="M1.15 -53.0 L8.75 -52.9 Q9.65 -52.5 9.65 -51.9 9.65 -51.25 8.55 -51.05 7.4 -50.85 7.4 -49.95 7.4 -49.65 8.0 -49.5 L12.15 -48.25 21.5 -48.15 Q22.55 -47.7 22.55 -46.9 22.6 -45.85 23.0 -45.4 23.35 -45.05 25.0 -44.4 26.4 -43.85 26.4 -43.25 L26.05 -42.2 25.65 -41.3 Q25.65 -40.4 26.7 -40.4 L33.75 -40.65 Q34.5 -39.2 35.9 -37.95 38.75 -35.45 43.75 -36.4 47.6 -31.4 49.9 -24.75 50.9 -21.7 57.95 -18.1 64.65 -14.65 64.65 -13.55 L62.55 -11.25 Q60.4 -9.0 60.4 -6.9 60.4 -4.5 63.4 -0.95 L66.4 2.55 63.6 4.25 Q60.45 6.5 58.85 9.4 L58.8 13.1 Q58.75 15.25 55.75 15.0 L53.25 15.0 Q52.0 15.95 47.0 18.75 L42.25 21.4 Q41.4 21.4 40.05 19.95 38.65 18.5 37.05 18.5 L32.75 22.6 Q27.75 26.8 21.1 27.15 20.45 28.35 18.8 29.4 L16.6 30.9 11.1 34.65 Q10.45 34.65 9.75 33.7 L8.0 31.6 Q4.9 28.5 -1.85 28.5 -5.35 28.5 -9.95 30.35 L-14.85 32.15 Q-15.65 32.15 -16.7 31.1 -17.75 30.0 -20.85 30.0 -23.85 30.0 -25.0 30.6 -26.15 31.15 -26.85 31.15 -28.65 31.15 -30.85 29.6 L-33.65 27.75 -37.05 26.55 Q-39.3 25.8 -43.0 25.4 -43.9 24.7 -43.9 24.25 -43.15 21.4 -43.15 20.8 -43.15 19.4 -43.9 17.55 L-44.65 15.3 Q-44.65 14.4 -42.4 13.05 -40.15 11.7 -40.15 9.4 -40.15 8.15 -40.9 6.45 L-41.65 4.45 -40.4 1.15 Q-39.15 -2.2 -39.15 -2.9 -39.15 -4.25 -39.65 -6.35 -40.15 -8.4 -40.15 -10.25 -40.15 -12.2 -38.65 -14.4 -37.15 -16.55 -37.15 -18.1 -37.15 -18.9 -38.15 -22.05 -38.15 -23.65 -35.65 -25.6 -33.15 -27.55 -33.15 -30.95 -33.15 -31.7 -33.9 -34.1 -34.65 -36.5 -34.65 -37.6 -34.65 -39.25 -32.25 -41.15 -29.9 -43.1 -29.9 -46.3 L-30.15 -47.6 -30.4 -48.95 Q-30.4 -50.3 -30.2 -50.5 L-27.8 -52.4 Q-26.85 -53.15 -26.8 -53.9 -26.75 -54.8 -26.15 -55.55 -25.6 -56.25 -22.95 -57.1 -20.25 -57.9 -19.75 -58.5 -19.4 -58.9 -18.45 -58.95 L-16.8 -58.65 Q-15.95 -58.3 -14.15 -58.3 L-10.75 -58.4 Q-9.05 -58.4 -6.4 -57.55 -3.5 -56.6 -0.75 -56.4 0.25 -56.0 0.2 -54.65 0.1 -53.35 1.15 -53.0 M21.7 -28.5 Q21.75 -29.55 21.0 -30.15 12.95 -30.25 10.5 -33.35 L9.2 -34.5 Q8.4 -34.55 6.0 -33.0 L-0.5 -33.0 -3.75 -33.15 -5.85 -31.95 Q-6.85 -31.2 -7.5 -30.0 -11.3 -29.95 -12.55 -28.95 L-13.75 -27.3 Q-15.0 -26.15 -17.2 -25.65 -18.65 -25.35 -18.65 -24.25 L-16.9 -19.2 Q-15.15 -14.1 -15.15 -13.5 -15.15 -11.9 -16.35 -9.2 -17.6 -6.3 -18.9 -5.55 L-18.9 5.0 -20.0 7.3 Q-20.4 8.15 -20.4 9.15 L-20.45 13.15 Q-20.25 15.45 -19.0 16.4 -16.05 16.05 -11.75 17.9 -7.25 19.9 -6.25 19.9 -5.25 19.9 -3.45 18.45 -1.7 17.0 0.1 17.0 1.85 17.0 2.3 17.6 2.75 18.15 3.5 18.15 5.05 18.15 6.35 17.45 7.7 16.75 12.05 16.75 15.95 16.75 17.55 17.35 L19.35 17.9 Q21.45 17.9 22.7 15.8 L24.35 12.9 24.75 14.25 24.5 15.35 Q24.45 16.4 25.5 16.4 25.8 16.4 29.1 12.0 32.4 7.6 32.4 7.15 32.4 6.75 31.8 5.75 31.15 4.8 31.15 4.15 31.15 2.6 32.65 0.3 34.15 -2.0 34.15 -3.05 34.15 -4.6 32.05 -6.5 29.9 -8.35 29.9 -9.65 L30.3 -12.15 30.65 -14.75 Q30.65 -16.05 28.45 -17.2 26.25 -18.35 26.25 -19.05 L26.7 -21.9 Q26.85 -24.65 25.75 -24.65 21.5 -24.65 21.5 -26.7 L21.7 -28.5 M-15.05 -50.7 L-15.45 -49.7 Q-15.7 -49.05 -16.3 -49.0 L-17.4 -48.5 -18.3 -48.05 Q-22.3 -48.05 -23.15 -46.45 L-23.4 -43.3 Q-23.35 -41.4 -22.9 -39.6 -22.05 -36.0 -20.25 -36.0 -18.75 -36.0 -18.75 -37.0 L-19.0 -37.6 -19.25 -37.9 Q-15.15 -38.35 -15.5 -42.65 -15.55 -43.55 -12.3 -45.3 L-9.0 -46.95 -9.4 -48.0 Q-9.9 -48.95 -10.75 -49.25 -14.45 -51.6 -15.05 -50.7 M39.75 -15.4 Q38.75 -15.4 38.75 -14.0 38.75 -13.0 40.2 -8.85 41.9 -3.95 43.5 -2.5 L47.5 -2.5 Q48.4 -2.85 48.6 -3.35 L48.65 -4.3 48.4 -7.8 Q48.15 -9.8 48.15 -12.8 47.3 -18.8 45.75 -17.65 L43.7 -15.9 Q42.2 -14.75 40.6 -14.75 L39.75 -15.4" fill="#ff3300" fill-rule="evenodd" stroke="none"/>
    <path d="M21.7 -28.5 L21.5 -26.7 Q21.5 -24.65 25.75 -24.65 26.85 -24.65 26.7 -21.9 L26.25 -19.05 Q26.25 -18.35 28.45 -17.2 30.65 -16.05 30.65 -14.75 L30.3 -12.15 29.9 -9.65 Q29.9 -8.35 32.05 -6.5 34.15 -4.6 34.15 -3.05 34.15 -2.0 32.65 0.3 31.15 2.6 31.15 4.15 31.15 4.8 31.8 5.75 32.4 6.75 32.4 7.15 32.4 7.6 29.1 12.0 25.8 16.4 25.5 16.4 24.45 16.4 24.5 15.35 L24.75 14.25 24.35 12.9 22.7 15.8 Q21.45 17.9 19.35 17.9 L17.55 17.35 Q15.95 16.75 12.05 16.75 7.7 16.75 6.35 17.45 5.05 18.15 3.5 18.15 2.75 18.15 2.3 17.6 1.85 17.0 0.1 17.0 -1.7 17.0 -3.45 18.45 -5.25 19.9 -6.25 19.9 -7.25 19.9 -11.75 17.9 -16.05 16.05 -19.0 16.4 -20.25 15.45 -20.45 13.15 L-20.4 9.15 Q-20.4 8.15 -20.0 7.3 L-18.9 5.0 -18.9 -5.55 Q-17.6 -6.3 -16.35 -9.2 -15.15 -11.9 -15.15 -13.5 -15.15 -14.1 -16.9 -19.2 L-18.65 -24.25 Q-18.65 -25.35 -17.2 -25.65 -15.0 -26.15 -13.75 -27.3 L-12.55 -28.95 Q-11.3 -29.95 -7.5 -30.0 -6.85 -31.2 -5.85 -31.95 L-3.75 -33.15 -0.5 -33.0 6.0 -33.0 Q8.4 -34.55 9.2 -34.5 L10.5 -33.35 Q12.95 -30.25 21.0 -30.15 21.75 -29.55 21.7 -28.5 M9.0 -14.85 Q7.15 -16.9 5.75 -13.25 L3.5 -13.15 Q2.25 -12.7 2.35 -11.75 L2.75 -10.25 Q2.75 -8.85 1.75 -8.45 0.75 -8.0 0.75 -7.4 0.75 -7.05 1.3 -6.55 L2.1 -5.75 0.6 -4.45 Q-0.15 -3.65 -0.15 -3.15 -0.15 -1.6 4.2 0.5 8.15 2.4 9.85 2.4 10.7 2.4 13.1 -0.2 15.4 -2.7 15.4 -3.25 15.4 -4.05 14.25 -4.9 13.0 -5.85 12.9 -6.9 L12.8 -8.55 11.5 -10.8 9.0 -14.85 M39.75 -15.4 L40.6 -14.75 Q42.2 -14.75 43.7 -15.9 L45.75 -17.65 Q47.3 -18.8 48.15 -12.8 48.15 -9.8 48.4 -7.8 L48.65 -4.3 48.6 -3.35 Q48.4 -2.85 47.5 -2.5 L43.5 -2.5 Q41.9 -3.95 40.2 -8.85 38.75 -13.0 38.75 -14.0 38.75 -15.4 39.75 -15.4 M-15.05 -50.7 Q-14.45 -51.6 -10.75 -49.25 -9.9 -48.95 -9.4 -48.0 L-9.0 -46.95 -12.3 -45.3 Q-15.55 -43.55 -15.5 -42.65 -15.15 -38.35 -19.25 -37.9 L-19.0 -37.6 -18.75 -37.0 Q-18.75 -36.0 -20.25 -36.0 -22.05 -36.0 -22.9 -39.6 -23.35 -41.4 -23.4 -43.3 L-23.15 -46.45 Q-22.3 -48.05 -18.3 -48.05 L-17.4 -48.5 -16.3 -49.0 Q-15.7 -49.05 -15.45 -49.7 L-15.05 -50.7" fill="#ff9900" fill-rule="evenodd" stroke="none"/>
    <path d="M9.0 -14.85 L11.5 -10.8 12.8 -8.55 12.9 -6.9 Q13.0 -5.85 14.25 -4.9 15.4 -4.05 15.4 -3.25 15.4 -2.7 13.1 -0.2 10.7 2.4 9.85 2.4 8.15 2.4 4.2 0.5 -0.15 -1.6 -0.15 -3.15 -0.15 -3.65 0.6 -4.45 L2.1 -5.75 1.3 -6.55 Q0.75 -7.05 0.75 -7.4 0.75 -8.0 1.75 -8.45 2.75 -8.85 2.75 -10.25 L2.35 -11.75 Q2.25 -12.7 3.5 -13.15 L5.75 -13.25 Q7.15 -16.9 9.0 -14.85" fill="#ffff00" fill-rule="evenodd" stroke="none"/>
  </g>
</svg>
