<?xml version="1.0" encoding="UTF-8" standalone="no"?>
<svg xmlns:ffdec="https://www.free-decompiler.com/flash" xmlns:xlink="http://www.w3.org/1999/xlink" ffdec:objectType="shape" height="106.05px" width="128.55px" xmlns="http://www.w3.org/2000/svg">
  <g transform="matrix(1.0, 0.0, 0.0, 1.0, 48.4, 63.15)">
    <path d="M44.5 -55.4 Q44.8 -55.4 45.2 -54.05 45.8 -52.15 46.45 -51.05 49.0 -46.75 55.55 -46.75 58.6 -46.75 59.1 -47.45 59.6 -48.15 60.25 -48.15 61.35 -48.15 61.1 -46.2 60.85 -43.9 61.65 -43.15 64.1 -41.05 68.1 -40.1 L71.4 -39.15 Q71.4 -38.5 69.15 -36.4 66.9 -34.3 66.9 -33.2 66.9 -31.7 68.4 -30.4 70.55 -28.65 75.0 -28.4 75.9 -28.0 75.9 -27.35 L74.4 -24.55 Q72.9 -21.75 72.9 -19.3 72.9 -15.65 76.55 -12.4 L80.15 -9.2 78.4 -5.3 Q76.4 -1.25 75.85 0.4 75.55 1.3 75.35 6.35 75.2 9.9 73.75 9.9 73.0 9.9 72.65 8.95 L72.15 8.0 Q70.6 8.0 68.7 10.6 67.35 12.45 66.4 14.6 65.85 15.95 65.65 17.9 65.05 19.45 61.65 20.9 59.35 21.95 56.55 23.9 53.7 25.9 52.25 27.5 L49.95 30.9 48.1 33.65 Q47.0 33.65 46.9 33.2 L46.9 32.25 42.15 35.95 Q38.25 39.15 37.6 39.15 36.95 39.15 35.7 38.35 34.45 37.5 31.6 37.5 29.1 37.5 26.1 39.35 L23.0 41.15 Q22.4 41.15 21.35 40.2 20.25 39.25 19.15 39.25 14.05 39.25 11.6 41.1 L8.85 42.9 Q7.95 41.65 5.95 40.6 2.0 38.55 -3.75 39.65 L-5.4 38.0 Q-6.5 36.5 -7.5 36.5 L-12.15 36.95 -13.35 37.4 Q-15.2 36.25 -17.7 35.1 -22.65 32.75 -26.75 32.75 -27.45 32.75 -28.5 33.25 L-29.75 33.9 -30.55 33.6 -30.75 32.2 Q-30.95 31.35 -31.5 31.0 L-39.4 31.4 -42.25 32.15 -43.6 28.05 Q-45.0 23.5 -45.9 22.25 L-47.5 22.15 Q-48.35 21.5 -48.4 20.9 L-47.5 16.15 Q-46.65 11.8 -46.65 10.65 -46.65 9.3 -47.4 8.8 -48.15 8.25 -48.15 7.25 L-46.5 2.6 Q-44.9 -2.1 -44.9 -4.8 -44.9 -6.55 -45.9 -8.25 -46.9 -9.9 -46.9 -10.55 L-44.4 -14.35 Q-41.9 -17.85 -41.9 -21.6 -41.9 -23.45 -42.75 -25.9 L-43.65 -28.25 -40.5 -32.55 Q-37.4 -36.55 -37.4 -40.0 -37.4 -41.0 -37.75 -42.05 L-38.15 -43.55 Q-38.15 -44.6 -36.7 -46.55 L-34.3 -49.5 Q-33.45 -50.6 -33.5 -52.5 -33.5 -54.9 -33.3 -55.5 -33.0 -56.65 -29.1 -57.85 -24.75 -59.2 -24.05 -59.9 L-20.75 -63.15 -16.0 -62.65 Q-15.25 -62.65 -15.1 -62.1 L-14.85 -60.95 Q-14.25 -59.25 -10.0 -59.25 -7.45 -59.25 -3.9 -60.3 L0.25 -61.4 Q0.9 -61.4 3.05 -59.45 5.2 -57.5 6.5 -57.5 11.5 -57.5 12.55 -58.3 13.55 -59.15 14.0 -59.15 14.6 -59.15 16.9 -57.55 19.15 -56.0 20.0 -56.0 26.95 -56.0 27.5 -56.7 L27.45 -57.2 28.25 -57.4 29.4 -55.6 Q30.45 -53.7 31.25 -53.25 L38.75 -53.25 42.0 -54.55 Q44.0 -55.4 44.5 -55.4 M26.9 -25.3 Q26.9 -26.85 22.25 -31.25 17.25 -35.9 14.35 -35.9 13.75 -35.9 13.15 -35.55 L10.55 -35.25 1.3 -34.85 -4.65 -33.0 -10.85 -31.55 -10.4 -32.6 Q-9.9 -33.75 -9.25 -33.75 L-7.15 -33.55 Q-6.5 -33.55 -6.5 -34.4 L-6.75 -35.15 -7.0 -35.95 Q-7.0 -37.85 -4.75 -39.3 -2.5 -40.75 -2.5 -41.45 -2.5 -42.0 -3.1 -42.9 L-3.75 -44.1 Q-3.75 -45.5 -2.75 -47.0 L-1.75 -48.6 Q-1.75 -49.6 -3.35 -50.5 -5.65 -51.75 -6.05 -52.15 -6.65 -52.8 -7.8 -53.05 L-9.65 -53.0 -14.9 -53.5 -19.5 -53.8 Q-20.85 -53.4 -22.85 -50.85 -24.9 -48.25 -24.9 -46.9 L-24.4 -44.95 Q-23.9 -43.25 -23.9 -42.4 -23.9 -41.3 -25.5 -38.85 -27.15 -36.35 -27.15 -32.8 -27.2 -31.8 -26.9 -30.85 -26.3 -29.0 -24.35 -29.0 -23.65 -29.0 -23.25 -29.35 -22.85 -29.75 -22.5 -29.75 L-20.7 -29.35 -19.5 -28.75 -18.35 -28.75 Q-24.4 -23.35 -24.4 -18.3 L-24.0 -16.65 -23.65 -15.15 -25.0 -12.95 Q-26.4 -10.7 -26.4 -8.8 -26.4 -6.7 -25.1 -3.45 -23.8 -0.55 -23.8 -0.25 L-24.85 2.0 Q-25.9 4.25 -25.9 6.4 -25.9 8.85 -25.1 11.2 L-23.15 16.5 Q-23.0 17.0 -22.8 18.9 -22.6 20.4 -22.0 21.6 -20.8 23.75 -16.55 24.95 -13.15 25.9 -9.35 25.9 -6.6 25.9 -5.2 24.4 L-3.65 22.15 -1.9 23.5 Q0.15 24.65 3.35 24.65 L6.15 24.35 Q6.8 24.0 8.45 24.0 L17.15 24.25 Q18.1 24.2 18.5 23.7 18.85 23.25 19.1 23.25 L28.65 22.35 Q32.65 21.4 33.35 19.5 L33.55 18.35 Q33.65 17.8 34.6 16.9 L36.25 15.4 36.4 14.0 Q36.4 12.9 36.0 12.15 35.5 11.15 34.0 10.0 35.8 8.85 36.25 7.4 L36.4 5.1 Q36.4 2.7 35.9 1.15 L34.65 -0.8 Q33.65 -2.2 33.65 -2.9 33.65 -5.6 33.05 -7.85 32.4 -10.05 32.4 -11.05 32.4 -11.9 33.15 -16.6 33.05 -17.75 32.25 -18.4 L28.5 -18.5 Q27.9 -19.1 27.1 -21.35 26.4 -23.4 26.4 -24.0 L26.65 -24.65 26.9 -25.3 M39.75 -46.75 L36.65 -46.75 33.75 -47.65 Q32.0 -47.65 31.1 -45.9 30.5 -44.75 30.5 -43.55 30.5 -42.05 31.9 -39.15 L33.25 -36.55 Q33.25 -34.1 34.35 -32.4 36.75 -28.75 43.6 -28.75 45.3 -28.75 47.1 -31.25 48.65 -33.35 48.65 -34.25 L48.3 -35.55 47.9 -36.65 Q47.9 -37.05 49.55 -38.4 51.15 -39.7 51.15 -40.6 51.15 -42.55 50.3 -43.25 48.95 -44.3 44.0 -45.25 L42.4 -47.45 Q41.1 -48.9 39.75 -46.75 M38.2 -16.65 Q36.25 -15.2 36.25 -13.0 L35.35 -9.05 35.25 -6.05 Q35.25 -3.25 36.4 -2.5 L40.25 0.5 Q42.1 3.15 44.15 5.1 47.35 8.15 49.85 8.15 52.05 8.15 53.4 6.85 54.4 5.9 54.4 5.0 L53.65 3.15 Q52.9 1.65 52.9 0.5 52.9 -0.2 53.55 -1.7 54.15 -3.15 54.15 -4.55 54.15 -6.7 52.8 -8.15 51.4 -9.55 51.4 -10.55 L51.8 -11.45 52.15 -12.8 Q52.15 -14.4 51.45 -15.3 50.15 -16.65 49.0 -18.25 45.15 -21.85 44.2 -20.4 43.9 -18.25 43.6 -18.25 40.3 -18.25 38.2 -16.65" fill="#ff3300" fill-rule="evenodd" stroke="none"/>
    <path d="M39.75 -46.75 Q41.1 -48.9 42.4 -47.45 L44.0 -45.25 Q48.95 -44.3 50.3 -43.25 51.15 -42.55 51.15 -40.6 51.15 -39.7 49.55 -38.4 47.9 -37.05 47.9 -36.65 L48.3 -35.55 48.65 -34.25 Q48.65 -33.35 47.1 -31.25 45.3 -28.75 43.6 -28.75 36.75 -28.75 34.35 -32.4 33.25 -34.1 33.25 -36.55 L31.9 -39.15 Q30.5 -42.05 30.5 -43.55 30.5 -44.75 31.1 -45.9 32.0 -47.65 33.75 -47.65 L36.65 -46.75 39.75 -46.75 M26.9 -25.3 L26.65 -24.65 26.4 -24.0 Q26.4 -23.4 27.1 -21.35 27.9 -19.1 28.5 -18.5 L32.25 -18.4 Q33.05 -17.75 33.15 -16.6 32.4 -11.9 32.4 -11.05 32.4 -10.05 33.05 -7.85 33.65 -5.6 33.65 -2.9 33.65 -2.2 34.65 -0.8 L35.9 1.15 Q36.4 2.7 36.4 5.1 L36.25 7.4 Q35.8 8.85 34.0 10.0 35.5 11.15 36.0 12.15 36.4 12.9 36.4 14.0 L36.25 15.4 34.6 16.9 Q33.65 17.8 33.55 18.35 L33.35 19.5 Q32.65 21.4 28.65 22.35 L19.1 23.25 Q18.85 23.25 18.5 23.7 18.1 24.2 17.15 24.25 L8.45 24.0 Q6.8 24.0 6.15 24.35 L3.35 24.65 Q0.15 24.65 -1.9 23.5 L-3.65 22.15 -5.2 24.4 Q-6.6 25.9 -9.35 25.9 -13.15 25.9 -16.55 24.95 -20.8 23.75 -22.0 21.6 -22.6 20.4 -22.8 18.9 -23.0 17.0 -23.15 16.5 L-25.1 11.2 Q-25.9 8.85 -25.9 6.4 -25.9 4.25 -24.85 2.0 L-23.8 -0.25 Q-23.8 -0.55 -25.1 -3.45 -26.4 -6.7 -26.4 -8.8 -26.4 -10.7 -25.0 -12.95 L-23.65 -15.15 -24.0 -16.65 -24.4 -18.3 Q-24.4 -23.35 -18.35 -28.75 L-19.5 -28.75 -20.7 -29.35 -22.5 -29.75 Q-22.85 -29.75 -23.25 -29.35 -23.65 -29.0 -24.35 -29.0 -26.3 -29.0 -26.9 -30.85 -27.2 -31.8 -27.15 -32.8 -27.15 -36.35 -25.5 -38.85 -23.9 -41.3 -23.9 -42.4 -23.9 -43.25 -24.4 -44.95 L-24.9 -46.9 Q-24.9 -48.25 -22.85 -50.85 -20.85 -53.4 -19.5 -53.8 L-14.9 -53.5 -9.65 -53.0 -7.8 -53.05 Q-6.65 -52.8 -6.05 -52.15 -5.65 -51.75 -3.35 -50.5 -1.75 -49.6 -1.75 -48.6 L-2.75 -47.0 Q-3.75 -45.5 -3.75 -44.1 L-3.1 -42.9 Q-2.5 -42.0 -2.5 -41.45 -2.5 -40.75 -4.75 -39.3 -7.0 -37.85 -7.0 -35.95 L-6.75 -35.15 -6.5 -34.4 Q-6.5 -33.55 -7.15 -33.55 L-9.25 -33.75 Q-9.9 -33.75 -10.4 -32.6 L-10.85 -31.55 -4.65 -33.0 1.3 -34.85 10.55 -35.25 13.15 -35.55 Q13.75 -35.9 14.35 -35.9 17.25 -35.9 22.25 -31.25 26.9 -26.85 26.9 -25.3 M15.9 -15.0 Q15.9 -15.75 11.85 -18.15 7.65 -20.7 6.75 -19.5 L0.4 -19.5 -0.55 -20.05 -2.35 -20.15 Q-2.9 -20.15 -6.9 -17.3 -10.9 -14.5 -10.9 -14.15 L-10.85 -12.7 Q-10.8 -11.6 -10.9 -11.0 -11.15 -9.85 -12.35 -9.1 -13.4 -8.45 -13.4 -7.65 L-12.9 -5.5 -12.4 -3.5 -12.65 -2.45 -12.9 -1.45 -10.85 1.35 Q-8.6 4.35 -8.05 6.5 -7.75 7.8 -4.2 8.3 0.45 8.95 1.75 9.6 2.25 9.85 3.6 11.75 4.75 13.4 5.6 13.4 L6.5 12.85 7.35 12.25 Q7.65 12.25 9.35 13.35 L11.35 14.4 Q12.85 14.4 14.3 12.65 L16.0 10.5 Q16.3 10.6 16.6 11.2 16.85 11.65 17.75 11.65 18.9 11.65 18.9 10.65 L17.65 8.65 Q16.4 6.95 16.4 6.0 16.4 3.5 18.8 2.05 21.15 0.55 21.15 -0.1 21.15 -1.2 20.3 -3.35 19.45 -5.6 19.4 -6.8 L17.3 -9.95 Q15.15 -12.8 15.15 -13.6 L15.55 -14.25 15.9 -15.0 M38.05 -37.1 Q38.45 -36.4 39.0 -36.0 L42.5 -36.0 Q43.4 -36.7 43.4 -37.25 43.4 -40.6 40.6 -41.15 37.75 -41.7 37.75 -37.95 37.75 -37.65 38.05 -37.1 M38.2 -16.65 Q40.3 -18.25 43.6 -18.25 43.9 -18.25 44.2 -20.4 45.15 -21.85 49.0 -18.25 50.15 -16.65 51.45 -15.3 52.15 -14.4 52.15 -12.8 L51.8 -11.45 51.4 -10.55 Q51.4 -9.55 52.8 -8.15 54.15 -6.7 54.15 -4.55 54.15 -3.15 53.55 -1.7 52.9 -0.2 52.9 0.5 52.9 1.65 53.65 3.15 L54.4 5.0 Q54.4 5.9 53.4 6.85 52.05 8.15 49.85 8.15 47.35 8.15 44.15 5.1 42.1 3.15 40.25 0.5 L36.4 -2.5 Q35.25 -3.25 35.25 -6.05 L35.35 -9.05 36.25 -13.0 Q36.25 -15.2 38.2 -16.65 M-11.5 -44.0 Q-11.5 -45.45 -12.5 -46.15 -16.1 -47.4 -17.1 -45.6 L-17.4 -43.45 -17.15 -38.6 Q-16.65 -33.75 -15.25 -33.75 -14.15 -33.75 -14.2 -36.0 L-14.25 -38.75 -12.05 -41.8 Q-11.5 -42.45 -11.5 -44.0 M46.65 -4.25 L47.4 -5.8 Q47.4 -7.6 46.1 -7.7 44.75 -7.8 44.75 -4.85 L44.75 -3.9 Q44.9 -3.0 45.75 -3.0 L46.65 -4.25 M-16.55 -29.75 L-13.35 -30.85 -14.1 -31.05 Q-15.85 -31.5 -16.5 -29.9 L-16.55 -29.75" fill="#ff9900" fill-rule="evenodd" stroke="none"/>
    <path d="M38.05 -37.1 Q37.75 -37.65 37.75 -37.95 37.75 -41.7 40.6 -41.15 43.4 -40.6 43.4 -37.25 43.4 -36.7 42.5 -36.0 L39.0 -36.0 Q38.45 -36.4 38.05 -37.1 M15.9 -15.0 L15.55 -14.25 15.15 -13.6 Q15.15 -12.8 17.3 -9.95 L19.4 -6.8 Q19.45 -5.6 20.3 -3.35 21.15 -1.2 21.15 -0.1 21.15 0.55 18.8 2.05 16.4 3.5 16.4 6.0 16.4 6.95 17.65 8.65 L18.9 10.65 Q18.9 11.65 17.75 11.65 16.85 11.65 16.6 11.2 16.3 10.6 16.0 10.5 L14.3 12.65 Q12.85 14.4 11.35 14.4 L9.35 13.35 Q7.65 12.25 7.35 12.25 L6.5 12.85 5.6 13.4 Q4.75 13.4 3.6 11.75 2.25 9.85 1.75 9.6 0.45 8.95 -4.2 8.3 -7.75 7.8 -8.05 6.5 -8.6 4.35 -10.85 1.35 L-12.9 -1.45 -12.65 -2.45 -12.4 -3.5 -12.9 -5.5 -13.4 -7.65 Q-13.4 -8.45 -12.35 -9.1 -11.15 -9.85 -10.9 -11.0 -10.8 -11.6 -10.85 -12.7 L-10.9 -14.15 Q-10.9 -14.5 -6.9 -17.3 -2.9 -20.15 -2.35 -20.15 L-0.55 -20.05 0.4 -19.5 6.75 -19.5 Q7.65 -20.7 11.85 -18.15 15.9 -15.75 15.9 -15.0 M46.65 -4.25 L45.75 -3.0 Q44.9 -3.0 44.75 -3.9 L44.75 -4.85 Q44.75 -7.8 46.1 -7.7 47.4 -7.6 47.4 -5.8 L46.65 -4.25 M-11.5 -44.0 Q-11.5 -42.45 -12.05 -41.8 L-14.25 -38.75 -14.2 -36.0 Q-14.15 -33.75 -15.25 -33.75 -16.65 -33.75 -17.15 -38.6 L-17.4 -43.45 -17.1 -45.6 Q-16.1 -47.4 -12.5 -46.15 -11.5 -45.45 -11.5 -44.0" fill="#ffcc00" fill-rule="evenodd" stroke="none"/>
  </g>
</svg>
