<?xml version="1.0" encoding="UTF-8" standalone="no"?>
<svg xmlns:ffdec="https://www.free-decompiler.com/flash" xmlns:xlink="http://www.w3.org/1999/xlink" ffdec:objectType="shape" height="126.75px" width="124.8px" xmlns="http://www.w3.org/2000/svg">
  <g transform="matrix(1.0, 0.0, 0.0, 1.0, 52.4, 80.35)">
    <path d="M54.6 -62.9 Q57.3 -62.15 61.75 -61.65 62.65 -61.25 62.65 -60.65 L62.4 -59.9 62.15 -59.1 Q62.15 -57.35 65.4 -55.85 68.65 -54.4 68.65 -53.6 68.65 -53.2 65.05 -51.15 61.4 -49.05 61.4 -46.9 61.4 -45.5 63.9 -42.8 66.4 -40.1 66.4 -39.4 66.4 -39.0 65.05 -37.1 63.65 -35.15 63.65 -33.75 63.65 -33.05 64.55 -31.55 L65.4 -29.7 Q65.4 -28.85 63.8 -27.2 62.15 -25.5 62.15 -24.4 62.15 -23.0 63.9 -20.95 65.65 -18.95 65.65 -18.1 L65.4 -17.25 65.15 -16.4 Q65.15 -16.15 65.65 -15.2 L66.15 -13.8 65.8 -12.95 65.4 -12.1 66.2 -10.05 67.5 -6.5 Q67.6 -6.15 70.05 -3.95 72.4 -1.9 72.4 -1.05 L71.55 2.65 Q70.65 5.25 70.65 6.55 L70.9 7.7 71.15 8.85 Q71.15 10.05 68.3 11.6 65.4 13.15 65.4 15.9 L65.9 21.05 Q65.9 22.1 65.45 22.55 64.4 23.55 63.6 24.9 63.4 25.25 63.35 26.8 63.3 27.95 62.25 28.4 L54.65 28.5 Q53.4 29.2 52.8 31.4 52.35 33.35 49.75 34.1 48.8 34.4 46.0 37.05 L43.35 39.65 Q42.7 39.65 42.25 39.2 L41.4 38.5 Q36.35 40.05 35.05 41.1 L32.4 41.5 Q28.6 41.5 26.45 42.35 L24.1 43.15 22.2 42.75 20.75 42.0 18.65 42.0 Q18.4 42.3 13.1 43.85 L6.85 45.4 4.95 43.95 Q3.45 42.5 2.65 42.5 0.2 42.5 -2.55 44.45 -5.3 46.4 -9.1 46.4 -9.95 46.4 -11.1 45.45 -12.4 44.4 -13.0 44.25 L-19.35 43.9 Q-20.35 44.15 -20.75 43.35 -21.8 41.3 -25.1 40.3 L-29.25 39.15 Q-30.25 38.6 -30.4 37.1 -30.6 35.15 -31.0 34.45 -32.95 31.0 -45.25 30.15 -46.15 29.45 -46.15 29.0 L-45.65 26.8 Q-45.15 24.75 -45.15 23.8 -45.15 22.45 -45.5 22.05 -46.55 20.85 -50.5 20.9 -50.95 20.55 -51.7 17.15 -52.4 13.8 -52.4 12.15 -51.65 7.35 -51.65 6.55 L-49.9 3.85 Q-48.15 1.3 -48.15 -1.3 -48.15 -3.55 -49.15 -6.0 L-50.15 -8.6 -47.9 -12.0 Q-45.65 -15.35 -45.65 -18.5 -45.65 -20.95 -47.15 -23.15 L-48.65 -25.75 -47.9 -28.45 Q-47.15 -30.9 -47.15 -33.05 -47.15 -35.5 -49.65 -40.95 -49.65 -41.7 -48.95 -42.3 L-47.4 -43.5 Q-45.15 -45.65 -45.15 -50.55 -45.15 -52.15 -43.45 -53.2 -41.45 -54.35 -41.15 -55.3 -40.85 -56.2 -40.85 -57.65 L-40.9 -60.0 -41.15 -64.9 Q-41.05 -66.45 -38.75 -67.35 -36.0 -68.45 -35.75 -68.75 -35.1 -69.55 -35.4 -71.3 -35.15 -72.75 -31.9 -73.0 -27.65 -73.35 -26.25 -74.95 L-24.5 -76.9 -17.15 -77.0 -12.5 -77.7 -8.75 -77.5 -3.25 -77.5 -2.5 -78.3 -0.25 -78.65 2.4 -78.3 4.45 -78.0 Q4.85 -78.0 9.75 -79.9 14.4 -81.25 14.4 -78.6 L14.05 -77.95 13.65 -77.1 Q13.65 -76.5 13.9 -76.25 14.2 -75.9 15.5 -75.25 L17.25 -75.15 Q17.9 -74.95 18.1 -74.35 L18.15 -73.65 17.85 -71.7 Q17.5 -70.15 17.5 -69.55 17.5 -69.25 18.0 -69.0 18.45 -68.75 19.05 -68.75 20.05 -68.75 20.65 -69.45 21.3 -70.15 22.25 -70.15 23.65 -70.15 26.3 -69.2 28.95 -68.25 31.05 -68.25 L31.95 -69.05 Q32.6 -69.9 33.25 -69.9 33.95 -69.9 36.15 -69.0 L39.75 -69.0 39.95 -69.6 Q40.1 -69.9 40.75 -69.9 41.15 -69.9 42.4 -68.9 44.4 -67.9 48.5 -67.9 49.35 -67.9 49.5 -66.4 49.75 -64.7 50.9 -64.25 L54.6 -62.9 M4.05 -61.95 Q2.75 -64.1 2.4 -66.0 1.45 -71.85 -2.7 -71.4 -5.0 -71.2 -8.75 -69.8 L-16.65 -69.3 Q-20.2 -67.0 -25.15 -65.25 -26.35 -64.85 -27.55 -62.4 -28.65 -60.25 -28.65 -59.1 L-28.45 -57.7 -27.4 -55.75 Q-31.45 -53.5 -32.15 -52.75 -32.9 -51.95 -32.9 -50.0 -32.9 -49.15 -31.9 -47.65 L-30.9 -45.9 -31.2 -41.35 Q-31.15 -40.0 -29.0 -35.5 -28.6 -32.2 -28.0 -29.8 -27.05 -26.35 -24.8 -25.5 L-24.75 -25.4 Q-24.15 -23.6 -24.15 -22.4 L-24.35 -17.55 -24.4 -12.5 Q-24.3 -8.85 -25.4 -7.55 -26.4 -6.45 -28.7 -4.75 -29.9 -3.8 -29.9 -2.55 -29.9 -1.1 -28.25 0.9 -26.65 2.9 -26.65 4.75 -26.65 5.65 -27.15 6.15 -27.65 6.65 -27.65 7.3 -27.65 8.35 -27.0 9.7 -26.4 11.0 -26.4 12.1 L-26.65 13.4 -26.9 14.65 Q-26.9 16.95 -21.65 20.3 -16.4 23.65 -16.4 26.05 -16.4 27.1 -16.75 28.15 -17.15 29.25 -17.15 30.4 L-17.4 31.1 Q-17.5 31.65 -16.9 32.1 -15.15 33.4 -7.0 33.4 L-5.3 33.25 -3.75 33.0 3.25 33.0 Q5.3 33.7 9.35 36.9 10.05 36.9 11.7 35.2 14.6 33.65 21.75 34.4 L23.4 32.05 Q24.65 30.25 27.55 30.25 29.7 30.25 31.75 31.35 33.8 32.4 35.0 32.4 36.0 32.4 36.25 31.9 L36.4 31.05 35.9 27.65 Q35.9 25.35 37.15 24.4 38.4 23.45 38.4 21.95 38.4 20.8 37.95 20.05 L36.5 17.5 Q39.2 16.15 41.2 16.05 42.15 16.0 42.15 15.25 L40.9 12.2 Q39.65 9.35 39.65 8.35 39.65 7.95 40.4 7.5 L41.15 6.65 Q42.0 7.35 42.25 8.15 L43.15 11.25 Q43.8 13.15 44.75 13.15 46.65 13.15 47.6 15.55 48.5 17.9 49.5 17.9 L53.5 15.6 Q55.75 14.5 57.75 14.0 58.4 13.85 58.4 13.1 L56.9 7.9 Q56.9 6.5 58.05 4.9 L59.15 2.8 58.9 1.6 58.65 0.35 59.15 -1.0 Q59.65 -1.95 59.65 -2.7 L59.15 -5.65 Q58.65 -7.8 58.25 -8.0 L59.45 -8.9 59.9 -9.5 Q59.9 -10.3 56.55 -13.1 L52.85 -16.15 Q48.9 -20.35 44.75 -17.6 43.5 -16.75 42.3 -15.3 L41.35 -14.05 Q40.25 -14.05 38.9 -14.6 L39.4 -16.65 Q39.4 -17.4 38.4 -18.4 L36.5 -20.25 34.55 -21.9 Q32.85 -23.1 32.1 -23.65 31.3 -24.25 29.7 -26.95 28.55 -28.9 24.5 -30.5 22.15 -31.4 21.25 -34.05 20.35 -36.55 17.9 -37.25 16.05 -37.85 14.5 -39.1 L11.95 -40.75 0.65 -41.2 0.85 -41.45 Q2.05 -42.0 2.5 -43.85 L2.65 -46.75 Q2.65 -48.25 3.65 -49.8 4.65 -51.35 4.65 -52.8 L5.15 -58.65 Q5.15 -60.1 4.05 -61.95 M49.5 -52.15 Q47.75 -54.45 44.85 -56.15 40.8 -58.5 37.25 -57.5 33.75 -56.5 32.7 -54.35 31.65 -52.2 28.0 -51.15 26.85 -50.85 26.9 -49.55 L26.85 -47.65 24.95 -45.55 Q24.0 -44.65 24.0 -44.0 24.0 -42.4 25.95 -41.0 28.4 -39.25 29.35 -37.15 29.75 -36.25 31.05 -35.65 32.45 -34.95 33.0 -34.0 L33.65 -32.0 Q34.35 -30.5 35.6 -30.5 L39.65 -31.0 Q40.55 -31.0 41.95 -30.25 43.4 -29.5 44.1 -29.5 50.15 -32.85 50.15 -33.45 L49.9 -34.45 49.65 -35.5 Q49.65 -36.35 51.9 -37.25 54.15 -38.1 54.15 -39.3 L53.8 -40.8 Q53.4 -41.7 53.4 -42.3 53.4 -43.05 54.15 -43.65 54.9 -44.2 54.9 -45.15 L52.6 -48.0 Q50.1 -50.85 49.5 -52.15" fill="#ff3300" fill-rule="evenodd" stroke="none"/>
    <path d="M49.5 -52.15 Q50.1 -50.85 52.6 -48.0 L54.9 -45.15 Q54.9 -44.2 54.15 -43.65 53.4 -43.05 53.4 -42.3 53.4 -41.7 53.8 -40.8 L54.15 -39.3 Q54.15 -38.1 51.9 -37.25 49.65 -36.35 49.65 -35.5 L49.9 -34.45 50.15 -33.45 Q50.15 -32.85 44.1 -29.5 43.4 -29.5 41.95 -30.25 40.55 -31.0 39.65 -31.0 L35.6 -30.5 Q34.35 -30.5 33.65 -32.0 L33.0 -34.0 Q32.45 -34.95 31.05 -35.65 29.75 -36.25 29.35 -37.15 28.4 -39.25 25.95 -41.0 24.0 -42.4 24.0 -44.0 24.0 -44.65 24.95 -45.55 L26.85 -47.65 26.9 -49.55 Q26.85 -50.85 28.0 -51.15 31.65 -52.2 32.7 -54.35 33.75 -56.5 37.25 -57.5 40.8 -58.5 44.85 -56.15 47.75 -54.45 49.5 -52.15 M4.05 -61.95 Q5.15 -60.1 5.15 -58.65 L4.65 -52.8 Q4.65 -51.35 3.65 -49.8 2.65 -48.25 2.65 -46.75 L2.5 -43.85 Q2.05 -42.0 0.85 -41.45 L0.65 -41.2 11.95 -40.75 14.5 -39.1 Q16.05 -37.85 17.9 -37.25 20.35 -36.55 21.25 -34.05 22.15 -31.4 24.5 -30.5 28.55 -28.9 29.7 -26.95 31.3 -24.25 32.1 -23.65 32.85 -23.1 34.55 -21.9 L36.5 -20.25 38.4 -18.4 Q39.4 -17.4 39.4 -16.65 L38.9 -14.6 Q40.25 -14.05 41.35 -14.05 L42.3 -15.3 Q43.5 -16.75 44.75 -17.6 48.9 -20.35 52.85 -16.15 L56.55 -13.1 Q59.9 -10.3 59.9 -9.5 L59.45 -8.9 58.25 -8.0 Q58.65 -7.8 59.15 -5.65 L59.65 -2.7 Q59.65 -1.95 59.15 -1.0 L58.65 0.35 58.9 1.6 59.15 2.8 58.05 4.9 Q56.9 6.5 56.9 7.9 L58.4 13.1 Q58.4 13.85 57.75 14.0 55.75 14.5 53.5 15.6 L49.5 17.9 Q48.5 17.9 47.6 15.55 46.65 13.15 44.75 13.15 43.8 13.15 43.15 11.25 L42.25 8.15 Q42.0 7.35 41.15 6.65 L40.4 7.5 Q39.65 7.95 39.65 8.35 39.65 9.35 40.9 12.2 L42.15 15.25 Q42.15 16.0 41.2 16.05 39.2 16.15 36.5 17.5 L37.95 20.05 Q38.4 20.8 38.4 21.95 38.4 23.45 37.15 24.4 35.9 25.35 35.9 27.65 L36.4 31.05 36.25 31.9 Q36.0 32.4 35.0 32.4 33.8 32.4 31.75 31.35 29.7 30.25 27.55 30.25 24.65 30.25 23.4 32.05 L21.75 34.4 Q14.6 33.65 11.7 35.2 10.05 36.9 9.35 36.9 5.3 33.7 3.25 33.0 L-3.75 33.0 -5.3 33.25 -7.0 33.4 Q-15.15 33.4 -16.9 32.1 -17.5 31.65 -17.4 31.1 L-17.15 30.4 Q-17.15 29.25 -16.75 28.15 -16.4 27.1 -16.4 26.05 -16.4 23.65 -21.65 20.3 -26.9 16.95 -26.9 14.65 L-26.65 13.4 -26.4 12.1 Q-26.4 11.0 -27.0 9.7 -27.65 8.35 -27.65 7.3 -27.65 6.65 -27.15 6.15 -26.65 5.65 -26.65 4.75 -26.65 2.9 -28.25 0.9 -29.9 -1.1 -29.9 -2.55 -29.9 -3.8 -28.7 -4.75 -26.4 -6.45 -25.4 -7.55 -24.3 -8.85 -24.4 -12.5 L-24.35 -17.55 -24.15 -22.4 Q-24.15 -23.6 -24.75 -25.4 L-24.8 -25.5 Q-27.05 -26.35 -28.0 -29.8 -28.6 -32.2 -29.0 -35.5 -31.15 -40.0 -31.2 -41.35 L-30.9 -45.9 -31.9 -47.65 Q-32.9 -49.15 -32.9 -50.0 -32.9 -51.95 -32.15 -52.75 -31.45 -53.5 -27.4 -55.75 L-28.45 -57.7 -28.65 -59.1 Q-28.65 -60.25 -27.55 -62.4 -26.35 -64.85 -25.15 -65.25 -20.2 -67.0 -16.65 -69.3 L-8.75 -69.8 Q-5.0 -71.2 -2.7 -71.4 1.45 -71.85 2.4 -66.0 2.75 -64.1 4.05 -61.95" fill="#ff9900" fill-rule="evenodd" stroke="none"/>
  </g>
</svg>
