<?xml version="1.0" encoding="UTF-8" standalone="no"?>
<svg xmlns:ffdec="https://www.free-decompiler.com/flash" xmlns:xlink="http://www.w3.org/1999/xlink" ffdec:objectType="shape" height="127.05px" width="115.3px" xmlns="http://www.w3.org/2000/svg">
  <g transform="matrix(1.0, 0.0, 0.0, 1.0, 44.65, 82.65)">
    <path d="M55.0 -50.4 L58.9 -44.8 Q58.9 -44.0 58.05 -43.15 57.15 -42.25 57.15 -41.05 57.15 -40.1 57.65 -39.8 58.15 -39.55 58.15 -38.7 58.15 -37.75 57.0 -37.35 55.45 -36.85 54.5 -35.05 54.35 -34.7 54.6 -33.25 54.8 -32.0 54.0 -31.3 L51.35 -30.3 Q49.45 -29.65 48.65 -28.05 L48.05 -26.25 Q47.45 -25.0 46.35 -25.0 40.85 -25.0 38.5 -28.15 L37.0 -30.3 Q36.2 -31.3 35.05 -31.3 L33.95 -31.0 32.85 -30.75 Q28.55 -30.75 26.65 -33.15 25.6 -34.4 24.5 -36.4 23.3 -37.2 21.6 -39.4 19.75 -41.65 19.75 -42.55 L20.0 -46.9 Q20.0 -48.25 21.05 -49.0 22.4 -49.95 23.0 -52.0 23.0 -53.0 22.3 -54.65 22.4 -55.95 26.85 -56.75 27.75 -57.7 29.25 -57.85 31.55 -58.1 33.35 -58.75 L34.9 -59.7 Q35.7 -60.35 36.25 -60.3 L39.7 -59.3 Q42.85 -58.25 49.25 -57.9 L55.0 -50.4 M6.75 -64.05 Q8.3 -62.85 8.9 -61.0 9.7 -58.4 10.1 -57.75 11.5 -55.45 13.65 -50.4 15.65 -45.7 15.65 -45.0 15.65 -44.5 15.05 -43.15 14.4 -41.85 14.4 -41.2 14.4 -40.0 19.2 -36.05 24.5 -31.65 25.65 -28.8 26.55 -26.75 29.0 -25.25 30.05 -24.65 33.4 -23.25 36.25 -22.1 40.55 -19.55 42.8 -18.25 45.45 -18.25 46.5 -18.25 47.25 -18.8 48.0 -19.4 49.1 -19.4 50.55 -19.4 50.75 -18.75 50.95 -18.2 53.75 -18.4 59.65 -13.3 61.75 -9.95 63.9 -6.5 63.9 -1.95 63.9 -0.1 62.8 2.0 61.65 4.05 61.65 8.05 L62.05 11.4 62.4 14.3 Q62.4 15.35 60.8 16.2 58.35 17.55 57.0 19.0 56.5 19.55 55.9 21.35 55.4 23.0 54.5 23.65 L48.15 23.75 Q46.5 23.85 44.6 25.15 42.9 26.35 42.75 27.0 42.25 28.85 41.55 29.1 L40.05 28.85 Q37.35 27.7 35.25 29.75 35.0 29.95 34.4 31.65 34.0 32.7 32.0 33.1 L28.65 34.5 Q25.9 35.65 24.25 35.65 L21.25 35.2 17.7 34.75 Q17.1 34.75 14.5 35.7 11.95 36.65 11.0 36.65 10.15 36.65 8.45 35.7 6.75 34.75 4.6 34.75 2.9 34.75 0.95 35.6 L-1.6 36.4 -4.7 35.45 Q-7.2 34.55 -15.25 34.65 -16.0 34.1 -16.75 32.4 -17.4 30.95 -18.75 30.4 L-22.1 30.0 Q-24.1 29.95 -25.25 28.75 L-25.85 27.9 Q-26.35 27.2 -27.05 26.65 -27.3 26.5 -30.85 25.1 -33.65 24.0 -33.65 23.1 L-33.55 20.7 -33.4 18.9 Q-33.4 18.1 -34.4 15.9 -35.4 13.65 -35.4 11.55 -35.4 10.2 -35.9 8.9 L-36.4 6.8 -35.5 3.8 Q-34.65 1.15 -34.65 0.5 -34.65 -0.75 -35.0 -1.75 -35.4 -2.7 -35.4 -4.6 -35.4 -6.15 -34.75 -7.6 -34.15 -9.05 -34.15 -10.05 -34.15 -11.8 -36.0 -16.15 L-37.55 -20.2 Q-36.75 -22.1 -36.75 -24.25 L-36.75 -24.8 -36.65 -25.0 Q-35.4 -27.4 -35.4 -29.8 -35.4 -33.85 -36.0 -35.3 -36.65 -36.75 -36.65 -39.5 -36.65 -40.15 -35.0 -41.7 -33.4 -43.25 -33.4 -45.5 -33.4 -46.95 -34.4 -50.5 -35.4 -54.05 -35.4 -56.2 -35.4 -57.8 -33.6 -61.8 L-31.4 -66.75 Q-30.95 -68.0 -29.15 -69.45 -27.25 -71.05 -26.8 -71.9 -24.75 -75.85 -20.8 -76.15 L-12.0 -76.5 -3.65 -76.2 Q0.25 -75.0 1.25 -74.9 2.15 -74.5 2.15 -73.85 2.15 -73.4 1.4 -72.45 0.65 -71.55 0.65 -70.65 0.65 -68.65 2.05 -67.5 L6.75 -64.05" fill="#ff6600" fill-rule="evenodd" stroke="none"/>
    <path d="M55.0 -50.4 L49.25 -57.9 Q42.85 -58.25 39.7 -59.3 L36.25 -60.3 Q35.7 -60.35 34.9 -59.7 L33.35 -58.75 Q31.55 -58.1 29.25 -57.85 27.75 -57.7 26.85 -56.75 22.4 -55.95 22.3 -54.65 23.0 -53.0 23.0 -52.0 22.4 -49.95 21.05 -49.0 20.0 -48.25 20.0 -46.9 L19.75 -42.55 Q19.75 -41.65 21.6 -39.4 23.3 -37.2 24.5 -36.4 25.6 -34.4 26.65 -33.15 28.55 -30.75 32.85 -30.75 L33.95 -31.0 35.05 -31.3 Q36.2 -31.3 37.0 -30.3 L38.5 -28.15 Q40.85 -25.0 46.35 -25.0 47.45 -25.0 48.05 -26.25 L48.65 -28.05 Q49.45 -29.65 51.35 -30.3 L54.0 -31.3 Q54.8 -32.0 54.6 -33.25 54.35 -34.7 54.5 -35.05 55.45 -36.85 57.0 -37.35 58.15 -37.75 58.15 -38.7 58.15 -39.55 57.65 -39.8 57.15 -40.1 57.15 -41.05 57.15 -42.25 58.05 -43.15 58.9 -44.0 58.9 -44.8 L55.0 -50.4 M60.2 -61.7 Q62.15 -60.0 62.15 -57.4 L61.65 -55.6 61.15 -53.9 62.55 -51.6 Q64.05 -48.95 64.65 -46.15 64.9 -45.05 66.5 -42.3 67.9 -39.8 67.9 -38.65 L65.8 -35.7 Q63.65 -32.9 63.65 -30.3 L63.3 -28.5 62.9 -26.55 Q62.9 -25.25 64.15 -24.2 65.4 -23.15 65.4 -22.15 65.4 -21.35 64.4 -20.25 63.4 -19.2 63.4 -18.4 63.4 -17.85 64.65 -16.2 L67.15 -13.5 Q68.15 -12.65 68.0 -11.15 67.65 -9.45 67.65 -8.65 67.65 -7.15 70.65 0.85 L70.4 8.85 Q69.85 13.6 68.15 16.0 L65.85 20.05 64.25 23.5 63.65 25.35 Q63.2 26.3 61.4 27.25 61.05 27.45 59.6 29.3 58.85 30.3 54.65 30.75 L52.9 32.7 Q51.7 33.8 48.75 34.25 L45.45 37.95 42.0 41.4 35.15 41.5 33.7 41.55 32.0 41.25 28.5 41.25 26.85 42.8 Q26.1 43.55 25.25 43.9 L17.0 43.9 Q16.6 43.9 15.85 43.35 L15.15 42.75 Q11.0 42.75 1.0 44.4 -0.1 44.4 -2.85 42.7 -5.6 41.0 -6.0 41.0 L-9.0 41.0 Q-9.35 42.15 -10.1 42.15 L-13.2 41.15 Q-16.75 40.15 -21.1 40.15 -22.5 40.15 -25.9 37.6 -29.05 35.3 -29.8 34.15 -31.2 32.1 -35.15 30.25 L-39.75 28.0 Q-42.15 25.7 -44.65 14.4 -44.65 13.75 -44.25 13.05 -43.9 12.3 -43.9 11.5 L-44.4 7.3 Q-44.4 5.75 -43.4 4.5 -42.4 3.3 -42.4 1.65 L-42.75 0.1 Q-43.15 -1.15 -43.15 -2.3 L-43.1 -3.9 -42.15 -6.25 -42.15 -17.05 Q-40.5 -19.65 -39.9 -21.8 -39.4 -23.55 -39.4 -25.75 L-39.65 -41.5 Q-39.15 -43.9 -38.35 -45.6 -37.9 -46.6 -37.9 -48.6 -37.9 -51.35 -38.5 -53.55 L-39.15 -56.65 -38.65 -59.65 Q-38.15 -61.5 -38.15 -62.4 -38.15 -63.05 -39.65 -67.25 -39.65 -68.4 -38.0 -68.7 -36.0 -69.05 -35.05 -71.0 L-34.25 -72.65 -31.8 -75.3 Q-31.2 -75.85 -30.55 -77.55 -29.65 -79.0 -27.65 -79.25 -24.35 -79.65 -21.7 -80.95 L-18.5 -82.65 -6.5 -82.65 Q-3.75 -81.95 -2.9 -81.0 2.05 -79.95 3.85 -78.3 4.85 -77.4 11.6 -77.4 12.45 -77.4 12.9 -75.45 L13.15 -72.75 Q13.15 -71.85 14.0 -70.55 14.9 -69.2 15.0 -68.05 L17.0 -68.15 19.55 -67.8 23.3 -67.5 27.15 -67.95 28.25 -68.4 Q29.8 -68.4 32.3 -66.75 36.4 -65.15 46.1 -65.15 56.4 -65.15 60.2 -61.7 M6.75 -64.05 L2.05 -67.5 Q0.65 -68.65 0.65 -70.65 0.65 -71.55 1.4 -72.45 2.15 -73.4 2.15 -73.85 2.15 -74.5 1.25 -74.9 0.25 -75.0 -3.65 -76.2 L-12.0 -76.5 -20.8 -76.15 Q-24.75 -75.85 -26.8 -71.9 -27.25 -71.05 -29.15 -69.45 -30.95 -68.0 -31.4 -66.75 L-33.6 -61.8 Q-35.4 -57.8 -35.4 -56.2 -35.4 -54.05 -34.4 -50.5 -33.4 -46.95 -33.4 -45.5 -33.4 -43.25 -35.0 -41.7 -36.65 -40.15 -36.65 -39.5 -36.65 -36.75 -36.0 -35.3 -35.4 -33.85 -35.4 -29.8 -35.4 -27.4 -36.65 -25.0 L-36.75 -24.8 -36.75 -24.25 Q-36.75 -22.1 -37.55 -20.2 L-36.0 -16.15 Q-34.15 -11.8 -34.15 -10.05 -34.15 -9.05 -34.75 -7.6 -35.4 -6.15 -35.4 -4.6 -35.4 -2.7 -35.0 -1.75 -34.65 -0.75 -34.65 0.5 -34.65 1.15 -35.5 3.8 L-36.4 6.8 -35.9 8.9 Q-35.4 10.2 -35.4 11.55 -35.4 13.65 -34.4 15.9 -33.4 18.1 -33.4 18.9 L-33.55 20.7 -33.65 23.1 Q-33.65 24.0 -30.85 25.1 -27.3 26.5 -27.05 26.65 -26.35 27.2 -25.85 27.9 L-25.25 28.75 Q-24.1 29.95 -22.1 30.0 L-18.75 30.4 Q-17.4 30.95 -16.75 32.4 -16.0 34.1 -15.25 34.65 -7.2 34.55 -4.7 35.45 L-1.6 36.4 0.95 35.6 Q2.9 34.75 4.6 34.75 6.75 34.75 8.45 35.7 10.15 36.65 11.0 36.65 11.95 36.65 14.5 35.7 17.1 34.75 17.7 34.75 L21.25 35.2 24.25 35.65 Q25.9 35.65 28.65 34.5 L32.0 33.1 Q34.0 32.7 34.4 31.65 35.0 29.95 35.25 29.75 37.35 27.7 40.05 28.85 L41.55 29.1 Q42.25 28.85 42.75 27.0 42.9 26.35 44.6 25.15 46.5 23.85 48.15 23.75 L54.5 23.65 Q55.4 23.0 55.9 21.35 56.5 19.55 57.0 19.0 58.35 17.55 60.8 16.2 62.4 15.35 62.4 14.3 L62.05 11.4 61.65 8.05 Q61.65 4.05 62.8 2.0 63.9 -0.1 63.9 -1.95 63.9 -6.5 61.75 -9.95 59.65 -13.3 53.75 -18.4 50.95 -18.2 50.75 -18.75 50.55 -19.4 49.1 -19.4 48.0 -19.4 47.25 -18.8 46.5 -18.25 45.45 -18.25 42.8 -18.25 40.55 -19.55 36.25 -22.1 33.4 -23.25 30.05 -24.65 29.0 -25.25 26.55 -26.75 25.65 -28.8 24.5 -31.65 19.2 -36.05 14.4 -40.0 14.4 -41.2 14.4 -41.85 15.05 -43.15 15.65 -44.5 15.65 -45.0 15.65 -45.7 13.65 -50.4 11.5 -55.45 10.1 -57.75 9.7 -58.4 8.9 -61.0 8.3 -62.85 6.75 -64.05" fill="#ff3300" fill-rule="evenodd" stroke="none"/>
  </g>
</svg>
