<?xml version="1.0" encoding="UTF-8" standalone="no"?>
<svg xmlns:ffdec="https://www.free-decompiler.com/flash" xmlns:xlink="http://www.w3.org/1999/xlink" ffdec:objectType="shape" height="120.8px" width="114.55px" xmlns="http://www.w3.org/2000/svg">
  <g transform="matrix(1.0, 0.0, 0.0, 1.0, 46.15, 78.65)">
    <path d="M47.55 -51.25 Q48.8 -48.95 49.0 -48.75 50.6 -47.25 51.15 -46.2 51.65 -45.25 51.65 -43.85 L51.15 -39.25 Q51.15 -35.6 47.65 -34.75 48.65 -33.25 48.6 -32.3 48.5 -30.5 43.75 -30.5 42.8 -30.5 37.8 -32.45 32.45 -34.5 31.15 -35.75 28.3 -38.4 27.75 -39.15 27.0 -40.15 27.0 -41.8 27.0 -42.45 27.5 -43.95 L28.25 -45.8 Q27.55 -46.1 27.35 -46.8 L27.25 -47.8 Q27.25 -50.25 32.95 -52.45 39.05 -54.8 44.25 -53.4 46.8 -52.75 47.55 -51.25 M8.8 -54.7 L9.15 -53.25 Q9.55 -52.0 10.95 -51.9 12.45 -51.75 12.85 -51.0 L13.7 -48.65 14.15 -46.0 Q14.15 -42.1 10.75 -40.2 6.65 -38.7 5.35 -37.75 2.2 -35.5 0.7 -33.55 L-1.9 -29.5 0.6 -28.3 Q1.15 -28.05 1.15 -27.45 1.15 -26.5 0.25 -26.25 L-5.0 -25.4 Q-5.25 -25.65 -5.25 -25.0 L-4.25 -23.7 -3.05 -22.25 Q5.75 -21.75 7.9 -20.15 8.65 -19.65 8.65 -17.5 L8.65 -16.9 Q9.9 -17.15 9.9 -15.9 9.9 -15.7 9.3 -15.25 L8.65 -14.75 Q8.65 -13.55 9.55 -12.1 10.4 -10.65 10.4 -9.0 10.4 -7.05 9.5 -6.15 8.25 -4.8 4.25 -3.75 L5.85 -1.6 6.45 -1.3 Q9.65 0.45 9.65 2.0 9.65 2.65 8.35 2.9 8.2 3.65 7.5 3.65 L6.8 3.05 5.5 3.0 Q6.35 5.25 9.75 6.5 L18.5 6.5 19.2 6.95 20.25 6.9 Q20.6 5.9 21.75 5.85 22.75 5.85 23.0 4.35 L23.35 2.95 Q23.45 2.1 24.6 1.5 21.8 0.25 20.45 -2.0 L18.65 -6.0 Q17.95 -7.35 17.15 -9.45 16.0 -12.4 16.0 -13.55 16.0 -15.25 18.0 -17.0 20.75 -19.4 25.5 -19.4 29.0 -19.4 29.85 -18.2 L30.5 -17.0 33.05 -17.55 36.1 -18.15 Q37.45 -18.15 38.45 -17.25 L39.5 -16.0 42.35 -15.8 43.3 -16.1 44.25 -16.4 Q48.4 -16.4 53.15 -14.0 57.15 -12.0 57.15 -11.5 57.15 -10.9 56.1 -9.6 L55.0 -8.15 57.95 -5.4 Q60.9 -2.55 60.9 -0.9 60.9 1.45 60.25 2.25 59.1 3.75 58.15 6.9 L57.6 8.9 Q57.15 9.95 56.15 10.85 L54.7 11.6 Q53.7 12.0 53.65 12.4 L53.35 14.25 Q52.4 16.7 46.95 18.45 41.1 20.4 40.65 20.9 L39.45 22.75 Q38.45 24.0 36.75 24.4 34.45 24.95 33.6 26.4 33.1 27.25 27.15 27.0 27.15 27.65 27.6 28.95 27.45 30.05 24.4 30.5 24.5 31.25 24.2 31.6 L23.0 31.9 20.8 31.45 19.75 31.0 Q19.3 31.0 18.95 31.35 L18.1 31.65 16.3 31.2 14.9 30.75 9.6 30.75 8.75 31.85 6.85 32.15 Q4.95 32.15 3.05 31.35 1.15 30.5 -1.6 30.5 -5.55 30.5 -6.45 31.1 -7.3 31.65 -7.85 31.65 L-10.75 30.4 Q-13.65 28.95 -15.15 28.5 -16.95 27.95 -18.55 26.8 L-20.8 25.1 Q-21.45 24.65 -23.8 24.05 -25.8 23.55 -26.8 22.25 -27.2 21.75 -28.7 20.55 L-30.55 18.5 Q-31.15 17.6 -31.4 14.7 -31.6 11.85 -32.4 10.85 -33.7 9.25 -33.4 3.15 L-33.0 -3.15 Q-32.65 -7.7 -32.65 -9.35 -32.65 -10.8 -32.25 -12.5 L-31.9 -14.3 -33.15 -17.8 Q-34.4 -21.2 -34.4 -24.35 -34.4 -25.65 -33.5 -27.9 -32.65 -30.15 -32.65 -30.8 L-33.4 -40.4 Q-33.4 -42.2 -31.9 -44.45 L-30.4 -46.85 -30.65 -51.9 Q-30.8 -53.75 -31.15 -54.65 L-31.4 -56.65 Q-31.4 -59.0 -30.25 -60.6 -29.15 -62.2 -29.15 -64.95 -29.15 -67.0 -26.05 -69.05 L-25.35 -69.45 -25.4 -69.65 Q-25.4 -70.25 -24.95 -70.4 L-22.0 -70.65 Q-21.25 -70.0 -20.35 -68.15 -19.6 -66.5 -18.05 -65.65 -16.45 -64.75 -14.8 -63.25 -13.0 -61.55 -13.0 -60.7 -13.0 -60.3 -13.55 -58.9 L-14.25 -57.3 Q-13.65 -56.75 -6.15 -55.25 L5.5 -55.25 Q8.15 -55.5 8.8 -54.7" fill="#ff6600" fill-rule="evenodd" stroke="none"/>
    <path d="M47.55 -51.25 Q46.8 -52.75 44.25 -53.4 39.05 -54.8 32.95 -52.45 27.25 -50.25 27.25 -47.8 L27.35 -46.8 Q27.55 -46.1 28.25 -45.8 L27.5 -43.95 Q27.0 -42.45 27.0 -41.8 27.0 -40.15 27.75 -39.15 28.3 -38.4 31.15 -35.75 32.45 -34.5 37.8 -32.45 42.8 -30.5 43.75 -30.5 48.5 -30.5 48.6 -32.3 48.65 -33.25 47.65 -34.75 51.15 -35.6 51.15 -39.25 L51.65 -43.85 Q51.65 -45.25 51.15 -46.2 50.6 -47.25 49.0 -48.75 48.8 -48.95 47.55 -51.25 M56.25 -55.65 Q57.3 -55.05 57.55 -54.25 L58.25 -52.3 59.8 -50.85 Q61.1 -49.7 61.25 -49.15 L61.9 -45.85 62.0 -45.35 Q62.65 -45.15 62.65 -44.4 L62.3 -43.8 62.4 -42.65 Q62.4 -42.15 61.9 -41.9 L61.35 -41.75 60.75 -41.9 Q58.9 -39.65 58.9 -37.65 58.9 -37.45 59.65 -37.2 60.4 -36.95 60.4 -34.75 L60.4 -31.95 Q60.4 -28.4 59.9 -26.6 59.4 -24.85 59.4 -22.8 59.4 -19.15 63.9 -12.4 68.4 -5.65 68.4 -2.35 68.4 -0.7 67.55 0.3 66.65 1.25 66.65 2.5 L67.4 9.95 Q67.4 12.65 66.55 14.05 65.7 15.5 65.65 20.25 L65.95 23.0 Q66.0 24.65 64.9 25.25 61.05 28.15 59.5 29.05 56.95 30.55 53.0 29.75 51.85 30.0 49.55 30.95 L46.15 32.0 Q43.2 32.5 42.4 33.35 41.8 34.45 40.85 35.15 38.65 36.85 34.2 38.45 29.1 40.3 28.0 40.9 L20.75 40.9 19.95 40.75 Q19.3 40.75 18.05 41.45 L16.1 42.15 Q14.9 42.15 13.85 41.35 12.8 40.5 10.75 40.5 9.15 40.5 6.5 41.4 L0.0 41.4 -2.45 40.95 -4.0 40.5 -11.75 40.5 -17.7 40.25 Q-21.7 39.9 -23.15 39.0 -24.1 38.45 -24.65 37.5 -25.3 36.4 -25.5 36.25 -27.15 34.85 -31.0 33.75 -33.9 32.95 -33.9 31.75 L-33.65 31.15 -33.4 30.5 Q-33.4 29.0 -35.75 26.95 -38.0 25.0 -37.65 22.65 -37.65 21.15 -38.9 18.1 L-40.15 15.0 Q-39.65 12.6 -39.65 12.0 -39.65 9.6 -41.15 7.4 L-42.65 4.75 Q-42.65 3.95 -40.75 2.15 -38.9 0.3 -38.9 -1.75 -38.9 -9.15 -41.0 -15.1 -43.15 -21.0 -43.15 -22.3 L-40.9 -25.0 Q-38.65 -27.3 -38.65 -30.1 -38.65 -31.45 -39.4 -33.45 -40.1 -35.2 -39.9 -37.4 -39.4 -38.8 -39.7 -40.85 -39.85 -42.05 -40.55 -44.5 L-41.15 -48.2 Q-41.4 -50.45 -42.05 -51.8 -42.6 -52.95 -44.7 -55.5 -46.15 -57.25 -46.15 -58.95 -46.15 -59.45 -41.35 -65.75 L-35.0 -74.0 Q-34.65 -74.45 -34.3 -76.05 -33.75 -77.4 -32.25 -77.4 -26.85 -77.4 -25.9 -78.55 -25.55 -79.0 -21.0 -77.65 -18.75 -76.95 -15.8 -74.2 -13.6 -72.1 -13.1 -71.05 -11.8 -70.3 -9.1 -70.2 L-8.95 -70.25 Q-7.45 -70.65 -2.4 -70.25 -1.85 -71.25 -0.55 -71.85 1.35 -72.7 3.5 -71.5 L6.3 -69.55 Q8.4 -68.1 9.9 -67.75 L17.75 -67.65 Q19.0 -66.9 24.45 -65.25 L30.3 -63.75 Q30.85 -63.75 31.5 -65.15 32.0 -66.4 34.75 -65.75 L35.1 -66.3 Q35.4 -66.65 36.25 -66.65 40.4 -66.65 44.7 -64.85 47.9 -63.55 50.15 -61.75 51.15 -60.95 52.3 -59.0 53.25 -57.4 56.25 -55.65 M8.8 -54.7 Q8.15 -55.5 5.5 -55.25 L-6.15 -55.25 Q-13.65 -56.75 -14.25 -57.3 L-13.55 -58.9 Q-13.0 -60.3 -13.0 -60.7 -13.0 -61.55 -14.8 -63.25 -16.45 -64.75 -18.05 -65.65 -19.6 -66.5 -20.35 -68.15 -21.25 -70.0 -22.0 -70.65 L-24.95 -70.4 Q-25.4 -70.25 -25.4 -69.65 L-25.35 -69.45 -26.05 -69.05 Q-29.15 -67.0 -29.15 -64.95 -29.15 -62.2 -30.25 -60.6 -31.4 -59.0 -31.4 -56.65 L-31.15 -54.65 Q-30.8 -53.75 -30.65 -51.9 L-30.4 -46.85 -31.9 -44.45 Q-33.4 -42.2 -33.4 -40.4 L-32.65 -30.8 Q-32.65 -30.15 -33.5 -27.9 -34.4 -25.65 -34.4 -24.35 -34.4 -21.2 -33.15 -17.8 L-31.9 -14.3 -32.25 -12.5 Q-32.65 -10.8 -32.65 -9.35 -32.65 -7.7 -33.0 -3.15 L-33.4 3.15 Q-33.7 9.25 -32.4 10.85 -31.6 11.85 -31.4 14.7 -31.15 17.6 -30.55 18.5 L-28.7 20.55 Q-27.2 21.75 -26.8 22.25 -25.8 23.55 -23.8 24.05 -21.45 24.65 -20.8 25.1 L-18.55 26.8 Q-16.95 27.95 -15.15 28.5 -13.65 28.95 -10.75 30.4 L-7.85 31.65 Q-7.3 31.65 -6.45 31.1 -5.55 30.5 -1.6 30.5 1.15 30.5 3.05 31.35 4.95 32.15 6.85 32.15 L8.75 31.85 9.6 30.75 14.9 30.75 16.3 31.2 18.1 31.65 18.95 31.35 Q19.3 31.0 19.75 31.0 L20.8 31.45 23.0 31.9 24.2 31.6 Q24.5 31.25 24.4 30.5 27.45 30.05 27.6 28.95 27.15 27.65 27.15 27.0 33.1 27.25 33.6 26.4 34.45 24.95 36.75 24.4 38.45 24.0 39.45 22.75 L40.65 20.9 Q41.1 20.4 46.95 18.45 52.4 16.7 53.35 14.25 L53.65 12.4 Q53.7 12.0 54.7 11.6 L56.15 10.85 Q57.15 9.95 57.6 8.9 L58.15 6.9 Q59.1 3.75 60.25 2.25 60.9 1.45 60.9 -0.9 60.9 -2.55 57.95 -5.4 L55.0 -8.15 56.1 -9.6 Q57.15 -10.9 57.15 -11.5 57.15 -12.0 53.15 -14.0 48.4 -16.4 44.25 -16.4 L43.3 -16.1 42.35 -15.8 39.5 -16.0 38.45 -17.25 Q37.45 -18.15 36.1 -18.15 L33.05 -17.55 30.5 -17.0 29.85 -18.2 Q29.0 -19.4 25.5 -19.4 20.75 -19.4 18.0 -17.0 16.0 -15.25 16.0 -13.55 16.0 -12.4 17.15 -9.45 17.95 -7.35 18.65 -6.0 L20.45 -2.0 Q21.8 0.25 24.6 1.5 23.45 2.1 23.35 2.95 L23.0 4.35 Q22.75 5.85 21.75 5.85 20.6 5.9 20.25 6.9 L19.2 6.95 18.5 6.5 9.75 6.5 Q6.35 5.25 5.5 3.0 L6.8 3.05 7.5 3.65 Q8.2 3.65 8.35 2.9 9.65 2.65 9.65 2.0 9.65 0.45 6.45 -1.3 L5.85 -1.6 4.25 -3.75 Q8.25 -4.8 9.5 -6.15 10.4 -7.05 10.4 -9.0 10.4 -10.65 9.55 -12.1 8.65 -13.55 8.65 -14.75 L9.3 -15.25 Q9.9 -15.7 9.9 -15.9 9.9 -17.15 8.65 -16.9 L8.65 -17.5 Q8.65 -19.65 7.9 -20.15 5.75 -21.75 -3.05 -22.25 L-4.25 -23.7 -5.25 -25.0 Q-5.25 -25.65 -5.0 -25.4 L0.25 -26.25 Q1.15 -26.5 1.15 -27.45 1.15 -28.05 0.6 -28.3 L-1.9 -29.5 0.7 -33.55 Q2.2 -35.5 5.35 -37.75 6.65 -38.7 10.75 -40.2 14.15 -42.1 14.15 -46.0 L13.7 -48.65 12.85 -51.0 Q12.45 -51.75 10.95 -51.9 9.55 -52.0 9.15 -53.25 L8.8 -54.7 M29.75 -25.25 Q30.55 -25.45 30.7 -25.75 L30.75 -26.2 24.4 -34.2 Q19.8 -40.05 18.55 -44.4 L17.4 -41.55 Q17.4 -41.0 17.9 -39.85 L18.4 -38.15 Q18.4 -37.75 14.55 -33.6 10.65 -29.4 10.65 -28.45 L12.65 -24.05 13.75 -25.3 17.75 -29.4 Q20.45 -29.7 21.05 -30.1 L22.35 -30.4 Q23.8 -30.4 25.45 -28.1 L27.5 -25.25 29.75 -25.25" fill="#ff3300" fill-rule="evenodd" stroke="none"/>
  </g>
</svg>
