<?xml version="1.0" encoding="UTF-8" standalone="no"?>
<svg xmlns:ffdec="https://www.free-decompiler.com/flash" xmlns:xlink="http://www.w3.org/1999/xlink" ffdec:objectType="shape" height="111.55px" width="115.3px" xmlns="http://www.w3.org/2000/svg">
  <g transform="matrix(1.0, 0.0, 0.0, 1.0, 49.4, 70.65)">
    <path d="M53.1 -51.8 L50.15 -49.05 50.15 -49.0 Q56.1 -47.3 58.25 -45.95 60.4 -44.6 60.4 -42.5 60.4 -41.15 60.0 -40.75 59.4 -40.1 56.75 -39.0 55.35 -38.4 55.3 -37.3 55.5 -36.05 55.25 -35.5 54.3 -33.05 51.55 -30.9 48.8 -28.75 46.6 -28.75 44.75 -28.75 42.8 -30.3 L40.35 -31.9 38.75 -31.2 Q37.5 -30.5 34.25 -30.5 28.3 -30.5 25.3 -32.6 22.4 -34.6 20.35 -40.0 19.95 -41.05 19.95 -42.6 L20.0 -45.25 Q20.0 -47.85 18.5 -48.5 17.0 -49.2 17.0 -50.35 17.0 -52.65 19.25 -55.05 L21.5 -57.65 21.0 -59.05 20.5 -60.75 Q20.5 -64.85 23.4 -68.15 27.35 -72.65 33.9 -68.75 38.9 -67.85 46.75 -63.15 54.9 -58.25 54.9 -55.65 54.9 -53.35 53.1 -51.8 M3.5 -64.0 L5.65 -60.85 Q6.65 -59.4 6.65 -58.05 6.65 -56.7 5.3 -55.0 L3.9 -53.0 Q3.9 -52.15 6.3 -52.0 8.8 -51.8 9.15 -50.25 9.9 -48.65 9.9 -47.05 L9.55 -45.1 Q9.15 -43.8 9.15 -42.45 9.15 -41.25 10.15 -38.9 11.15 -36.5 11.15 -33.75 11.15 -31.25 10.75 -29.75 9.85 -26.25 7.1 -26.25 L6.75 -26.25 Q5.5 -25.5 4.6 -25.5 L3.95 -25.55 3.4 -24.2 Q2.8 -22.75 1.6 -22.75 0.6 -22.75 0.35 -23.05 0.15 -23.4 -0.45 -23.4 -1.2 -23.4 -1.3 -23.1 L-1.4 -22.4 Q-2.0 -21.4 -7.5 -21.4 L-13.2 -20.95 Q-14.55 -20.5 -15.1 -20.5 L-18.9 -21.15 -27.0 -21.25 Q-27.75 -21.5 -27.95 -21.9 L-28.25 -22.55 Q-28.9 -23.35 -33.75 -23.75 -34.9 -24.1 -34.55 -25.15 -34.2 -26.3 -35.25 -26.75 L-39.35 -28.35 Q-39.9 -28.6 -39.9 -29.15 -39.9 -30.6 -38.45 -32.55 L-37.05 -34.4 Q-37.05 -35.15 -38.65 -36.25 -40.4 -37.45 -40.55 -37.9 -40.9 -38.95 -40.9 -41.3 L-40.4 -44.55 Q-39.9 -46.6 -39.9 -47.55 -39.9 -48.85 -42.15 -50.4 -44.7 -52.15 -45.25 -53.8 -45.4 -54.25 -47.45 -56.7 -49.4 -59.05 -49.4 -59.75 -49.4 -61.25 -43.2 -63.55 -33.8 -67.1 -27.75 -70.65 L-18.25 -70.65 -14.95 -70.05 -12.25 -69.5 -5.0 -69.4 -3.5 -68.0 -1.75 -66.55 1.55 -65.35 Q3.1 -64.7 3.5 -64.0 M4.75 -13.1 Q6.05 -10.5 6.65 -9.55 9.65 -5.3 9.65 -2.5 L9.0 0.5 Q9.0 1.1 9.8 2.05 10.75 3.2 11.1 4.25 11.4 5.2 11.15 6.3 L10.75 8.0 12.5 9.15 Q14.45 10.55 15.35 12.25 16.3 14.05 19.3 14.9 L22.7 15.4 Q23.35 15.4 25.1 14.65 26.85 13.85 28.0 13.1 L25.6 5.1 23.75 -1.55 24.35 -5.75 23.7 -7.9 Q23.0 -9.25 23.0 -11.4 23.0 -13.2 22.0 -14.7 21.0 -16.15 21.0 -16.85 21.0 -18.05 23.0 -19.55 L26.5 -22.0 Q29.25 -24.4 36.5 -23.0 40.15 -22.3 43.65 -21.0 L50.25 -21.0 51.4 -21.85 53.0 -22.4 Q54.05 -22.4 54.55 -20.85 L55.35 -18.5 Q55.6 -18.15 58.15 -17.15 60.4 -16.3 60.4 -15.4 L60.15 -14.1 59.9 -12.75 Q59.9 -10.15 60.7 -8.2 61.65 -5.95 61.9 -2.05 62.2 2.35 64.1 5.7 65.05 7.35 65.9 8.3 L65.05 11.2 64.1 14.0 Q63.8 16.3 62.1 17.5 L58.75 19.25 Q57.85 19.75 57.85 21.85 57.8 24.0 56.4 24.85 54.6 25.95 51.9 27.05 48.35 28.5 45.9 28.75 L41.9 32.9 Q39.5 35.15 37.0 35.4 32.15 35.95 30.4 36.9 28.8 37.75 27.0 37.9 18.85 38.6 17.0 39.5 16.3 40.5 15.25 40.9 L11.75 40.9 Q7.4 39.9 1.85 37.55 L-5.65 34.5 Q-9.55 33.2 -14.2 33.55 L-21.75 33.15 -23.25 32.6 Q-24.5 32.0 -24.8 31.4 -25.3 30.55 -26.65 29.55 L-29.0 27.75 Q-30.8 26.0 -30.7 23.3 -30.6 20.95 -32.9 19.65 -35.4 18.3 -35.4 11.8 L-35.5 9.55 Q-35.6 7.5 -35.3 6.5 -33.65 2.0 -33.65 1.55 -33.65 1.3 -34.75 -0.15 -35.9 -1.6 -35.9 -3.0 -35.9 -5.1 -34.3 -7.5 -32.75 -9.85 -32.75 -10.05 -32.75 -11.0 -33.7 -11.85 -34.65 -12.7 -34.65 -13.85 -34.65 -14.4 -28.55 -16.7 -22.1 -19.15 -19.1 -19.15 -15.05 -19.15 -11.15 -17.85 -7.45 -16.6 -7.0 -16.65 L2.0 -16.65 Q3.45 -15.45 4.75 -13.1" fill="#ff3300" fill-rule="evenodd" stroke="none"/>
  </g>
</svg>
