<?xml version="1.0" encoding="UTF-8" standalone="no"?>
<svg xmlns:ffdec="https://www.free-decompiler.com/flash" xmlns:xlink="http://www.w3.org/1999/xlink" ffdec:objectType="shape" height="96.95px" width="107.05px" xmlns="http://www.w3.org/2000/svg">
  <g transform="matrix(1.0, 0.0, 0.0, 1.0, 38.4, 68.3)">
    <path d="M46.65 -57.75 Q47.25 -57.4 49.1 -56.7 50.3 -56.3 50.6 -55.65 51.6 -53.6 52.8 -49.5 L53.9 -45.15 53.65 -42.75 51.75 -39.3 Q51.7 -37.6 50.75 -36.45 48.85 -34.25 42.85 -34.25 L39.9 -34.55 38.5 -34.9 Q38.2 -34.9 37.35 -34.3 36.5 -33.75 33.6 -33.75 28.1 -33.75 26.75 -35.7 26.1 -36.7 26.5 -37.8 26.8 -39.3 26.05 -40.3 L24.5 -42.15 21.3 -46.5 Q19.75 -48.85 19.75 -50.7 19.75 -52.6 21.0 -54.45 22.45 -56.55 25.25 -58.15 26.25 -58.7 26.3 -59.85 L26.2 -61.95 Q26.15 -64.35 30.4 -64.4 L30.4 -64.3 30.45 -64.4 30.6 -64.4 30.45 -64.4 30.55 -64.85 31.3 -65.7 Q33.0 -66.25 36.85 -62.15 38.1 -60.8 40.85 -60.95 43.75 -61.05 44.75 -60.25 L45.7 -58.9 46.65 -57.75 M1.65 -51.0 L1.15 -49.7 0.65 -48.75 Q0.65 -47.0 2.65 -43.95 4.65 -40.9 4.65 -40.45 4.65 -39.75 3.85 -39.25 3.0 -38.75 3.0 -38.15 3.0 -37.7 3.7 -36.2 4.4 -34.7 4.4 -33.65 4.4 -31.9 2.9 -30.9 L0.0 -29.3 Q-1.85 -28.0 -3.4 -27.75 L-6.4 -27.3 Q-8.2 -26.8 -8.45 -26.2 -8.65 -25.75 -9.35 -25.75 -9.8 -25.75 -10.8 -26.65 -11.85 -27.55 -12.25 -27.55 L-13.25 -27.25 -14.0 -26.5 Q-15.7 -25.5 -22.6 -25.5 -25.6 -25.5 -27.45 -27.15 -28.65 -28.25 -28.9 -29.15 -34.4 -30.45 -34.65 -32.85 L-34.55 -35.05 Q-34.55 -36.45 -35.3 -37.5 -35.65 -37.95 -35.8 -39.45 -35.95 -40.95 -36.65 -41.8 -37.75 -43.15 -38.0 -44.05 L-38.15 -45.9 Q-38.15 -46.8 -37.45 -48.3 L-36.8 -49.9 -38.4 -54.5 -38.3 -56.35 Q-38.0 -57.45 -36.75 -58.25 L-37.15 -59.2 -37.4 -60.3 Q-37.4 -61.85 -34.4 -62.8 -31.4 -63.8 -31.4 -66.2 -31.4 -67.35 -28.3 -68.0 L-21.15 -67.75 -10.0 -66.8 Q-5.65 -66.15 -2.5 -62.55 -1.55 -61.45 -1.5 -59.6 L-1.25 -56.75 0.45 -53.8 Q1.65 -51.75 1.65 -51.0 M17.65 -24.25 Q19.85 -22.5 21.45 -20.15 23.15 -17.65 23.15 -15.8 L22.9 -14.85 22.65 -13.9 23.4 -11.6 Q24.15 -9.3 24.15 -8.25 24.15 -6.05 23.75 -5.5 22.35 -3.5 16.75 -3.5 12.35 -3.5 12.15 -5.35 12.05 -6.4 12.75 -8.4 12.7 -10.35 12.2 -11.15 11.75 -11.95 11.75 -13.2 11.75 -14.3 12.15 -15.2 12.5 -16.1 12.5 -17.7 12.5 -20.0 13.6 -21.75 15.0 -23.95 17.65 -24.25 M3.75 -13.75 L5.4 -11.3 5.0 -10.1 Q4.65 -9.4 4.85 -8.15 5.0 -7.25 4.6 -6.35 L4.15 -4.95 Q4.15 -4.65 5.15 -3.4 6.15 -2.15 6.15 -1.15 L5.9 -0.3 5.65 0.5 Q5.65 0.95 7.65 2.05 9.65 3.1 9.65 4.2 L7.4 10.85 Q5.15 17.75 5.15 20.7 5.15 22.25 3.25 22.25 1.6 22.25 -0.55 24.6 L-2.6 26.9 Q-4.25 25.1 -7.05 23.35 -12.65 19.75 -18.75 19.75 L-20.2 20.6 Q-21.25 21.4 -22.1 21.4 -23.05 21.4 -23.75 19.95 L-24.65 18.1 -27.35 16.35 -29.05 14.85 -30.75 11.8 Q-31.7 10.05 -32.3 8.1 -32.8 6.45 -35.35 0.55 L-37.65 -5.15 Q-37.65 -7.15 -36.15 -7.4 -34.0 -7.85 -33.3 -8.65 -31.3 -11.3 -30.9 -12.25 -30.1 -14.1 -29.3 -17.5 -28.2 -19.8 -24.75 -19.0 L-24.75 -19.15 -18.0 -19.15 -8.4 -16.75 0.0 -16.15 Q1.75 -16.15 3.75 -13.75 M31.85 -5.5 L32.45 -6.25 Q33.75 -7.25 39.75 -6.75 L40.65 -7.5 42.85 -7.9 Q44.9 -7.9 45.7 -7.05 L46.45 -6.25 51.35 -7.35 55.75 -8.5 Q60.7 -11.75 63.25 -9.5 64.8 -8.2 65.15 -5.3 L67.0 -1.8 Q68.65 1.35 68.65 2.0 68.65 3.9 67.1 4.65 65.1 5.65 64.15 8.1 63.8 9.1 63.6 10.8 63.05 12.4 60.75 14.5 60.3 14.9 58.95 17.5 57.7 19.9 56.5 20.5 53.3 22.1 53.35 24.05 53.35 25.6 50.5 26.15 L37.35 26.25 Q37.45 27.6 37.05 28.0 L31.5 28.65 24.0 28.65 Q21.4 27.2 20.65 24.75 20.25 23.5 20.25 20.65 20.25 20.25 23.0 11.95 25.75 3.7 25.75 0.4 25.75 -0.5 27.75 -2.8 29.8 -5.15 30.6 -5.15 31.5 -5.15 31.85 -5.5" fill="#ef3a3a" fill-rule="evenodd" stroke="none"/>
  </g>
</svg>
