<?xml version="1.0" encoding="UTF-8" standalone="no"?>
<svg xmlns:ffdec="https://www.free-decompiler.com/flash" xmlns:xlink="http://www.w3.org/1999/xlink" ffdec:objectType="shape" height="98.05px" width="105.3px" xmlns="http://www.w3.org/2000/svg">
  <g transform="matrix(1.0, 0.0, 0.0, 1.0, 37.9, 69.65)">
    <path d="M43.0 -59.0 L50.5 -58.4 Q51.25 -57.55 52.65 -53.5 54.15 -49.2 54.15 -47.4 54.15 -45.45 53.8 -44.95 L50.5 -41.55 50.5 -38.8 Q50.3 -36.25 48.25 -36.25 L44.35 -36.75 43.6 -36.5 42.85 -36.25 Q40.2 -36.25 40.0 -40.3 39.8 -44.4 36.75 -44.4 34.95 -44.4 34.55 -43.45 34.4 -43.1 34.4 -41.3 34.4 -38.25 29.85 -38.25 28.25 -38.25 24.1 -42.25 20.25 -46.0 20.25 -46.55 20.25 -47.6 21.4 -48.5 22.5 -49.4 22.5 -50.65 L22.25 -51.15 Q22.0 -51.35 22.0 -51.65 22.0 -52.6 24.5 -54.85 26.95 -57.0 27.75 -57.15 27.45 -59.3 29.0 -59.8 L32.0 -60.4 Q35.75 -61.65 36.85 -61.0 38.6 -59.9 40.35 -59.9 L42.35 -59.6 43.0 -59.0 M29.25 -29.0 Q29.25 -31.85 29.75 -33.4 L30.25 -35.5 Q30.6 -36.35 32.1 -36.55 L34.15 -37.05 Q35.85 -38.5 38.7 -36.15 41.4 -33.95 41.4 -31.8 41.4 -30.6 40.15 -27.95 38.6 -24.75 36.85 -24.75 L30.5 -25.0 Q29.7 -25.55 29.4 -27.25 29.25 -28.15 29.25 -29.0 M3.15 -45.25 Q3.3 -44.75 4.1 -43.85 L5.0 -42.5 5.4 -39.75 Q5.4 -38.05 4.5 -37.15 2.6 -35.4 1.5 -33.65 L1.9 -32.45 Q1.9 -31.95 -1.55 -29.15 L-5.1 -26.5 Q-7.45 -26.5 -8.9 -28.1 -9.85 -29.25 -10.0 -30.4 L-10.15 -30.75 Q-10.95 -30.85 -12.05 -29.45 -13.15 -28.0 -14.85 -28.0 -16.7 -28.0 -18.05 -29.4 L-19.3 -31.15 Q-20.65 -29.8 -24.8 -28.0 -28.7 -26.25 -29.85 -26.25 -31.7 -26.25 -32.3 -28.8 L-32.65 -32.55 Q-32.85 -34.15 -34.3 -35.9 -35.65 -37.5 -35.65 -38.8 L-34.55 -44.0 -35.7 -49.4 Q-36.9 -54.95 -36.9 -56.15 -36.9 -58.05 -36.3 -58.9 -35.35 -60.25 -32.05 -61.5 L-32.15 -62.8 -31.85 -64.45 Q-31.4 -65.3 -29.75 -66.4 L-30.0 -66.6 -30.15 -67.15 Q-22.8 -69.65 -19.5 -69.65 -8.65 -69.65 -8.65 -62.55 -8.65 -61.75 -7.05 -60.45 -5.5 -59.15 -5.5 -57.8 -5.5 -55.05 -9.0 -55.4 L-9.3 -55.05 Q-9.65 -54.75 -9.9 -54.75 L-8.65 -51.55 Q-7.8 -49.25 -6.55 -49.25 L-4.8 -50.05 Q-2.7 -50.9 -0.75 -50.9 2.65 -50.9 3.15 -48.45 3.0 -45.75 3.15 -45.25 M13.8 -20.1 Q16.65 -23.4 20.25 -20.75 L24.5 -15.8 Q28.15 -11.6 28.15 -11.05 28.15 -9.2 27.0 -7.4 25.25 -4.75 21.75 -4.75 20.7 -4.75 17.75 -6.3 14.55 -8.0 13.25 -9.5 12.9 -9.9 12.2 -12.15 11.5 -14.35 11.5 -14.7 11.5 -17.45 13.8 -20.1 M8.9 -13.0 Q8.9 -12.7 3.15 -10.65 L-3.4 -8.5 Q-6.9 -7.45 -10.8 -7.3 -13.0 -6.85 -13.0 -3.25 -13.0 -2.8 -9.5 -0.6 -5.85 1.65 -4.5 1.65 -3.7 1.65 -3.35 1.2 -2.95 0.75 -2.35 0.75 -1.25 0.75 -0.85 1.35 L0.0 2.4 2.65 2.7 Q4.85 2.9 6.0 3.75 L7.0 5.25 7.9 7.0 7.15 8.95 Q6.4 10.95 6.4 11.25 6.4 13.0 7.55 15.25 L8.65 17.55 7.65 18.8 Q6.65 20.2 6.65 21.35 6.65 21.95 7.0 23.2 6.65 24.3 3.0 24.75 1.7 26.9 0.6 26.9 -0.2 26.9 -1.2 25.6 -1.95 24.6 -2.3 23.6 L-4.5 24.15 Q-6.05 24.15 -7.75 23.35 L-9.75 22.25 -18.0 22.15 Q-22.2 21.0 -22.9 18.8 L-23.25 17.0 Q-23.5 15.9 -24.15 15.15 -29.9 14.6 -30.75 13.1 L-31.1 11.6 Q-31.25 10.55 -31.75 9.85 -34.05 6.55 -34.15 4.25 -34.3 2.2 -36.1 -2.3 -37.9 -6.7 -37.9 -7.15 -37.9 -8.0 -37.4 -8.2 L-32.0 -9.25 -32.3 -13.3 Q-32.5 -15.75 -31.8 -17.15 -31.2 -18.4 -28.7 -19.1 -25.75 -19.95 -25.3 -20.3 -23.45 -21.9 -22.15 -20.95 -21.5 -20.5 -20.8 -19.05 L-19.7 -20.2 Q-18.3 -21.15 -14.6 -21.15 L-8.7 -20.45 Q-5.85 -19.8 -4.5 -19.15 -4.0 -18.95 -3.35 -17.9 -2.85 -17.05 -1.75 -17.0 -0.3 -16.9 4.2 -15.3 8.9 -13.6 8.9 -13.0 M7.0 -7.0 Q10.6 -7.35 11.6 -5.6 11.9 -5.1 11.9 -3.55 11.9 -1.85 11.45 -1.4 10.15 -0.25 5.1 -0.25 1.15 -0.25 0.2 -1.9 -0.3 -2.75 0.0 -3.65 0.0 -5.5 1.05 -6.3 2.65 -7.6 7.0 -7.0 M28.0 -9.05 Q28.0 -10.15 32.85 -10.85 37.65 -11.55 37.65 -10.3 37.65 -9.4 35.9 -6.8 34.15 -4.2 34.15 -0.85 L34.25 -0.3 34.5 0.0 36.5 0.0 Q37.9 -1.05 38.85 -3.2 40.15 -4.9 44.25 -5.4 50.7 -6.2 52.4 -8.0 54.1 -9.7 56.3 -9.9 L60.25 -10.4 64.5 -10.4 66.2 -8.35 Q67.4 -6.6 67.4 -6.15 L66.9 -4.9 Q66.4 -3.7 66.4 -2.95 66.4 -1.9 66.8 -0.95 L67.15 0.55 Q67.15 1.7 65.8 2.4 64.4 3.05 64.4 4.1 L65.15 9.25 Q65.15 10.15 64.3 11.7 L63.0 14.0 Q62.6 14.9 62.55 16.0 62.2 16.95 59.9 18.5 58.95 19.15 58.75 20.7 L58.4 23.0 Q58.1 23.75 56.8 24.05 55.5 24.35 55.15 25.15 L54.65 26.4 Q54.3 26.9 53.5 26.9 51.4 26.9 48.15 25.0 L44.9 22.75 44.65 26.15 Q44.55 27.05 42.05 27.7 L35.6 28.4 30.9 27.7 Q28.3 27.0 25.3 27.0 21.1 27.0 20.25 27.7 L19.35 28.4 14.0 21.45 Q14.0 20.6 15.3 19.05 16.85 17.2 18.5 17.65 18.3 16.35 18.6 14.7 18.95 13.05 19.6 11.85 L20.55 10.65 Q21.6 9.8 24.0 9.25 24.55 9.1 24.25 8.05 23.75 6.85 23.75 6.5 23.75 5.6 24.65 1.8 25.65 -2.4 26.35 -3.8 L27.5 -6.35 Q28.0 -7.7 28.0 -9.05" fill="#c56565" fill-rule="evenodd" stroke="none"/>
  </g>
</svg>
