<?xml version="1.0" encoding="UTF-8" standalone="no"?>
<svg xmlns:ffdec="https://www.free-decompiler.com/flash" xmlns:xlink="http://www.w3.org/1999/xlink" ffdec:objectType="shape" height="83.2px" width="76.35px" xmlns="http://www.w3.org/2000/svg">
  <g transform="matrix(1.0, 0.0, 0.0, 1.0, 0.5, 0.5)">
    <path d="M35.0 6.65 L35.05 5.85 Q34.9 5.1 35.15 4.3 L35.65 2.85 Q36.6 0.6 39.1 0.15 L42.3 0.3 Q43.35 0.65 44.45 1.45 46.6 3.3 47.8 5.9 49.15 8.6 48.95 11.55 L48.55 14.1 46.05 21.55 Q45.45 23.2 45.3 24.75 L45.35 25.65 45.8 26.5 46.85 26.55 47.55 26.1 48.55 26.6 48.25 28.3 46.95 28.95 44.75 26.8 44.45 25.9 Q43.55 23.1 44.25 20.4 44.9 17.45 45.85 14.5 46.8 11.25 46.3 7.95 45.8 4.65 43.5 2.35 L42.35 1.95 41.7 2.0 40.5 2.4 Q39.45 2.85 38.75 3.7 L38.3 4.6 Q37.4 6.9 39.6 7.95 L40.0 8.25 40.6 8.55 40.15 10.1 39.85 10.25 Q38.0 10.65 36.55 9.1 L35.0 6.65 M50.75 47.75 L54.85 46.15 Q55.75 45.8 56.45 45.8 L56.95 45.85 57.55 46.95 57.65 46.9 58.1 46.85 58.75 46.8 59.1 47.0 59.1 47.3 59.1 47.45 58.15 48.45 Q60.45 46.85 62.85 48.4 L63.1 48.55 62.35 49.9 Q63.8 51.8 65.6 53.15 L66.1 53.4 Q67.1 54.0 68.05 54.3 L67.55 54.85 66.6 55.9 64.1 58.3 63.45 58.9 55.95 65.4 Q53.5 67.45 50.8 69.15 L49.8 69.75 47.9 71.0 Q44.3 73.2 40.5 73.9 L40.4 73.45 Q41.05 70.85 39.7 68.45 L38.95 67.3 38.45 66.35 38.35 65.85 36.6 64.0 37.95 62.35 Q37.45 62.25 37.75 61.15 L38.1 59.15 37.35 58.45 37.25 57.8 41.1 54.45 42.15 54.95 Q44.25 54.55 45.95 53.4 48.45 51.6 50.45 49.2 L50.75 47.75 M24.95 44.0 L23.45 44.7 22.5 43.85 23.35 42.1 22.9 40.55 Q21.5 39.75 19.9 39.35 L17.3 38.9 14.2 39.0 11.4 39.35 Q8.6 39.6 6.1 38.4 4.75 37.7 3.6 36.8 L1.85 35.25 Q0.3 32.65 0.0 29.8 L0.05 29.3 Q0.45 26.5 1.9 23.95 L2.75 24.95 Q4.0 24.15 5.45 23.5 L7.45 23.3 9.0 23.7 9.5 23.95 11.55 25.05 12.45 26.65 12.4 27.65 Q12.0 29.15 10.55 29.8 L9.65 30.1 8.9 29.75 8.15 27.25 6.45 25.8 Q5.8 25.35 5.2 25.55 4.2 26.05 3.5 26.9 2.5 28.1 2.9 29.7 3.0 30.45 3.4 31.05 4.05 32.6 5.2 33.8 7.35 35.7 10.15 36.6 L12.45 36.95 Q15.75 36.6 19.1 36.8 21.4 37.0 23.35 38.4 26.05 40.1 25.6 43.2 L25.5 43.5 24.95 44.0 M29.3 9.05 L30.6 9.95 Q31.9 11.4 32.3 13.25 L32.95 15.55 33.1 16.45 28.9 19.85 Q26.9 21.6 24.45 22.8 L23.35 23.4 19.45 25.8 23.35 23.4 24.45 22.8 Q26.9 21.6 28.9 19.85 L33.1 16.45 33.15 16.8 Q33.8 19.95 35.8 22.5 L36.85 24.3 38.0 26.05 Q40.8 30.0 45.2 32.55 L45.45 32.7 45.5 32.8 Q48.15 34.2 49.9 36.6 L49.9 37.35 49.05 37.3 Q48.45 37.15 47.85 37.5 46.3 38.35 46.55 40.05 L45.4 39.95 Q43.95 40.35 43.05 41.65 42.65 42.25 42.9 42.75 L41.7 42.55 Q40.8 42.75 40.15 43.4 L39.65 45.0 39.05 44.65 36.25 46.15 36.5 47.75 35.7 47.05 34.4 47.2 32.4 48.8 31.65 49.1 Q30.55 47.2 29.9 44.95 L29.55 43.5 30.1 42.45 Q32.95 42.25 35.4 40.6 40.4 37.3 45.5 32.8 40.4 37.3 35.4 40.6 32.95 42.25 30.1 42.45 L29.55 43.5 29.3 42.65 Q28.6 39.0 27.05 35.6 26.45 34.05 25.35 32.55 22.85 28.8 19.45 25.8 L17.1 23.9 Q14.6 22.1 13.65 19.3 L29.3 9.05 M6.05 36.6 L5.85 36.5 5.55 36.25 5.45 36.2 5.15 36.0 4.95 35.8 4.45 35.55 4.05 35.2 3.5 34.45 3.4 34.35 3.0 33.7 2.85 33.45 2.4 32.75 2.85 33.45 3.0 33.7 3.4 34.35 3.5 34.45 4.05 35.2 4.45 35.55 4.95 35.8 5.15 36.0 5.45 36.2 5.55 36.25 5.85 36.5 6.05 36.6 M38.35 65.85 L39.0 65.75 41.35 64.85 Q43.55 63.75 45.5 62.45 L46.5 61.8 54.7 56.1 62.35 49.9 54.7 56.1 46.5 61.8 45.5 62.45 Q43.55 63.75 41.35 64.85 L39.0 65.75 38.35 65.85 M37.95 62.35 L38.25 62.3 Q40.65 61.85 42.7 60.5 L50.7 54.9 Q54.75 52.05 58.15 48.45 54.75 52.05 50.7 54.9 L42.7 60.5 Q40.65 61.85 38.25 62.3 L37.95 62.35 M45.6 70.1 L45.35 70.15 44.95 70.3 45.2 70.0 Q45.8 69.65 45.8 69.1 L45.25 69.25 44.95 69.3 44.85 69.1 44.85 68.95 45.0 68.6 Q45.2 68.3 44.9 68.1 L44.7 68.0 44.5 67.95 44.15 68.0 Q43.85 68.25 43.7 68.0 L43.65 67.7 43.9 66.95 44.0 66.55 43.8 66.3 42.6 66.2 43.8 66.3 44.0 66.55 43.9 66.95 43.65 67.7 43.7 68.0 Q43.85 68.25 44.15 68.0 L44.5 67.95 44.7 68.0 44.9 68.1 Q45.2 68.3 45.0 68.6 L44.85 68.95 44.85 69.1 44.95 69.3 45.25 69.25 45.8 69.1 Q45.8 69.65 45.2 70.0 L44.95 70.3 45.35 70.15 45.6 70.1 M42.2 63.4 L41.9 63.4 41.95 63.15 42.1 63.0 42.2 62.8 42.3 62.5 42.05 62.65 Q41.95 62.7 41.8 62.85 L41.0 63.0 41.1 62.95 41.65 62.5 41.1 62.95 41.0 63.0 41.8 62.85 Q41.95 62.7 42.05 62.65 L42.3 62.5 42.2 62.8 42.1 63.0 41.95 63.15 41.9 63.4 42.2 63.4" fill="#cccccc" fill-rule="evenodd" stroke="none"/>
    <path d="M35.0 6.65 L36.55 9.1 37.1 14.1 33.1 16.45 37.1 14.1 Q37.7 18.35 39.8 22.1 41.1 24.05 42.85 25.4 L44.75 26.8 46.95 28.95 48.25 28.3 49.65 28.95 52.25 30.9 54.35 32.8 53.0 33.3 52.6 35.5 51.95 34.95 50.05 35.95 49.9 36.6 Q48.15 34.2 45.5 32.8 L45.45 32.7 45.2 32.55 Q40.8 30.0 38.0 26.05 L36.85 24.3 35.8 22.5 Q33.8 19.95 33.15 16.8 L33.1 16.45 32.95 15.55 32.3 13.25 Q31.9 11.4 30.6 9.95 L29.3 9.05 32.05 7.25 29.3 9.05 13.65 19.3 10.05 21.6 9.6 21.0 Q13.1 17.75 17.15 15.1 22.4 11.6 27.85 8.6 L31.65 6.6 32.05 7.25 33.85 6.05 34.45 5.85 35.0 6.65 M50.9 45.3 L49.95 46.05 50.75 47.75 50.45 49.2 Q48.45 51.6 45.95 53.4 44.25 54.55 42.15 54.95 L41.1 54.45 40.35 52.8 38.0 53.8 Q33.65 55.4 29.35 54.6 L27.8 54.05 Q26.75 53.5 25.75 52.3 L27.75 51.7 28.5 51.5 Q29.3 51.25 29.8 52.0 L29.7 50.75 Q30.3 49.95 31.45 49.85 L32.1 49.85 31.65 49.1 32.4 48.8 34.4 47.2 35.7 47.05 36.5 47.75 36.25 46.15 39.05 44.65 39.65 45.0 40.15 43.4 Q40.8 42.75 41.7 42.55 L42.9 42.75 Q42.65 42.25 43.05 41.65 43.95 40.35 45.4 39.95 L46.55 40.05 Q46.3 38.35 47.85 37.5 48.45 37.15 49.05 37.3 L49.9 37.35 49.9 36.6 51.15 39.55 51.45 40.8 Q51.95 43.15 50.9 45.3 M49.65 28.95 L49.25 29.95 47.2 32.15 Q46.45 32.8 45.45 32.7 46.45 32.8 47.2 32.15 L49.25 29.95 49.65 28.95 M38.0 53.8 Q36.05 53.05 34.3 52.0 32.95 51.2 32.1 49.85 32.95 51.2 34.3 52.0 36.05 53.05 38.0 53.8 M40.35 52.8 L43.05 51.1 49.95 46.05 43.05 51.1 40.35 52.8" fill="#999999" fill-rule="evenodd" stroke="none"/>
    <path d="M54.35 32.8 Q55.35 33.65 55.7 35.0 56.0 36.55 55.55 38.15 55.2 39.8 54.5 41.3 L53.8 42.3 50.9 45.3 Q51.95 43.15 51.45 40.8 L51.15 39.55 49.9 36.6 50.05 35.95 51.95 34.95 52.6 35.5 53.0 33.3 54.35 32.8" fill="#666666" fill-rule="evenodd" stroke="none"/>
    <path d="M68.05 54.3 L69.95 53.8 71.45 55.3 72.35 55.15 72.75 55.65 74.0 55.2 75.35 56.15 75.25 56.85 74.25 59.2 Q73.55 60.6 69.5 64.55 65.45 68.4 60.9 71.3 L55.2 74.9 50.2 78.25 Q48.25 79.5 46.05 80.5 L43.15 81.8 41.3 82.2 39.9 81.25 Q39.75 80.6 40.05 79.8 L40.45 78.8 40.15 77.8 40.3 77.1 Q39.55 76.25 39.6 75.15 39.65 74.1 40.4 73.45 L40.2 73.95 40.5 73.9 Q44.3 73.2 47.9 71.0 L49.8 69.75 50.8 69.15 Q53.5 67.45 55.95 65.4 L63.45 58.9 64.1 58.3 66.6 55.9 67.55 54.85 68.05 54.3 M40.3 77.1 L40.6 77.05 Q42.2 76.9 43.7 76.1 L49.15 73.0 56.8 67.65 58.35 66.55 59.15 65.95 66.6 59.9 71.45 55.3 66.6 59.9 59.15 65.95 58.35 66.55 56.8 67.65 49.15 73.0 43.7 76.1 Q42.2 76.9 40.6 77.05 L40.3 77.1" fill="#333333" fill-rule="evenodd" stroke="none"/>
    <path d="M25.75 52.3 Q24.75 49.8 25.05 47.0 L25.1 46.6 24.95 44.0 25.5 43.5 25.6 43.2 Q26.05 40.1 23.35 38.4 21.3 34.0 17.25 31.0 L14.35 29.05 12.4 27.65 12.45 26.65 11.55 25.05 9.5 23.95 9.0 23.7 8.75 22.8 10.0 21.65 10.05 21.6 13.65 19.3 Q14.6 22.1 17.1 23.9 L19.45 25.8 14.35 29.05 19.45 25.8 Q22.85 28.8 25.35 32.55 26.45 34.05 27.05 35.6 28.6 39.0 29.3 42.65 L29.55 43.5 29.9 44.95 Q30.55 47.2 31.65 49.1 L32.1 49.85 31.45 49.85 Q30.3 49.95 29.7 50.75 L29.8 52.0 Q29.3 51.25 28.5 51.5 L27.75 51.7 25.75 52.3 M25.1 46.6 L29.55 43.5 25.1 46.6" fill="#ffffff" fill-rule="evenodd" stroke="none"/>
    <path d="M48.25 28.3 L48.55 26.6 47.55 26.1 46.85 26.55 45.8 26.5 45.35 25.65 45.3 24.75 Q45.45 23.2 46.05 21.55 L48.55 14.1 48.95 11.55 Q49.15 8.6 47.8 5.9 46.6 3.3 44.45 1.45 43.35 0.65 42.3 0.3 L39.1 0.15 Q36.6 0.6 35.65 2.85 L35.15 4.3 Q34.9 5.1 35.05 5.85 L35.0 6.65 36.55 9.1 Q38.0 10.65 39.85 10.25 L40.15 10.1 40.6 8.55 40.0 8.25 39.6 7.95 Q37.4 6.9 38.3 4.6 L38.75 3.7 Q39.45 2.85 40.5 2.4 L41.7 2.0 42.35 1.95 43.5 2.35 Q45.8 4.65 46.3 7.95 46.8 11.25 45.85 14.5 44.9 17.45 44.25 20.4 43.55 23.1 44.45 25.9 L44.75 26.8 46.95 28.95 48.25 28.3 49.65 28.95 52.25 30.9 54.35 32.8 Q55.35 33.65 55.7 35.0 56.0 36.55 55.55 38.15 55.2 39.8 54.5 41.3 L53.8 42.3 50.9 45.3 49.95 46.05 50.75 47.75 54.85 46.15 Q55.75 45.8 56.45 45.8 L56.95 45.85 57.55 46.95 57.65 46.9 58.1 46.85 58.75 46.8 59.1 47.0 59.1 47.3 59.1 47.45 58.15 48.45 Q60.45 46.85 62.85 48.4 L63.1 48.55 62.35 49.9 Q63.8 51.8 65.6 53.15 L66.1 53.4 Q67.1 54.0 68.05 54.3 L69.95 53.8 71.45 55.3 72.35 55.15 72.75 55.65 74.0 55.2 75.35 56.15 75.25 56.85 74.25 59.2 Q73.55 60.6 69.5 64.55 65.45 68.4 60.9 71.3 L55.2 74.9 50.2 78.25 Q48.25 79.5 46.05 80.5 L43.15 81.8 41.3 82.2 39.9 81.25 Q39.75 80.6 40.05 79.8 L40.45 78.8 40.15 77.8 40.3 77.1 Q39.55 76.25 39.6 75.15 39.65 74.1 40.4 73.45 41.05 70.85 39.7 68.45 L38.95 67.3 38.45 66.35 38.35 65.85 36.6 64.0 37.95 62.35 Q37.45 62.25 37.75 61.15 L38.1 59.15 37.35 58.45 37.25 57.8 41.1 54.45 40.35 52.8 38.0 53.8 Q33.65 55.4 29.35 54.6 L27.8 54.05 Q26.75 53.5 25.75 52.3 24.75 49.8 25.05 47.0 L25.1 46.6 24.95 44.0 23.45 44.7 22.5 43.85 23.35 42.1 22.9 40.55 Q21.5 39.75 19.9 39.35 L17.3 38.9 14.2 39.0 11.4 39.35 Q8.6 39.6 6.1 38.4 4.75 37.7 3.6 36.8 L1.85 35.25 Q0.3 32.65 0.0 29.8 L0.05 29.3 Q0.45 26.5 1.9 23.95 L2.75 24.95 Q4.0 24.15 5.45 23.5 L7.45 23.3 9.0 23.7 8.75 22.8 10.0 21.65 9.6 21.0 Q13.1 17.75 17.15 15.1 22.4 11.6 27.85 8.6 L31.65 6.6 33.4 5.85 33.75 5.85 34.15 5.65 Q34.35 5.7 34.45 5.85 L35.05 5.85 M29.3 9.05 L30.6 9.95 Q31.9 11.4 32.3 13.25 L32.95 15.55 33.1 16.45 33.15 16.8 Q33.8 19.95 35.8 22.5 L36.85 24.3 38.0 26.05 Q40.8 30.0 45.2 32.55 M37.1 14.1 L36.55 9.1 M35.0 6.65 L34.45 5.85 33.85 6.05 32.05 7.25 29.3 9.05 13.65 19.3 Q14.6 22.1 17.1 23.9 L19.45 25.8 Q22.85 28.8 25.35 32.55 26.45 34.05 27.05 35.6 28.6 39.0 29.3 42.65 L29.55 43.5 29.9 44.95 Q30.55 47.2 31.65 49.1 L32.1 49.85 Q32.95 51.2 34.3 52.0 36.05 53.05 38.0 53.8 M33.75 5.85 L33.85 6.05 M37.1 14.1 Q37.7 18.35 39.8 22.1 41.1 24.05 42.85 25.4 L44.75 26.8 M45.5 32.8 L45.45 32.7 M49.9 36.6 Q48.15 34.2 45.5 32.8 M50.9 45.3 Q51.95 43.15 51.45 40.8 L51.15 39.55 49.9 36.6 M40.5 73.9 Q44.3 73.2 47.9 71.0 L49.8 69.75 50.8 69.15 Q53.5 67.45 55.95 65.4 L63.45 58.9 64.1 58.3 66.6 55.9 67.55 54.85 68.05 54.3 M71.45 55.3 L66.6 59.9 59.15 65.95 58.35 66.55 56.8 67.65 49.15 73.0 43.7 76.1 Q42.2 76.9 40.6 77.05 L40.3 77.1 M23.35 38.4 Q21.4 37.0 19.1 36.8 15.75 36.6 12.45 36.95 L10.15 36.6 Q7.35 35.7 5.2 33.8 4.05 32.6 3.4 31.05 3.0 30.45 2.9 29.7 2.5 28.1 3.5 26.9 4.2 26.05 5.2 25.55 5.8 25.35 6.45 25.8 L8.15 27.25 8.9 29.75 9.65 30.1 10.55 29.8 Q12.0 29.15 12.4 27.65 L12.45 26.65 11.55 25.05 9.5 23.95 9.0 23.7 M10.05 21.6 L10.0 21.65 M12.4 27.65 L14.35 29.05 17.25 31.0 Q21.3 34.0 23.35 38.4 26.05 40.1 25.6 43.2 L25.5 43.5 24.95 44.0 M13.65 19.3 L10.05 21.6 M62.35 49.9 L54.7 56.1 46.5 61.8 45.5 62.45 Q43.55 63.75 41.35 64.85 L39.0 65.75 38.35 65.85 M40.5 73.9 L40.2 73.95 40.4 73.45 M49.95 46.05 L43.05 51.1 40.35 52.8 M41.1 54.45 L42.15 54.95 Q44.25 54.55 45.95 53.4 48.45 51.6 50.45 49.2 L50.75 47.75 M58.15 48.45 Q54.75 52.05 50.7 54.9 L42.7 60.5 Q40.65 61.85 38.25 62.3 L37.95 62.35" fill="none" stroke="#000000" stroke-linecap="round" stroke-linejoin="round" stroke-width="1.0"/>
    <path d="M33.1 16.45 L37.1 14.1 M19.45 25.8 L23.35 23.4 24.45 22.8 Q26.9 21.6 28.9 19.85 L33.1 16.45 M45.2 32.55 L45.45 32.7 Q46.45 32.8 47.2 32.15 L49.25 29.95 49.65 28.95 M45.5 32.8 Q40.4 37.3 35.4 40.6 32.95 42.25 30.1 42.45 L29.55 43.5 25.1 46.6 M14.35 29.05 L19.45 25.8" ffdec:has-small-stroke="true" ffdec:original-stroke-width="0.5" fill="none" stroke="#000000" stroke-linecap="round" stroke-linejoin="round" stroke-width="1.0"/>
    <path d="M2.4 32.75 L2.85 33.45 3.0 33.7 3.4 34.35 3.5 34.45 4.05 35.2 4.45 35.55 4.95 35.8 5.15 36.0 5.45 36.2 5.55 36.25 5.85 36.5 6.05 36.6 M41.65 62.5 L41.1 62.95 41.0 63.0 41.8 62.85 Q41.95 62.7 42.05 62.65 L42.3 62.5 42.2 62.8 42.1 63.0 41.95 63.15 41.9 63.4 42.2 63.4 M42.6 66.2 L43.8 66.3 44.0 66.55 43.9 66.95 43.65 67.7 43.7 68.0 Q43.85 68.25 44.15 68.0 L44.5 67.95 44.7 68.0 44.9 68.1 Q45.2 68.3 45.0 68.6 L44.85 68.95 44.85 69.1 44.95 69.3 45.25 69.25 45.8 69.1 Q45.8 69.65 45.2 70.0 L44.95 70.3 45.35 70.15 45.6 70.1" ffdec:has-small-stroke="true" ffdec:original-stroke-width="0.5" fill="none" stroke="#ffffff" stroke-linecap="round" stroke-linejoin="round" stroke-width="1.0"/>
  </g>
</svg>
