<?xml version="1.0" encoding="UTF-8" standalone="no"?>
<svg xmlns:ffdec="https://www.free-decompiler.com/flash" xmlns:xlink="http://www.w3.org/1999/xlink" ffdec:objectType="shape" height="95.5px" width="102.55px" xmlns="http://www.w3.org/2000/svg">
  <g transform="matrix(1.0, 0.0, 0.0, 1.0, 35.65, 68.1)">
    <path d="M42.1 -51.3 L42.0 -52.15 Q42.0 -53.95 45.05 -55.0 48.6 -56.15 51.85 -53.15 55.9 -50.8 56.25 -49.7 55.9 -48.3 55.9 -47.05 L56.4 -45.8 56.9 -43.9 Q56.9 -42.65 55.75 -41.65 53.7 -39.85 48.9 -40.4 49.1 -39.95 48.8 -39.2 48.4 -38.25 47.5 -38.25 44.15 -38.25 41.75 -42.85 40.55 -45.15 40.0 -47.5 40.0 -49.5 43.35 -50.5 42.35 -50.85 42.1 -51.3 M24.5 -54.5 Q27.4 -56.9 28.25 -57.15 33.85 -58.95 36.9 -56.35 38.9 -54.6 38.9 -52.65 L38.4 -50.35 37.9 -48.55 37.8 -47.6 Q37.5 -47.1 36.15 -46.9 37.15 -45.3 36.95 -44.75 36.65 -43.95 30.65 -43.4 L30.45 -42.7 Q30.15 -42.25 29.35 -42.25 28.05 -42.25 27.4 -42.8 26.65 -43.5 26.0 -43.65 L22.85 -44.25 Q22.4 -44.3 22.25 -44.55 21.6 -45.45 21.75 -46.35 L22.1 -47.75 21.5 -51.15 Q21.5 -51.95 24.5 -54.5 M31.75 -30.4 Q31.75 -31.45 33.2 -33.0 34.75 -34.6 36.7 -35.5 41.85 -37.95 43.75 -33.25 L44.1 -33.6 44.85 -33.9 Q46.5 -33.9 46.85 -32.4 L46.9 -30.9 Q46.9 -29.05 46.25 -28.05 L43.25 -24.5 40.5 -24.5 Q34.75 -25.25 32.9 -27.05 31.75 -28.15 31.75 -30.4 M5.8 -44.5 Q7.65 -41.15 7.65 -39.75 L7.4 -36.0 Q7.4 -34.55 7.0 -34.15 5.75 -32.85 0.9 -32.9 L0.55 -31.8 Q0.1 -31.0 -1.0 -31.0 -3.1 -31.0 -5.1 -33.6 -6.05 -34.9 -6.65 -36.3 -6.65 -42.4 -4.6 -45.15 -2.4 -48.2 3.25 -48.65 L5.8 -44.5 M17.0 -21.9 Q23.65 -22.8 26.6 -21.1 28.65 -19.9 28.65 -17.75 28.65 -14.55 27.15 -11.3 24.6 -5.75 18.75 -5.75 15.6 -5.75 13.75 -10.8 12.8 -13.35 12.5 -16.0 12.5 -18.65 12.8 -19.4 13.65 -21.5 17.0 -21.9 M5.0 -15.0 L5.55 -15.7 Q5.95 -16.15 6.5 -16.15 7.3 -16.15 7.4 -15.1 7.4 -14.0 6.1 -12.9 4.25 -11.35 1.0 -11.65 0.7 -11.45 0.3 -10.45 -0.05 -9.55 -0.75 -9.25 L-3.0 -9.15 -4.6 -7.3 Q-5.8 -6.1 -9.15 -6.15 -9.3 -4.9 -9.8 -4.15 -10.7 -2.75 -14.3 -2.15 -11.4 0.4 -12.0 4.9 -12.15 6.3 -10.5 8.5 -9.75 9.45 -9.75 12.05 L-10.05 14.45 Q-10.95 16.6 -14.0 15.75 L-15.35 16.85 Q-16.5 17.65 -17.75 17.65 -19.85 17.65 -20.45 16.8 L-20.9 15.6 Q-21.5 14.95 -23.2 15.35 -25.25 15.85 -27.15 15.0 -29.1 14.15 -29.6 13.1 -29.9 12.5 -29.9 10.8 L-29.65 9.7 -29.4 8.55 -30.0 7.2 -30.65 5.75 -30.75 4.25 Q-30.8 3.3 -31.25 3.0 -34.2 1.05 -34.8 0.05 -35.15 -0.55 -35.15 -2.45 -35.15 -4.75 -34.65 -5.95 -34.15 -7.15 -32.15 -9.75 L-33.05 -11.35 -33.4 -12.25 Q-33.4 -13.2 -32.25 -14.6 -30.95 -16.25 -29.25 -16.9 -28.1 -17.35 -27.25 -19.05 -26.4 -20.85 -25.25 -21.4 L-18.55 -21.5 Q-18.4 -24.75 -12.25 -21.4 -5.95 -17.3 -5.65 -17.3 L-3.9 -18.2 Q-1.9 -19.15 -0.35 -19.15 2.0 -19.15 3.55 -17.3 4.7 -15.25 5.0 -15.0 M4.0 -4.85 Q4.0 -7.2 6.85 -4.85 9.65 -2.45 9.65 -0.8 9.65 1.2 9.3 2.55 8.9 3.85 8.9 7.1 8.9 9.55 7.75 10.4 L5.9 10.5 Q5.9 12.35 4.8 13.05 L3.65 13.8 4.4 17.4 4.25 19.9 Q3.85 21.0 1.75 22.65 L-2.0 22.65 Q-6.5 20.95 -7.55 18.95 -7.9 18.2 -7.9 15.2 L-7.75 11.95 Q-6.95 10.9 -5.65 8.35 -5.3 7.3 -2.6 4.65 L0.0 2.15 -0.3 0.9 -0.65 -1.05 Q-0.65 -2.45 -0.2 -3.05 0.85 -4.55 4.1 -4.25 L4.0 -4.85 M31.65 -1.4 L30.4 -0.7 Q28.9 0.3 27.85 2.15 L28.7 2.4 31.25 1.7 36.5 0.9 Q37.8 -2.4 41.5 -2.15 L47.35 -2.5 50.2 -5.15 Q52.15 -6.75 55.0 -6.75 55.55 -6.75 56.4 -7.8 L58.0 -9.8 Q60.2 -12.0 62.15 -8.8 63.8 -7.1 66.0 -5.7 66.9 -5.1 66.9 -3.75 66.9 -2.4 65.7 -0.2 64.6 1.95 63.15 3.35 63.7 3.55 63.85 4.3 L63.9 5.25 Q63.9 6.95 62.35 8.7 60.4 10.85 57.0 11.9 57.5 13.3 58.1 14.05 58.4 14.45 58.4 15.2 55.5 22.4 51.75 22.4 L49.35 22.1 48.5 21.5 Q47.9 24.15 45.1 24.15 L42.25 23.7 41.2 23.25 39.9 24.2 Q38.65 25.15 38.25 25.15 37.4 25.15 36.75 24.6 L35.9 23.75 Q35.25 24.95 34.7 25.05 L27.5 25.15 Q27.0 25.15 26.55 26.3 26.1 27.4 24.6 27.4 18.8 27.4 16.6 24.4 15.5 22.9 15.5 20.9 15.5 18.75 18.25 16.35 L21.0 13.9 20.75 12.7 20.5 11.5 Q20.5 8.75 21.95 7.4 L25.25 4.4 Q25.85 3.7 26.4 0.45 27.35 -2.4 30.1 -2.4 31.15 -2.4 31.5 -1.9 L31.65 -1.4 M-22.65 -67.0 Q-17.15 -67.7 -13.05 -64.65 -9.25 -61.8 -9.25 -58.0 -9.25 -56.75 -16.3 -56.9 L-17.65 -55.8 Q-18.95 -55.0 -20.1 -55.0 L-22.8 -55.35 -27.0 -55.75 Q-32.3 -55.75 -34.15 -59.35 -34.15 -60.15 -32.85 -62.25 -31.45 -64.5 -30.5 -64.9 L-28.35 -65.5 Q-26.65 -66.15 -25.9 -67.5 -25.4 -68.4 -24.2 -68.0 -23.4 -67.7 -22.65 -67.0 M-26.5 -52.0 Q-25.35 -49.25 -19.95 -48.6 -15.35 -48.05 -15.75 -45.65 -15.25 -45.75 -13.85 -46.6 -12.65 -47.4 -11.5 -47.4 -10.65 -47.4 -10.25 -46.6 L-10.0 -45.7 Q-10.0 -45.0 -10.9 -44.25 L-11.8 -43.35 -11.25 -41.6 Q-10.75 -40.25 -10.75 -39.6 -10.75 -37.9 -14.0 -37.9 -14.0 -35.85 -14.15 -35.25 -14.55 -33.55 -16.25 -32.5 L-18.0 -32.5 -19.1 -32.85 -20.25 -33.15 Q-20.6 -33.15 -20.85 -32.8 L-21.75 -32.25 -23.75 -32.25 Q-25.3 -32.8 -26.75 -34.15 L-28.4 -36.25 -30.6 -38.05 Q-32.45 -39.35 -32.65 -40.3 L-33.5 -42.35 Q-34.15 -43.75 -34.15 -44.5 -34.15 -46.25 -34.9 -47.15 L-35.65 -48.15 Q-35.65 -48.95 -34.3 -49.25 -32.45 -49.7 -31.05 -51.4 -30.05 -52.7 -28.75 -53.1 -27.2 -53.6 -26.5 -52.0" fill="#966161" fill-rule="evenodd" stroke="none"/>
  </g>
</svg>
