<?xml version="1.0" encoding="UTF-8" standalone="no"?>
<svg xmlns:ffdec="https://www.free-decompiler.com/flash" xmlns:xlink="http://www.w3.org/1999/xlink" ffdec:objectType="shape" height="86.6px" width="86.8px" xmlns="http://www.w3.org/2000/svg">
  <g transform="matrix(1.0, 0.0, 0.0, 1.0, 31.4, 63.95)">
    <path d="M43.45 -52.0 Q43.65 -51.7 43.65 -50.8 43.65 -50.0 39.35 -47.75 35.05 -45.5 33.6 -45.5 32.55 -45.5 30.4 -46.25 L28.5 -47.05 Q28.1 -47.05 25.85 -45.9 23.55 -44.75 22.6 -44.75 21.25 -44.75 20.6 -46.0 L20.25 -47.25 Q20.25 -48.1 21.4 -48.65 22.5 -49.25 22.5 -50.5 L22.25 -53.75 Q22.25 -55.7 25.15 -54.75 29.7 -53.3 30.3 -53.3 L33.95 -53.7 Q34.65 -54.15 36.0 -54.15 L38.25 -53.9 41.75 -53.65 43.45 -52.0 M33.75 -32.5 Q33.75 -33.6 36.3 -35.4 39.15 -37.35 40.65 -35.55 L41.9 -33.95 43.0 -32.65 45.6 -31.25 Q46.65 -30.6 46.65 -30.05 46.65 -29.45 40.5 -26.25 38.2 -26.25 35.75 -29.4 34.5 -31.0 33.75 -32.5 M4.9 -35.85 Q4.9 -34.7 4.0 -34.5 L-2.9 -34.4 Q-2.75 -34.0 -2.75 -33.1 L-2.8 -31.95 Q-3.0 -31.25 -3.85 -31.25 -6.1 -31.25 -7.7 -33.9 -8.55 -35.2 -8.9 -36.55 -5.05 -42.0 -0.75 -42.15 0.3 -42.2 2.65 -39.4 4.9 -36.7 4.9 -35.85 M16.25 -15.95 Q15.25 -16.9 15.25 -18.2 15.25 -19.0 15.75 -19.25 L17.1 -19.4 Q18.65 -19.4 20.45 -18.25 22.15 -17.2 22.15 -16.6 22.15 -16.25 21.15 -15.45 L20.1 -14.75 Q17.55 -14.75 16.25 -15.95 M53.35 -40.95 Q51.1 -38.5 50.25 -38.0 L46.75 -38.0 43.7 -40.55 Q43.0 -41.1 43.0 -42.5 43.0 -48.15 49.2 -46.9 51.5 -46.45 53.45 -45.25 55.4 -44.05 55.4 -43.15 L53.35 -40.95 M53.45 8.0 L53.9 11.05 Q53.9 12.45 52.8 13.5 51.7 14.6 51.65 17.15 L52.1 20.35 Q51.65 22.65 46.85 22.65 40.25 22.65 33.5 20.7 27.85 18.75 26.8 18.75 L25.7 19.45 Q24.6 20.15 22.6 20.15 19.65 20.15 18.4 18.7 L17.75 17.25 Q17.75 15.85 20.75 14.65 23.85 13.4 24.15 11.0 24.75 8.75 24.75 7.6 25.5 6.55 26.9 6.0 L29.25 5.25 35.5 5.15 42.5 5.35 Q44.05 6.55 45.65 6.4 L46.75 7.15 Q47.6 7.75 47.7 7.75 48.15 7.75 49.75 6.4 L51.6 5.0 Q52.75 5.0 53.45 8.0 M6.9 7.05 Q6.9 8.55 4.95 10.0 2.4 11.9 -2.1 11.9 L-5.5 11.65 Q-6.65 11.15 -6.65 8.9 L-6.2 8.35 -4.65 6.75 -4.9 6.05 Q-4.9 5.25 -3.6 4.9 -1.95 4.4 -1.0 2.75 L-0.1 0.9 Q0.55 -0.2 1.5 -0.4 2.5 0.2 4.7 3.1 6.9 6.1 6.9 7.05 M-28.65 -61.15 Q-28.65 -62.9 -26.3 -63.6 L-21.2 -63.75 Q-13.75 -62.4 -13.75 -57.55 -13.75 -56.75 -14.0 -56.4 -14.65 -55.5 -16.75 -55.5 -21.1 -55.5 -24.5 -56.75 -28.65 -58.35 -28.65 -61.15 M-15.25 -38.65 Q-15.25 -37.6 -15.55 -37.0 L-16.65 -36.25 -19.25 -36.4 -21.65 -36.15 -21.6 -36.0 Q-27.5 -36.15 -29.4 -37.8 -30.4 -38.65 -30.4 -40.75 -30.4 -42.05 -30.0 -42.9 -29.65 -43.75 -29.65 -45.9 -29.4 -49.8 -26.8 -49.05 -24.3 -48.3 -23.15 -44.55 -18.85 -44.8 -16.7 -42.3 -15.25 -40.6 -15.25 -38.65 M-21.7 -19.4 Q-20.7 -20.8 -19.25 -20.3 -17.9 -19.5 -14.8 -18.55 L-11.1 -17.75 -10.65 -18.2 -9.75 -18.65 Q-7.35 -18.65 -3.0 -15.0 -3.0 -14.75 -5.3 -12.9 -7.7 -11.0 -8.25 -11.0 L-10.8 -11.75 -10.9 -9.55 Q-11.15 -8.0 -13.25 -8.0 -15.3 -8.0 -16.3 -8.55 -17.6 -9.2 -18.05 -9.3 -18.55 -8.95 -18.8 -7.8 -19.7 -6.75 -23.85 -6.75 -30.9 -6.75 -30.9 -9.25 L-30.6 -9.9 Q-30.3 -10.25 -30.3 -10.55 L-30.85 -12.05 -31.4 -13.65 Q-31.4 -15.35 -30.9 -15.9 -29.25 -17.7 -23.25 -17.25 L-21.7 -19.4 M-19.05 4.25 L-17.5 4.0 -16.0 3.75 Q-12.9 3.75 -10.75 7.25 -9.7 9.0 -9.25 10.75 L-9.3 12.5 Q-9.9 13.65 -12.85 13.65 -15.25 13.65 -18.7 12.7 -23.2 11.4 -25.05 9.35 -26.35 7.95 -28.5 6.8 -29.65 6.15 -29.65 4.65 -29.65 2.55 -28.2 1.65 -26.7 0.75 -22.75 0.75 -21.3 0.75 -20.05 2.5 L-19.05 4.25" fill="#6b5858" fill-rule="evenodd" stroke="none"/>
  </g>
</svg>
