<?xml version="1.0" encoding="UTF-8" standalone="no"?>
<svg xmlns:ffdec="https://www.free-decompiler.com/flash" xmlns:xlink="http://www.w3.org/1999/xlink" ffdec:objectType="shape" height="82.65px" width="88.0px" xmlns="http://www.w3.org/2000/svg">
  <g transform="matrix(1.0, 0.0, 0.0, 1.0, 33.25, 62.65)">
    <path d="M35.1 -49.55 L30.75 -48.65 24.25 -48.65 Q23.3 -48.6 22.85 -49.35 L22.65 -50.25 Q22.65 -51.75 23.85 -52.55 24.8 -53.2 27.1 -53.75 29.2 -54.2 31.6 -53.8 L35.35 -53.25 36.25 -52.3 36.75 -51.25 Q36.75 -50.1 35.1 -49.55 M34.9 -32.3 Q34.9 -34.45 39.2 -34.0 43.5 -33.55 43.5 -31.65 43.5 -30.75 42.6 -30.35 L40.0 -30.5 Q39.6 -28.9 38.5 -28.9 37.6 -28.9 36.15 -30.6 L34.9 -32.3 M2.35 -38.25 L-1.25 -37.9 -2.9 -37.45 Q-3.65 -37.0 -4.35 -37.0 -6.1 -37.0 -6.65 -38.05 L-6.9 -39.2 Q-6.9 -39.95 -5.35 -41.1 -3.8 -42.25 -2.0 -42.8 2.9 -44.4 2.9 -39.95 2.9 -38.55 2.35 -38.25 M19.45 -19.0 Q24.9 -19.35 24.9 -15.8 24.9 -15.1 24.5 -14.4 23.9 -13.5 22.75 -13.5 L18.5 -13.75 Q15.6 -13.75 14.5 -15.05 13.95 -15.75 14.0 -16.5 14.0 -18.7 19.45 -19.0 M54.25 -43.65 Q54.75 -42.05 54.75 -39.75 54.75 -37.8 54.25 -36.15 53.45 -33.4 51.5 -33.4 50.2 -33.4 49.6 -34.4 49.25 -35.0 49.25 -35.55 45.3 -36.3 43.95 -37.9 43.15 -38.85 43.15 -40.75 43.15 -43.15 44.05 -45.3 45.6 -48.9 48.85 -46.25 L51.85 -45.25 Q53.9 -44.65 54.25 -43.65 M46.5 13.25 Q43.4 16.5 40.1 16.5 L37.0 15.25 Q34.2 14.0 33.4 14.0 L29.55 17.0 Q25.0 20.0 21.0 20.0 19.25 20.0 18.65 19.1 L18.4 18.15 Q18.4 17.3 19.75 16.15 21.25 14.85 23.35 14.25 25.3 13.7 27.0 12.3 28.75 10.85 30.65 10.25 L30.95 8.75 Q31.6 7.65 34.5 7.75 36.45 2.9 43.0 4.6 45.4 5.2 47.35 6.45 49.25 7.7 49.25 8.5 49.25 10.4 46.5 13.25 M3.95 7.6 Q2.1 11.25 -1.25 11.25 -2.75 11.25 -2.75 9.6 -2.05 8.6 -2.05 8.1 -2.05 7.8 -2.4 7.25 L-2.75 6.5 Q-2.75 5.75 -2.0 4.8 -1.15 3.7 -1.0 3.0 L-0.9 1.3 -0.75 -0.3 Q0.3 -3.75 2.85 -1.35 5.25 0.9 5.25 3.45 5.25 5.15 3.95 7.6 M-24.6 -62.65 L-23.85 -62.45 -23.25 -62.25 -18.65 -62.0 -15.25 -62.3 Q-14.5 -62.25 -14.5 -60.15 -14.5 -58.9 -15.3 -58.0 -16.5 -56.75 -19.0 -56.75 -26.9 -56.75 -26.9 -60.25 -26.9 -62.65 -24.6 -62.65 M-17.95 -40.7 Q-18.9 -39.0 -20.75 -39.0 L-24.0 -39.5 Q-25.6 -39.5 -26.15 -40.55 L-26.4 -41.7 Q-26.4 -42.25 -24.95 -43.5 -23.45 -44.85 -21.8 -45.6 -17.25 -47.65 -17.25 -43.05 -17.25 -41.9 -17.95 -40.7 M-27.25 -8.4 Q-33.25 -8.4 -33.25 -12.3 -33.25 -14.25 -31.5 -14.65 L-27.35 -14.75 Q-20.6 -14.75 -18.3 -20.5 -17.7 -22.0 -16.0 -21.45 L-13.25 -20.05 Q-10.8 -19.3 -10.05 -18.0 -9.65 -17.3 -9.65 -15.8 L-9.35 -13.75 Q-9.35 -13.1 -10.9 -11.8 L-13.4 -10.15 Q-15.25 -9.15 -16.0 -9.15 -16.7 -9.15 -17.4 -10.05 L-19.05 -9.65 -20.75 -9.15 -24.8 -8.55 -27.25 -8.4 M-16.25 9.0 L-19.1 8.55 -21.55 7.65 -25.35 6.35 -25.75 5.95 Q-25.75 3.65 -20.05 4.7 -14.4 5.75 -14.4 7.45 -14.4 9.0 -16.25 9.0" fill="#6b5858" fill-rule="evenodd" stroke="none"/>
  </g>
</svg>
