<?xml version="1.0" encoding="UTF-8" standalone="no"?>
<svg xmlns:ffdec="https://www.free-decompiler.com/flash" xmlns:xlink="http://www.w3.org/1999/xlink" ffdec:objectType="shape" height="76.05px" width="75.8px" xmlns="http://www.w3.org/2000/svg">
  <g transform="matrix(1.0, 0.0, 0.0, 1.0, 22.8, 60.8)">
    <path d="M32.6 -50.55 Q32.3 -50.15 30.35 -49.3 L28.35 -48.5 Q27.45 -48.5 27.15 -49.2 L27.0 -49.75 Q27.0 -50.8 29.45 -51.8 L35.25 -53.75 Q36.75 -53.4 40.0 -49.5 40.0 -48.95 39.5 -48.5 38.9 -48.0 37.85 -48.0 36.4 -48.0 35.45 -49.4 L34.75 -50.8 32.6 -50.55 M37.75 -30.0 Q36.25 -30.0 35.75 -30.5 35.5 -30.75 35.5 -31.25 35.5 -34.05 38.0 -33.65 40.5 -33.25 40.5 -31.9 40.5 -31.2 39.95 -30.7 39.2 -30.0 37.75 -30.0 M53.0 -38.3 Q52.7 -37.0 51.0 -37.0 46.45 -37.0 45.2 -37.8 44.75 -38.05 44.75 -38.75 L48.9 -42.7 Q53.0 -45.5 53.0 -40.05 L53.0 -38.3 M44.1 11.25 Q43.75 12.3 42.75 13.25 40.55 15.25 36.0 15.25 30.25 15.25 30.25 12.75 L30.7 11.6 36.5 11.35 36.75 10.8 36.75 10.7 37.0 10.05 Q37.6 9.45 39.6 9.35 42.5 6.65 44.1 7.35 45.25 7.85 45.25 9.5 45.25 11.1 44.1 11.25 M5.25 3.2 Q5.25 3.8 4.6 4.45 L3.75 5.05 Q5.5 5.7 5.5 6.7 5.5 8.0 3.75 8.0 2.9 8.0 2.3 7.4 L2.25 7.5 Q1.85 8.0 1.1 8.0 -0.45 8.0 -1.25 6.75 L-1.75 5.5 Q-1.75 4.15 1.75 2.65 5.25 1.15 5.25 3.2 M-21.9 -59.1 Q-21.05 -59.7 -18.55 -59.8 -17.9 -61.15 -16.35 -60.65 -13.45 -59.75 -12.25 -59.75 L-10.85 -60.0 -9.5 -60.25 Q-8.35 -60.25 -7.95 -59.65 L-7.75 -59.0 Q-7.75 -58.4 -9.0 -57.75 -10.35 -57.0 -11.75 -57.0 L-14.7 -57.4 -16.4 -57.8 -18.0 -57.5 -19.6 -57.25 Q-21.55 -57.25 -22.1 -57.85 L-22.25 -58.5 -21.9 -59.1 M-4.25 -41.05 Q0.25 -39.8 0.25 -39.0 0.25 -37.75 -1.85 -37.75 -5.3 -37.75 -7.25 -38.85 -8.75 -39.7 -8.75 -40.55 -8.75 -42.3 -4.25 -41.05 M-20.0 -40.0 Q-21.25 -38.25 -21.5 -38.25 -22.55 -38.25 -22.75 -39.55 L-22.75 -40.9 Q-22.75 -43.0 -20.75 -43.45 -18.75 -43.95 -18.75 -42.15 -18.75 -41.75 -20.0 -40.0 M-7.25 -16.5 Q-7.25 -14.5 -11.6 -14.5 -14.2 -14.5 -15.0 -15.6 -15.35 -16.15 -15.25 -16.75 -15.25 -17.75 -14.55 -18.15 -13.65 -18.65 -12.55 -17.0 L-9.2 -17.6 -8.6 -17.75 Q-7.8 -17.75 -7.45 -17.15 L-7.25 -16.5" fill="#999999" fill-rule="evenodd" stroke="none"/>
  </g>
</svg>
