<?xml version="1.0" encoding="UTF-8" standalone="no"?>
<svg xmlns:ffdec="https://www.free-decompiler.com/flash" xmlns:xlink="http://www.w3.org/1999/xlink" ffdec:objectType="shape" height="30.5px" width="21.0px" xmlns="http://www.w3.org/2000/svg">
  <g transform="matrix(1.0, 0.0, 0.0, 1.0, 10.5, 15.0)">
    <path d="M1.0 -8.9 L0.2 -8.9 Q-1.1 -8.9 -1.1 -9.7 -1.1 -10.1 -0.3 -10.6 L2.9 -10.95 2.65 -11.6 Q2.65 -12.55 3.45 -12.55 L3.9 -12.35 3.95 -13.95 Q3.95 -15.0 4.65 -15.0 5.55 -14.95 5.55 -14.1 L5.5 -12.65 6.2 -13.75 Q6.75 -14.7 7.2 -14.7 8.2 -14.7 7.95 -13.25 L7.65 -11.3 Q9.45 -11.05 9.45 -10.35 9.45 -10.0 8.9 -9.55 8.15 -8.9 7.25 -8.9 L6.65 -8.95 7.0 -7.55 Q7.0 -6.65 6.05 -6.65 5.3 -6.65 4.75 -7.3 L4.05 -8.1 3.5 -7.95 2.8 -8.35 Q2.7 -8.6 2.75 -9.2 L2.3 -9.2 1.0 -8.9" fill="url(#gradient0)" fill-rule="evenodd" stroke="none"/>
    <path d="M2.8 -8.35 Q1.55 -7.55 1.05 -6.5 L0.55 -4.95 0.45 -4.4 0.55 -3.45 Q0.5 -2.6 -0.25 -2.6 -1.2 -2.6 -1.1 -4.3 L-1.05 -4.85 Q-0.85 -7.05 1.0 -8.9 L2.3 -9.2 2.75 -9.2 Q2.7 -8.6 2.8 -8.35" fill="#000000" fill-rule="evenodd" stroke="none"/>
    <path d="M0.55 -4.95 Q4.3 -4.7 7.0 -2.0 10.0 0.9 10.0 5.05 10.0 9.15 7.0 12.05 4.15 15.0 0.0 15.0 -4.2 15.0 -7.1 12.05 -10.0 9.15 -10.0 5.05 -10.0 0.9 -7.1 -2.0 -4.55 -4.55 -1.05 -4.85 L-1.1 -4.3 Q-1.2 -2.6 -0.25 -2.6 0.5 -2.6 0.55 -3.45 L0.45 -4.4 0.55 -4.95" fill="url(#gradient1)" fill-rule="evenodd" stroke="none"/>
    <path d="M0.55 -4.95 Q4.3 -4.7 7.0 -2.0 10.0 0.9 10.0 5.05 10.0 9.15 7.0 12.05 4.15 15.0 0.0 15.0 -4.2 15.0 -7.1 12.05 -10.0 9.15 -10.0 5.05 -10.0 0.9 -7.1 -2.0 -4.55 -4.55 -1.05 -4.85" fill="none" stroke="#000000" stroke-linecap="round" stroke-linejoin="round" stroke-opacity="0.9882353" stroke-width="1.0"/>
  </g>
  <defs>
    <radialGradient cx="0" cy="0" gradientTransform="matrix(0.0071, 0.0, 0.0, 0.0071, 4.2, -10.8)" gradientUnits="userSpaceOnUse" id="gradient0" r="819.2" spreadMethod="pad">
      <stop offset="0.0" stop-color="#ffee00"/>
      <stop offset="1.0" stop-color="#ff0000"/>
    </radialGradient>
    <radialGradient cx="0" cy="0" gradientTransform="matrix(0.013, 0.0, 0.0, 0.014, 0.0, 5.05)" gradientUnits="userSpaceOnUse" id="gradient1" r="819.2" spreadMethod="pad">
      <stop offset="0.0" stop-color="#666666"/>
      <stop offset="1.0" stop-color="#2a2a2a"/>
    </radialGradient>
  </defs>
</svg>
