<?xml version="1.0" encoding="UTF-8" standalone="no"?>
<svg xmlns:ffdec="https://www.free-decompiler.com/flash" xmlns:xlink="http://www.w3.org/1999/xlink" ffdec:objectType="shape" height="41.0px" width="41.0px" xmlns="http://www.w3.org/2000/svg">
  <g transform="matrix(1.0, 0.0, 0.0, 1.0, 20.5, 20.5)">
    <path d="M14.0 -14.2 Q20.0 -8.2 20.0 0.0 20.0 8.2 14.0 14.0 8.2 20.0 0.0 20.0 -4.85 20.0 -8.9 17.9 -11.75 16.45 -14.2 14.0 L-15.45 12.6 Q-20.0 7.25 -20.0 0.0 -20.0 -8.2 -14.2 -14.2 L-13.8 -14.55 Q-9.5 -18.55 -4.05 -19.6 L0.0 -20.0 Q8.2 -20.0 14.0 -14.2" fill="#000000" fill-opacity="0.007843138" fill-rule="evenodd" stroke="none"/>
    <path d="M14.0 -14.2 Q20.0 -8.2 20.0 0.0 20.0 8.2 14.0 14.0 8.2 20.0 0.0 20.0 -4.85 20.0 -8.9 17.9 -11.75 16.45 -14.2 14.0 L-15.45 12.6 Q-20.0 7.25 -20.0 0.0 -20.0 -8.2 -14.2 -14.2 L-13.8 -14.55 Q-9.5 -18.55 -4.05 -19.6 L0.0 -20.0 Q8.2 -20.0 14.0 -14.2 Z" fill="none" stroke="#000000" stroke-linecap="round" stroke-linejoin="round" stroke-opacity="0.007843138" stroke-width="1.0"/>
  </g>
</svg>
