<?xml version="1.0" encoding="UTF-8" standalone="no"?>
<svg xmlns:ffdec="https://www.free-decompiler.com/flash" xmlns:xlink="http://www.w3.org/1999/xlink" ffdec:objectType="shape" height="38.65px" width="37.0px" xmlns="http://www.w3.org/2000/svg">
  <g transform="matrix(1.0, 0.0, 0.0, 1.0, 17.15, 18.75)">
    <path d="M1.95 -17.1 Q2.3 -18.75 3.65 -18.75 5.05 -18.75 9.05 -13.65 L9.0 -13.8 9.3 -14.55 Q9.65 -15.0 10.4 -15.0 11.45 -15.0 12.9 -12.1 L14.95 -8.3 15.3 -7.85 Q15.5 -8.15 15.95 -8.3 16.9 -8.65 17.85 -7.1 L18.0 -6.8 18.65 -6.15 Q19.1 -5.75 19.15 -4.95 L19.25 -3.8 19.85 0.8 19.5 1.7 Q19.1 2.25 18.5 2.25 17.05 2.25 16.95 0.65 L16.95 0.2 16.85 0.4 Q16.15 2.0 15.1 2.0 14.25 2.0 13.95 1.3 L13.85 0.6 Q13.85 -0.05 14.65 -1.65 14.65 -2.2 13.85 -3.35 13.0 -4.5 13.0 -5.4 L13.2 -6.3 Q13.2 -6.8 12.4 -7.65 11.45 -8.65 11.0 -10.15 L10.1 -11.0 Q9.4 -11.45 9.35 -11.9 L9.2 -12.7 8.9 -12.35 Q8.45 -12.1 8.6 -11.25 8.75 -9.6 7.35 -9.6 6.3 -9.6 5.5 -11.65 4.7 -13.7 3.3 -13.7 2.7 -13.7 2.5 -12.7 2.3 -11.75 1.35 -11.75 L0.6 -12.0 0.7 -10.45 Q0.5 -9.1 -0.75 -9.1 -1.3 -9.1 -1.65 -9.35 L-2.5 -9.1 Q-2.9 -9.1 -4.35 -9.85 -5.75 -10.65 -7.7 -10.65 L-8.7 -9.9 -9.8 -9.15 -10.4 -9.05 -10.4 -9.0 Q-10.15 -8.55 -10.25 -8.35 L-8.9 -9.25 Q-8.1 -9.75 -7.45 -9.75 -6.75 -9.75 -6.45 -9.15 L-6.25 -8.5 Q-6.25 -7.75 -8.35 -6.3 L-11.75 -4.1 Q-10.95 -4.3 -10.5 -3.5 -10.15 -2.85 -10.15 -2.3 -10.15 -0.85 -11.4 -0.85 -11.8 -0.85 -13.05 -1.6 L-13.9 -1.65 -14.7 -1.75 -15.9 -2.8 -16.15 -3.65 -15.9 -4.25 -14.9 -5.3 -14.55 -5.95 -14.25 -6.9 -13.65 -8.35 -12.95 -9.2 -13.05 -9.5 -13.05 -10.5 Q-14.2 -10.3 -14.7 -10.95 L-15.0 -11.8 Q-15.0 -12.9 -12.6 -13.55 -9.15 -14.45 -8.4 -14.9 L-7.0 -16.0 -6.05 -17.15 Q-5.0 -18.15 -4.35 -17.35 -3.9 -16.75 -3.9 -16.0 L-4.2 -15.05 -4.15 -14.25 Q-4.15 -13.75 -4.55 -13.2 L-2.05 -12.5 Q-1.8 -16.0 -0.25 -16.0 L1.2 -15.45 Q1.6 -15.45 1.95 -17.1 M8.35 -6.25 Q8.35 -5.15 7.1 -3.8 L12.85 -3.5 Q13.6 -3.2 13.6 -2.4 13.6 -1.0 10.75 -0.2 L5.6 0.8 6.35 2.3 6.5 3.4 Q6.5 5.25 5.15 5.25 3.45 5.25 3.05 2.4 L2.25 4.85 Q1.4 6.75 0.2 6.75 -1.0 6.75 -1.25 5.65 L-1.25 4.45 Q-1.95 5.15 -2.7 5.15 -4.1 5.15 -4.15 3.9 L-3.3 2.35 Q-6.05 2.65 -6.9 1.9 -7.25 1.55 -7.25 0.7 -7.25 -0.35 -6.35 -1.05 -5.5 -1.75 -5.5 -2.4 -5.5 -3.65 -4.25 -3.75 L-1.55 -3.8 Q-3.5 -6.3 -3.5 -7.0 L-3.25 -7.75 Q-2.9 -8.25 -2.2 -8.25 -0.9 -8.25 0.2 -7.2 1.2 -6.25 1.25 -5.2 L1.3 -5.15 2.0 -7.0 Q2.8 -8.6 3.75 -8.6 5.0 -8.6 5.0 -7.0 L5.05 -6.95 Q6.65 -9.8 7.65 -8.7 8.35 -7.85 8.35 -6.25 M12.75 5.5 L14.2 5.4 Q15.7 5.4 16.25 6.2 L16.5 7.0 Q16.5 7.45 15.65 8.5 14.55 9.75 13.35 9.75 12.6 9.75 12.25 9.15 L12.05 8.4 Q7.15 11.25 5.4 13.7 5.85 13.95 6.1 14.5 L6.35 15.15 6.05 15.95 Q5.65 16.4 4.95 16.4 L3.85 16.1 3.45 16.3 2.85 16.5 Q1.95 16.5 0.5 13.15 0.5 12.6 0.8 12.25 1.2 11.8 2.4 11.3 L3.05 10.35 3.55 9.25 4.5 7.1 Q5.45 5.4 6.65 5.4 7.7 5.4 7.95 6.1 8.55 4.95 10.75 4.15 13.1 3.3 12.75 5.45 L12.75 5.5 M0.1 19.0 Q-0.75 19.9 -1.7 19.9 -3.45 19.9 -5.0 19.2 L-7.45 18.0 -9.7 17.05 -12.15 15.95 Q-17.15 13.2 -17.15 10.3 L-16.55 8.9 Q-15.85 7.7 -15.15 7.65 -13.45 7.85 -12.4 8.75 L-11.55 9.7 -11.7 9.35 Q-12.05 8.85 -14.15 7.25 -16.0 5.9 -16.0 5.3 -16.0 5.0 -15.45 4.6 -14.85 4.15 -14.9 3.45 L-14.7 2.25 Q-14.35 1.75 -13.45 1.75 -13.25 1.75 -12.2 2.35 -11.15 2.9 -10.35 2.9 -9.7 2.9 -8.2 4.5 -7.1 5.7 -6.55 6.55 L-5.15 8.35 Q-4.25 9.65 -4.25 10.4 -4.25 10.9 -4.6 11.25 -5.15 11.8 -6.3 11.5 -6.65 12.55 -7.3 13.0 L-6.95 13.25 Q-6.05 13.9 -4.4 14.3 -4.1 14.35 -3.05 14.95 L-2.1 15.5 -1.6 15.35 -1.15 15.15 Q-0.1 15.15 0.85 17.65 0.85 18.2 0.1 19.0" fill="#000000" fill-opacity="0.49803922" fill-rule="evenodd" stroke="none"/>
  </g>
</svg>
