<?xml version="1.0" encoding="UTF-8" standalone="no"?>
<svg xmlns:ffdec="https://www.free-decompiler.com/flash" xmlns:xlink="http://www.w3.org/1999/xlink" ffdec:objectType="shape" height="20.45px" width="20.45px" xmlns="http://www.w3.org/2000/svg">
  <g transform="matrix(1.0, 0.0, 0.0, 1.0, 10.25, 10.2)">
    <path d="M5.25 -7.8 L4.8 -8.25 4.2 -8.7 3.55 -9.1 5.4 -8.1 6.75 -7.05 6.0 -7.2 5.95 -7.2 5.65 -7.35 5.25 -7.8 M2.65 9.7 L2.55 9.7 2.65 9.7 M7.65 6.4 L7.2 6.5 7.2 6.3 7.0 5.15 6.9 4.4 7.05 3.75 7.4 2.9 Q7.9 1.8 7.9 0.9 L7.9 0.7 7.9 0.45 8.15 0.2 8.55 -0.1 8.95 -0.35 9.15 -0.6 9.2 -0.6 9.5 -0.25 9.9 0.3 9.9 1.2 9.9 1.45 9.9 1.2 9.9 1.3 9.9 1.45 9.65 2.25 8.8 4.55 8.0 6.0 7.65 6.4 M0.3 -6.8 L2.0 -6.55 Q3.0 -6.25 3.65 -5.75 L4.7 -2.5 4.8 -1.85 3.4 -0.6 2.0 0.75 -1.95 -0.7 -2.35 -2.6 -2.85 -4.2 -1.55 -5.35 0.3 -6.8 M5.65 -6.95 L5.9 -6.85 6.9 -6.75 7.15 -6.6 Q8.2 -5.85 8.75 -4.35 9.4 -2.8 9.15 -1.0 L8.15 -0.35 7.65 -0.05 7.25 -0.35 6.9 -0.75 6.55 -0.95 5.9 -1.45 5.2 -1.8 5.2 -1.85 4.7 -4.25 4.2 -5.6 4.4 -5.85 5.0 -6.25 5.65 -6.95 M-7.6 -6.2 L-7.35 -6.05 -7.2 -5.95 -7.2 -5.25 -6.85 -4.35 -6.8 -4.1 -7.5 -2.6 -7.85 -0.8 -7.8 0.15 -8.55 0.55 -9.0 1.05 -9.2 1.3 -9.35 1.5 -9.7 1.65 Q-10.05 -0.7 -9.35 -2.85 -8.8 -4.7 -7.6 -6.2 M-0.75 -9.05 L-0.55 -9.05 -0.35 -8.25 -0.2 -7.2 -2.3 -5.8 -3.05 -4.85 -3.3 -4.55 -4.95 -4.35 -6.35 -4.1 -6.6 -5.3 -6.85 -6.25 -6.5 -6.6 -6.2 -6.85 -5.85 -7.1 -4.95 -8.2 -0.75 -9.05 M-4.7 -8.55 L-4.55 -8.6 -4.05 -8.85 Q-2.85 -9.45 -1.35 -9.6 0.4 -9.95 1.9 -9.6 L-0.85 -9.35 -3.35 -8.95 -3.7 -8.8 -4.7 -8.55 M-5.85 7.3 L-5.6 7.5 -5.1 8.2 -4.55 8.7 Q-5.95 8.15 -7.35 6.65 L-6.5 7.05 -5.85 7.3 M-4.45 1.75 L-3.5 1.15 -2.6 0.45 -2.1 -0.2 -0.05 0.4 2.0 1.15 2.25 2.45 2.55 3.95 2.7 4.45 2.75 4.9 2.45 5.5 1.9 6.05 1.45 6.45 1.15 6.75 0.25 7.25 0.15 7.4 -0.45 7.4 -0.95 7.3 -1.1 7.2 -3.85 6.3 -5.05 2.2 -4.45 1.75 M-6.1 1.95 L-5.5 2.4 -4.95 4.7 -4.25 6.45 -4.75 6.95 -5.25 7.4 -6.1 6.9 -6.85 6.45 -7.5 6.15 -7.6 6.15 -7.85 5.75 -8.35 5.15 -9.05 3.9 -9.1 3.25 -9.1 2.5 -9.1 1.9 -9.1 1.7 -9.1 1.65 -8.35 0.9 Q-8.05 0.55 -7.6 0.45 L-7.6 0.55 -7.2 1.0 -6.75 1.4 -6.1 1.95 M6.55 4.55 L6.65 5.45 6.65 6.9 Q5.4 7.7 4.5 8.45 L4.15 8.75 Q3.4 8.9 2.5 9.2 1.4 9.55 1.4 9.7 L1.0 9.55 0.65 9.4 0.2 8.55 0.0 8.0 1.55 6.95 Q3.15 5.75 3.15 5.15 L4.9 5.0 6.55 4.55 M2.9 9.65 L2.75 9.65 3.05 9.5 2.9 9.65 M1.4 9.8 L0.0 9.9 -1.45 9.75 1.4 9.8" fill="#ffffff" fill-rule="evenodd" stroke="none"/>
    <path d="M5.25 -7.8 L5.65 -7.35 5.95 -7.2 6.0 -7.2 6.75 -7.05 5.4 -8.1 3.55 -9.1 4.2 -8.7 4.8 -8.25 5.25 -7.8 M-1.95 -9.75 L-0.85 -10.0 0.9 -10.0 0.9 -9.95 1.75 -9.8 4.15 -9.1 Q5.8 -8.35 7.05 -7.1 9.4 -4.85 10.0 -1.0 L9.95 1.05 Q9.4 4.9 7.15 7.15 L7.15 7.2 Q5.75 8.5 3.9 9.25 L3.25 9.5 2.9 9.65 3.05 9.5 2.75 9.65 2.7 9.65 2.65 9.7 2.55 9.7 2.45 9.7 1.7 9.9 1.15 10.0 0.25 10.0 -0.5 10.0 -1.05 10.0 -1.45 9.95 -1.6 9.95 -1.8 9.9 -4.6 8.9 Q-7.45 7.5 -8.85 4.7 L-9.8 2.15 -9.8 1.95 -10.0 1.15 -10.0 0.3 -10.0 -0.45 -10.0 -1.0 -9.85 -1.6 Q-9.35 -4.0 -8.2 -5.7 L-7.7 -6.35 -7.1 -7.05 -6.75 -7.35 -6.7 -7.45 -5.2 -8.55 Q-3.85 -9.35 -2.1 -9.75 L-1.95 -9.75 -0.05 -9.95 1.75 -9.8 -0.05 -9.95 -1.95 -9.75 M5.65 -6.95 L5.0 -6.25 4.4 -5.85 4.2 -5.6 4.7 -4.25 5.2 -1.85 5.2 -1.8 5.9 -1.45 6.55 -0.95 6.9 -0.75 7.25 -0.35 7.65 -0.05 8.15 -0.35 9.15 -1.0 Q9.4 -2.8 8.75 -4.35 8.2 -5.85 7.15 -6.6 L6.9 -6.75 5.9 -6.85 5.65 -6.95 M0.3 -6.8 L-1.55 -5.35 -2.85 -4.2 -2.35 -2.6 -1.95 -0.7 2.0 0.75 3.4 -0.6 4.8 -1.85 4.7 -2.5 3.65 -5.75 Q3.0 -6.25 2.0 -6.55 L0.3 -6.8 M9.9 1.2 L9.9 0.3 9.5 -0.25 9.2 -0.6 9.15 -0.6 8.95 -0.35 8.55 -0.1 8.15 0.2 7.9 0.45 7.9 0.7 7.9 0.9 Q7.9 1.8 7.4 2.9 L7.05 3.75 6.9 4.4 7.0 5.15 7.2 6.3 7.2 6.5 7.65 6.4 8.0 6.0 8.8 4.55 9.65 2.25 9.9 1.45 9.9 1.3 9.9 1.2 9.95 0.05 Q9.95 -4.1 7.0 -7.05 5.7 -8.35 4.15 -9.1 5.7 -8.35 7.0 -7.05 9.95 -4.1 9.95 0.05 L9.9 1.2 M-4.7 -8.55 L-3.7 -8.8 -3.35 -8.95 -0.85 -9.35 1.9 -9.6 Q0.4 -9.95 -1.35 -9.6 -2.85 -9.45 -4.05 -8.85 L-4.55 -8.6 -4.7 -8.55 M-0.75 -9.05 L-4.95 -8.2 -5.85 -7.1 -6.2 -6.85 -6.5 -6.6 -6.85 -6.25 -6.6 -5.3 -6.35 -4.1 -4.95 -4.35 -3.3 -4.55 -3.05 -4.85 -2.3 -5.8 -0.2 -7.2 -0.35 -8.25 -0.55 -9.05 -0.75 -9.05 M-7.6 -6.2 Q-8.8 -4.7 -9.35 -2.85 -10.05 -0.7 -9.7 1.65 L-9.35 1.5 -9.2 1.3 -9.0 1.05 -8.55 0.55 -7.8 0.15 -7.85 -0.8 -7.5 -2.6 -6.8 -4.1 -6.85 -4.35 -7.2 -5.25 -7.2 -5.95 -7.35 -6.05 -7.6 -6.2 M-9.85 -1.6 L-10.0 -0.45 -9.85 -1.6 M-6.1 1.95 L-6.75 1.4 -7.2 1.0 -7.6 0.55 -7.6 0.45 Q-8.05 0.55 -8.35 0.9 L-9.1 1.65 -9.1 1.7 -9.1 1.9 -9.1 2.5 -9.1 3.25 -9.05 3.9 -8.35 5.15 -7.85 5.75 -7.6 6.15 -7.5 6.15 -6.85 6.45 -6.1 6.9 -5.25 7.4 -4.75 6.95 -4.25 6.45 -4.95 4.7 -5.5 2.4 -6.1 1.95 M-4.45 1.75 L-5.05 2.2 -3.85 6.3 -1.1 7.2 -0.95 7.3 -0.45 7.4 0.15 7.4 0.25 7.25 1.15 6.75 1.45 6.45 1.9 6.05 2.45 5.5 2.75 4.9 2.7 4.45 2.55 3.95 2.25 2.45 2.0 1.15 -0.05 0.4 -2.1 -0.2 -2.6 0.45 -3.5 1.15 -4.45 1.75 M-5.85 7.3 L-6.5 7.05 -7.35 6.65 Q-5.95 8.15 -4.55 8.7 L-5.1 8.2 -5.6 7.5 -5.85 7.3 M-1.45 9.95 L-0.5 10.0 -1.45 9.95 M-8.85 4.7 L-7.1 7.05 -4.6 8.9 -7.1 7.05 -8.85 4.7 M-10.0 0.3 L-9.8 1.95 -10.0 0.3 M8.0 6.0 Q9.5 3.95 9.9 1.45 9.5 3.95 8.0 6.0 M6.55 4.55 L4.9 5.0 3.15 5.15 Q3.15 5.75 1.55 6.95 L0.0 8.0 0.2 8.55 0.65 9.4 1.0 9.55 1.4 9.7 Q1.4 9.55 2.5 9.2 3.4 8.9 4.15 8.75 L4.5 8.45 Q5.4 7.7 6.65 6.9 L6.65 5.45 6.55 4.55 M3.9 9.25 Q5.65 8.5 7.0 7.05 L7.65 6.4 7.0 7.05 Q5.65 8.5 3.9 9.25 M1.4 9.8 L-1.45 9.75 0.0 9.9 1.4 9.8 M0.25 10.0 L2.45 9.7 0.25 10.0" fill="#000000" fill-rule="evenodd" stroke="none"/>
    <path d="M1.75 -9.8 L4.15 -9.1 Q5.7 -8.35 7.0 -7.05 9.95 -4.1 9.95 0.05 L9.9 1.2 9.9 1.45 Q9.5 3.95 8.0 6.0 L7.65 6.4 7.0 7.05 Q5.65 8.5 3.9 9.25 L3.25 9.5 M2.9 9.65 L2.65 9.7 2.55 9.7 2.45 9.7 0.25 10.0 -0.5 10.0 -1.45 9.95 -1.6 9.95 -1.8 9.9 -4.6 8.9 -7.1 7.05 -8.85 4.7 -9.8 2.15 -9.8 1.95 -10.0 0.3 -10.0 -0.45 -9.85 -1.6 Q-9.35 -4.0 -8.2 -5.7 L-7.7 -6.35 -7.1 -7.05 -6.75 -7.35 -6.7 -7.45 -5.2 -8.55 Q-3.85 -9.35 -2.1 -9.75 L-1.95 -9.75 -0.05 -9.95 1.75 -9.8" ffdec:has-small-stroke="true" ffdec:original-stroke-width="0.5" fill="none" stroke="#000000" stroke-linecap="round" stroke-linejoin="round" stroke-width="1.0"/>
  </g>
</svg>
