<?xml version="1.0" encoding="UTF-8" standalone="no"?>
<svg xmlns:ffdec="https://www.free-decompiler.com/flash" xmlns:xlink="http://www.w3.org/1999/xlink" ffdec:objectType="morphshape" height="47.9px" width="47.9px" xmlns="http://www.w3.org/2000/svg">
  <g transform="matrix(1.0, 0.0, 0.0, 1.0, 23.95, 23.95)">
    <path d="M-3.0 0.0 Q-3.0 1.25 -2.1 2.1 -1.25 3.0 0.0 3.0 1.25 3.0 2.1 2.1 3.0 1.25 3.0 0.0 3.0 -1.25 2.1 -2.1 1.25 -3.0 0.0 -3.0 -1.25 -3.0 -2.1 -2.1 -3.0 -1.25 -3.0 0.0 M-8.0 0.0 Q-8.0 3.3 -5.65 5.65 -3.3 8.0 0.0 8.0 3.3 8.0 5.65 5.65 8.0 3.3 8.0 0.0 8.0 -3.3 5.65 -5.65 3.3 -8.0 0.0 -8.0 -3.3 -8.0 -5.65 -5.65 -8.0 -3.3 -8.0 0.0" fill="#ffffff" fill-rule="evenodd" stroke="none">
      <animate attributeName="fill" dur="2.0s" repeatCount="indefinite" values="#ffffff;#ffffff"/>
      <animate attributeName="fill-opacity" dur="2.0s" repeatCount="indefinite" values="1.0;0.047058824"/>
      <animate attributeName="d" dur="2.0s" repeatCount="indefinite" values="M-3.0 0.0 Q-3.0 1.25 -2.1 2.1 -1.25 3.0 0.0 3.0 1.25 3.0 2.1 2.1 3.0 1.25 3.0 0.0 3.0 -1.25 2.1 -2.1 1.25 -3.0 0.0 -3.0 -1.25 -3.0 -2.1 -2.1 -3.0 -1.25 -3.0 0.0 M-8.0 0.0 Q-8.0 3.3 -5.65 5.65 -3.3 8.0 0.0 8.0 3.3 8.0 5.65 5.65 8.0 3.3 8.0 0.0 8.0 -3.3 5.65 -5.65 3.3 -8.0 0.0 -8.0 -3.3 -8.0 -5.65 -5.65 -8.0 -3.3 -8.0 0.0;M-18.95 0.0 Q-18.95 7.85 -13.4 13.35 -7.85 18.95 0.0 18.95 7.85 18.95 13.35 13.35 18.95 7.85 18.95 0.0 18.95 -7.85 13.35 -13.4 7.85 -18.95 0.0 -18.95 -7.85 -18.95 -13.4 -13.4 -18.95 -7.85 -18.95 0.0 M-23.95 0.0 Q-23.95 9.9 -16.95 16.9 -9.9 23.95 0.0 23.95 9.9 23.95 16.9 16.9 23.95 9.9 23.95 0.0 23.95 -9.9 16.9 -16.95 9.9 -23.95 0.0 -23.95 -9.9 -23.95 -16.95 -16.95 -23.95 -9.9 -23.95 0.0"/>
    </path>
    <path d="M-8.0 0.0 Q-8.0 -3.3 -5.65 -5.65 -3.3 -8.0 0.0 -8.0 3.3 -8.0 5.65 -5.65 8.0 -3.3 8.0 0.0 8.0 3.3 5.65 5.65 3.3 8.0 0.0 8.0 -3.3 8.0 -5.65 5.65 -8.0 3.3 -8.0 0.0 M-3.0 0.0 Q-3.0 -1.25 -2.1 -2.1 -1.25 -3.0 0.0 -3.0 1.25 -3.0 2.1 -2.1 3.0 -1.25 3.0 0.0 3.0 1.25 2.1 2.1 1.25 3.0 0.0 3.0 -1.25 3.0 -2.1 2.1 -3.0 1.25 -3.0 0.0 Z" fill="none" stroke="#000000" stroke-linecap="round" stroke-linejoin="round" stroke-opacity="0.0" stroke-width="0.0">
      <animate attributeName="stroke" dur="2.0s" repeatCount="indefinite" values="#000000;#000001"/>
      <animate attributeName="stroke-width" dur="2.0s" repeatCount="indefinite" values="0.0;0.0"/>
      <animate attributeName="fill-opacity" dur="2.0s" repeatCount="indefinite" values="0.0;0.0"/>
      <animate attributeName="d" dur="2.0s" repeatCount="indefinite" values="M-8.0 0.0 Q-8.0 -3.3 -5.65 -5.65 -3.3 -8.0 0.0 -8.0 3.3 -8.0 5.65 -5.65 8.0 -3.3 8.0 0.0 8.0 3.3 5.65 5.65 3.3 8.0 0.0 8.0 -3.3 8.0 -5.65 5.65 -8.0 3.3 -8.0 0.0 M-3.0 0.0 Q-3.0 -1.25 -2.1 -2.1 -1.25 -3.0 0.0 -3.0 1.25 -3.0 2.1 -2.1 3.0 -1.25 3.0 0.0 3.0 1.25 2.1 2.1 1.25 3.0 0.0 3.0 -1.25 3.0 -2.1 2.1 -3.0 1.25 -3.0 0.0 Z;M-23.95 0.0 Q-23.95 -9.9 -16.95 -16.95 -9.9 -23.95 0.0 -23.95 9.9 -23.95 16.9 -16.95 23.95 -9.9 23.95 0.0 23.95 9.9 16.9 16.9 9.9 23.95 0.0 23.95 -9.9 23.95 -16.95 16.9 -23.95 9.9 -23.95 0.0 M-18.95 0.0 Q-18.95 -7.85 -13.4 -13.4 -7.85 -18.95 0.0 -18.95 7.85 -18.95 13.35 -13.4 18.95 -7.85 18.95 0.0 18.95 7.85 13.35 13.35 7.85 18.95 0.0 18.95 -7.85 18.95 -13.4 13.35 -18.95 7.85 -18.95 0.0 Z"/>
    </path>
  </g>
</svg>
