<?xml version="1.0" encoding="UTF-8" standalone="no"?>
<svg xmlns:ffdec="https://www.free-decompiler.com/flash" xmlns:xlink="http://www.w3.org/1999/xlink" ffdec:objectType="morphshape" height="62.0px" width="62.0px" xmlns="http://www.w3.org/2000/svg">
  <g transform="matrix(1.0, 0.0, 0.0, 1.0, 31.0, 31.0)">
    <path d="M-30.0 0.0 Q-30.0 -12.4 -21.2 -21.2 -12.45 -30.0 0.0 -30.0 12.45 -30.0 21.25 -21.2 30.0 -12.4 30.0 0.0 30.0 12.4 21.25 21.2 12.45 30.0 0.0 30.0 -12.45 30.0 -21.2 21.2 -30.0 12.4 -30.0 0.0 -30.0 -12.4 -21.2 -21.2 -12.45 -30.0 0.0 -30.0 12.45 -30.0 21.25 -21.2 30.0 -12.4 30.0 0.0 30.0 12.4 21.25 21.2 12.45 30.0 0.0 30.0 -12.45 30.0 -21.2 21.2 -30.0 12.4 -30.0 0.0 Z" fill="none" stroke="#cccccc" stroke-linecap="round" stroke-linejoin="round" stroke-opacity="0.0" stroke-width="2.0">
      <animate attributeName="stroke" dur="2.0s" repeatCount="indefinite" values="#cccccc;#cccccd"/>
      <animate attributeName="stroke-width" dur="2.0s" repeatCount="indefinite" values="2.0;2.0"/>
      <animate attributeName="fill-opacity" dur="2.0s" repeatCount="indefinite" values="0.0;1.0"/>
      <animate attributeName="d" dur="2.0s" repeatCount="indefinite" values="M-30.0 0.0 Q-30.0 -12.4 -21.2 -21.2 -12.45 -30.0 0.0 -30.0 12.45 -30.0 21.25 -21.2 30.0 -12.4 30.0 0.0 30.0 12.4 21.25 21.2 12.45 30.0 0.0 30.0 -12.45 30.0 -21.2 21.2 -30.0 12.4 -30.0 0.0 -30.0 -12.4 -21.2 -21.2 -12.45 -30.0 0.0 -30.0 12.45 -30.0 21.25 -21.2 30.0 -12.4 30.0 0.0 30.0 12.4 21.25 21.2 12.45 30.0 0.0 30.0 -12.45 30.0 -21.2 21.2 -30.0 12.4 -30.0 0.0 Z;M-30.0 0.0 Q-30.0 -12.4 -21.2 -21.2 -12.45 -30.0 0.0 -30.0 12.45 -30.0 21.25 -21.2 30.0 -12.4 30.0 0.0 30.0 12.4 21.25 21.2 12.45 30.0 0.0 30.0 -12.45 30.0 -21.2 21.2 -30.0 12.4 -30.0 0.0 -30.0 -12.4 -21.2 -21.2 -12.45 -30.0 0.0 -30.0 12.45 -30.0 21.25 -21.2 30.0 -12.4 30.0 0.0 30.0 12.4 21.25 21.2 12.45 30.0 0.0 30.0 -12.45 30.0 -21.2 21.2 -30.0 12.4 -30.0 0.0 Z"/>
    </path>
  </g>
</svg>
