<?xml version="1.0" encoding="UTF-8" standalone="no"?>
<svg xmlns:ffdec="https://www.free-decompiler.com/flash" xmlns:xlink="http://www.w3.org/1999/xlink" ffdec:objectType="morphshape" height="47.9px" width="47.9px" xmlns="http://www.w3.org/2000/svg">
  <g transform="matrix(1.0, 0.0, 0.0, 1.0, 23.95, 23.95)">
    <path d="M-10.0 0.0 Q-10.0 4.15 -7.05 7.0 -4.15 10.0 0.0 10.0 4.15 10.0 7.0 7.0 10.0 4.15 10.0 0.0 10.0 -4.15 7.0 -7.05 4.15 -10.0 0.0 -10.0 -4.15 -10.0 -7.05 -7.05 -10.0 -4.15 -10.0 0.0 M-15.0 0.0 Q-15.0 6.2 -10.6 10.55 -6.2 15.0 0.0 15.0 6.2 15.0 10.55 10.55 15.0 6.2 15.0 0.0 15.0 -6.2 10.55 -10.6 6.2 -15.0 0.0 -15.0 -6.2 -15.0 -10.6 -10.6 -15.0 -6.2 -15.0 0.0" fill="#00cc00" fill-opacity="0.5764706" fill-rule="evenodd" stroke="none">
      <animate attributeName="fill" dur="2.0s" repeatCount="indefinite" values="#00cc00;#00cc01"/>
      <animate attributeName="fill-opacity" dur="2.0s" repeatCount="indefinite" values="0.5764706;0.047058824"/>
      <animate attributeName="d" dur="2.0s" repeatCount="indefinite" values="M-10.0 0.0 Q-10.0 4.15 -7.05 7.0 -4.15 10.0 0.0 10.0 4.15 10.0 7.0 7.0 10.0 4.15 10.0 0.0 10.0 -4.15 7.0 -7.05 4.15 -10.0 0.0 -10.0 -4.15 -10.0 -7.05 -7.05 -10.0 -4.15 -10.0 0.0 M-15.0 0.0 Q-15.0 6.2 -10.6 10.55 -6.2 15.0 0.0 15.0 6.2 15.0 10.55 10.55 15.0 6.2 15.0 0.0 15.0 -6.2 10.55 -10.6 6.2 -15.0 0.0 -15.0 -6.2 -15.0 -10.6 -10.6 -15.0 -6.2 -15.0 0.0;M-18.95 0.0 Q-18.95 7.85 -13.4 13.35 -7.85 18.95 0.0 18.95 7.85 18.95 13.35 13.35 18.95 7.85 18.95 0.0 18.95 -7.85 13.35 -13.4 7.85 -18.95 0.0 -18.95 -7.85 -18.95 -13.4 -13.4 -18.95 -7.85 -18.95 0.0 M-23.95 0.0 Q-23.95 9.9 -16.95 16.9 -9.9 23.95 0.0 23.95 9.9 23.95 16.9 16.9 23.95 9.9 23.95 0.0 23.95 -9.9 16.9 -16.95 9.9 -23.95 0.0 -23.95 -9.9 -23.95 -16.95 -16.95 -23.95 -9.9 -23.95 0.0"/>
    </path>
    <path d="M-15.0 0.0 Q-15.0 -6.2 -10.6 -10.6 -6.2 -15.0 0.0 -15.0 6.2 -15.0 10.55 -10.6 15.0 -6.2 15.0 0.0 15.0 6.2 10.55 10.55 6.2 15.0 0.0 15.0 -6.2 15.0 -10.6 10.55 -15.0 6.2 -15.0 0.0 M-10.0 0.0 Q-10.0 -4.15 -7.05 -7.05 -4.15 -10.0 0.0 -10.0 4.15 -10.0 7.0 -7.05 10.0 -4.15 10.0 0.0 10.0 4.15 7.0 7.0 4.15 10.0 0.0 10.0 -4.15 10.0 -7.05 7.0 -10.0 4.15 -10.0 0.0 Z" fill="none" stroke="#000000" stroke-linecap="round" stroke-linejoin="round" stroke-opacity="0.0" stroke-width="0.0">
      <animate attributeName="stroke" dur="2.0s" repeatCount="indefinite" values="#000000;#000001"/>
      <animate attributeName="stroke-width" dur="2.0s" repeatCount="indefinite" values="0.0;0.0"/>
      <animate attributeName="fill-opacity" dur="2.0s" repeatCount="indefinite" values="0.0;0.0"/>
      <animate attributeName="d" dur="2.0s" repeatCount="indefinite" values="M-15.0 0.0 Q-15.0 -6.2 -10.6 -10.6 -6.2 -15.0 0.0 -15.0 6.2 -15.0 10.55 -10.6 15.0 -6.2 15.0 0.0 15.0 6.2 10.55 10.55 6.2 15.0 0.0 15.0 -6.2 15.0 -10.6 10.55 -15.0 6.2 -15.0 0.0 M-10.0 0.0 Q-10.0 -4.15 -7.05 -7.05 -4.15 -10.0 0.0 -10.0 4.15 -10.0 7.0 -7.05 10.0 -4.15 10.0 0.0 10.0 4.15 7.0 7.0 4.15 10.0 0.0 10.0 -4.15 10.0 -7.05 7.0 -10.0 4.15 -10.0 0.0 Z;M-23.95 0.0 Q-23.95 -9.9 -16.95 -16.95 -9.9 -23.95 0.0 -23.95 9.9 -23.95 16.9 -16.95 23.95 -9.9 23.95 0.0 23.95 9.9 16.9 16.9 9.9 23.95 0.0 23.95 -9.9 23.95 -16.95 16.9 -23.95 9.9 -23.95 0.0 M-18.95 0.0 Q-18.95 -7.85 -13.4 -13.4 -7.85 -18.95 0.0 -18.95 7.85 -18.95 13.35 -13.4 18.95 -7.85 18.95 0.0 18.95 7.85 13.35 13.35 7.85 18.95 0.0 18.95 -7.85 18.95 -13.4 13.35 -18.95 7.85 -18.95 0.0 Z"/>
    </path>
  </g>
</svg>
